<?xml version="1.0" encoding="utf-8"?>
<!-- Generator: Adobe Illustrator 15.1.0, SVG Export Plug-In . SVG Version: 6.00 Build 0)  -->
<!DOCTYPE svg PUBLIC "-//W3C//DTD SVG 1.1//EN" "http://www.w3.org/Graphics/SVG/1.1/DTD/svg11.dtd">
<svg version="1.1" id="Layer_1" xmlns="http://www.w3.org/2000/svg" xmlns:xlink="http://www.w3.org/1999/xlink" x="0px" y="0px"
	 width="245.988px" height="245.988px" viewBox="0 0 245.988 245.988" enable-background="new 0 0 245.988 245.988"
	 xml:space="preserve">
<g id="aAgu5t.tif">
	<g>
		<path fill-rule="evenodd" clip-rule="evenodd" fill="#C0392B" d="M154.81,233.483c-3.788-4.702-2.302-12.433-2.302-19.569
			c0-14.88,0.632-27.936-5.181-36.835c-0.881-1.35-2.476-2.728-2.302-4.603c33.279-1.112,54.678-22.666,54.678-58.132
			c0-14.411-5.87-24.853-12.662-33.958c4.154-8.29,2.524-24.305-1.728-31.079c-14.723,0.433-23.129,7.182-32.806,12.662
			c-16.805-5.126-43.143-5.446-59.858,0c-10.169-4.987-18.163-12.15-32.806-12.662c-5.289,5.895-6.262,22.849-2.302,31.079
			c-6.558,9.561-12.414,17.917-12.662,32.807c-0.599,35.95,20.393,57.093,54.102,59.858c2.732,0.376-1.723,2.12-1.726,3.451
			c-2.382,3.374-4.048,7.464-4.605,12.662c-7.861,3.647-18.921,3.953-25.324,0.576c-11.671-6.154-15.341-28.015-33.958-21.869
			c0.761,5.851,6.771,6.392,10.359,10.358c4.41,4.875,6.048,11.764,9.785,17.267c7.493,11.035,19.832,13.241,38.562,10.36
			c-0.997,8.979,2.306,22.258-2.302,27.626c-7.302,1.291-14.369-2.342-20.144-5.18C32.059,209.837-2.057,170.316,1.138,112.618
			C2.969,79.55,17.649,54.254,35.671,35.494c17.939-18.673,45.392-33.457,77.7-35.685c39.169-2.7,69.209,12.429,90.36,31.08
			c21.012,18.527,37.54,46.18,39.714,81.153c3.148,50.69-22.857,86.154-52.376,106.477c-5.068,3.489-10.604,6.837-16.689,9.784
			C168.754,231.027,162.098,235.125,154.81,233.483z"/>
		<path fill-rule="evenodd" clip-rule="evenodd" fill="#C0392B" d="M47.182,172.476c-1.103,1.032-3.543,0.161-3.454-1.728
			C45.044,169.502,47.32,170.54,47.182,172.476z"/>
		<path fill-rule="evenodd" clip-rule="evenodd" fill="#C0392B" d="M48.909,174.201c2.629-0.41,4.294,2.192,2.877,4.029
			C49.635,178.079,48.429,176.983,48.909,174.201z"/>
		<path fill-rule="evenodd" clip-rule="evenodd" fill="#C0392B" d="M53.513,180.533c2.888-0.394,3.604,1.384,4.029,3.452
			C55.37,185.594,52.67,183.754,53.513,180.533z"/>
		<path fill-rule="evenodd" clip-rule="evenodd" fill="#C0392B" d="M59.268,187.439c3.178-0.491,4.234,1.138,4.604,3.453
			C61.582,192.47,58.276,190.97,59.268,187.439z"/>
		<path fill-rule="evenodd" clip-rule="evenodd" fill="#C0392B" d="M72.506,195.497c-1.331,1.161-4.415,0.588-5.18-0.575
			c0-0.577,0-1.152,0-1.727C69.254,191.83,72.775,192.851,72.506,195.497z"/>
		<path fill-rule="evenodd" clip-rule="evenodd" fill="#C0392B" d="M91.499,194.344c-0.049,2.574-3.312,2.57-5.18,1.728
			C85.469,192.19,90.736,191.92,91.499,194.344z"/>
		<path fill-rule="evenodd" clip-rule="evenodd" fill="#C0392B" d="M82.291,195.497c0.152,2.775-3.312,2.569-5.18,1.727
			C76.355,193.246,81.291,193.306,82.291,195.497z"/>
	</g>
</g>
</svg>
