<?xml version="1.0" encoding="utf-8"?>
<!-- Generator: Adobe Illustrator 15.1.0, SVG Export Plug-In . SVG Version: 6.00 Build 0)  -->
<!DOCTYPE svg PUBLIC "-//W3C//DTD SVG 1.1//EN" "http://www.w3.org/Graphics/SVG/1.1/DTD/svg11.dtd">
<svg version="1.1" id="Layer_1" xmlns="http://www.w3.org/2000/svg" xmlns:xlink="http://www.w3.org/1999/xlink" x="0px" y="0px"
	 width="245.988px" height="245.988px" viewBox="0 0 245.988 245.988" enable-background="new 0 0 245.988 245.988"
	 xml:space="preserve">
<path fill="#F84951" d="M122.994,0C55.066,0,0,55.066,0,122.994s55.066,122.994,122.994,122.994s122.994-55.066,122.994-122.994
	S190.921,0,122.994,0z M197.294,92.088c0.646,16.209-2.569,29.88-7.375,41.443c-2.422,5.833-5.112,11.27-8.287,16.25
	c-3.186,5.003-6.729,9.629-10.639,13.838c-15.65,16.845-36.666,28.962-67.679,30.348c-2.22,0-4.438,0-6.657,0
	c-20.663-0.896-36.05-7.065-49.341-15.337c0-0.021,0-0.043,0-0.063c10.618,1.316,21.062-0.239,29.173-2.808
	c8.003-2.529,15.127-6.317,20.95-10.967c0.146-0.116,0.631-0.276,0.391-0.391c-8.713-0.356-15.285-3.337-20.426-7.375
	c-5.126-4.024-9.116-9.577-11.357-16.446c4.534,0.952,10.461,0.636,14.488-0.327c0.257-0.061,0.605-0.135,0.784-0.326
	c-8.274-1.729-14.606-5.951-19.253-11.421c-4.645-5.458-8.04-12.801-8.028-22.581c4.2,2.35,9.11,3.985,15.337,4.31
	c-0.673-0.645-1.492-1.118-2.22-1.696c-2.278-1.812-4.339-3.917-6.068-6.265c-4.434-6.021-8.022-15.004-6.462-25.65
	c0.687-4.651,2.374-8.789,4.311-12.139c8.025,9.714,17.615,17.907,29.104,24.083c11.468,6.165,24.832,10.86,41.509,11.682
	c-1.354-5.428-0.965-11.979,0.326-16.771c1.312-4.864,3.646-9.167,6.33-12.468c5.613-6.891,13.499-11.815,24.801-12.792
	c1.308,0,2.611,0,3.916,0c9.572,0.824,16.771,4.438,22.125,9.79c0.396,0.397,0.773,0.932,1.109,0.979
	c0.307,0.045,1.004-0.2,1.566-0.326c7.516-1.681,14.375-4.626,20.032-7.896c-2.762,8.481-7.997,14.493-14.879,18.859
	c7.406-0.883,13.741-2.835,19.517-5.352c0,0.043,0,0.087,0,0.131C209.667,81.27,203.982,87.181,197.294,92.088z"/>
</svg>
