<?xml version="1.0" encoding="utf-8"?>
<!-- Generator: Adobe Illustrator 15.1.0, SVG Export Plug-In . SVG Version: 6.00 Build 0)  -->
<!DOCTYPE svg PUBLIC "-//W3C//DTD SVG 1.1//EN" "http://www.w3.org/Graphics/SVG/1.1/DTD/svg11.dtd">
<svg version="1.1" id="Layer_1" xmlns="http://www.w3.org/2000/svg" xmlns:xlink="http://www.w3.org/1999/xlink" x="0px" y="0px"
	 width="612px" height="792px" viewBox="0 0 612 792" enable-background="new 0 0 612 792" xml:space="preserve">
<rect x="-9.371" y="196.67" fill="#17282A" width="632.272" height="403.441"/>
<g>
	<path fill="#FFFFFF" d="M355.343,521.699c-6.216,1.435-8.319,4.925-9.802,5.785c70.906-15.443,118.336-80.229,109.252-149.414
		c-10.137-76.739-80.564-130.815-157.304-120.727c-76.739,10.088-130.815,80.612-120.679,157.303
		c6.312,47.812,37.581,88.453,82.62,107.482c4.351,1.339,13.244,0.813,20.655-1.1c-51.063-13.77-88.644-56.132-95.386-107.387
		c-9.515-72.34,41.549-138.895,113.841-148.41c72.293-9.515,138.896,41.549,148.41,113.841
		C455.223,442.282,416.781,502.383,355.343,521.699z"/>
	<path fill="#FFFFFF" d="M333.923,536.33c0.286,2.199,16.925,7.028,28.018,3.682c71.623-22.233,116.901-91.227,107.339-163.854
		c-11.235-84.915-88.787-144.441-173.703-133.253c-84.915,11.188-144.441,88.74-133.253,173.655
		c5.738,43.509,30.122,81.186,65.264,104.948l0,0l0,0c9.754,6.598,20.32,12.049,31.508,16.304c0.048,0,0.096,0.048,0.144,0.048
		c4.542,1.865,10.184,5.833,10.997,6.216c9.897,4.304,21.659,12.861,31.795,11.522c6.885-0.908,11.857-2.104,18.791-3.012
		c12.431-1.626,31.651,2.438,46.33,0.526c5.977-0.766,9.036-5.882,9.18-8.225c-6.359,1.291-8.606,2.057-17.93,2.343
		c-13.961,0.431-26.68-7.219-38.346-7.124c-4.638,0.144-11.618,0.574-11.81-0.765c-0.287-2.295,15.3-4.351,25.293-10.327
		c9.945-5.977,12.049-11.428,23.046-16.591c4.351-2.438,8.559-2.534,17.355-6.503l10.471-5.594
		c-0.047-7.459-10.136-9.419-19.315-8.224c-8.272,1.1-12.288,2.533-12.097,3.92l0.144,0.909c-3.634,0.956-15.109-4.543-26.584-3.061
		c-6.885,0.908-19.077,4.398-27.971,7.89c-8.893,3.49-27.97,8.988-32.226,11.905c-1.338,0.908,18.695,6.071,21.277,7.554
		c-0.096,0.096-2.582,0.908-5.116,1.674c-2.869,0.621-7.793,1.673-9.084,1.816c-3.155,0.431-10.71,1.1-15.061-0.238
		c-45.709-19.269-77.791-61.104-84.15-109.539c-10.327-78.317,44.562-149.844,122.878-160.172
		c78.317-10.327,149.844,44.562,160.171,122.878c9.515,72.34-41.453,139.517-116.136,153.191
		C339.995,531.691,333.684,534.752,333.923,536.33z M363.949,496.98c8.797-0.67,14.486-0.048,14.678,1.338
		c0.191,1.387-0.621,2.438-2.008,2.582c-4.59,0.622-4.494-2.199-12.957-2.486L363.949,496.98z M310.829,507.308L310.829,507.308
		c2.773-0.67,5.785-1.53,8.319-2.582c4.398-1.96,6.646-2.726,8.941-3.06c1.625-0.191,6.311-0.718,8.176,0.382
		c0.048,0.048,3.299,5.929-0.239,7.842c-2.678,1.577-6.359,3.682-12.336,4.494c-2.678,0.335-4.542-0.717-6.55-1.864l0,0
		c0,0-2.391-1.77-4.686-2.057l0,0c-0.144-0.048-0.287-0.048-0.431-0.096C310.255,509.842,310.829,507.308,310.829,507.308z"/>
</g>
<rect x="-3.06" y="395.14" fill="none" width="646.999" height="103.131"/>
<text transform="matrix(1 0 0 1 242.4775 406.3906)" fill="#FFFFFF" font-family="'AvenirNext-DemiBold'" font-size="14.8579" letter-spacing="1">DATA ARBITRAGE</text>
<image overflow="visible" width="620" height="622" xlink:href="1858B8CC.png"  transform="matrix(0.2391 0 0 0.2391 -356.1504 227.064)">
</image>
</svg>
