<svg xmlns="http://www.w3.org/2000/svg" width="800" height="600">
  <g>
    <rect fill="#fff" id="canvas_background" height="602" width="802" y="-1" x="-1"/>
    <g display="none" overflow="visible" y="0" x="0" height="100%" width="100%" id="canvasGrid">
    <rect fill="url(#gridpattern)" stroke-width="0" y="0" x="0" height="100%" width="100%"/>
    </g>
  </g>
  <g>
    <g stroke="null" id="svg_52">
    <path stroke="#000" id="svg_27" d="m11.22336,564.70085l144.48736,-404.00343l481.6245,0l144.48728,404.00343l-770.59914,0z" stroke-width="1.5" fill="#666666"/>
    <rect stroke="#000" id="svg_30" height="110.72686" width="481.81144" y="49.97056" x="154.86904" stroke-width="1.5" fill="#333333"/>
    <path stroke="#000" id="svg_36" d="m636.19795,51.90515l-0.74815,104.06361l145.14198,406.99606l-1.49631,-131.6752l-142.89751,-379.38447z" stroke-width="1.5" fill="#666666"/>
    <path stroke="#000" id="svg_38" d="m152.89013,47.41622l2.24446,111.54516l-145.14198,401.01082l-2.99262,-130.17889l145.89013,-382.3771z" stroke-width="1.5" fill="#0f0f0f"/>
    <path stroke="#000" id="svg_41" d="m450.65563,51.90515l33.66695,141.47134l0,109.23056l-41.89665,-143.64567l8.2297,-107.05623z" stroke-width="1.5" fill="#666666"/>
    <ellipse stroke="#000" ry="102.49717" rx="148.1346" id="svg_43" cy="134.9503" cx="301.02472" stroke-opacity="null" stroke-width="1.5" fill="#ffffaa"/>
    <path stroke="#000" id="svg_45" d="m486.24907,138.50035l16.71752,-60.57216l43.76679,-37.4361l54.09956,0l43.76706,37.4361l16.71724,60.57216l-16.71724,60.57216l-43.76706,37.43609l-54.09956,0l-43.76679,-37.43609l-16.71752,-60.57216z" stroke-opacity="null" stroke-width="1.5" fill="#007f00"/>
    <rect stroke="#000" id="svg_39" height="110.72686" width="583.56051" y="193.01689" x="103.99452" stroke-width="1.5" fill="#333333"/>
    <path stroke="#000" id="svg_42" d="m327.95829,194.05451l-0.74815,111.54516l-38.90404,258.86146l0,-125.68996c13.21739,-81.57222 26.4348,-163.14445 39.65219,-244.71666z" stroke-width="1.5" fill="#0f0f0f"/>
    <path stroke="#000" id="svg_50" d="m344.87782,350.55006l0,0c0,-67.76386 83.07014,-122.69733 185.54232,-122.69733l0,0c49.20886,0 96.4023,12.927 131.19821,35.93721c34.79595,23.01022 54.34411,54.21876 54.34411,86.76013l0,0c0,67.76385 -83.07014,122.69733 -185.54232,122.69733l0,0c-102.47217,0 -185.54232,-54.93348 -185.54232,-122.69733zm92.77116,0l0,0c0,33.88192 41.53509,61.34867 92.77116,61.34867c51.2361,0 92.77116,-27.46675 92.77116,-61.34867c0,-33.88192 -41.53508,-61.34867 -92.77116,-61.34867l0,0c-51.23607,0 -92.77116,27.46675 -92.77116,61.34867z" stroke-opacity="null" stroke-width="1.5" fill="#bfbf00"/>
    <g stroke="null" id="svg_51">
      <path stroke="#000" id="svg_49" d="m112.83023,267.93881l95.01562,-91.27485l95.01561,91.27485l-95.01561,91.27484l-95.01562,-91.27484z" fill-opacity="null" stroke-opacity="null" stroke-width="1.5" fill="#7f3f00"/>
      <path stroke="#000" id="svg_46" d="m87.39297,314.32438l95.01562,-91.27485l95.01562,91.27485l-95.01562,91.27485l-95.01562,-91.27485z" fill-opacity="null" stroke-opacity="null" stroke-width="1.5" fill="#7f3f00"/>
      <path stroke="#000" id="svg_47" d="m63.45203,378.66568l95.01562,-91.27485l95.01561,91.27485l-95.01561,91.27484l-95.01562,-91.27484z" fill-opacity="null" stroke-opacity="null" stroke-width="1.5" fill="#7f3f00"/>
    </g>
    <rect stroke="#000" id="svg_29" height="131.67519" width="772.09542" y="433.02567" x="9.72706" stroke-width="1.5" fill="#333333"/>
    </g>
  </g>
</svg>