<?xml version="1.0" encoding="utf-8"?>
<!-- Generator: Adobe Illustrator 15.1.0, SVG Export Plug-In . SVG Version: 6.00 Build 0)  -->
<!DOCTYPE svg PUBLIC "-//W3C//DTD SVG 1.1//EN" "http://www.w3.org/Graphics/SVG/1.1/DTD/svg11.dtd">
<svg version="1.1" id="Layer_1" xmlns="http://www.w3.org/2000/svg" xmlns:xlink="http://www.w3.org/1999/xlink" x="0px" y="0px"
	 width="872px" height="266.49px" viewBox="0 0 872 266.49" enable-background="new 0 0 872 266.49" xml:space="preserve">
<polygon fill="#E6E7E8" points="313.494,95.334 222.871,6.527 222.871,42.561 0,42.561 0,148.11 222.871,148.11 222.871,184.143 "/>
<polygon fill="#E6E7E8" points="830.654,88.807 740.031,0 740.031,36.033 517.16,36.033 517.16,141.583 740.031,141.583 
	740.031,177.616 "/>
<rect x="313.494" y="4.114" fill="#BCBEC0" width="194.805" height="138.961"/>
<polygon fill="#D1D3D4" points="283.624,178.139 545.961,178.139 508.299,143.075 313.494,143.075 "/>
<rect x="323.883" y="11.594" fill="#58595B" width="172.727" height="122.389"/>
<rect x="283.624" y="178.139" fill="#BCBEC0" width="262.337" height="9.091"/>
<path fill="#1C75BC" d="M204.132,18.825c-6.957,2.538-11.362,9.062-10.859,16.213l0.167,2.76l-2.788-0.334
	c-10.135-1.297-18.987-5.688-26.5-13.062l-3.681-3.652l-0.947,2.704c-2.007,6.022-0.725,12.379,3.457,16.659
	c2.23,2.37,1.729,2.705-2.119,1.296c-1.338-0.445-2.509-0.78-2.621-0.613c-0.39,0.39,0.948,5.52,2.007,7.542
	c1.45,2.816,4.391,5.576,7.625,7.207l2.732,1.296l-3.234,0.055c-3.123,0-3.234,0.056-2.899,1.242
	c1.115,3.651,5.506,7.541,10.414,9.228l3.457,1.185l-3.011,1.798c-4.447,2.593-9.688,4.057-14.916,4.168
	c-2.509,0.055-4.573,0.279-4.573,0.446c0,0.557,6.789,3.708,10.749,4.948c11.863,3.653,25.943,2.077,36.523-4.167
	c7.514-4.447,15.027-13.286,18.541-21.844c1.896-4.559,3.792-12.895,3.792-16.882c0-2.593,0.167-2.928,3.289-6.022
	c1.84-1.799,3.569-3.764,3.904-4.335c0.558-1.074,0.502-1.074-2.342-0.112c-4.726,1.688-5.409,1.464-3.067-1.073
	c1.729-1.798,3.792-5.06,3.792-6.022c0-0.167-0.837,0.111-1.785,0.614c-1.004,0.557-3.234,1.408-4.893,1.909l-3.011,0.962
	l-2.732-1.854c-1.506-1.017-3.61-2.133-4.726-2.481C211.032,17.808,206.697,17.919,204.132,18.825z"/>
<g id="LTjKXJ.tif">
	<g>
		<path fill-rule="evenodd" clip-rule="evenodd" fill="#1C75BC" d="M146.537,73.929c0.89,0,1.779,0,2.669,0
			c5.258,1.169,7.696,7.31,6.31,13.833c-1.095,5.151-5.724,9.771-5.096,14.804c6.169,0.915,14.793-1.22,19.899,0.97
			c2.739,1.175,3.121,3.753,4.611,6.067c0,0.647,0,1.294,0,1.941c-0.947,1.075-1.869,2.176-2.427,3.64
			c0.63,1.635,1.442,3.087,2.427,4.368c0,0.566,0,1.133,0,1.699c-0.861,1.498-2.671,2.053-2.912,4.125
			c-0.228,1.966,1.565,3.644,1.456,5.339c-0.146,2.259-3.497,3.318-4.125,5.582c-0.375,1.349,0.257,2.854,0,3.883
			c-0.496,1.983-3.604,4.78-5.824,5.582c-1.327,0.479-2.784,0.238-3.883,0.728c-4.288,0-8.575,0-12.862,0
			c-8.641-0.5-16.19-2.092-23.783-3.64c0-9.869,0-19.738,0-29.606c0.78-0.434,2.286-0.141,3.155-0.486
			c4.027-3.478,5.978-7.479,8.009-12.134c0.684-1.568,1.042-3.409,1.941-4.854c1.313-2.11,4.562-3.594,6.067-5.582
			c2.192-2.896,2.948-7.601,3.397-11.648C145.771,76.69,145.624,74.543,146.537,73.929z"/>
		<path fill-rule="evenodd" clip-rule="evenodd" fill="#1C75BC" d="M105.767,143.092c0-9.869,0-19.738,0-29.606
			c0.678-0.854,1.211-1.637,2.669-1.942c2.925-0.612,9.646-0.361,10.92,0.728c1.48,1.266,0.971,5.467,0.971,8.494
			c0,3.103,0,5.577,0,8.251c0,4.413,1.153,13.971-1.213,15.531c-0.886,0.584-2.988,0.485-5.339,0.485
			C109.787,145.034,106.465,145.555,105.767,143.092z"/>
	</g>
</g>
<path fill="#1C75BC" d="M120.842,19.275c-16.953,0-33.919,0-50.871,0c-5.294,0-9.046,3.752-9.046,9.074c0,17.119,0,34.252,0,51.386
	c0,5.322,3.766,9.074,9.06,9.074c8.476,0,16.953,0,25.429,0s16.953,0,25.442,0c5.294,0,9.046-3.752,9.046-9.074
	c0-17.12,0-34.252,0-51.386C129.901,23.027,126.136,19.275,120.842,19.275z M95.482,39.91c7.768,0.042,14.076,6.42,14.048,14.188
	c-0.028,7.782-6.378,14.09-14.174,14.076c-7.823-0.014-14.145-6.406-14.089-14.229C81.323,46.177,87.701,39.882,95.482,39.91z
	 M122.037,77.484c0,2.07-1.515,3.488-3.627,3.488c-7.643,0.013-15.285,0.013-22.914,0.013c-7.518,0-15.049,0-22.566,0
	c-2.432,0-3.877-1.445-3.877-3.891c0-9.546,0-19.092-0.014-28.652c0-0.737,0.208-0.931,0.917-0.904c1.334,0.056,2.668,0.042,3.988,0
	c0.681-0.014,0.889,0.07,0.681,0.848c-3.099,11.824,3.752,23.469,15.577,26.554c11.867,3.099,24.317-4.947,26.402-17.008
	c0.555-3.238,0.458-6.448-0.431-9.616c-0.181-0.667-0.028-0.792,0.598-0.778c1.528,0.028,3.071,0.028,4.599,0
	c0.542-0.014,0.681,0.167,0.681,0.695C122.037,57.988,122.051,67.743,122.037,77.484z M122.037,36.339
	c-0.042,2.028-1.529,3.474-3.543,3.488c-1.792,0.014-3.585,0.014-5.377,0c-1.987-0.014-3.474-1.515-3.488-3.53
	c-0.014-1.959-0.014-3.933,0-5.892c0.014-1.959,1.362-3.293,3.321-3.293c0.903,0,1.792,0,2.696,0c0.959,0,1.903-0.014,2.862,0
	c2.029,0.042,3.501,1.487,3.53,3.501C122.065,32.518,122.065,34.435,122.037,36.339z"/>
<circle fill="#BE1E2D" cx="414.792" cy="73.594" r="55.524"/>
<circle fill="#D37968" cx="414.792" cy="72.789" r="43.525"/>
<polygon opacity="0.5" fill="#FFFFFF" points="399.9,133.983 348.246,133.983 401.101,11.594 452.755,11.594 "/>
<path fill="#BE1E2D" d="M753.109,25.352c-6.956,2.538-11.362,9.062-10.859,16.213l0.167,2.76l-2.787-0.334
	c-10.135-1.297-18.987-5.688-26.501-13.062l-3.681-3.652l-0.947,2.704c-2.008,6.022-0.725,12.379,3.457,16.659
	c2.23,2.37,1.729,2.705-2.119,1.296c-1.338-0.445-2.509-0.78-2.621-0.613c-0.39,0.39,0.948,5.52,2.008,7.542
	c1.449,2.816,4.391,5.576,7.625,7.207l2.732,1.296l-3.234,0.055c-3.123,0-3.234,0.056-2.899,1.242
	c1.115,3.651,5.507,7.541,10.413,9.228l3.457,1.185l-3.011,1.798c-4.446,2.593-9.688,4.057-14.916,4.168
	c-2.509,0.055-4.573,0.279-4.573,0.446c0,0.557,6.789,3.708,10.749,4.948c11.862,3.653,25.942,2.077,36.522-4.167
	c7.514-4.447,15.027-13.286,18.541-21.844c1.896-4.559,3.792-12.895,3.792-16.882c0-2.593,0.167-2.928,3.29-6.022
	c1.841-1.799,3.569-3.764,3.903-4.335c0.559-1.074,0.502-1.074-2.342-0.112c-4.726,1.688-5.409,1.464-3.066-1.073
	c1.729-1.798,3.792-5.06,3.792-6.022c0-0.167-0.837,0.111-1.784,0.614c-1.004,0.557-3.234,1.408-4.895,1.909l-3.011,0.962
	l-2.732-1.854c-1.506-1.017-3.61-2.133-4.727-2.481C760.009,24.334,755.675,24.446,753.109,25.352z"/>
<g id="LTjKXJ.tif_1_">
	<g>
		<path fill-rule="evenodd" clip-rule="evenodd" fill="#BE1E2D" d="M695.515,80.456c0.889,0,1.779,0,2.669,0
			c5.259,1.169,7.696,7.31,6.31,13.833c-1.096,5.151-5.724,9.771-5.096,14.804c6.168,0.915,14.793-1.22,19.898,0.97
			c2.74,1.175,3.121,3.753,4.611,6.067c0,0.647,0,1.294,0,1.941c-0.947,1.075-1.869,2.176-2.427,3.64
			c0.63,1.635,1.442,3.087,2.427,4.368c0,0.566,0,1.133,0,1.699c-0.861,1.498-2.671,2.053-2.912,4.125
			c-0.229,1.966,1.565,3.644,1.456,5.339c-0.146,2.259-3.497,3.318-4.126,5.582c-0.374,1.349,0.258,2.854,0,3.883
			c-0.496,1.983-3.604,4.78-5.824,5.582c-1.326,0.479-2.783,0.238-3.883,0.728c-4.287,0-8.574,0-12.861,0
			c-8.641-0.5-16.189-2.092-23.783-3.64c0-9.869,0-19.738,0-29.606c0.781-0.434,2.287-0.141,3.155-0.486
			c4.026-3.478,5.978-7.479,8.009-12.134c0.684-1.568,1.041-3.409,1.941-4.854c1.313-2.11,4.562-3.594,6.066-5.582
			c2.192-2.896,2.948-7.601,3.398-11.648C694.749,83.217,694.601,81.07,695.515,80.456z"/>
		<path fill-rule="evenodd" clip-rule="evenodd" fill="#BE1E2D" d="M654.744,149.619c0-9.869,0-19.738,0-29.606
			c0.679-0.854,1.212-1.637,2.669-1.942c2.926-0.612,9.646-0.361,10.921,0.728c1.48,1.266,0.971,5.467,0.971,8.494
			c0,3.103,0,5.577,0,8.251c0,4.413,1.153,13.971-1.214,15.531c-0.886,0.584-2.987,0.485-5.338,0.485
			C658.765,151.561,655.442,152.082,654.744,149.619z"/>
	</g>
</g>
<path fill="#BE1E2D" d="M669.819,25.802c-16.953,0-33.919,0-50.871,0c-5.294,0-9.046,3.752-9.046,9.074c0,17.119,0,34.252,0,51.385
	c0,5.322,3.766,9.074,9.06,9.074c8.477,0,16.953,0,25.429,0s16.952,0,25.442,0c5.295,0,9.046-3.752,9.046-9.074
	c0-17.12,0-34.252,0-51.385C678.879,29.554,675.114,25.802,669.819,25.802z M644.46,46.437c7.768,0.042,14.076,6.421,14.049,14.188
	c-0.028,7.782-6.379,14.09-14.174,14.076c-7.823-0.014-14.146-6.406-14.09-14.229C630.3,52.704,636.679,46.409,644.46,46.437z
	 M671.015,84.011c0,2.07-1.516,3.488-3.627,3.488c-7.643,0.013-15.285,0.013-22.914,0.013c-7.518,0-15.049,0-22.566,0
	c-2.432,0-3.877-1.445-3.877-3.891c0-9.546,0-19.092-0.014-28.651c0-0.737,0.209-0.931,0.918-0.904c1.334,0.056,2.668,0.042,3.988,0
	c0.68-0.014,0.889,0.07,0.68,0.849c-3.098,11.824,3.752,23.468,15.577,26.553c11.866,3.099,24.317-4.947,26.401-17.008
	c0.556-3.238,0.459-6.448-0.431-9.616c-0.181-0.666-0.028-0.792,0.598-0.777c1.528,0.027,3.071,0.027,4.599,0
	c0.543-0.015,0.682,0.167,0.682,0.694C671.015,64.515,671.028,74.27,671.015,84.011z M671.015,42.866
	c-0.042,2.028-1.529,3.474-3.543,3.487c-1.793,0.014-3.586,0.014-5.378,0c-1.987-0.014-3.474-1.515-3.487-3.529
	c-0.015-1.959-0.015-3.933,0-5.892c0.014-1.959,1.361-3.293,3.32-3.293c0.903,0,1.793,0,2.695,0c0.959,0,1.904-0.014,2.863,0
	c2.028,0.042,3.501,1.487,3.529,3.501C671.042,39.045,671.042,40.962,671.015,42.866z"/>
<text transform="matrix(1 0 0 1 -8.0752 230.4902)" fill="#808285" font-family="'AvenirNext-DemiBold'" font-size="24">1. YOUR DATA</text>
<text transform="matrix(1 0 0 1 268.1235 230.4902)"><tspan x="0" y="0" fill="#808285" font-family="'AvenirNext-DemiBold'" font-size="24">2. ARBIBOT LEARNS </tspan><tspan x="0" y="28.8" fill="#808285" font-family="'AvenirNext-DemiBold'" font-size="24">HOW TO BE HUMAN</tspan></text>
<text transform="matrix(1 0 0 1 591.9033 230.4902)"><tspan x="0" y="0" fill="#808285" font-family="'AvenirNext-DemiBold'" font-size="24">3. FAKE REAL-LOOKING </tspan><tspan x="0" y="28.8" fill="#808285" font-family="'AvenirNext-DemiBold'" font-size="24">DATA</tspan></text>
</svg>
