<?xml version="1.0" encoding="utf-8"?>
<!-- Generator: Adobe Illustrator 15.1.0, SVG Export Plug-In . SVG Version: 6.00 Build 0)  -->
<!DOCTYPE svg PUBLIC "-//W3C//DTD SVG 1.1//EN" "http://www.w3.org/Graphics/SVG/1.1/DTD/svg11.dtd">
<svg version="1.1" id="Layer_1" xmlns="http://www.w3.org/2000/svg" xmlns:xlink="http://www.w3.org/1999/xlink" x="0px" y="0px"
	 width="156.479px" height="156.479px" viewBox="-14.579 -19.59 156.479 156.479"
	 enable-background="new -14.579 -19.59 156.479 156.479" xml:space="preserve">
<circle fill="#231F20" cx="63.661" cy="58.649" r="78.24"/>
<g>
	<path fill="#FFFFFF" d="M12.937,36.893c0.617,0.194,1.074,0.511,1.368,0.949c0.293,0.438,0.466,0.929,0.518,1.476
		c0.051,0.546,0.037,1.06-0.043,1.542c-0.08,0.48-0.188,0.935-0.322,1.363l-1.741,5.526l-0.747-0.235
		c0.149-0.472,0.21-0.835,0.182-1.091c-0.027-0.254-0.119-0.444-0.276-0.569c-0.158-0.124-0.394-0.235-0.708-0.334l-6.958-2.19
		c-0.487-0.154-0.858-0.159-1.11-0.02c-0.253,0.142-0.483,0.539-0.689,1.195l-0.763-0.241c0.23-0.791,0.45-1.543,0.657-2.258
		c0.207-0.715,0.378-1.303,0.514-1.764c0.136-0.459,0.233-0.782,0.291-0.966l0.095-0.301c0.177-0.563,0.422-1.135,0.731-1.713
		c0.311-0.579,0.751-1.056,1.322-1.434c0.571-0.376,1.243-0.444,2.019-0.199c0.58,0.182,1.014,0.545,1.301,1.089
		c0.288,0.542,0.419,1.325,0.396,2.348c0.314-0.603,0.681-1.1,1.098-1.49c0.418-0.39,0.871-0.641,1.359-0.755
		C11.92,36.707,12.423,36.731,12.937,36.893z M6.611,37.975c-0.378-0.119-0.74-0.133-1.081-0.041
		c-0.342,0.091-0.648,0.29-0.92,0.594s-0.488,0.714-0.65,1.23l-0.269,0.853l3.95,1.244l0.21-0.667
		c0.273-0.873,0.294-1.576,0.058-2.112C7.673,38.54,7.24,38.173,6.611,37.975z M12.013,39.344c-0.748-0.234-1.39-0.222-1.927,0.034
		c-0.536,0.257-0.916,0.738-1.136,1.442l-0.415,1.316l2.65,0.835l0.22,0.069c0.401,0.126,0.722,0.2,0.96,0.222
		c0.242,0.022,0.453-0.045,0.637-0.202c0.183-0.156,0.341-0.446,0.475-0.869c0.177-0.563,0.164-1.12-0.039-1.669
		C13.237,39.972,12.761,39.581,12.013,39.344z"/>
	<path fill="#FFFFFF" d="M17.525,26.664l3.347,1.923l-4.952,9.023l-0.688-0.376c0.342-0.623,0.473-1.073,0.392-1.351
		c-0.082-0.278-0.341-0.537-0.779-0.777L8.48,31.615c-0.293-0.161-0.538-0.257-0.732-0.285c-0.195-0.029-0.396,0.04-0.605,0.207
		c-0.208,0.167-0.431,0.466-0.666,0.894L5.79,32.052l2.796-5.093l0.688,0.375c-0.233,0.425-0.366,0.768-0.4,1.031
		c-0.035,0.263,0.011,0.472,0.136,0.629c0.125,0.156,0.339,0.317,0.643,0.483l5.828,3.198c0.457,0.25,0.798,0.409,1.022,0.472
		c0.223,0.066,0.44,0.026,0.653-0.117c0.211-0.143,0.441-0.441,0.69-0.894c0.314-0.573,0.546-1.098,0.695-1.577
		c0.149-0.479,0.136-1.005-0.04-1.577c-0.174-0.572-0.626-1.117-1.354-1.633L17.525,26.664z"/>
	<path fill="#FFFFFF" d="M28.653,19.422l-3.565,4.116l-0.592-0.513c0.301-0.348,0.496-0.622,0.584-0.824
		c0.089-0.201,0.041-0.383-0.145-0.542c-0.129-0.111-0.282-0.198-0.459-0.263l-1.388-0.48l-2.455,2.835l0.384,0.704
		c0.213,0.395,0.39,0.654,0.532,0.777c0.258,0.223,0.508,0.265,0.75,0.125c0.242-0.142,0.478-0.344,0.708-0.612l0.593,0.515
		l-2.605,3.008l-0.593-0.515c0.208-0.239,0.34-0.483,0.395-0.729c0.054-0.244,0.022-0.552-0.097-0.923
		c-0.118-0.369-0.332-0.841-0.638-1.417l-4.417-8.229l0.53-0.612l9.107,3.23c0.649,0.223,1.096,0.363,1.343,0.419
		c0.249,0.057,0.487,0.046,0.718-0.033c0.229-0.079,0.469-0.262,0.718-0.549L28.653,19.422z M22.255,20.6l-4.09-1.434l2.054,3.784
		L22.255,20.6z"/>
	<path fill="#FFFFFF" d="M36.899,13.087l-0.638,0.486c-0.392-0.315-0.812-0.545-1.263-0.687c-0.071,0.618-0.229,1.226-0.476,1.821
		s-0.746,1.181-1.501,1.756c-0.827,0.63-1.748,1.014-2.76,1.152c-1.014,0.137-2.005,0.005-2.975-0.395
		c-0.97-0.4-1.8-1.052-2.489-1.955c-0.488-0.641-0.841-1.339-1.059-2.097c-0.216-0.756-0.282-1.517-0.198-2.281
		c0.085-0.766,0.323-1.498,0.715-2.197c0.392-0.699,0.936-1.313,1.631-1.845c1.147-0.875,2.382-1.224,3.704-1.046
		c-0.048-0.27-0.167-0.627-0.355-1.068l0.61-0.465l2.688,3.297l-0.65,0.497c-0.556-0.484-1.157-0.833-1.806-1.046
		c-0.648-0.213-1.274-0.277-1.877-0.191c-0.604,0.084-1.136,0.302-1.596,0.654c-0.514,0.393-0.87,0.887-1.066,1.483
		c-0.195,0.595-0.188,1.271,0.02,2.027c0.208,0.756,0.642,1.564,1.3,2.428c0.64,0.839,1.271,1.465,1.891,1.874
		c0.62,0.41,1.182,0.648,1.685,0.712c0.505,0.067,0.94,0.041,1.307-0.079c0.365-0.119,0.676-0.274,0.929-0.467
		c0.556-0.424,0.942-0.955,1.16-1.593c0.218-0.636,0.295-1.291,0.233-1.962c-0.062-0.67-0.215-1.267-0.461-1.786l0.65-0.496
		L36.899,13.087z"/>
	<path fill="#FFFFFF" d="M49.906,7.208L44.04,9.805L43.722,9.09l0.475-0.21c0.406-0.18,0.672-0.327,0.797-0.443
		c0.127-0.114,0.163-0.233,0.106-0.358c-0.08-0.183-0.466-0.478-1.157-0.887l-3.686-2.197L39.44,6.765l1.011,2.282
		c0.205,0.463,0.454,0.739,0.749,0.828c0.294,0.091,0.741,0.003,1.338-0.261l0.317,0.717l-5.282,2.34l-0.318-0.718
		c0.452-0.199,0.765-0.395,0.939-0.583c0.174-0.19,0.256-0.384,0.246-0.585c-0.012-0.2-0.084-0.451-0.217-0.752l-2.941-6.637
		c-0.133-0.302-0.268-0.524-0.402-0.666c-0.134-0.143-0.332-0.212-0.596-0.211c-0.262,0.003-0.621,0.103-1.073,0.304l-0.317-0.717
		l5.283-2.341l0.317,0.718c-0.649,0.287-1.026,0.565-1.13,0.835c-0.104,0.27-0.056,0.633,0.147,1.091l1.409,3.179l2.013-4.333
		c0.142-0.298,0.232-0.542,0.274-0.732c0.04-0.187,0.021-0.369-0.057-0.546c-0.167-0.375-0.604-0.404-1.317-0.088l-0.317-0.717
		l4.823-2.136l0.316,0.717c-0.359,0.197-0.646,0.375-0.856,0.539c-0.211,0.162-0.399,0.356-0.565,0.585s-0.334,0.509-0.504,0.839
		c-0.171,0.331-0.431,0.872-0.782,1.624l-0.681,1.449l5.084,3.06c0.541,0.326,0.97,0.556,1.285,0.693
		c0.316,0.137,0.618,0.204,0.909,0.2c0.29-0.005,0.638-0.088,1.045-0.249L49.906,7.208z"/>
	<path fill="#FFFFFF" d="M68.37-0.381c0.035,0.835-0.074,1.594-0.33,2.279c-0.255,0.685-0.598,1.26-1.027,1.728
		c-0.429,0.466-0.894,0.826-1.396,1.074c-1.058,0.522-2.368,0.817-3.929,0.884l-5.27,0.225l-0.033-0.783
		c0.487-0.021,0.854-0.083,1.1-0.188c0.246-0.105,0.402-0.252,0.472-0.442c0.068-0.19,0.096-0.459,0.081-0.805l-0.311-7.288
		c-0.021-0.5-0.138-0.847-0.351-1.043c-0.212-0.195-0.685-0.277-1.417-0.246l-0.035-0.802l2.476-0.155
		c0.084-0.005,0.431-0.024,1.038-0.062c0.606-0.037,0.958-0.058,1.055-0.062c0.947-0.041,1.754-0.023,2.42,0.05
		c0.665,0.075,1.278,0.213,1.839,0.417c0.514,0.183,0.991,0.448,1.433,0.796c0.441,0.348,0.817,0.75,1.13,1.207
		c0.312,0.456,0.56,0.955,0.742,1.498C68.24-1.555,68.344-0.982,68.37-0.381z M65.609-0.315c-0.051-1.197-0.322-2.191-0.813-2.981
		c-0.491-0.789-1.136-1.323-1.933-1.601c-0.347-0.123-0.711-0.194-1.096-0.214c-0.384-0.021-0.935-0.015-1.65,0.015l0.346,8.113
		c0.019,0.466,0.057,0.805,0.111,1.015C60.628,4.243,60.77,4.4,60.995,4.5c0.226,0.103,0.572,0.142,1.037,0.123
		c1.379-0.059,2.333-0.583,2.863-1.571C65.425,2.061,65.663,0.94,65.609-0.315z"/>
	<path fill="#FFFFFF" d="M74.531,6.28l-5.818-0.736l0.099-0.777c0.484,0.061,0.857,0.061,1.116-0.001
		c0.26-0.061,0.439-0.18,0.539-0.357c0.1-0.176,0.171-0.436,0.214-0.78l0.912-7.202c0.062-0.496,0.004-0.858-0.177-1.087
		c-0.179-0.229-0.631-0.389-1.352-0.48l0.098-0.777l5.816,0.735l-0.098,0.778c-0.485-0.061-0.857-0.06-1.116,0.005
		c-0.262,0.064-0.441,0.183-0.54,0.356c-0.1,0.174-0.171,0.433-0.214,0.776L73.1,3.935c-0.041,0.327-0.038,0.588,0.013,0.783
		c0.05,0.195,0.188,0.359,0.414,0.491c0.227,0.131,0.594,0.229,1.101,0.294L74.531,6.28z"/>
	<path fill="#FFFFFF" d="M85.993,9.472l-5.211-1.576l0.227-0.75c0.441,0.133,0.771,0.199,0.99,0.196c0.22,0,0.365-0.119,0.436-0.353
		c0.05-0.163,0.068-0.339,0.054-0.526L82.361,5l-3.59-1.086l-0.485,0.637c-0.275,0.356-0.438,0.624-0.493,0.804
		c-0.099,0.325-0.034,0.57,0.192,0.734s0.508,0.296,0.846,0.398l-0.227,0.751l-3.81-1.152l0.228-0.751
		c0.303,0.093,0.579,0.114,0.826,0.064c0.246-0.051,0.515-0.206,0.804-0.465c0.288-0.259,0.633-0.646,1.031-1.162L83.4-3.615
		l0.774,0.234l0.764,9.632c0.061,0.683,0.115,1.15,0.164,1.399c0.05,0.25,0.158,0.462,0.323,0.64
		c0.165,0.179,0.431,0.322,0.795,0.432L85.993,9.472z M82.309,4.112L81.95-0.208l-2.618,3.419L82.309,4.112z"/>
	<path fill="#FFFFFF" d="M100.009,17.838l-4.916-3.069l0.416-0.664c0.424,0.265,0.761,0.416,1.011,0.455
		c0.251,0.04,0.455-0.004,0.617-0.126c0.161-0.124,0.328-0.325,0.504-0.605l3.835-6.144l-8.674,5.656l-0.441-0.276l1.222-10.309
		L89.94,8.589c-0.192,0.309-0.329,0.552-0.41,0.729c-0.081,0.177-0.112,0.352-0.095,0.522c0.017,0.172,0.104,0.345,0.263,0.521
		c0.157,0.175,0.408,0.37,0.75,0.583l-0.416,0.665l-3.628-2.265L86.82,8.68c0.346,0.217,0.633,0.355,0.859,0.417
		c0.226,0.062,0.419,0.061,0.579,0c0.158-0.062,0.298-0.167,0.418-0.316c0.12-0.15,0.276-0.377,0.468-0.687l3.467-5.551
		c0.259-0.415,0.425-0.727,0.495-0.937c0.069-0.21,0.038-0.423-0.099-0.639c-0.137-0.215-0.437-0.468-0.898-0.757l0.414-0.664
		l3.585,2.237l-1.065,8.949l7.579-4.882l3.505,2.188l-0.415,0.665c-0.602-0.375-1.045-0.53-1.332-0.464
		c-0.285,0.066-0.56,0.309-0.821,0.729l-3.845,6.159c-0.164,0.264-0.27,0.497-0.314,0.698c-0.045,0.199,0.011,0.409,0.164,0.629
		c0.154,0.22,0.44,0.461,0.859,0.723L100.009,17.838z"/>
	<path fill="#FFFFFF" d="M113.009,23.861c-0.779,0.706-1.678,1.179-2.693,1.425c-1.015,0.244-2.057,0.19-3.125-0.166
		c-1.067-0.355-2.051-1.028-2.946-2.017c-0.731-0.81-1.245-1.64-1.54-2.491c-0.296-0.852-0.4-1.67-0.314-2.456
		c0.085-0.786,0.304-1.509,0.656-2.169c0.354-0.66,0.792-1.229,1.319-1.705c0.763-0.689,1.645-1.163,2.646-1.418
		c1.003-0.256,2.037-0.211,3.104,0.134c1.065,0.346,2.054,1.018,2.961,2.021c0.827,0.914,1.382,1.828,1.662,2.738
		c0.279,0.91,0.354,1.75,0.223,2.52s-0.376,1.458-0.735,2.062C113.864,22.946,113.458,23.452,113.009,23.861z M111.18,21.791
		c0.48-0.436,0.899-0.889,1.255-1.358c0.354-0.472,0.612-0.967,0.773-1.489c0.162-0.52,0.181-1.052,0.061-1.595
		c-0.119-0.543-0.417-1.077-0.894-1.604c-0.655-0.725-1.347-1.126-2.076-1.208c-0.728-0.081-1.427,0.051-2.101,0.396
		c-0.672,0.345-1.329,0.807-1.97,1.386c-0.354,0.321-0.7,0.677-1.042,1.069c-0.342,0.395-0.633,0.861-0.876,1.402
		c-0.242,0.541-0.325,1.13-0.252,1.767c0.076,0.637,0.392,1.264,0.948,1.878c0.553,0.611,1.143,0.978,1.773,1.102
		c0.629,0.125,1.228,0.087,1.797-0.109c0.569-0.197,1.061-0.443,1.475-0.738C110.469,22.395,110.844,22.095,111.18,21.791z"/>
	<path fill="#FFFFFF" d="M124.279,34.099c-0.255-0.49-0.486-0.814-0.694-0.975c-0.209-0.16-0.422-0.215-0.64-0.166
		c-0.218,0.049-0.544,0.186-0.976,0.412l-8.127,4.229l-0.361-0.696l4.478-10.851l-5.647,2.938c-0.429,0.224-0.726,0.411-0.893,0.566
		c-0.166,0.154-0.244,0.366-0.234,0.637c0.009,0.271,0.141,0.647,0.392,1.13l-0.695,0.363l-1.983-3.81l0.696-0.362
		c0.235,0.453,0.458,0.754,0.668,0.905c0.209,0.151,0.424,0.199,0.644,0.146c0.217-0.053,0.54-0.191,0.969-0.414l5.231-2.722
		c0.423-0.221,0.735-0.396,0.936-0.529c0.199-0.134,0.355-0.285,0.471-0.452c0.114-0.168,0.17-0.375,0.167-0.621
		c-0.003-0.244-0.076-0.547-0.219-0.909l0.694-0.362l1.555,2.986l-3.854,9.424l4.678-2.437c0.382-0.198,0.662-0.377,0.839-0.537
		s0.266-0.372,0.269-0.639c0.001-0.268-0.116-0.628-0.353-1.081l0.695-0.362l1.992,3.824L124.279,34.099z"/>
	<path fill="#FFFFFF" d="M123.47,49.781c-0.808,0.206-1.573,0.257-2.296,0.15c-0.724-0.108-1.358-0.325-1.905-0.647
		c-0.546-0.323-0.993-0.705-1.339-1.143c-0.73-0.927-1.29-2.147-1.678-3.66l-1.313-5.109l0.76-0.195
		c0.121,0.473,0.259,0.82,0.411,1.039c0.154,0.219,0.331,0.342,0.53,0.369c0.201,0.028,0.47-0.001,0.805-0.087l7.066-1.814
		c0.483-0.124,0.8-0.31,0.946-0.559c0.147-0.249,0.13-0.729-0.052-1.438l0.775-0.201l0.666,2.39
		c0.021,0.082,0.113,0.418,0.275,1.003c0.162,0.586,0.254,0.925,0.278,1.018c0.237,0.919,0.387,1.712,0.452,2.378
		c0.066,0.667,0.057,1.295-0.026,1.886c-0.071,0.54-0.232,1.062-0.48,1.566c-0.25,0.504-0.564,0.956-0.946,1.356
		c-0.381,0.4-0.819,0.745-1.312,1.037C124.593,49.41,124.053,49.63,123.47,49.781z M122.835,47.093
		c1.16-0.297,2.076-0.769,2.746-1.414s1.06-1.385,1.168-2.222c0.046-0.364,0.041-0.737-0.019-1.117
		c-0.061-0.381-0.179-0.917-0.357-1.611l-7.864,2.02c-0.452,0.116-0.775,0.223-0.97,0.319c-0.195,0.096-0.319,0.267-0.371,0.509
		c-0.053,0.243-0.021,0.589,0.096,1.04c0.343,1.338,1.054,2.163,2.13,2.476C120.471,47.405,121.618,47.405,122.835,47.093z"/>
</g>
<g>
	<path fill="#FFFFFF" d="M19.498,109.95l-0.557-0.577c0.27-0.425,0.447-0.868,0.535-1.333c-0.622,0.003-1.244-0.086-1.863-0.262
		c-0.619-0.178-1.259-0.606-1.918-1.288c-0.72-0.747-1.209-1.617-1.462-2.608c-0.255-0.991-0.237-1.992,0.047-3.001
		c0.285-1.011,0.836-1.908,1.654-2.697c0.58-0.56,1.233-0.992,1.96-1.294c0.726-0.304,1.474-0.456,2.244-0.461
		c0.77-0.004,1.523,0.147,2.264,0.456c0.74,0.31,1.414,0.777,2.021,1.409c1.001,1.037,1.491,2.225,1.468,3.556
		c0.263-0.079,0.603-0.237,1.02-0.474l0.533,0.549l-2.965,3.054l-0.568-0.589c0.417-0.608,0.693-1.246,0.831-1.915
		c0.136-0.668,0.128-1.297-0.027-1.888c-0.154-0.589-0.432-1.091-0.835-1.509c-0.45-0.467-0.981-0.761-1.596-0.887
		c-0.613-0.126-1.285-0.041-2.01,0.254c-0.727,0.293-1.481,0.816-2.261,1.57c-0.761,0.734-1.309,1.433-1.643,2.096
		c-0.337,0.664-0.508,1.249-0.515,1.756c-0.007,0.51,0.071,0.938,0.23,1.287c0.161,0.352,0.352,0.642,0.573,0.87
		c0.486,0.504,1.057,0.825,1.716,0.968c0.657,0.144,1.316,0.145,1.976,0.005c0.659-0.139,1.233-0.361,1.72-0.666l0.568,0.589
		L19.498,109.95z"/>
	<path fill="#FFFFFF" d="M37.019,115.14c-0.562,0.888-1.298,1.587-2.21,2.095c-0.912,0.511-1.93,0.736-3.055,0.685
		c-1.125-0.056-2.251-0.438-3.38-1.151c-0.922-0.582-1.641-1.243-2.154-1.984c-0.514-0.74-0.835-1.5-0.964-2.279
		c-0.13-0.781-0.113-1.536,0.049-2.266c0.163-0.731,0.434-1.397,0.812-1.999c0.549-0.87,1.271-1.561,2.167-2.077
		c0.897-0.516,1.906-0.752,3.025-0.705c1.121,0.044,2.251,0.427,3.396,1.148c1.042,0.658,1.821,1.387,2.337,2.188
		c0.515,0.805,0.813,1.592,0.894,2.367c0.081,0.778,0.029,1.506-0.155,2.186C37.597,114.028,37.343,114.626,37.019,115.14z
		 M34.702,113.636c0.346-0.547,0.626-1.096,0.841-1.645c0.215-0.549,0.331-1.097,0.345-1.642c0.015-0.545-0.108-1.062-0.369-1.554
		c-0.262-0.49-0.693-0.924-1.293-1.304c-0.827-0.521-1.601-0.724-2.324-0.604c-0.723,0.117-1.362,0.434-1.917,0.947
		c-0.556,0.513-1.063,1.132-1.524,1.864c-0.254,0.402-0.494,0.84-0.716,1.311c-0.223,0.473-0.378,0.999-0.466,1.585
		c-0.087,0.587-0.009,1.178,0.234,1.77c0.243,0.595,0.715,1.112,1.417,1.555c0.697,0.438,1.365,0.635,2.004,0.586
		c0.639-0.053,1.207-0.246,1.701-0.591c0.496-0.342,0.903-0.711,1.223-1.108C34.177,114.41,34.459,114.022,34.702,113.636z"/>
	<path fill="#FFFFFF" d="M48.509,125.226l-0.76-0.254c0.042-0.499-0.005-0.978-0.143-1.431c-0.552,0.291-1.143,0.501-1.772,0.632
		c-0.631,0.13-1.395,0.048-2.296-0.254c-0.987-0.325-1.823-0.872-2.505-1.634c-0.684-0.761-1.133-1.653-1.349-2.681
		c-0.215-1.025-0.143-2.078,0.217-3.157c0.254-0.764,0.633-1.448,1.138-2.055c0.503-0.605,1.095-1.086,1.776-1.446
		c0.68-0.361,1.418-0.576,2.217-0.644c0.798-0.071,1.613,0.034,2.443,0.31c1.368,0.456,2.352,1.28,2.949,2.473
		c0.195-0.191,0.423-0.49,0.684-0.896l0.727,0.243l-1.214,4.077l-0.776-0.257c0.088-0.732,0.038-1.425-0.152-2.08
		c-0.188-0.657-0.487-1.211-0.896-1.661c-0.411-0.451-0.889-0.768-1.44-0.952c-0.614-0.204-1.223-0.22-1.826-0.047
		c-0.602,0.175-1.158,0.561-1.665,1.157c-0.508,0.599-0.934,1.41-1.276,2.441c-0.333,1.002-0.496,1.876-0.486,2.617
		c0.01,0.743,0.129,1.342,0.358,1.794c0.229,0.455,0.496,0.799,0.8,1.034c0.305,0.237,0.607,0.404,0.91,0.506
		c0.663,0.221,1.319,0.243,1.968,0.063c0.649-0.179,1.234-0.483,1.754-0.91c0.52-0.429,0.925-0.892,1.216-1.388l0.777,0.26
		L48.509,125.226z"/>
	<path fill="#FFFFFF" d="M66.119,127.488l-6.394-0.543l0.067-0.781l0.517,0.045c0.442,0.037,0.746,0.037,0.912-0.005
		c0.166-0.04,0.254-0.128,0.266-0.264c0.017-0.199-0.179-0.643-0.589-1.333l-2.173-3.699l-1.57,1.157l-0.211,2.487
		c-0.043,0.505,0.044,0.866,0.259,1.088c0.214,0.221,0.648,0.358,1.299,0.413l-0.067,0.781l-5.756-0.488l0.066-0.781
		c0.492,0.041,0.86,0.022,1.104-0.061c0.243-0.08,0.409-0.213,0.495-0.394c0.087-0.181,0.145-0.436,0.172-0.765l0.614-7.234
		c0.028-0.327,0.018-0.587-0.032-0.776c-0.049-0.188-0.19-0.347-0.421-0.47c-0.233-0.128-0.595-0.209-1.087-0.253l0.066-0.78
		l5.757,0.49l-0.066,0.78c-0.708-0.062-1.173,0.002-1.393,0.188c-0.223,0.188-0.353,0.53-0.396,1.028l-0.293,3.464l3.849-2.828
		c0.266-0.195,0.464-0.365,0.59-0.512c0.127-0.145,0.198-0.314,0.214-0.508c0.034-0.406-0.335-0.645-1.112-0.711l0.066-0.779
		l5.256,0.445l-0.066,0.781c-0.411,0-0.748,0.02-1.011,0.059c-0.263,0.042-0.521,0.123-0.777,0.243
		c-0.255,0.12-0.538,0.286-0.845,0.491c-0.308,0.209-0.797,0.559-1.466,1.049l-1.295,0.943l2.986,5.127
		c0.318,0.547,0.583,0.955,0.794,1.227c0.21,0.272,0.444,0.475,0.7,0.61s0.603,0.23,1.037,0.286L66.119,127.488z"/>
	<path fill="#FFFFFF" d="M79.069,117.512l-0.802,0.107c-0.168-0.699-0.396-1.2-0.679-1.507c-0.285-0.308-0.571-0.48-0.857-0.521
		c-0.286-0.042-0.61-0.038-0.97,0.01l-1.453,0.194l1.125,8.386c0.045,0.332,0.112,0.587,0.205,0.759
		c0.093,0.176,0.269,0.297,0.529,0.364c0.262,0.068,0.633,0.069,1.11,0.007l0.105,0.776l-5.744,0.771l-0.104-0.778
		c0.705-0.095,1.144-0.255,1.319-0.486c0.176-0.23,0.23-0.592,0.164-1.09l-1.125-8.383l-1.217,0.161
		c-0.478,0.063-0.869,0.155-1.175,0.273c-0.305,0.118-0.554,0.364-0.748,0.736c-0.194,0.373-0.26,0.917-0.199,1.629l-0.801,0.109
		l-0.436-3.252l11.316-1.518L79.069,117.512z"/>
	<path fill="#FFFFFF" d="M92.458,121.68l-5.161,1.735l-0.251-0.743c0.437-0.146,0.744-0.282,0.923-0.413
		c0.179-0.129,0.229-0.309,0.15-0.54c-0.055-0.161-0.143-0.314-0.263-0.462l-0.951-1.117l-3.554,1.197l-0.027,0.8
		c-0.018,0.449,0.004,0.764,0.065,0.94c0.107,0.325,0.302,0.486,0.582,0.488c0.278,0.002,0.584-0.054,0.918-0.168l0.251,0.745
		l-3.771,1.269l-0.251-0.74c0.303-0.104,0.539-0.247,0.711-0.429c0.172-0.186,0.301-0.466,0.386-0.847
		c0.085-0.38,0.141-0.894,0.167-1.544l0.375-9.333l0.767-0.257l6.206,7.404c0.446,0.521,0.761,0.87,0.945,1.045
		c0.185,0.174,0.396,0.285,0.635,0.335c0.238,0.048,0.537,0.014,0.897-0.109L92.458,121.68z M86.346,119.449l-2.795-3.312
		L83.4,120.44L86.346,119.449z"/>
	<path fill="#FFFFFF" d="M98.94,118.225l-5.214,2.682l-0.358-0.695c0.435-0.227,0.741-0.436,0.921-0.634
		c0.179-0.197,0.26-0.396,0.242-0.599c-0.018-0.201-0.105-0.458-0.264-0.764l-3.321-6.458c-0.229-0.444-0.482-0.711-0.76-0.796
		c-0.278-0.088-0.74,0.034-1.387,0.367l-0.358-0.697l5.212-2.683l0.359,0.698c-0.435,0.224-0.74,0.435-0.918,0.635
		c-0.178,0.201-0.259,0.4-0.243,0.601c0.017,0.199,0.104,0.453,0.263,0.761l3.319,6.455c0.15,0.295,0.302,0.508,0.454,0.641
		c0.151,0.132,0.357,0.189,0.62,0.17c0.261-0.021,0.619-0.146,1.073-0.38L98.94,118.225z"/>
	<path fill="#FFFFFF" d="M106.372,108.577l2.158,3.202l-8.42,5.922l-0.45-0.642c0.581-0.408,0.896-0.756,0.946-1.04
		c0.048-0.285-0.07-0.631-0.357-1.04l-4.178-5.938c-0.192-0.275-0.369-0.468-0.531-0.578c-0.162-0.112-0.374-0.141-0.636-0.082
		c-0.261,0.06-0.591,0.229-0.989,0.509l-0.451-0.641l4.752-3.343l0.452,0.641c-0.396,0.278-0.666,0.528-0.812,0.749
		c-0.146,0.222-0.197,0.429-0.155,0.624c0.045,0.196,0.165,0.436,0.364,0.718l3.823,5.437c0.302,0.429,0.539,0.72,0.711,0.875
		c0.173,0.158,0.385,0.218,0.639,0.183c0.252-0.036,0.592-0.202,1.014-0.499c0.534-0.376,0.973-0.745,1.318-1.11
		c0.345-0.362,0.563-0.84,0.659-1.432c0.095-0.592-0.072-1.278-0.498-2.062L106.372,108.577z"/>
	<path fill="#FFFFFF" d="M113.943,101.897c0.252,0.254,0.465,0.577,0.64,0.969c0.174,0.394,0.279,0.828,0.318,1.304
		c0.038,0.48-0.027,0.967-0.201,1.463c-0.171,0.495-0.477,0.962-0.916,1.397c-0.436,0.434-0.961,0.767-1.577,1.005
		c-0.618,0.237-1.262,0.317-1.933,0.239c0.167,0.426,0.359,0.784,0.576,1.073l-0.557,0.554l-2.788-2.802l0.557-0.554
		c0.5,0.301,1.016,0.543,1.546,0.72c0.529,0.179,1.084,0.234,1.663,0.167c0.579-0.064,1.103-0.333,1.575-0.801
		c0.41-0.411,0.627-0.851,0.65-1.322s-0.135-0.879-0.476-1.221c-0.191-0.196-0.399-0.324-0.619-0.395
		c-0.221-0.069-0.461-0.088-0.72-0.059c-0.26,0.028-0.58,0.104-0.963,0.224c-0.382,0.119-0.806,0.266-1.272,0.442
		c-0.727,0.259-1.367,0.429-1.922,0.507c-0.555,0.079-1.026,0.086-1.412,0.026c-0.384-0.062-0.709-0.162-0.972-0.301
		c-0.262-0.14-0.496-0.312-0.7-0.519c-0.364-0.366-0.626-0.825-0.783-1.378c-0.155-0.552-0.158-1.133-0.003-1.737
		c0.154-0.608,0.481-1.159,0.979-1.655c0.383-0.38,0.833-0.657,1.349-0.832c0.517-0.172,1.051-0.235,1.601-0.19
		c-0.096-0.241-0.265-0.546-0.509-0.911l0.567-0.565l2.271,2.284l-0.568,0.565c-1.64-0.845-2.96-0.77-3.959,0.224
		c-0.362,0.359-0.559,0.747-0.588,1.156c-0.028,0.408,0.106,0.764,0.407,1.066c0.237,0.237,0.509,0.378,0.821,0.415
		c0.311,0.04,0.641,0.011,0.988-0.087s0.887-0.277,1.619-0.541c0.889-0.315,1.607-0.537,2.156-0.667
		c0.549-0.128,1.1-0.151,1.651-0.068C112.994,101.178,113.495,101.446,113.943,101.897z"/>
</g>
<g>
	<path fill="#FFFFFF" d="M2.38,72.731H1.988c-0.099-0.277-0.271-0.558-0.515-0.841c-0.244-0.284-0.485-0.451-0.727-0.502
		c-0.102-0.025-0.246-0.039-0.43-0.044c-0.183-0.005-0.335-0.007-0.455-0.007H-1.2v2.817h0.752c0.189,0,0.36-0.022,0.515-0.067
		c0.155-0.045,0.295-0.13,0.423-0.257c0.079-0.079,0.159-0.219,0.239-0.417c0.081-0.199,0.133-0.372,0.157-0.521h0.391v3.049H0.886
		c-0.021-0.145-0.073-0.325-0.157-0.544c-0.084-0.217-0.164-0.368-0.239-0.45c-0.114-0.124-0.247-0.209-0.402-0.255
		c-0.155-0.047-0.333-0.069-0.536-0.069H-1.2v2.106c0,0.22,0.016,0.395,0.049,0.522c0.032,0.129,0.094,0.228,0.183,0.296
		c0.085,0.065,0.204,0.108,0.353,0.13c0.149,0.02,0.353,0.03,0.61,0.03c0.121,0,0.265-0.002,0.433-0.005
		c0.168-0.004,0.315-0.015,0.442-0.031c0.145-0.018,0.279-0.043,0.405-0.078c0.125-0.034,0.219-0.084,0.28-0.148
		c0.165-0.168,0.351-0.425,0.557-0.77c0.206-0.346,0.341-0.604,0.407-0.776h0.375l-0.139,2.276h-6.854v-0.401
		c0.096-0.006,0.226-0.02,0.391-0.041c0.165-0.02,0.282-0.045,0.351-0.071c0.13-0.056,0.218-0.126,0.262-0.209
		c0.044-0.084,0.067-0.191,0.067-0.322v-5.156c0-0.124-0.019-0.226-0.057-0.306c-0.038-0.081-0.128-0.153-0.272-0.219
		c-0.09-0.041-0.215-0.079-0.376-0.113c-0.162-0.035-0.283-0.057-0.365-0.068v-0.401H2.38V72.731z"/>
	<path fill="#FFFFFF" d="M5.967,78.35c-0.333,0-0.658-0.049-0.976-0.146c-0.317-0.098-0.564-0.202-0.738-0.312l-0.155,0.35H3.696
		l-0.067-1.92h0.376c0.052,0.153,0.138,0.329,0.258,0.522c0.12,0.192,0.257,0.368,0.412,0.521c0.162,0.155,0.347,0.286,0.554,0.393
		c0.208,0.106,0.43,0.159,0.667,0.159c0.312,0,0.544-0.061,0.698-0.184c0.152-0.121,0.229-0.31,0.229-0.563
		c0-0.137-0.034-0.25-0.104-0.339c-0.068-0.09-0.163-0.168-0.283-0.232c-0.134-0.068-0.281-0.127-0.44-0.175
		c-0.16-0.048-0.356-0.106-0.59-0.176c-0.234-0.067-0.434-0.138-0.601-0.208c-0.166-0.071-0.338-0.182-0.517-0.332
		c-0.155-0.135-0.279-0.296-0.372-0.485c-0.092-0.188-0.139-0.413-0.139-0.674c0-0.483,0.203-0.876,0.61-1.175
		c0.407-0.298,0.94-0.447,1.6-0.447c0.312,0,0.6,0.031,0.863,0.096c0.262,0.062,0.483,0.133,0.661,0.208l0.108-0.304h0.392
		l0.083,1.756h-0.36c-0.121-0.357-0.327-0.665-0.619-0.925C6.823,73.5,6.51,73.37,6.174,73.37c-0.265,0-0.472,0.056-0.624,0.165
		c-0.15,0.11-0.226,0.263-0.226,0.459c0,0.26,0.11,0.449,0.331,0.566c0.222,0.116,0.531,0.226,0.929,0.329
		c0.613,0.157,1.062,0.373,1.347,0.646c0.284,0.273,0.426,0.621,0.426,1.042c0,0.563-0.22,1-0.661,1.309
		C7.254,78.196,6.678,78.35,5.967,78.35z"/>
	<path fill="#FFFFFF" d="M12.865,77.938c-0.219,0.097-0.455,0.184-0.705,0.261c-0.25,0.076-0.557,0.115-0.918,0.115
		c-0.535,0-0.932-0.131-1.192-0.391c-0.258-0.262-0.389-0.633-0.389-1.117v-3.159H8.736v-0.56h0.947v-1.562h1.669v1.562h1.447v0.56
		h-1.437v2.818c0,0.402,0.056,0.688,0.168,0.854c0.111,0.169,0.312,0.253,0.602,0.253c0.092,0,0.222-0.007,0.388-0.021
		c0.165-0.013,0.281-0.028,0.346-0.046V77.938z"/>
	<path fill="#FFFFFF" d="M15.654,77.319c0,0.272-0.101,0.508-0.302,0.707c-0.201,0.199-0.438,0.299-0.713,0.299
		c-0.278,0-0.518-0.099-0.719-0.296c-0.2-0.198-0.301-0.435-0.301-0.71c0-0.273,0.101-0.512,0.301-0.711
		c0.201-0.202,0.44-0.302,0.719-0.302c0.275,0,0.512,0.101,0.713,0.302C15.553,76.812,15.654,77.05,15.654,77.319z"/>
</g>
<g>
	<path fill="#FFFFFF" d="M114.952,78.175h-5.581v-0.932c0.243-0.247,0.511-0.473,0.802-0.678c0.29-0.204,0.584-0.384,0.884-0.543
		c0.32-0.168,0.589-0.318,0.806-0.45c0.216-0.133,0.386-0.271,0.51-0.415c0.124-0.134,0.213-0.279,0.267-0.438
		c0.054-0.157,0.079-0.336,0.079-0.53c0-0.437-0.104-0.755-0.309-0.953c-0.208-0.199-0.48-0.299-0.821-0.299
		c-0.107,0-0.208,0.009-0.303,0.023c-0.095,0.016-0.194,0.045-0.298,0.085c0.053,0.155,0.102,0.314,0.149,0.479
		c0.048,0.166,0.072,0.349,0.072,0.551c0,0.244-0.088,0.438-0.263,0.583c-0.174,0.145-0.398,0.216-0.669,0.216
		c-0.257,0-0.464-0.083-0.615-0.252c-0.154-0.169-0.23-0.373-0.23-0.613c0-0.419,0.245-0.781,0.731-1.087
		c0.488-0.305,1.082-0.458,1.783-0.458c0.81,0,1.464,0.14,1.964,0.417c0.501,0.279,0.751,0.727,0.751,1.344
		c0,0.32-0.067,0.578-0.199,0.772c-0.133,0.196-0.327,0.368-0.585,0.517c-0.229,0.133-0.484,0.243-0.765,0.328
		c-0.28,0.086-0.58,0.169-0.898,0.248c-0.341,0.086-0.636,0.177-0.888,0.272c-0.253,0.097-0.477,0.211-0.673,0.346v0.056h4.299
		V78.175z"/>
	<path fill="#FFFFFF" d="M121.408,73.375c0.262,0.275,0.455,0.589,0.58,0.94s0.188,0.717,0.188,1.095
		c0,0.449-0.079,0.855-0.233,1.218c-0.156,0.361-0.37,0.669-0.641,0.919c-0.286,0.261-0.617,0.46-0.995,0.598
		s-0.812,0.206-1.304,0.206c-0.518,0-0.976-0.081-1.372-0.243c-0.396-0.161-0.727-0.373-0.991-0.638
		c-0.261-0.261-0.459-0.568-0.594-0.922c-0.137-0.354-0.205-0.733-0.205-1.138c0-0.402,0.064-0.774,0.194-1.118
		c0.129-0.343,0.327-0.653,0.595-0.932c0.261-0.271,0.592-0.489,0.993-0.651c0.402-0.164,0.863-0.245,1.385-0.245
		c0.539,0,1.011,0.084,1.412,0.252C120.821,72.885,121.151,73.104,121.408,73.375z M119.957,77.213
		c0.1-0.229,0.171-0.487,0.214-0.771c0.042-0.284,0.063-0.628,0.063-1.032c0-0.365-0.021-0.692-0.06-0.983
		c-0.038-0.292-0.105-0.551-0.198-0.779c-0.097-0.232-0.224-0.412-0.38-0.539c-0.159-0.128-0.352-0.191-0.582-0.191
		c-0.234,0-0.429,0.063-0.588,0.188c-0.157,0.126-0.286,0.304-0.386,0.534c-0.09,0.209-0.155,0.466-0.197,0.77
		c-0.04,0.304-0.06,0.637-0.06,1.002c0,0.38,0.018,0.705,0.052,0.973c0.037,0.269,0.103,0.525,0.199,0.773
		c0.086,0.223,0.21,0.402,0.371,0.54c0.162,0.138,0.361,0.206,0.597,0.206c0.22,0,0.41-0.061,0.572-0.186
		C119.736,77.593,119.862,77.425,119.957,77.213z"/>
	<path fill="#FFFFFF" d="M127.23,78.175h-4.249v-0.391c0.104-0.007,0.268-0.023,0.491-0.052c0.225-0.027,0.379-0.055,0.462-0.082
		c0.104-0.034,0.183-0.093,0.242-0.176c0.058-0.083,0.087-0.195,0.087-0.34v-3.264h-1.303v-0.49h0.282
		c0.301,0,0.558-0.032,0.777-0.098c0.216-0.064,0.397-0.144,0.541-0.237c0.148-0.096,0.271-0.195,0.363-0.299
		c0.095-0.103,0.17-0.194,0.226-0.272h0.905c-0.01,0.223-0.02,0.483-0.03,0.782c-0.01,0.299-0.016,0.567-0.016,0.803v3.021
		c0,0.122,0.026,0.229,0.079,0.32c0.054,0.091,0.131,0.16,0.229,0.209c0.091,0.041,0.238,0.078,0.449,0.112
		c0.208,0.035,0.363,0.056,0.463,0.062V78.175z"/>
	<path fill="#FFFFFF" d="M134.108,78.124h-1.107v1.952h-1.725v-1.952h-3.41v-0.948l3.699-4.681h1.436v4.542h1.107V78.124z
		 M131.276,77.037v-3.312l-2.617,3.312H131.276z"/>
</g>
<polygon fill="#231F20" stroke="#FFFFFF" stroke-width="1.6941" stroke-linejoin="round" stroke-miterlimit="10" points="
	106.784,67.274 111.097,58.65 106.783,50.024 91.691,30.619 72.286,15.526 63.661,11.214 55.036,15.526 35.63,30.619 20.537,50.025 
	16.225,58.65 20.538,67.274 35.63,86.679 55.035,101.771 63.661,106.087 72.285,101.773 91.691,86.679 "/>
<polygon fill="#231F20" stroke="#FFFFFF" stroke-width="1.6941" stroke-linejoin="round" stroke-miterlimit="10" points="
	63.66,97.461 55.035,101.771 39.943,82.368 20.538,67.274 24.848,58.649 20.537,50.025 39.943,34.932 55.036,15.526 63.66,19.838 
	72.286,15.526 87.378,34.931 106.783,50.024 102.472,58.649 106.784,67.274 86.518,83.23 72.285,101.773 "/>
<polygon fill="#231F20" stroke="#FFFFFF" stroke-width="1.6941" stroke-linejoin="round" stroke-miterlimit="10" points="
	39.943,82.368 35.63,65.117 24.848,58.649 35.631,52.181 39.769,35.934 57.193,30.619 63.66,19.838 70.128,30.619 87.378,34.931 
	91.691,52.181 102.472,58.649 91.69,65.117 87.38,82.368 70.128,86.679 63.66,97.461 57.193,86.679 "/>
<polygon fill="#231F20" stroke="#FFFFFF" stroke-width="1.6941" stroke-linejoin="round" stroke-miterlimit="10" points="
	91.69,65.117 91.691,52.181 70.128,30.619 63.828,30.619 57.193,30.619 35.631,52.181 35.63,65.117 57.193,86.679 70.128,86.679 "/>
</svg>
