<?xml version="1.0" encoding="utf-8"?>
<!-- Generator: Adobe Illustrator 15.1.0, SVG Export Plug-In . SVG Version: 6.00 Build 0)  -->
<!DOCTYPE svg PUBLIC "-//W3C//DTD SVG 1.1//EN" "http://www.w3.org/Graphics/SVG/1.1/DTD/svg11.dtd">
<svg version="1.1" id="Layer_1" xmlns="http://www.w3.org/2000/svg" xmlns:xlink="http://www.w3.org/1999/xlink" x="0px" y="0px"
	 width="107.697px" height="107.697px" viewBox="0 0 107.697 107.697" enable-background="new 0 0 107.697 107.697"
	 xml:space="preserve">
<g>
	<g>
		<polygon fill="#505150" stroke="#FFFFFF" stroke-width="1.9231" stroke-linejoin="round" stroke-miterlimit="10" points="
			26.492,27.828 21.793,46.271 46.269,21.793 		"/>
		<polygon fill="#505150" stroke="#FFFFFF" stroke-width="1.9231" stroke-linejoin="round" stroke-miterlimit="10" points="
			80.536,26.688 60.954,21.792 85.431,46.271 		"/>
		<polygon fill="#505150" stroke="#FFFFFF" stroke-width="1.9231" stroke-linejoin="round" stroke-miterlimit="10" points="
			9.553,53.612 21.791,60.954 21.793,46.271 		"/>
		<polygon fill="#505150" stroke="#FFFFFF" stroke-width="1.9231" stroke-linejoin="round" stroke-miterlimit="10" points="
			26.687,80.537 46.269,85.433 21.791,60.954 		"/>
		<polygon fill="#505150" stroke="#FFFFFF" stroke-width="1.9231" stroke-linejoin="round" stroke-miterlimit="10" points="
			60.954,21.792 53.612,9.555 46.269,21.793 53.802,21.793 		"/>
		<polygon fill="#505150" stroke="#FFFFFF" stroke-width="1.9231" stroke-linejoin="round" stroke-miterlimit="10" points="
			46.269,85.433 53.612,97.672 60.954,85.432 		"/>
		<polygon fill="#505150" stroke="#FFFFFF" stroke-width="1.9231" stroke-linejoin="round" stroke-miterlimit="10" points="
			97.67,53.612 85.431,46.271 85.43,60.954 		"/>
		<polygon fill="#505150" stroke="#FFFFFF" stroke-width="1.9231" stroke-linejoin="round" stroke-miterlimit="10" points="
			80.537,80.537 85.43,60.954 60.954,85.432 		"/>
	</g>
	<g>
		<polygon fill="#505150" stroke="#FFFFFF" stroke-width="1.9231" stroke-linejoin="round" stroke-miterlimit="10" points="
			26.727,28.063 46.506,22.03 53.847,9.791 44.057,4.896 26.924,26.925 4.895,44.059 9.79,53.849 22.029,46.508 		"/>
		<polygon fill="#505150" stroke="#FFFFFF" stroke-width="1.9231" stroke-linejoin="round" stroke-miterlimit="10" points="
			80.771,26.926 63.639,4.896 53.847,9.791 61.189,22.029 		"/>
		<polygon fill="#505150" stroke="#FFFFFF" stroke-width="1.9231" stroke-linejoin="round" stroke-miterlimit="10" points="
			97.906,53.849 102.801,44.057 80.771,26.926 85.669,46.508 		"/>
		<polygon fill="#505150" stroke="#FFFFFF" stroke-width="1.9231" stroke-linejoin="round" stroke-miterlimit="10" points="
			26.924,80.772 44.056,102.802 53.847,97.906 46.506,85.67 		"/>
		<polygon fill="#505150" stroke="#FFFFFF" stroke-width="1.9231" stroke-linejoin="round" stroke-miterlimit="10" points="
			102.802,63.641 97.906,53.849 85.667,61.19 80.772,80.773 61.188,85.668 53.847,97.906 63.639,102.803 79.796,81.75 		"/>
		<polygon fill="#505150" stroke="#FFFFFF" stroke-width="1.9231" stroke-linejoin="round" stroke-miterlimit="10" points="
			9.79,53.849 4.895,63.641 26.924,80.772 22.028,61.19 		"/>
	</g>
	<g>
		<polygon fill="#505150" stroke="#FFFFFF" stroke-width="1.9231" stroke-linejoin="round" stroke-miterlimit="10" points="
			63.639,4.896 53.847,0 44.057,4.896 53.847,9.791 		"/>
		<polygon fill="#505150" stroke="#FFFFFF" stroke-width="1.9231" stroke-linejoin="round" stroke-miterlimit="10" points="
			102.801,44.057 85.668,22.03 63.639,4.896 80.771,26.926 		"/>
		<polygon fill="#505150" stroke="#FFFFFF" stroke-width="1.9231" stroke-linejoin="round" stroke-miterlimit="10" points="
			44.057,4.896 22.028,22.03 4.895,44.059 26.924,26.925 		"/>
		<polygon fill="#505150" stroke="#FFFFFF" stroke-width="1.9231" stroke-linejoin="round" stroke-miterlimit="10" points="
			102.802,63.641 107.697,53.849 102.801,44.057 97.906,53.849 		"/>
		<polygon fill="#505150" stroke="#FFFFFF" stroke-width="1.9231" stroke-linejoin="round" stroke-miterlimit="10" points="
			102.802,63.641 79.796,81.75 63.639,102.803 85.668,85.668 		"/>
		<polygon fill="#505150" stroke="#FFFFFF" stroke-width="1.9231" stroke-linejoin="round" stroke-miterlimit="10" points="
			4.895,44.059 0,53.849 4.895,63.641 9.79,53.849 		"/>
		<polygon fill="#505150" stroke="#FFFFFF" stroke-width="1.9231" stroke-linejoin="round" stroke-miterlimit="10" points="
			44.056,102.802 53.847,107.697 63.639,102.803 53.847,97.906 		"/>
		<polygon fill="#505150" stroke="#FFFFFF" stroke-width="1.9231" stroke-linejoin="round" stroke-miterlimit="10" points="
			4.895,63.641 22.028,85.67 44.056,102.802 26.924,80.772 		"/>
	</g>
	<polygon fill="#505150" stroke="#FFFFFF" stroke-width="1.9231" stroke-linejoin="round" stroke-miterlimit="10" points="
		85.667,61.19 85.669,46.508 61.189,22.029 54.038,22.03 46.506,22.03 22.029,46.508 22.028,61.19 46.506,85.67 61.188,85.668 	"/>
</g>
</svg>
