<?xml version="1.0" encoding="utf-8"?>
<!-- Generator: Adobe Illustrator 15.1.0, SVG Export Plug-In . SVG Version: 6.00 Build 0)  -->
<!DOCTYPE svg PUBLIC "-//W3C//DTD SVG 1.1//EN" "http://www.w3.org/Graphics/SVG/1.1/DTD/svg11.dtd">
<svg version="1.1" id="Layer_1" xmlns="http://www.w3.org/2000/svg" xmlns:xlink="http://www.w3.org/1999/xlink" x="0px" y="0px"
	 width="156.08px" height="151.634px" viewBox="-2.409 -0.101 156.08 151.634"
	 enable-background="new -2.409 -0.101 156.08 151.634" xml:space="preserve">
<g>
	<path fill="#58595B" d="M16.524,48.692c0.701,0.22,1.219,0.579,1.553,1.076c0.333,0.498,0.529,1.056,0.588,1.676
		c0.058,0.62,0.042,1.203-0.049,1.75c-0.091,0.545-0.213,1.061-0.365,1.548l-1.976,6.273l-0.849-0.267
		c0.169-0.535,0.238-0.948,0.207-1.238c-0.03-0.289-0.135-0.505-0.313-0.646c-0.179-0.141-0.446-0.267-0.804-0.379L6.618,56
		c-0.553-0.175-0.974-0.181-1.26-0.022c-0.287,0.16-0.549,0.612-0.783,1.356L3.709,57.06c0.262-0.897,0.511-1.752,0.746-2.563
		s0.43-1.479,0.584-2.002c0.154-0.522,0.265-0.888,0.33-1.097l0.107-0.342c0.201-0.639,0.479-1.288,0.83-1.944
		c0.353-0.657,0.853-1.199,1.501-1.627c0.648-0.427,1.412-0.503,2.292-0.227c0.658,0.207,1.15,0.619,1.478,1.236
		c0.326,0.616,0.476,1.505,0.449,2.666c0.357-0.685,0.773-1.249,1.246-1.691c0.475-0.442,0.988-0.728,1.543-0.858
		S15.94,48.508,16.524,48.692z M9.343,49.92c-0.43-0.136-0.84-0.151-1.228-0.046c-0.388,0.104-0.735,0.329-1.044,0.675
		c-0.309,0.346-0.555,0.811-0.738,1.396l-0.305,0.968l4.484,1.412l0.238-0.757c0.311-0.991,0.333-1.79,0.065-2.398
		C10.548,50.561,10.058,50.145,9.343,49.92z M15.476,51.474c-0.849-0.267-1.577-0.253-2.188,0.038
		c-0.608,0.292-1.039,0.837-1.29,1.637l-0.471,1.495l3.009,0.948l0.249,0.078c0.455,0.143,0.819,0.228,1.091,0.251
		c0.273,0.025,0.514-0.051,0.722-0.229s0.388-0.507,0.539-0.986c0.201-0.64,0.187-1.271-0.043-1.895
		C16.864,52.187,16.325,51.742,15.476,51.474z"/>
	<path fill="#58595B" d="M21.732,37.08l3.8,2.184L19.91,49.507l-0.78-0.427c0.389-0.707,0.536-1.218,0.444-1.533
		c-0.093-0.315-0.387-0.609-0.884-0.882l-7.226-3.966c-0.333-0.183-0.61-0.292-0.831-0.323c-0.222-0.033-0.45,0.045-0.688,0.235
		c-0.236,0.19-0.488,0.529-0.755,1.015l-0.78-0.429l3.174-5.783l0.78,0.426c-0.264,0.482-0.415,0.871-0.454,1.17
		s0.013,0.536,0.154,0.714c0.143,0.177,0.386,0.36,0.73,0.549l6.615,3.63c0.52,0.285,0.906,0.464,1.16,0.537
		c0.254,0.075,0.501,0.029,0.742-0.133c0.239-0.162,0.5-0.501,0.783-1.015c0.356-0.65,0.62-1.246,0.789-1.79
		c0.17-0.544,0.155-1.141-0.045-1.79c-0.198-0.649-0.711-1.268-1.537-1.854L21.732,37.08z"/>
	<path fill="#58595B" d="M34.364,28.859l-4.047,4.672l-0.673-0.583c0.342-0.395,0.563-0.707,0.663-0.935
		c0.101-0.229,0.046-0.435-0.164-0.617c-0.146-0.125-0.32-0.225-0.521-0.298l-1.576-0.545l-2.786,3.218l0.436,0.799
		c0.242,0.448,0.443,0.742,0.604,0.882c0.293,0.253,0.576,0.301,0.851,0.142c0.274-0.16,0.542-0.391,0.804-0.694l0.673,0.584
		l-2.957,3.415l-0.673-0.584c0.236-0.272,0.386-0.548,0.448-0.827c0.062-0.277,0.025-0.627-0.11-1.048
		c-0.135-0.419-0.377-0.955-0.725-1.607l-5.014-9.343l0.602-0.694l10.338,3.666c0.736,0.253,1.244,0.412,1.525,0.476
		c0.282,0.065,0.553,0.052,0.814-0.038c0.26-0.089,0.532-0.297,0.815-0.624L34.364,28.859z M27.102,30.196l-4.644-1.627l2.332,4.296
		L27.102,30.196z"/>
	<path fill="#58595B" d="M43.726,21.667l-0.724,0.552c-0.444-0.358-0.921-0.618-1.434-0.779c-0.081,0.702-0.261,1.391-0.54,2.067
		c-0.28,0.675-0.848,1.341-1.704,1.993c-0.938,0.716-1.983,1.152-3.133,1.308c-1.151,0.156-2.276,0.006-3.377-0.447
		c-1.102-0.455-2.043-1.194-2.825-2.22c-0.555-0.728-0.955-1.521-1.201-2.38c-0.246-0.858-0.32-1.722-0.225-2.59
		c0.097-0.869,0.366-1.7,0.812-2.494c0.444-0.793,1.062-1.491,1.852-2.094c1.303-0.993,2.704-1.389,4.204-1.187
		c-0.055-0.306-0.189-0.712-0.402-1.213l0.692-0.529l3.051,3.743l-0.738,0.564c-0.631-0.55-1.313-0.946-2.05-1.188
		c-0.735-0.242-1.446-0.314-2.131-0.217c-0.685,0.096-1.289,0.343-1.811,0.743c-0.585,0.445-0.988,1.006-1.211,1.683
		c-0.222,0.676-0.215,1.443,0.022,2.301c0.236,0.858,0.729,1.776,1.476,2.756c0.727,0.954,1.443,1.663,2.146,2.127
		c0.703,0.465,1.342,0.735,1.913,0.809c0.572,0.076,1.066,0.045,1.482-0.09c0.415-0.135,0.768-0.312,1.055-0.53
		c0.631-0.481,1.069-1.084,1.316-1.809c0.247-0.722,0.335-1.466,0.265-2.227s-0.244-1.438-0.523-2.027l0.738-0.563L43.726,21.667z"
		/>
	<path fill="#58595B" d="M58.491,14.993l-6.659,2.949l-0.36-0.812l0.539-0.239c0.46-0.205,0.762-0.371,0.904-0.502
		c0.145-0.129,0.185-0.265,0.121-0.406c-0.092-0.208-0.529-0.543-1.313-1.007l-4.184-2.494l-0.929,2.01l1.147,2.591
		c0.232,0.525,0.516,0.838,0.851,0.94c0.334,0.103,0.841,0.003,1.519-0.297l0.36,0.814l-5.996,2.657l-0.361-0.815
		c0.514-0.226,0.869-0.448,1.066-0.662c0.197-0.215,0.291-0.435,0.278-0.663c-0.013-0.227-0.095-0.512-0.246-0.854l-3.339-7.535
		c-0.151-0.342-0.304-0.594-0.457-0.756c-0.152-0.162-0.377-0.241-0.677-0.24c-0.298,0.004-0.704,0.117-1.218,0.345l-0.36-0.814
		l5.997-2.656l0.36,0.814c-0.737,0.326-1.165,0.642-1.283,0.948c-0.118,0.308-0.062,0.72,0.167,1.239l1.6,3.608l2.285-4.918
		c0.161-0.338,0.264-0.615,0.311-0.831c0.046-0.213,0.024-0.42-0.064-0.621c-0.188-0.425-0.686-0.458-1.494-0.101l-0.36-0.814
		l5.476-2.425L52.53,4.26c-0.408,0.224-0.733,0.427-0.973,0.611s-0.453,0.405-0.642,0.665s-0.379,0.578-0.573,0.952
		c-0.193,0.375-0.488,0.99-0.887,1.843l-0.773,1.645l5.771,3.473c0.614,0.37,1.101,0.632,1.459,0.787
		c0.358,0.156,0.701,0.231,1.031,0.226c0.329-0.005,0.725-0.1,1.187-0.283L58.491,14.993z"/>
	<path fill="#58595B" d="M79.451,6.379c0.04,0.948-0.085,1.809-0.374,2.587c-0.29,0.777-0.679,1.43-1.166,1.961
		c-0.487,0.53-1.016,0.938-1.584,1.22c-1.201,0.592-2.688,0.927-4.46,1.002l-5.982,0.255l-0.037-0.889
		c0.554-0.023,0.97-0.094,1.249-0.212c0.279-0.119,0.457-0.287,0.535-0.503c0.078-0.215,0.109-0.521,0.092-0.914l-0.353-8.273
		c-0.023-0.568-0.156-0.961-0.398-1.184c-0.241-0.222-0.777-0.315-1.609-0.279l-0.038-0.91l2.81-0.176
		c0.097-0.005,0.489-0.027,1.179-0.07c0.688-0.042,1.088-0.066,1.197-0.071c1.075-0.046,1.991-0.026,2.747,0.057
		c0.755,0.084,1.451,0.242,2.087,0.473c0.584,0.208,1.126,0.509,1.627,0.905c0.501,0.395,0.928,0.851,1.283,1.369
		c0.354,0.518,0.635,1.084,0.842,1.701C79.304,5.046,79.422,5.696,79.451,6.379z M76.317,6.454
		c-0.059-1.359-0.366-2.488-0.924-3.384c-0.558-0.896-1.289-1.502-2.193-1.817c-0.394-0.139-0.808-0.219-1.244-0.243
		c-0.437-0.023-1.062-0.018-1.873,0.017l0.393,9.21c0.021,0.529,0.064,0.913,0.126,1.152s0.222,0.417,0.478,0.531
		c0.257,0.116,0.649,0.162,1.178,0.139c1.565-0.067,2.648-0.661,3.25-1.783C76.107,9.151,76.378,7.878,76.317,6.454z"/>
	<path fill="#58595B" d="M86.444,13.94l-6.604-0.835l0.112-0.882c0.55,0.069,0.973,0.069,1.268-0.001
		c0.294-0.069,0.499-0.205,0.611-0.405c0.113-0.2,0.194-0.494,0.244-0.886l1.034-8.176c0.07-0.562,0.004-0.974-0.201-1.234
		c-0.203-0.261-0.716-0.442-1.534-0.546l0.111-0.882l6.603,0.834L87.978,1.81c-0.551-0.069-0.973-0.068-1.268,0.006
		c-0.296,0.073-0.5,0.208-0.612,0.405s-0.194,0.491-0.243,0.88l-1.033,8.177c-0.047,0.371-0.043,0.667,0.014,0.889
		c0.057,0.221,0.213,0.407,0.471,0.557c0.257,0.149,0.674,0.26,1.25,0.333L86.444,13.94z"/>
	<path fill="#58595B" d="M99.457,17.564l-5.917-1.789l0.258-0.852c0.5,0.151,0.875,0.226,1.125,0.223
		c0.25-0.001,0.414-0.135,0.494-0.4c0.057-0.185,0.077-0.385,0.061-0.598l-0.145-1.661l-4.074-1.233l-0.552,0.723
		c-0.312,0.404-0.497,0.708-0.56,0.912c-0.111,0.37-0.039,0.648,0.219,0.834c0.257,0.186,0.576,0.336,0.959,0.452l-0.257,0.852
		l-4.324-1.308l0.258-0.853c0.345,0.105,0.658,0.129,0.938,0.072c0.279-0.058,0.584-0.233,0.912-0.528
		c0.328-0.295,0.719-0.734,1.172-1.318l6.488-8.385l0.879,0.266l0.867,10.934c0.068,0.776,0.131,1.305,0.187,1.588
		c0.057,0.283,0.179,0.525,0.366,0.726c0.188,0.203,0.489,0.365,0.903,0.491L99.457,17.564z M95.274,11.479l-0.407-4.904
		l-2.973,3.882L95.274,11.479z"/>
	<path fill="#58595B" d="M115.366,27.06l-5.58-3.484l0.472-0.754c0.481,0.3,0.864,0.473,1.148,0.517
		c0.284,0.045,0.517-0.004,0.7-0.144c0.183-0.141,0.373-0.37,0.571-0.687l4.354-6.975l-9.847,6.42l-0.501-0.312l1.387-11.702
		l-4.134,6.622c-0.219,0.351-0.374,0.626-0.466,0.827c-0.092,0.201-0.127,0.4-0.107,0.593c0.02,0.195,0.118,0.393,0.298,0.592
		c0.179,0.198,0.463,0.42,0.852,0.663l-0.472,0.754l-4.118-2.571l0.471-0.755c0.394,0.247,0.72,0.404,0.977,0.473
		c0.257,0.07,0.476,0.069,0.657-0.001c0.18-0.07,0.338-0.189,0.475-0.359c0.136-0.169,0.313-0.429,0.531-0.779l3.936-6.302
		c0.293-0.471,0.48-0.824,0.561-1.063c0.08-0.238,0.044-0.48-0.111-0.725c-0.154-0.245-0.495-0.532-1.02-0.86l0.471-0.754l4.07,2.54
		l-1.211,10.158l8.604-5.542l3.979,2.483l-0.472,0.755c-0.684-0.427-1.187-0.602-1.512-0.528c-0.324,0.075-0.635,0.351-0.932,0.827
		l-4.365,6.992c-0.188,0.3-0.307,0.564-0.357,0.792c-0.05,0.227,0.012,0.465,0.187,0.715s0.501,0.523,0.976,0.82L115.366,27.06z"/>
	<path fill="#58595B" d="M130.124,33.897c-0.885,0.801-1.904,1.339-3.057,1.618c-1.153,0.277-2.336,0.215-3.549-0.188
		c-1.212-0.403-2.327-1.167-3.344-2.29c-0.831-0.919-1.414-1.861-1.749-2.828c-0.336-0.966-0.454-1.896-0.356-2.788
		c0.096-0.893,0.345-1.713,0.745-2.462c0.4-0.75,0.899-1.395,1.497-1.936c0.866-0.783,1.867-1.32,3.005-1.61s2.312-0.24,3.522,0.152
		c1.211,0.392,2.332,1.155,3.361,2.293c0.939,1.038,1.568,2.075,1.887,3.108c0.317,1.034,0.401,1.987,0.254,2.861
		c-0.149,0.874-0.428,1.654-0.836,2.341C131.096,32.859,130.635,33.433,130.124,33.897z M128.05,31.548
		c0.545-0.495,1.02-1.009,1.423-1.542c0.403-0.535,0.696-1.098,0.878-1.69c0.184-0.59,0.206-1.195,0.07-1.811
		c-0.136-0.616-0.475-1.223-1.016-1.821c-0.743-0.822-1.528-1.279-2.355-1.371c-0.826-0.092-1.621,0.058-2.386,0.449
		c-0.764,0.391-1.509,0.916-2.235,1.574c-0.401,0.364-0.796,0.768-1.184,1.214c-0.388,0.447-0.719,0.977-0.993,1.591
		c-0.275,0.614-0.37,1.282-0.286,2.005c0.085,0.723,0.443,1.435,1.075,2.133c0.628,0.693,1.298,1.109,2.013,1.25
		s1.395,0.099,2.04-0.124c0.646-0.223,1.204-0.503,1.675-0.838C127.24,32.233,127.667,31.893,128.05,31.548z"/>
	<path fill="#58595B" d="M142.918,45.519c-0.289-0.556-0.552-0.923-0.788-1.106c-0.236-0.181-0.479-0.245-0.726-0.189
		c-0.247,0.056-0.617,0.212-1.108,0.468l-9.225,4.801l-0.41-0.79l5.082-12.318l-6.41,3.336c-0.486,0.253-0.824,0.466-1.013,0.642
		c-0.189,0.175-0.278,0.416-0.268,0.723s0.159,0.734,0.445,1.283l-0.79,0.412l-2.25-4.325l0.789-0.411
		c0.268,0.514,0.521,0.857,0.759,1.027c0.237,0.171,0.48,0.226,0.729,0.166c0.248-0.06,0.615-0.217,1.102-0.47l5.938-3.09
		c0.48-0.25,0.835-0.45,1.062-0.601c0.227-0.151,0.404-0.322,0.535-0.513c0.129-0.191,0.192-0.426,0.189-0.705
		c-0.003-0.278-0.087-0.622-0.249-1.033l0.789-0.411l1.765,3.39l-4.377,10.697l5.312-2.765c0.435-0.226,0.752-0.429,0.952-0.609
		c0.201-0.182,0.302-0.422,0.305-0.726c0.002-0.303-0.132-0.712-0.399-1.227l0.79-0.411l2.26,4.341L142.918,45.519z"/>
	<path fill="#58595B" d="M142.001,63.321c-0.918,0.234-1.787,0.292-2.607,0.17c-0.82-0.123-1.541-0.368-2.161-0.734
		s-1.128-0.799-1.521-1.297c-0.829-1.052-1.464-2.437-1.905-4.154l-1.489-5.8l0.862-0.222c0.138,0.538,0.293,0.931,0.467,1.179
		c0.174,0.249,0.375,0.389,0.602,0.419c0.229,0.032,0.533-0.001,0.914-0.099l8.021-2.06c0.549-0.141,0.908-0.353,1.075-0.635
		c0.167-0.282,0.146-0.827-0.06-1.632l0.88-0.227l0.756,2.712c0.025,0.093,0.129,0.474,0.312,1.138
		c0.185,0.665,0.29,1.051,0.317,1.156c0.268,1.043,0.438,1.943,0.513,2.7c0.075,0.758,0.064,1.47-0.029,2.141
		c-0.082,0.613-0.265,1.206-0.547,1.777c-0.283,0.572-0.641,1.085-1.073,1.539c-0.433,0.454-0.93,0.846-1.49,1.177
		C143.274,62.901,142.663,63.15,142.001,63.321z M141.278,60.27c1.317-0.338,2.357-0.873,3.118-1.604s1.202-1.572,1.324-2.522
		c0.054-0.413,0.047-0.836-0.021-1.268s-0.203-1.042-0.404-1.828l-8.929,2.292c-0.513,0.131-0.88,0.252-1.101,0.362
		c-0.222,0.11-0.362,0.302-0.421,0.578c-0.06,0.275-0.024,0.668,0.108,1.18c0.39,1.519,1.195,2.455,2.418,2.81
		C138.596,60.625,139.897,60.625,141.278,60.27z"/>
</g>
<g>
	<path fill="#58595B" d="M23.972,131.624l-0.632-0.654c0.306-0.482,0.508-0.986,0.608-1.514c-0.707,0.002-1.412-0.098-2.115-0.297
		c-0.703-0.201-1.43-0.688-2.178-1.463c-0.818-0.848-1.373-1.836-1.66-2.961c-0.289-1.125-0.27-2.26,0.054-3.406
		c0.323-1.146,0.949-2.166,1.878-3.062c0.658-0.636,1.4-1.126,2.226-1.469c0.824-0.344,1.673-0.518,2.547-0.523
		c0.874-0.004,1.729,0.168,2.569,0.519c0.84,0.35,1.605,0.882,2.295,1.598c1.137,1.179,1.692,2.525,1.666,4.038
		c0.298-0.091,0.684-0.271,1.158-0.54l0.604,0.626l-3.366,3.464l-0.645-0.668c0.473-0.689,0.787-1.414,0.942-2.173
		s0.145-1.474-0.03-2.143c-0.176-0.669-0.491-1.239-0.948-1.713c-0.511-0.529-1.114-0.864-1.812-1.007
		c-0.696-0.143-1.458-0.047-2.282,0.287s-1.681,0.928-2.566,1.784c-0.863,0.833-1.485,1.626-1.865,2.379
		c-0.382,0.753-0.576,1.417-0.584,1.993c-0.008,0.578,0.08,1.064,0.262,1.462c0.182,0.398,0.398,0.728,0.649,0.987
		c0.552,0.57,1.2,0.937,1.948,1.098c0.746,0.162,1.494,0.164,2.243,0.006c0.748-0.157,1.399-0.41,1.952-0.756l0.646,0.669
		L23.972,131.624z"/>
	<path fill="#58595B" d="M43.861,137.516c-0.637,1.008-1.474,1.802-2.509,2.38c-1.035,0.577-2.191,0.835-3.468,0.774
		c-1.276-0.062-2.556-0.497-3.837-1.307c-1.047-0.66-1.863-1.41-2.445-2.252c-0.584-0.84-0.948-1.703-1.095-2.588
		c-0.146-0.887-0.128-1.744,0.056-2.572c0.185-0.83,0.492-1.586,0.922-2.268c0.623-0.987,1.443-1.773,2.46-2.359
		c1.018-0.586,2.163-0.853,3.435-0.801c1.271,0.051,2.556,0.485,3.854,1.306c1.183,0.745,2.067,1.574,2.652,2.484
		c0.585,0.911,0.923,1.807,1.015,2.688c0.092,0.882,0.033,1.709-0.176,2.48C44.518,136.255,44.229,136.932,43.861,137.516z
		 M41.231,135.809c0.393-0.621,0.711-1.244,0.955-1.866c0.244-0.624,0.375-1.245,0.392-1.864c0.017-0.618-0.123-1.205-0.42-1.763
		c-0.297-0.557-0.786-1.05-1.468-1.481c-0.938-0.591-1.817-0.82-2.638-0.686c-0.821,0.134-1.546,0.492-2.177,1.074
		s-1.207,1.288-1.73,2.117c-0.289,0.457-0.561,0.954-0.812,1.488c-0.254,0.535-0.43,1.133-0.529,1.799s-0.011,1.336,0.266,2.009
		c0.275,0.675,0.812,1.263,1.608,1.765c0.791,0.499,1.55,0.721,2.275,0.664c0.726-0.058,1.37-0.279,1.931-0.669
		c0.562-0.39,1.025-0.808,1.389-1.258C40.636,136.689,40.956,136.247,41.231,135.809z"/>
	<path fill="#58595B" d="M56.905,148.966l-0.862-0.286c0.047-0.569-0.007-1.111-0.163-1.626c-0.626,0.33-1.297,0.568-2.012,0.717
		c-0.717,0.149-1.584,0.055-2.606-0.287c-1.12-0.371-2.068-0.99-2.844-1.854c-0.776-0.863-1.286-1.877-1.53-3.044
		c-0.244-1.164-0.162-2.359,0.246-3.583c0.289-0.868,0.72-1.646,1.292-2.333c0.571-0.687,1.243-1.234,2.016-1.642
		c0.771-0.41,1.61-0.654,2.517-0.731c0.906-0.079,1.831,0.039,2.773,0.352c1.554,0.518,2.67,1.454,3.348,2.807
		c0.221-0.217,0.48-0.556,0.776-1.015l0.825,0.275l-1.378,4.628l-0.882-0.293c0.101-0.83,0.043-1.617-0.172-2.361
		c-0.214-0.744-0.553-1.373-1.018-1.885c-0.466-0.512-1.01-0.871-1.635-1.079c-0.697-0.232-1.389-0.25-2.072-0.054
		c-0.684,0.197-1.314,0.635-1.89,1.312c-0.576,0.68-1.06,1.602-1.448,2.771c-0.379,1.137-0.562,2.129-0.552,2.971
		c0.012,0.844,0.147,1.523,0.407,2.037c0.26,0.516,0.562,0.907,0.908,1.175c0.347,0.269,0.689,0.459,1.033,0.573
		c0.752,0.251,1.497,0.275,2.234,0.072s1.4-0.549,1.991-1.034c0.59-0.487,1.05-1.011,1.381-1.575l0.882,0.295L56.905,148.966z"/>
	<path fill="#58595B" d="M76.896,151.533l-7.258-0.616l0.076-0.887l0.587,0.051c0.502,0.041,0.847,0.041,1.035-0.006
		c0.188-0.045,0.289-0.145,0.302-0.299c0.02-0.226-0.203-0.729-0.668-1.514l-2.468-4.199l-1.782,1.315l-0.239,2.823
		c-0.049,0.572,0.05,0.983,0.294,1.234c0.243,0.25,0.735,0.406,1.474,0.469l-0.075,0.887l-6.534-0.555l0.075-0.886
		c0.559,0.047,0.977,0.024,1.253-0.069c0.276-0.092,0.464-0.242,0.562-0.447c0.099-0.204,0.164-0.493,0.195-0.867l0.697-8.212
		c0.032-0.372,0.02-0.666-0.036-0.882c-0.056-0.214-0.216-0.394-0.479-0.535c-0.264-0.143-0.675-0.236-1.233-0.284l0.075-0.888
		l6.535,0.557l-0.075,0.886c-0.804-0.069-1.331,0.003-1.581,0.215c-0.252,0.212-0.4,0.601-0.449,1.167l-0.333,3.932l4.369-3.211
		c0.303-0.221,0.526-0.413,0.67-0.579c0.144-0.165,0.225-0.357,0.243-0.576c0.039-0.462-0.381-0.732-1.262-0.807l0.075-0.886
		l5.967,0.506l-0.075,0.887c-0.466,0-0.849,0.021-1.147,0.067c-0.298,0.046-0.592,0.139-0.882,0.274
		c-0.29,0.137-0.61,0.324-0.96,0.56c-0.35,0.236-0.904,0.632-1.664,1.188l-1.47,1.07l3.39,5.82c0.361,0.621,0.662,1.085,0.901,1.393
		c0.238,0.309,0.504,0.54,0.795,0.693c0.291,0.154,0.684,0.262,1.177,0.324L76.896,151.533z"/>
	<path fill="#58595B" d="M91.598,140.21l-0.911,0.122c-0.191-0.794-0.448-1.364-0.771-1.712c-0.322-0.347-0.647-0.545-0.973-0.592
		c-0.324-0.047-0.692-0.043-1.101,0.012l-1.649,0.221l1.277,9.521c0.051,0.377,0.128,0.665,0.232,0.86
		c0.104,0.199,0.305,0.336,0.602,0.413s0.717,0.08,1.26,0.007l0.119,0.883l-6.521,0.875l-0.118-0.883
		c0.8-0.107,1.299-0.291,1.497-0.553c0.2-0.261,0.262-0.672,0.187-1.235l-1.277-9.519l-1.381,0.184
		c-0.543,0.072-0.987,0.177-1.334,0.312c-0.346,0.134-0.629,0.413-0.849,0.836c-0.221,0.423-0.296,1.04-0.226,1.85l-0.91,0.122
		l-0.495-3.69l12.847-1.724L91.598,140.21z"/>
	<path fill="#58595B" d="M106.795,144.94l-5.858,1.971l-0.284-0.843c0.495-0.167,0.844-0.321,1.046-0.47
		c0.203-0.146,0.26-0.352,0.172-0.612c-0.062-0.184-0.162-0.358-0.299-0.523l-1.08-1.27l-4.034,1.358l-0.03,0.908
		c-0.02,0.511,0.005,0.867,0.073,1.067c0.123,0.368,0.344,0.552,0.661,0.554c0.316,0.002,0.664-0.06,1.043-0.188l0.284,0.845
		l-4.281,1.44l-0.284-0.843c0.343-0.116,0.611-0.278,0.807-0.486c0.195-0.209,0.341-0.527,0.438-0.958
		c0.097-0.433,0.16-1.016,0.19-1.755l0.425-10.594l0.87-0.293l7.046,8.406c0.506,0.592,0.863,0.986,1.072,1.186
		c0.21,0.198,0.449,0.324,0.721,0.381c0.27,0.055,0.609,0.014,1.02-0.124L106.795,144.94z M99.858,142.407l-3.174-3.76l-0.173,4.886
		L99.858,142.407z"/>
	<path fill="#58595B" d="M114.153,141.019l-5.918,3.043l-0.407-0.79c0.493-0.255,0.842-0.494,1.046-0.719
		c0.202-0.225,0.295-0.449,0.274-0.68c-0.02-0.229-0.119-0.519-0.3-0.867l-3.77-7.33c-0.26-0.504-0.547-0.806-0.862-0.904
		c-0.315-0.1-0.841,0.04-1.574,0.418l-0.407-0.792l5.918-3.045l0.407,0.793c-0.493,0.254-0.841,0.494-1.043,0.72
		c-0.202,0.229-0.294,0.455-0.275,0.682s0.117,0.514,0.298,0.863l3.769,7.329c0.171,0.333,0.343,0.575,0.515,0.726
		s0.406,0.215,0.704,0.193c0.296-0.022,0.702-0.166,1.219-0.432L114.153,141.019z"/>
	<path fill="#58595B" d="M122.591,130.066l2.449,3.634l-9.558,6.723l-0.512-0.728c0.659-0.464,1.018-0.857,1.074-1.181
		c0.056-0.324-0.079-0.717-0.406-1.182l-4.741-6.74c-0.219-0.312-0.42-0.53-0.604-0.658c-0.185-0.127-0.425-0.157-0.721-0.091
		c-0.297,0.067-0.671,0.26-1.125,0.578l-0.512-0.728l5.396-3.795l0.513,0.728c-0.449,0.315-0.756,0.599-0.922,0.85
		c-0.167,0.251-0.226,0.486-0.176,0.709c0.049,0.222,0.188,0.493,0.413,0.814l4.341,6.171c0.342,0.486,0.61,0.817,0.806,0.994
		c0.196,0.179,0.438,0.247,0.725,0.207s0.671-0.229,1.151-0.566c0.605-0.428,1.104-0.848,1.496-1.261
		c0.392-0.412,0.641-0.954,0.749-1.626c0.106-0.671-0.081-1.451-0.565-2.342L122.591,130.066z"/>
	<path fill="#58595B" d="M131.185,122.483c0.287,0.288,0.529,0.655,0.727,1.1c0.196,0.445,0.317,0.939,0.361,1.481
		c0.044,0.544-0.031,1.097-0.228,1.659c-0.194,0.562-0.542,1.092-1.04,1.586c-0.494,0.492-1.091,0.871-1.792,1.142
		c-0.7,0.27-1.432,0.36-2.193,0.271c0.19,0.484,0.409,0.891,0.654,1.22l-0.632,0.628l-3.165-3.182l0.632-0.627
		c0.568,0.342,1.154,0.615,1.755,0.816c0.602,0.203,1.23,0.266,1.888,0.19s1.253-0.38,1.788-0.911
		c0.466-0.465,0.713-0.964,0.739-1.5c0.026-0.535-0.154-0.998-0.54-1.386c-0.218-0.221-0.453-0.368-0.703-0.446
		c-0.251-0.079-0.523-0.102-0.817-0.068c-0.295,0.034-0.658,0.119-1.092,0.254s-0.916,0.303-1.445,0.502
		c-0.825,0.295-1.553,0.486-2.183,0.576s-1.163,0.099-1.602,0.029c-0.438-0.069-0.805-0.183-1.104-0.342
		c-0.298-0.158-0.562-0.354-0.795-0.587c-0.413-0.416-0.71-0.938-0.889-1.565c-0.178-0.627-0.18-1.285-0.005-1.973
		c0.176-0.688,0.547-1.314,1.113-1.878c0.435-0.433,0.945-0.747,1.531-0.944c0.587-0.195,1.192-0.268,1.816-0.217
		c-0.108-0.273-0.301-0.618-0.578-1.034l0.645-0.642l2.579,2.592l-0.646,0.643c-1.862-0.959-3.36-0.874-4.494,0.254
		c-0.412,0.409-0.634,0.848-0.667,1.312s0.12,0.868,0.462,1.211c0.269,0.27,0.578,0.428,0.932,0.471
		c0.354,0.045,0.728,0.013,1.123-0.099c0.394-0.11,1.007-0.315,1.838-0.614c1.009-0.357,1.824-0.609,2.447-0.756
		s1.248-0.172,1.874-0.077C130.107,121.667,130.676,121.971,131.185,122.483z"/>
</g>
<g>
	<path fill="#58595B" d="M4.945,89.375H4.501c-0.113-0.314-0.308-0.633-0.585-0.955c-0.276-0.322-0.551-0.513-0.824-0.57
		c-0.116-0.027-0.279-0.045-0.488-0.051c-0.208-0.006-0.381-0.008-0.517-0.008H0.882v3.198h0.854c0.215,0,0.409-0.025,0.585-0.076
		S2.655,90.764,2.8,90.62c0.09-0.09,0.181-0.247,0.271-0.473c0.092-0.227,0.151-0.424,0.179-0.591h0.444v3.461H3.25
		c-0.023-0.164-0.083-0.37-0.179-0.617c-0.095-0.247-0.186-0.418-0.271-0.511c-0.129-0.141-0.28-0.237-0.456-0.29
		S1.966,91.52,1.735,91.52H0.882v2.391c0,0.25,0.019,0.447,0.056,0.594s0.106,0.259,0.208,0.336c0.097,0.074,0.23,0.123,0.4,0.146
		c0.169,0.023,0.4,0.035,0.692,0.035c0.137,0,0.301-0.002,0.491-0.006c0.191-0.004,0.358-0.016,0.503-0.035
		c0.164-0.02,0.316-0.049,0.459-0.088s0.248-0.096,0.318-0.169c0.188-0.19,0.397-0.482,0.632-0.874
		c0.233-0.392,0.388-0.686,0.462-0.88H5.53l-0.158,2.584h-7.781v-0.456c0.109-0.008,0.257-0.023,0.444-0.047
		c0.187-0.023,0.319-0.051,0.397-0.082c0.148-0.062,0.247-0.141,0.298-0.236s0.076-0.217,0.076-0.365v-5.853
		c0-0.141-0.021-0.256-0.064-0.348s-0.146-0.175-0.31-0.248c-0.102-0.047-0.244-0.09-0.427-0.129
		c-0.184-0.039-0.321-0.064-0.415-0.076v-0.456h7.354V89.375z"/>
	<path fill="#58595B" d="M9.018,95.753c-0.378,0-0.747-0.055-1.107-0.166s-0.641-0.229-0.839-0.354l-0.176,0.397H6.439L6.363,93.45
		H6.79c0.059,0.176,0.156,0.373,0.293,0.594c0.136,0.22,0.292,0.418,0.468,0.593c0.183,0.175,0.393,0.323,0.628,0.444
		c0.236,0.121,0.488,0.182,0.758,0.182c0.354,0,0.618-0.069,0.792-0.208c0.173-0.138,0.26-0.352,0.26-0.64
		c0-0.156-0.039-0.285-0.117-0.387c-0.077-0.102-0.185-0.188-0.321-0.263c-0.152-0.077-0.318-0.144-0.5-0.198
		c-0.181-0.055-0.404-0.121-0.669-0.199c-0.266-0.078-0.492-0.156-0.682-0.236c-0.188-0.08-0.385-0.206-0.587-0.377
		c-0.176-0.152-0.316-0.336-0.421-0.551c-0.105-0.214-0.158-0.469-0.158-0.766c0-0.549,0.23-0.994,0.692-1.332
		c0.462-0.34,1.067-0.51,1.815-0.51c0.354,0,0.682,0.037,0.979,0.109c0.298,0.071,0.549,0.15,0.751,0.236l0.123-0.346h0.444
		l0.094,1.994h-0.409c-0.137-0.405-0.37-0.755-0.702-1.049C9.99,90.247,9.634,90.1,9.252,90.1c-0.301,0-0.536,0.062-0.708,0.187
		c-0.171,0.124-0.257,0.298-0.257,0.521c0,0.296,0.125,0.51,0.376,0.643s0.603,0.258,1.054,0.375
		c0.696,0.179,1.206,0.424,1.529,0.733s0.484,0.704,0.484,1.184c0,0.64-0.25,1.134-0.751,1.485
		C10.479,95.578,9.825,95.753,9.018,95.753z"/>
	<path fill="#58595B" d="M16.849,95.286c-0.249,0.109-0.517,0.207-0.801,0.295s-0.632,0.131-1.041,0.131
		c-0.607,0-1.059-0.147-1.354-0.443c-0.294-0.296-0.441-0.719-0.441-1.268v-3.586H12.16v-0.637h1.075v-1.771h1.895v1.771h1.643
		v0.637h-1.631v3.2c0,0.456,0.063,0.778,0.19,0.97c0.127,0.19,0.355,0.285,0.684,0.285c0.105,0,0.252-0.008,0.44-0.023
		c0.188-0.016,0.318-0.033,0.393-0.053V95.286z"/>
	<path fill="#58595B" d="M20.014,94.584c0,0.308-0.114,0.575-0.343,0.802c-0.228,0.226-0.497,0.338-0.81,0.338
		c-0.315,0-0.587-0.111-0.815-0.336c-0.228-0.224-0.342-0.492-0.342-0.804s0.114-0.581,0.342-0.81
		c0.229-0.229,0.5-0.342,0.815-0.342c0.312,0,0.582,0.115,0.81,0.345C19.899,94.007,20.014,94.276,20.014,94.584z"/>
</g>
<g>
	<path fill="#58595B" d="M131.926,95.554h-6.337v-1.058c0.276-0.281,0.58-0.537,0.91-0.77s0.664-0.438,1.004-0.617
		c0.363-0.19,0.668-0.361,0.914-0.512c0.245-0.149,0.438-0.307,0.579-0.47c0.141-0.152,0.241-0.317,0.302-0.497
		s0.091-0.38,0.091-0.602c0-0.496-0.117-0.856-0.352-1.082c-0.235-0.227-0.546-0.34-0.933-0.34c-0.121,0-0.235,0.01-0.343,0.027
		s-0.221,0.049-0.338,0.096c0.059,0.176,0.115,0.357,0.17,0.544s0.082,0.396,0.082,0.626c0,0.276-0.1,0.496-0.299,0.66
		c-0.198,0.164-0.452,0.246-0.76,0.246c-0.292,0-0.525-0.096-0.698-0.287c-0.174-0.191-0.261-0.423-0.261-0.695
		c0-0.476,0.277-0.887,0.83-1.234c0.554-0.347,1.229-0.521,2.023-0.521c0.92,0,1.663,0.158,2.23,0.475
		c0.567,0.315,0.851,0.824,0.851,1.525c0,0.362-0.075,0.655-0.226,0.877c-0.149,0.222-0.371,0.417-0.663,0.585
		c-0.262,0.152-0.551,0.277-0.868,0.374c-0.317,0.098-0.658,0.19-1.021,0.28c-0.386,0.098-0.722,0.201-1.008,0.311
		c-0.287,0.109-0.541,0.239-0.764,0.392v0.063h4.882V95.554z"/>
	<path fill="#58595B" d="M139.254,90.106c0.297,0.311,0.516,0.667,0.658,1.066c0.142,0.399,0.213,0.813,0.213,1.242
		c0,0.511-0.089,0.972-0.266,1.383c-0.178,0.411-0.42,0.76-0.728,1.043c-0.324,0.297-0.7,0.523-1.129,0.679
		s-0.922,0.233-1.479,0.233c-0.588,0-1.107-0.092-1.558-0.274s-0.825-0.425-1.125-0.725c-0.297-0.296-0.521-0.646-0.676-1.047
		s-0.23-0.832-0.23-1.292c0-0.456,0.072-0.879,0.219-1.269s0.371-0.743,0.676-1.058c0.296-0.309,0.672-0.556,1.128-0.74
		s0.98-0.278,1.572-0.278c0.612,0,1.146,0.096,1.603,0.287S138.962,89.798,139.254,90.106z M137.605,94.462
		c0.113-0.262,0.194-0.553,0.242-0.875c0.049-0.321,0.073-0.712,0.073-1.172c0-0.413-0.022-0.785-0.067-1.117
		c-0.044-0.33-0.119-0.625-0.225-0.883c-0.109-0.264-0.254-0.469-0.433-0.613c-0.18-0.145-0.399-0.217-0.661-0.217
		c-0.265,0-0.486,0.072-0.666,0.214c-0.18,0.143-0.325,0.345-0.438,0.604c-0.102,0.238-0.176,0.529-0.223,0.875
		c-0.046,0.345-0.069,0.724-0.069,1.137c0,0.433,0.021,0.801,0.061,1.105c0.041,0.304,0.116,0.596,0.226,0.877
		c0.098,0.253,0.237,0.457,0.421,0.613s0.409,0.234,0.678,0.234c0.25,0,0.466-0.07,0.649-0.211S137.5,94.703,137.605,94.462z"/>
	<path fill="#58595B" d="M145.862,95.554h-4.823V95.11c0.117-0.008,0.304-0.027,0.559-0.059s0.43-0.062,0.523-0.094
		c0.117-0.039,0.208-0.105,0.274-0.198c0.066-0.094,0.1-0.222,0.1-0.386v-3.707h-1.479v-0.555h0.322c0.339,0,0.632-0.037,0.88-0.111
		c0.247-0.074,0.453-0.164,0.616-0.27c0.168-0.109,0.306-0.222,0.412-0.339c0.107-0.117,0.192-0.221,0.255-0.311h1.028
		c-0.012,0.254-0.022,0.55-0.034,0.89c-0.012,0.339-0.018,0.643-0.018,0.912v3.426c0,0.141,0.029,0.262,0.09,0.365
		s0.147,0.182,0.261,0.236c0.102,0.047,0.271,0.09,0.509,0.129c0.237,0.039,0.413,0.062,0.525,0.07V95.554z"/>
	<path fill="#58595B" d="M153.671,95.496h-1.257v2.216h-1.958v-2.216h-3.871v-1.075l4.198-5.315h1.631v5.157h1.257V95.496z
		 M150.456,94.262v-3.762l-2.972,3.762H150.456z"/>
</g>
<polygon fill="#58595B" stroke="#FFFFFF" stroke-width="1.9231" stroke-linejoin="round" stroke-miterlimit="10" points="
	123.059,83.179 127.954,73.39 123.058,63.597 105.925,41.569 83.896,24.436 74.105,19.541 64.314,24.436 42.285,41.569 
	25.151,63.598 20.257,73.389 25.153,83.179 42.284,105.209 64.313,122.341 74.105,127.239 83.896,122.343 105.925,105.209 "/>
<polygon fill="#58595B" stroke="#FFFFFF" stroke-width="1.9231" stroke-linejoin="round" stroke-miterlimit="10" points="
	74.104,117.447 64.313,122.341 47.181,100.313 25.153,83.179 30.046,73.389 25.151,63.598 47.181,46.465 64.314,24.436 
	74.104,29.331 83.896,24.436 101.028,46.465 123.058,63.597 118.163,73.389 123.059,83.179 100.053,101.292 83.896,122.343 "/>
<polygon fill="#58595B" stroke="#FFFFFF" stroke-width="1.9231" stroke-linejoin="round" stroke-miterlimit="10" points="
	47.181,100.313 42.284,80.731 30.046,73.389 42.286,66.047 46.983,47.603 66.763,41.57 74.104,29.331 81.447,41.569 101.028,46.465 
	105.925,66.047 118.163,73.389 105.924,80.73 101.03,100.314 81.446,105.208 74.104,117.447 66.763,105.209 "/>
<polygon fill="#58595B" stroke="#FFFFFF" stroke-width="1.9231" stroke-linejoin="round" stroke-miterlimit="10" points="
	105.924,80.73 105.925,66.047 81.447,41.569 74.295,41.57 66.763,41.57 42.286,66.047 42.284,80.731 66.763,105.209 81.446,105.208 
	"/>
</svg>
