<?xml version="1.0" encoding="utf-8"?>
<!-- Generator: Adobe Illustrator 15.1.0, SVG Export Plug-In . SVG Version: 6.00 Build 0)  -->
<!DOCTYPE svg PUBLIC "-//W3C//DTD SVG 1.1//EN" "http://www.w3.org/Graphics/SVG/1.1/DTD/svg11.dtd">
<svg version="1.1" id="Layer_1" xmlns="http://www.w3.org/2000/svg" xmlns:xlink="http://www.w3.org/1999/xlink" x="0px" y="0px"
	 width="158.047px" height="145.859px" viewBox="0 0 158.047 145.859" enable-background="new 0 0 158.047 145.859"
	 xml:space="preserve">
<path fill="#474848" d="M24.502,38.737c0.684,0.341,1.154,0.794,1.418,1.356c0.26,0.564,0.369,1.17,0.328,1.814
	c-0.041,0.646-0.152,1.24-0.334,1.786s-0.391,1.055-0.627,1.528l-3.049,6.112l-0.824-0.412c0.258-0.521,0.396-0.934,0.412-1.235
	c0.018-0.304-0.057-0.541-0.215-0.714c-0.162-0.175-0.416-0.348-0.764-0.521l-7.695-3.836c-0.539-0.27-0.969-0.345-1.289-0.228
	c-0.32,0.115-0.662,0.537-1.023,1.264L9.996,45.23c0.414-0.877,0.809-1.714,1.182-2.508c0.375-0.795,0.684-1.446,0.926-1.957
	c0.244-0.512,0.416-0.868,0.518-1.072l0.166-0.333c0.311-0.623,0.699-1.242,1.168-1.858c0.469-0.616,1.068-1.091,1.805-1.425
	c0.734-0.332,1.531-0.285,2.387,0.143c0.641,0.318,1.078,0.821,1.314,1.508c0.234,0.686,0.242,1.622,0.025,2.808
	c0.479-0.645,0.996-1.154,1.555-1.531s1.133-0.586,1.723-0.629C23.355,38.332,23.932,38.454,24.502,38.737z M16.938,38.828
	c-0.42-0.21-0.838-0.292-1.252-0.249c-0.414,0.045-0.809,0.219-1.18,0.523c-0.373,0.305-0.701,0.739-0.984,1.311l-0.473,0.943
	l4.369,2.179l0.369-0.737c0.48-0.965,0.633-1.78,0.457-2.447C18.068,39.682,17.633,39.175,16.938,38.828z M22.975,41.421
	c-0.828-0.412-1.578-0.518-2.25-0.317c-0.672,0.199-1.203,0.688-1.592,1.469l-0.725,1.457l2.93,1.461l0.244,0.121
	c0.443,0.221,0.803,0.366,1.078,0.436c0.275,0.07,0.533,0.031,0.777-0.116c0.242-0.148,0.479-0.457,0.713-0.925
	c0.311-0.623,0.398-1.272,0.266-1.948C24.281,42.378,23.801,41.834,22.975,41.421z"/>
<path fill="#474848" d="M32.734,26.989l3.436,2.986l-7.781,9.312l-0.709-0.592c0.537-0.644,0.789-1.134,0.758-1.473
	c-0.029-0.341-0.27-0.699-0.723-1.076l-6.568-5.488c-0.303-0.252-0.564-0.418-0.783-0.496c-0.219-0.078-0.467-0.043-0.746,0.104
	c-0.279,0.146-0.602,0.439-0.971,0.883l-0.711-0.593l4.393-5.259l0.709,0.594c-0.365,0.437-0.598,0.804-0.697,1.101
	c-0.1,0.296-0.094,0.549,0.016,0.758s0.32,0.443,0.633,0.706l6.014,5.023c0.473,0.396,0.832,0.654,1.074,0.779
	c0.246,0.126,0.506,0.131,0.783,0.013c0.277-0.116,0.611-0.41,1.002-0.877c0.492-0.592,0.881-1.146,1.162-1.666
	c0.281-0.521,0.387-1.131,0.314-1.832c-0.073-0.701-0.471-1.436-1.195-2.197L32.734,26.989z"/>
<path fill="#474848" d="M48.301,20.856l-5.201,3.76l-0.543-0.75c0.441-0.317,0.738-0.58,0.893-0.787
	c0.156-0.208,0.15-0.428-0.02-0.662c-0.115-0.162-0.268-0.305-0.455-0.426l-1.463-0.926l-3.582,2.588l0.25,0.91
	c0.137,0.512,0.271,0.856,0.4,1.037c0.236,0.324,0.512,0.439,0.826,0.345c0.314-0.095,0.641-0.265,0.979-0.509l0.541,0.75
	l-3.803,2.747l-0.543-0.749c0.305-0.22,0.521-0.463,0.65-0.73c0.131-0.266,0.176-0.628,0.141-1.085
	c-0.037-0.456-0.154-1.056-0.352-1.798l-2.842-10.637l0.775-0.561l9.574,6.168c0.684,0.434,1.158,0.714,1.428,0.846
	c0.27,0.133,0.547,0.185,0.832,0.155c0.285-0.028,0.609-0.174,0.975-0.437L48.301,20.856z M40.643,20.479l-4.305-2.752l1.332,4.897
	L40.643,20.479z"/>
<path fill="#474848" d="M60.49,15.712l-0.875,0.359c-0.348-0.48-0.756-0.87-1.227-1.17c-0.271,0.683-0.637,1.324-1.1,1.927
	c-0.463,0.604-1.211,1.114-2.246,1.538c-1.135,0.465-2.299,0.619-3.496,0.465c-1.195-0.154-2.283-0.606-3.264-1.358
	c-0.982-0.754-1.727-1.75-2.232-2.988c-0.361-0.88-0.549-1.784-0.564-2.712c-0.014-0.929,0.145-1.813,0.477-2.658
	c0.33-0.845,0.826-1.604,1.486-2.28c0.66-0.676,1.467-1.209,2.422-1.6c1.574-0.646,3.086-0.662,4.535-0.057
	c0.027-0.321,0.002-0.765-0.074-1.324l0.836-0.344l2.047,4.577l-0.891,0.366c-0.484-0.722-1.062-1.302-1.734-1.744
	c-0.672-0.439-1.365-0.705-2.078-0.793c-0.713-0.088-1.385-0.003-2.018,0.256c-0.707,0.29-1.262,0.743-1.668,1.361
	c-0.404,0.618-0.605,1.39-0.6,2.313c0.005,0.923,0.252,1.978,0.736,3.16c0.471,1.153,0.998,2.059,1.578,2.715
	c0.58,0.655,1.146,1.099,1.699,1.327c0.553,0.229,1.057,0.332,1.512,0.31c0.453-0.021,0.854-0.104,1.199-0.246
	c0.764-0.312,1.365-0.798,1.809-1.457c0.443-0.658,0.732-1.38,0.867-2.163c0.137-0.782,0.143-1.507,0.021-2.174l0.893-0.366
	L60.49,15.712z"/>
<path fill="#474848" d="M78.184,13.409l-7.518,0.84l-0.104-0.918l0.609-0.067c0.52-0.058,0.869-0.129,1.053-0.214
	s0.266-0.207,0.246-0.365c-0.025-0.233-0.354-0.702-0.984-1.406L68.123,7.5l-1.549,1.699l0.326,2.926
	c0.066,0.592,0.248,0.99,0.549,1.197c0.299,0.205,0.83,0.266,1.596,0.18l0.104,0.918l-6.77,0.758l-0.102-0.918
	c0.578-0.064,1-0.174,1.262-0.323c0.264-0.15,0.424-0.34,0.484-0.57c0.057-0.229,0.064-0.535,0.021-0.921l-0.951-8.506
	c-0.043-0.387-0.113-0.684-0.215-0.892S62.579,2.691,62.282,2.6c-0.297-0.093-0.736-0.105-1.314-0.041L60.867,1.64l6.768-0.758
	l0.104,0.919c-0.832,0.093-1.354,0.272-1.568,0.539c-0.213,0.267-0.285,0.691-0.221,1.277l0.455,4.073l3.803-4.154
	c0.264-0.286,0.451-0.527,0.564-0.726c0.113-0.197,0.156-0.41,0.131-0.637c-0.053-0.479-0.535-0.669-1.447-0.565L69.352,0.69
	L75.531,0l0.104,0.918c-0.475,0.096-0.862,0.194-1.155,0.302c-0.295,0.107-0.576,0.261-0.844,0.457
	c-0.27,0.199-0.555,0.453-0.865,0.765c-0.309,0.312-0.795,0.827-1.455,1.548l-1.279,1.386l4.629,5.245
	c0.494,0.558,0.895,0.97,1.199,1.235c0.307,0.266,0.623,0.446,0.951,0.545s0.75,0.129,1.264,0.092L78.184,13.409z"/>
<path fill="#474848" d="M89.877,11.36c-0.059,0.418-0.211,0.848-0.455,1.29c-0.246,0.441-0.578,0.853-1,1.229
	s-0.928,0.661-1.514,0.853c-0.59,0.189-1.244,0.234-1.967,0.134c-0.717-0.101-1.406-0.356-2.068-0.768
	c-0.662-0.412-1.195-0.959-1.6-1.646c-0.281,0.461-0.48,0.896-0.601,1.306l-0.916-0.128l0.65-4.615l0.916,0.13
	c0.071,0.686,0.213,1.342,0.422,1.966s0.553,1.185,1.026,1.682c0.476,0.496,1.101,0.8,1.875,0.908
	c0.677,0.096,1.244-0.014,1.705-0.328c0.461-0.312,0.73-0.753,0.81-1.314c0.045-0.319,0.021-0.605-0.07-0.862
	s-0.243-0.497-0.457-0.719c-0.213-0.224-0.51-0.472-0.896-0.745c-0.385-0.273-0.823-0.567-1.321-0.881
	c-0.76-0.5-1.375-0.981-1.844-1.447c-0.47-0.465-0.812-0.9-1.029-1.308c-0.217-0.406-0.353-0.78-0.407-1.127
	c-0.057-0.346-0.062-0.688-0.013-1.025c0.084-0.604,0.33-1.177,0.737-1.718c0.408-0.54,0.949-0.954,1.632-1.24
	c0.678-0.287,1.43-0.373,2.252-0.256c0.631,0.088,1.211,0.313,1.739,0.676c0.531,0.363,0.972,0.818,1.32,1.368
	c0.156-0.264,0.322-0.639,0.492-1.128l0.936,0.132l-0.528,3.761L88.77,5.401c-0.375-2.144-1.385-3.329-3.028-3.562
	c-0.597-0.085-1.099,0.007-1.505,0.271c-0.403,0.264-0.643,0.645-0.713,1.143c-0.055,0.393,0.011,0.746,0.195,1.066
	c0.184,0.32,0.445,0.608,0.785,0.867c0.338,0.257,0.893,0.637,1.66,1.137c0.928,0.611,1.648,1.128,2.16,1.552
	C88.836,8.3,89.25,8.8,89.564,9.378C89.877,9.958,89.982,10.618,89.877,11.36z"/>
<path fill="#474848" d="M106.559,10.991l-0.893-0.339c0.219-0.819,0.264-1.468,0.141-1.944c-0.123-0.476-0.32-0.815-0.594-1.021
	c-0.273-0.204-0.611-0.382-1.012-0.533l-1.617-0.613l-3.537,9.325c-0.141,0.37-0.211,0.671-0.213,0.902
	c-0.002,0.23,0.111,0.457,0.346,0.675c0.23,0.217,0.615,0.426,1.146,0.627L100,18.935l-6.387-2.425l0.328-0.862
	c0.781,0.297,1.328,0.375,1.639,0.234c0.311-0.14,0.572-0.484,0.781-1.036l3.537-9.325l-1.353-0.514
	c-0.53-0.201-0.987-0.326-1.371-0.376c-0.385-0.049-0.78,0.066-1.188,0.345c-0.41,0.277-0.783,0.805-1.121,1.579l-0.893-0.34
	l1.373-3.614l12.584,4.774L106.559,10.991z"/>
<path fill="#474848" d="M120.77,24.304c-0.737,0.995-1.664,1.754-2.781,2.271c-1.116,0.52-2.334,0.697-3.649,0.535
	c-1.317-0.162-2.608-0.711-3.873-1.648c-1.032-0.764-1.819-1.604-2.358-2.52s-0.851-1.836-0.935-2.767
	c-0.084-0.928,0.002-1.813,0.257-2.658c0.254-0.846,0.631-1.604,1.129-2.276c0.721-0.975,1.631-1.727,2.729-2.254
	c1.1-0.528,2.307-0.717,3.617-0.565c1.313,0.151,2.611,0.7,3.893,1.648c1.168,0.864,2.02,1.79,2.557,2.777
	c0.533,0.987,0.814,1.941,0.842,2.861c0.029,0.92-0.096,1.771-0.37,2.556C121.55,23.048,121.195,23.728,120.77,24.304z
	 M118.178,22.335c0.453-0.612,0.832-1.232,1.133-1.858c0.301-0.628,0.484-1.262,0.549-1.9s-0.034-1.258-0.299-1.858
	c-0.264-0.599-0.733-1.146-1.406-1.646c-0.926-0.687-1.817-0.99-2.68-0.914c-0.858,0.076-1.639,0.391-2.336,0.945
	c-0.697,0.554-1.35,1.239-1.953,2.059c-0.336,0.452-0.656,0.945-0.957,1.479c-0.305,0.532-0.533,1.141-0.688,1.821
	c-0.154,0.682-0.115,1.382,0.121,2.102c0.234,0.72,0.744,1.37,1.529,1.952c0.779,0.576,1.549,0.863,2.305,0.86
	c0.756-0.004,1.439-0.184,2.053-0.543c0.611-0.358,1.123-0.758,1.533-1.194C117.494,23.2,117.859,22.766,118.178,22.335z"/>
<path fill="#474848" d="M136.688,34.799c-0.393-0.517-0.727-0.847-1.002-0.99c-0.272-0.146-0.533-0.167-0.774-0.065
	c-0.242,0.101-0.595,0.325-1.052,0.675l-8.59,6.547l-0.559-0.734l3.018-13.505l-5.967,4.55c-0.453,0.345-0.76,0.624-0.924,0.836
	c-0.16,0.212-0.209,0.475-0.145,0.786c0.065,0.312,0.293,0.725,0.684,1.234l-0.736,0.562l-3.067-4.026l0.733-0.561
	c0.367,0.479,0.687,0.785,0.959,0.918c0.273,0.133,0.531,0.146,0.775,0.041c0.244-0.106,0.592-0.332,1.045-0.676l5.527-4.216
	c0.447-0.342,0.773-0.608,0.979-0.804c0.205-0.194,0.355-0.4,0.457-0.619c0.099-0.219,0.121-0.47,0.068-0.754
	c-0.054-0.284-0.199-0.621-0.438-1.013l0.734-0.562l2.406,3.156L128.238,37.3l4.945-3.77c0.401-0.309,0.692-0.572,0.866-0.793
	c0.173-0.221,0.232-0.486,0.183-0.796c-0.053-0.312-0.26-0.706-0.625-1.186l0.733-0.561l3.082,4.043L136.688,34.799z"/>
<path fill="#474848" d="M135.959,53.415l-4.184,1.604L127.15,43.8l0.854-0.353c0.32,0.774,0.637,1.227,0.953,1.357
	c0.314,0.132,0.742,0.084,1.289-0.142l7.91-3.261c0.359-0.148,0.625-0.3,0.799-0.454c0.17-0.153,0.26-0.387,0.266-0.695
	c0.006-0.311-0.104-0.742-0.332-1.293l0.855-0.352l4.307,10.448l-3.201,1.515l-0.354-0.855c0.646-0.489,1.074-0.925,1.283-1.305
	c0.209-0.379,0.285-0.74,0.227-1.082c-0.057-0.343-0.215-0.826-0.473-1.451l-0.971-2.358l-4.449,1.834l0.527,1.28
	c0.182,0.439,0.354,0.752,0.521,0.938c0.168,0.184,0.377,0.275,0.629,0.271c0.254-0.003,0.617-0.085,1.096-0.244l0.367,0.893
	l-4.188,1.727l-0.354-0.854c0.455-0.217,0.771-0.419,0.949-0.607c0.18-0.19,0.262-0.407,0.25-0.651
	c-0.016-0.243-0.113-0.586-0.295-1.025l-0.535-1.301L132.119,47c-0.494,0.204-0.852,0.366-1.07,0.485
	c-0.218,0.119-0.383,0.264-0.488,0.436c-0.106,0.17-0.145,0.394-0.113,0.665c0.033,0.272,0.144,0.634,0.328,1.087l0.418,1.013
	c0.177,0.428,0.398,0.812,0.666,1.153c0.269,0.343,0.703,0.607,1.306,0.793c0.604,0.188,1.414,0.156,2.437-0.09L135.959,53.415z"/>
<path fill="#474848" d="M23.411,123.226l-0.601-0.729c0.355-0.475,0.605-0.979,0.753-1.519c-0.732-0.057-1.453-0.216-2.166-0.479
	c-0.712-0.264-1.423-0.827-2.134-1.688c-0.78-0.945-1.274-2.014-1.48-3.2c-0.207-1.188-0.096-2.362,0.332-3.521
	c0.429-1.159,1.158-2.166,2.191-3.019c0.734-0.604,1.543-1.051,2.424-1.34c0.882-0.288,1.774-0.399,2.681-0.334
	c0.904,0.064,1.775,0.313,2.617,0.744c0.842,0.431,1.59,1.044,2.246,1.84c1.082,1.312,1.547,2.751,1.397,4.315
	c0.314-0.069,0.729-0.225,1.243-0.466l0.575,0.698l-3.766,3.312l-0.614-0.742c0.545-0.677,0.93-1.4,1.151-2.175
	c0.223-0.771,0.27-1.513,0.143-2.219c-0.127-0.707-0.407-1.324-0.842-1.852c-0.486-0.589-1.085-0.985-1.795-1.189
	c-0.711-0.203-1.506-0.166-2.387,0.113c-0.882,0.279-1.815,0.825-2.802,1.639c-0.961,0.792-1.67,1.562-2.124,2.312
	c-0.455,0.748-0.71,1.421-0.766,2.018c-0.056,0.596-0.004,1.107,0.152,1.534c0.156,0.427,0.354,0.784,0.593,1.073
	c0.524,0.637,1.166,1.067,1.926,1.296c0.762,0.228,1.535,0.29,2.322,0.188c0.789-0.104,1.482-0.311,2.084-0.624l0.613,0.744
	L23.411,123.226z"/>
<path fill="#474848" d="M43.787,130.63c-0.716,1.013-1.627,1.787-2.733,2.329c-1.106,0.542-2.319,0.745-3.639,0.609
	c-1.321-0.135-2.622-0.657-3.906-1.567c-1.049-0.743-1.853-1.566-2.41-2.472c-0.558-0.903-0.888-1.819-0.989-2.745
	c-0.104-0.927-0.037-1.814,0.2-2.664s0.597-1.616,1.082-2.3c0.7-0.988,1.595-1.759,2.683-2.311c1.088-0.55,2.29-0.764,3.605-0.64
	s2.623,0.647,3.924,1.568c1.186,0.841,2.056,1.749,2.611,2.726c0.555,0.978,0.857,1.924,0.904,2.844
	c0.045,0.918-0.062,1.772-0.32,2.562C44.539,129.358,44.202,130.046,43.787,130.63z M41.155,128.716
	c0.441-0.623,0.807-1.251,1.096-1.884c0.288-0.633,0.458-1.27,0.51-1.909c0.052-0.641-0.062-1.258-0.338-1.853
	c-0.277-0.595-0.756-1.134-1.438-1.617c-0.94-0.666-1.84-0.952-2.697-0.857c-0.859,0.094-1.631,0.424-2.316,0.991
	c-0.688,0.569-1.324,1.27-1.912,2.1c-0.326,0.46-0.635,0.959-0.927,1.499c-0.292,0.539-0.509,1.15-0.649,1.836
	c-0.14,0.685-0.086,1.384,0.164,2.098c0.249,0.714,0.771,1.354,1.569,1.919c0.792,0.562,1.567,0.833,2.323,0.814
	c0.755-0.02,1.435-0.214,2.04-0.585c0.604-0.373,1.106-0.781,1.508-1.228C40.489,129.594,40.846,129.153,41.155,128.716z"/>
<path fill="#474848" d="M56.96,142.951l-0.887-0.325c0.066-0.589,0.026-1.151-0.117-1.69c-0.661,0.321-1.364,0.549-2.111,0.682
	c-0.748,0.132-1.647,0.006-2.696-0.379c-1.15-0.422-2.116-1.094-2.895-2.014c-0.779-0.921-1.276-1.989-1.494-3.207
	c-0.216-1.218-0.095-2.454,0.367-3.712c0.328-0.894,0.799-1.688,1.414-2.382c0.614-0.693,1.329-1.241,2.143-1.643
	s1.693-0.628,2.636-0.681c0.942-0.055,1.899,0.097,2.866,0.451c1.598,0.586,2.727,1.593,3.388,3.02
	c0.237-0.221,0.517-0.563,0.838-1.031l0.849,0.312l-1.574,4.761l-0.906-0.332c0.129-0.858,0.094-1.678-0.105-2.456
	c-0.199-0.779-0.531-1.442-0.998-1.988c-0.467-0.545-1.021-0.936-1.663-1.171c-0.716-0.263-1.433-0.303-2.149-0.12
	c-0.715,0.185-1.383,0.618-2.002,1.306c-0.619,0.686-1.148,1.629-1.589,2.83c-0.429,1.169-0.65,2.19-0.665,3.065
	c-0.015,0.877,0.105,1.586,0.359,2.128c0.253,0.542,0.556,0.958,0.907,1.247c0.35,0.289,0.701,0.498,1.053,0.627
	c0.773,0.284,1.546,0.332,2.317,0.146c0.771-0.188,1.472-0.525,2.1-1.013c0.627-0.485,1.121-1.018,1.481-1.591l0.906,0.332
	L56.96,142.951z"/>
<path fill="#474848" d="M77.881,145.859l-7.534-0.686l0.085-0.92l0.61,0.057c0.52,0.047,0.877,0.048,1.073,0.001
	c0.196-0.045,0.301-0.148,0.316-0.31c0.021-0.232-0.207-0.758-0.685-1.575l-2.538-4.376l-1.858,1.354l-0.266,2.931
	c-0.054,0.595,0.045,1.021,0.297,1.283c0.253,0.262,0.761,0.428,1.528,0.497l-0.084,0.92l-6.781-0.616l0.083-0.92
	c0.58,0.053,1.015,0.031,1.302-0.062c0.287-0.095,0.484-0.249,0.587-0.462c0.104-0.212,0.173-0.513,0.207-0.898l0.774-8.522
	c0.036-0.388,0.024-0.691-0.032-0.916c-0.058-0.224-0.221-0.409-0.494-0.56c-0.272-0.147-0.698-0.25-1.279-0.303l0.084-0.92
	l6.782,0.615l-0.083,0.921c-0.834-0.075-1.382-0.005-1.644,0.214c-0.262,0.218-0.419,0.621-0.473,1.207l-0.37,4.082l4.556-3.309
	c0.316-0.228,0.55-0.426,0.7-0.597c0.15-0.172,0.236-0.371,0.256-0.598c0.044-0.48-0.391-0.763-1.304-0.846l0.083-0.921l6.191,0.562
	l-0.083,0.921c-0.483-0.004-0.881,0.018-1.191,0.062c-0.31,0.046-0.616,0.14-0.918,0.279c-0.302,0.14-0.635,0.332-1,0.574
	c-0.365,0.243-0.943,0.65-1.735,1.225l-1.532,1.103l3.483,6.064c0.371,0.646,0.681,1.13,0.927,1.451
	c0.248,0.321,0.521,0.563,0.822,0.727c0.301,0.162,0.708,0.274,1.22,0.343L77.881,145.859z"/>
<path fill="#474848" d="M93.445,133.702l-0.941,0.158c-0.225-0.818-0.511-1.402-0.855-1.752c-0.349-0.35-0.69-0.543-1.03-0.581
	c-0.339-0.038-0.72-0.022-1.144,0.048l-1.703,0.285l1.645,9.838c0.066,0.391,0.156,0.686,0.271,0.887
	c0.114,0.202,0.326,0.338,0.638,0.408s0.747,0.059,1.308-0.035l0.152,0.911l-6.736,1.126l-0.152-0.911
	c0.826-0.138,1.338-0.346,1.535-0.623c0.198-0.277,0.25-0.707,0.151-1.288l-1.646-9.838l-1.426,0.238
	c-0.562,0.094-1.021,0.217-1.375,0.367c-0.354,0.15-0.641,0.45-0.854,0.896c-0.215,0.447-0.271,1.09-0.172,1.929l-0.941,0.157
	l-0.639-3.813l13.275-2.221L93.445,133.702z"/>
<path fill="#474848" d="M109.053,138.205l-6.005,2.267l-0.325-0.864c0.508-0.191,0.862-0.367,1.067-0.527
	c0.204-0.159,0.256-0.373,0.153-0.643c-0.07-0.188-0.18-0.365-0.328-0.531l-1.17-1.277l-4.135,1.562l0.002,0.943
	c0,0.529,0.039,0.897,0.117,1.104c0.141,0.376,0.377,0.559,0.707,0.549c0.328-0.009,0.688-0.087,1.074-0.232l0.326,0.863
	l-4.391,1.656l-0.323-0.865c0.35-0.132,0.622-0.311,0.817-0.534c0.193-0.224,0.334-0.561,0.418-1.011
	c0.084-0.451,0.129-1.06,0.131-1.827l0.045-11.011l0.895-0.336l7.625,8.46c0.547,0.596,0.934,0.992,1.157,1.19
	c0.226,0.196,0.479,0.319,0.762,0.366c0.282,0.049,0.634-0.008,1.054-0.166L109.053,138.205z M101.762,135.835l-3.436-3.782
	l0.005,5.076L101.762,135.835z"/>
<path fill="#474848" d="M116.596,133.672l-5.975,3.475l-0.465-0.799c0.498-0.29,0.847-0.558,1.046-0.801
	c0.198-0.244,0.282-0.482,0.25-0.721c-0.033-0.236-0.152-0.531-0.356-0.884l-4.304-7.398c-0.295-0.51-0.608-0.808-0.942-0.893
	c-0.332-0.086-0.869,0.086-1.609,0.518l-0.465-0.799l5.976-3.474l0.464,0.799c-0.498,0.29-0.846,0.558-1.043,0.804
	s-0.281,0.486-0.25,0.721c0.031,0.233,0.148,0.526,0.355,0.881l4.303,7.397c0.193,0.336,0.384,0.577,0.57,0.726
	c0.188,0.146,0.434,0.2,0.74,0.162s0.721-0.21,1.24-0.514L116.596,133.672z"/>
<path fill="#474848" d="M124.712,121.704l2.785,3.599l-9.446,7.616l-0.58-0.719c0.651-0.525,0.995-0.958,1.031-1.297
	c0.037-0.34-0.129-0.738-0.5-1.197l-5.372-6.662c-0.247-0.308-0.471-0.521-0.67-0.64c-0.198-0.119-0.448-0.134-0.752-0.046
	c-0.304,0.09-0.679,0.313-1.127,0.676l-0.58-0.719l5.334-4.3l0.579,0.72c-0.443,0.356-0.742,0.672-0.896,0.941
	c-0.156,0.271-0.201,0.521-0.135,0.747c0.067,0.227,0.229,0.498,0.484,0.816l4.918,6.1c0.387,0.479,0.688,0.806,0.9,0.976
	c0.217,0.171,0.472,0.226,0.766,0.164c0.295-0.062,0.68-0.283,1.154-0.665c0.6-0.483,1.088-0.952,1.465-1.407
	c0.378-0.455,0.6-1.033,0.666-1.736c0.063-0.702-0.184-1.498-0.744-2.387L124.712,121.704z"/>
<path fill="#474848" d="M132.971,113.135c0.32,0.274,0.602,0.634,0.844,1.077c0.24,0.444,0.406,0.945,0.5,1.503
	c0.09,0.56,0.059,1.138-0.097,1.736c-0.153,0.598-0.469,1.176-0.942,1.73c-0.469,0.55-1.055,0.993-1.758,1.332
	c-0.703,0.338-1.451,0.492-2.246,0.466c0.236,0.484,0.496,0.887,0.778,1.206l-0.601,0.703l-3.545-3.025l0.601-0.703
	c0.617,0.307,1.247,0.54,1.886,0.699c0.641,0.158,1.297,0.17,1.971,0.037c0.673-0.135,1.266-0.5,1.772-1.097
	c0.443-0.52,0.657-1.057,0.64-1.612c-0.019-0.557-0.243-1.021-0.676-1.392c-0.246-0.208-0.5-0.342-0.767-0.401
	c-0.267-0.061-0.551-0.061-0.853,0c-0.303,0.059-0.67,0.178-1.108,0.354c-0.437,0.177-0.921,0.392-1.453,0.643
	c-0.829,0.375-1.565,0.635-2.21,0.779c-0.645,0.146-1.195,0.201-1.654,0.166s-0.85-0.122-1.172-0.261
	c-0.32-0.139-0.611-0.318-0.872-0.54c-0.463-0.396-0.813-0.911-1.052-1.545s-0.295-1.315-0.172-2.042s0.453-1.406,0.992-2.038
	c0.414-0.483,0.916-0.853,1.506-1.104c0.591-0.255,1.212-0.382,1.861-0.38c-0.135-0.273-0.363-0.614-0.687-1.021l0.614-0.719
	l2.887,2.466l-0.613,0.718c-2.008-0.834-3.552-0.62-4.629,0.644c-0.393,0.459-0.585,0.931-0.58,1.414
	c0.004,0.483,0.197,0.89,0.579,1.216c0.302,0.257,0.638,0.393,1.007,0.409c0.367,0.016,0.752-0.052,1.151-0.198
	c0.399-0.147,1.017-0.411,1.853-0.791c1.014-0.455,1.836-0.784,2.469-0.989c0.632-0.204,1.275-0.283,1.934-0.238
	C131.785,112.383,132.398,112.649,132.971,113.135z"/>
<g>
	<polygon fill="#474848" stroke="#FFFFFF" stroke-width="1.9231" stroke-linejoin="round" stroke-miterlimit="10" points="
		38.137,76.289 47.855,92.653 47.855,58.037 	"/>
	<polygon fill="#474848" stroke="#FFFFFF" stroke-width="1.9231" stroke-linejoin="round" stroke-miterlimit="10" points="
		75.547,37.27 58.238,47.653 92.855,47.653 	"/>
	<polygon fill="#474848" stroke="#FFFFFF" stroke-width="1.9231" stroke-linejoin="round" stroke-miterlimit="10" points="
		44.393,106.499 58.238,103.037 47.855,92.653 	"/>
	<polygon fill="#474848" stroke="#FFFFFF" stroke-width="1.9231" stroke-linejoin="round" stroke-miterlimit="10" points="
		75.547,113.422 92.855,103.037 58.238,103.037 	"/>
	<polygon fill="#474848" stroke="#FFFFFF" stroke-width="1.9231" stroke-linejoin="round" stroke-miterlimit="10" points="
		58.238,47.653 44.393,44.191 47.855,58.037 53.182,52.711 	"/>
	<polygon fill="#474848" stroke="#FFFFFF" stroke-width="1.9231" stroke-linejoin="round" stroke-miterlimit="10" points="
		92.855,103.037 106.701,106.499 103.238,92.653 	"/>
	<polygon fill="#474848" stroke="#FFFFFF" stroke-width="1.9231" stroke-linejoin="round" stroke-miterlimit="10" points="
		106.701,44.191 92.855,47.653 103.238,58.037 	"/>
	<polygon fill="#474848" stroke="#FFFFFF" stroke-width="1.9231" stroke-linejoin="round" stroke-miterlimit="10" points="
		113.625,75.346 103.238,58.037 103.238,92.653 	"/>
</g>
<g>
	<polygon fill="#474848" stroke="#FFFFFF" stroke-width="1.9231" stroke-linejoin="round" stroke-miterlimit="10" points="
		38.471,76.289 48.189,58.037 44.727,44.191 34.344,47.653 37.805,75.346 34.344,103.037 44.727,106.499 48.189,92.653 	"/>
	<polygon fill="#474848" stroke="#FFFFFF" stroke-width="1.9231" stroke-linejoin="round" stroke-miterlimit="10" points="
		75.881,37.27 48.189,33.807 44.727,44.191 58.572,47.653 	"/>
	<polygon fill="#474848" stroke="#FFFFFF" stroke-width="1.9231" stroke-linejoin="round" stroke-miterlimit="10" points="
		107.035,44.191 103.572,33.807 75.881,37.27 93.189,47.653 	"/>
	<polygon fill="#474848" stroke="#FFFFFF" stroke-width="1.9231" stroke-linejoin="round" stroke-miterlimit="10" points="
		75.881,113.422 103.572,116.883 107.035,106.499 93.189,103.037 	"/>
	<polygon fill="#474848" stroke="#FFFFFF" stroke-width="1.9231" stroke-linejoin="round" stroke-miterlimit="10" points="
		117.42,47.653 107.035,44.191 103.572,58.037 113.959,75.346 103.572,92.653 107.035,106.499 117.42,103.037 113.959,76.727 	"/>
	<polygon fill="#474848" stroke="#FFFFFF" stroke-width="1.9231" stroke-linejoin="round" stroke-miterlimit="10" points="
		44.727,106.499 48.189,116.883 75.881,113.422 58.572,103.037 	"/>
</g>
<g>
	<polygon fill="#474848" stroke="#FFFFFF" stroke-width="1.9231" stroke-linejoin="round" stroke-miterlimit="10" points="
		48.189,33.807 37.805,37.269 34.344,47.653 44.727,44.191 	"/>
	<polygon fill="#474848" stroke="#FFFFFF" stroke-width="1.9231" stroke-linejoin="round" stroke-miterlimit="10" points="
		103.572,33.807 75.881,30.346 48.189,33.807 75.881,37.27 	"/>
	<polygon fill="#474848" stroke="#FFFFFF" stroke-width="1.9231" stroke-linejoin="round" stroke-miterlimit="10" points="
		34.344,47.653 30.881,75.346 34.344,103.037 37.805,75.346 	"/>
	<polygon fill="#474848" stroke="#FFFFFF" stroke-width="1.9231" stroke-linejoin="round" stroke-miterlimit="10" points="
		117.42,47.653 113.959,37.269 103.572,33.807 107.035,44.191 	"/>
	<polygon fill="#474848" stroke="#FFFFFF" stroke-width="1.9231" stroke-linejoin="round" stroke-miterlimit="10" points="
		117.42,47.653 113.959,76.727 117.42,103.037 120.881,75.346 	"/>
	<polygon fill="#474848" stroke="#FFFFFF" stroke-width="1.9231" stroke-linejoin="round" stroke-miterlimit="10" points="
		34.344,103.037 37.805,113.422 48.189,116.883 44.727,106.499 	"/>
	<polygon fill="#474848" stroke="#FFFFFF" stroke-width="1.9231" stroke-linejoin="round" stroke-miterlimit="10" points="
		103.572,116.883 113.959,113.422 117.42,103.037 107.035,106.499 	"/>
	<polygon fill="#474848" stroke="#FFFFFF" stroke-width="1.9231" stroke-linejoin="round" stroke-miterlimit="10" points="
		48.189,116.883 75.881,120.346 103.572,116.883 75.881,113.422 	"/>
</g>
<polygon fill="#474848" stroke="#FFFFFF" stroke-width="1.9231" stroke-linejoin="round" stroke-miterlimit="10" points="
	103.572,58.037 93.189,47.653 58.572,47.653 53.516,52.711 48.189,58.037 48.189,92.653 58.572,103.037 93.189,103.037 
	103.572,92.653 "/>
<path fill="#474848" d="M8.166,71.892H7.674c-0.125-0.351-0.342-0.703-0.65-1.062c-0.307-0.357-0.611-0.568-0.914-0.634
	c-0.131-0.03-0.311-0.049-0.543-0.055c-0.23-0.007-0.422-0.011-0.574-0.011H3.654v3.552h0.949c0.236,0,0.453-0.028,0.648-0.084
	c0.195-0.058,0.373-0.165,0.533-0.325c0.098-0.101,0.199-0.275,0.301-0.526s0.168-0.47,0.197-0.656h0.494v3.844H6.283
	c-0.025-0.183-0.092-0.41-0.197-0.686c-0.105-0.274-0.207-0.464-0.301-0.567c-0.145-0.155-0.312-0.264-0.508-0.321
	c-0.193-0.06-0.42-0.088-0.674-0.088H3.654v2.656c0,0.275,0.021,0.495,0.062,0.657s0.117,0.287,0.23,0.373
	c0.107,0.082,0.256,0.138,0.445,0.162c0.188,0.026,0.443,0.039,0.768,0.039c0.152,0,0.334-0.002,0.547-0.006
	c0.211-0.004,0.398-0.018,0.559-0.039c0.182-0.021,0.352-0.055,0.508-0.098c0.158-0.043,0.277-0.105,0.355-0.188
	c0.207-0.213,0.441-0.536,0.701-0.971c0.26-0.437,0.43-0.762,0.512-0.979h0.475l-0.176,2.87H0v-0.507
	c0.121-0.009,0.285-0.026,0.492-0.052c0.209-0.026,0.355-0.058,0.441-0.092c0.166-0.068,0.275-0.156,0.332-0.263
	c0.057-0.105,0.084-0.241,0.084-0.405v-6.499c0-0.156-0.023-0.285-0.07-0.387c-0.049-0.102-0.164-0.193-0.346-0.275
	c-0.111-0.053-0.27-0.101-0.473-0.144c-0.202-0.039-0.356-0.066-0.46-0.08v-0.506h8.166V71.892z"/>
<path fill="#474848" d="M12.684,78.976c-0.42,0-0.83-0.062-1.23-0.187s-0.711-0.254-0.932-0.393l-0.195,0.44H9.82l-0.084-2.422
	h0.473c0.064,0.195,0.174,0.414,0.324,0.659c0.152,0.245,0.326,0.464,0.52,0.659c0.205,0.193,0.438,0.358,0.699,0.493
	c0.261,0.134,0.541,0.2,0.84,0.2c0.395,0,0.688-0.076,0.881-0.229c0.191-0.153,0.289-0.391,0.289-0.711
	c0-0.173-0.045-0.315-0.131-0.429c-0.086-0.112-0.205-0.209-0.357-0.292c-0.168-0.087-0.354-0.16-0.555-0.222
	c-0.201-0.061-0.449-0.134-0.744-0.221c-0.293-0.087-0.545-0.175-0.756-0.263c-0.209-0.089-0.428-0.229-0.652-0.419
	c-0.195-0.169-0.35-0.372-0.467-0.61c-0.117-0.238-0.176-0.521-0.176-0.851c0-0.61,0.256-1.104,0.77-1.48
	c0.514-0.377,1.186-0.565,2.016-0.565c0.395,0,0.756,0.04,1.088,0.12c0.33,0.08,0.609,0.167,0.834,0.264l0.137-0.384h0.492
	l0.105,2.215H14.91c-0.152-0.45-0.412-0.839-0.779-1.166c-0.367-0.327-0.764-0.49-1.188-0.49c-0.334,0-0.596,0.069-0.787,0.208
	c-0.189,0.139-0.285,0.331-0.285,0.578c0,0.329,0.141,0.566,0.418,0.714c0.279,0.146,0.67,0.286,1.17,0.416
	c0.773,0.199,1.34,0.471,1.699,0.813c0.357,0.345,0.537,0.783,0.537,1.314c0,0.711-0.277,1.26-0.834,1.648
	C14.304,78.776,13.578,78.976,12.684,78.976z"/>
<path fill="#474848" d="M21.373,78.456c-0.277,0.121-0.572,0.23-0.889,0.328c-0.316,0.097-0.701,0.146-1.156,0.146
	c-0.674,0-1.176-0.165-1.502-0.493c-0.328-0.328-0.49-0.797-0.49-1.407v-3.982h-1.17V72.34h1.195v-1.967h2.104v1.967h1.824v0.708
	h-1.811v3.554c0,0.506,0.07,0.864,0.211,1.075c0.141,0.213,0.395,0.318,0.76,0.318c0.117,0,0.279-0.009,0.488-0.026
	c0.209-0.017,0.354-0.035,0.436-0.059V78.456z"/>
<path fill="#474848" d="M24.881,77.677c0,0.343-0.127,0.64-0.379,0.89c-0.254,0.252-0.553,0.377-0.9,0.377
	c-0.35,0-0.652-0.124-0.904-0.373c-0.254-0.249-0.381-0.547-0.381-0.894c0-0.346,0.127-0.646,0.381-0.898
	c0.252-0.253,0.555-0.38,0.904-0.38c0.348,0,0.646,0.128,0.9,0.383C24.754,77.036,24.881,77.335,24.881,77.677z"/>
<path fill="#474848" d="M133.92,78.755h-7.039v-1.176c0.309-0.312,0.646-0.596,1.012-0.854c0.367-0.259,0.738-0.486,1.115-0.687
	c0.402-0.211,0.742-0.399,1.014-0.566c0.273-0.167,0.488-0.342,0.646-0.522c0.156-0.169,0.269-0.354,0.334-0.552
	c0.067-0.199,0.103-0.422,0.103-0.669c0-0.549-0.131-0.95-0.392-1.201c-0.26-0.251-0.604-0.377-1.035-0.377
	c-0.135,0-0.262,0.01-0.381,0.029c-0.119,0.019-0.244,0.055-0.375,0.106c0.063,0.195,0.129,0.396,0.188,0.604
	c0.062,0.208,0.091,0.438,0.091,0.694c0,0.308-0.109,0.553-0.33,0.733c-0.222,0.182-0.504,0.272-0.847,0.272
	c-0.323,0-0.582-0.104-0.774-0.317c-0.19-0.212-0.289-0.469-0.289-0.772c0-0.527,0.31-0.983,0.922-1.37
	c0.615-0.385,1.363-0.577,2.246-0.577c1.021,0,1.849,0.175,2.479,0.525c0.629,0.352,0.942,0.916,0.942,1.695
	c0,0.401-0.082,0.727-0.25,0.974c-0.166,0.246-0.411,0.463-0.735,0.648c-0.289,0.169-0.611,0.308-0.965,0.416
	c-0.353,0.106-0.73,0.212-1.134,0.312c-0.428,0.108-0.801,0.225-1.118,0.345c-0.318,0.121-0.603,0.267-0.849,0.435v0.072h5.422
	L133.92,78.755L133.92,78.755z"/>
<path fill="#474848" d="M142.053,72.704c0.328,0.346,0.572,0.741,0.73,1.186c0.158,0.443,0.236,0.903,0.236,1.38
	c0,0.565-0.099,1.078-0.295,1.535c-0.197,0.456-0.468,0.843-0.81,1.157c-0.358,0.33-0.776,0.58-1.252,0.754
	c-0.478,0.174-1.022,0.261-1.644,0.261c-0.653,0-1.229-0.103-1.729-0.307c-0.5-0.203-0.918-0.472-1.25-0.806
	c-0.33-0.328-0.58-0.716-0.75-1.162c-0.172-0.445-0.256-0.924-0.256-1.434c0-0.508,0.079-0.978,0.241-1.41
	c0.162-0.434,0.412-0.824,0.75-1.175c0.33-0.343,0.748-0.616,1.254-0.821c0.507-0.205,1.089-0.31,1.746-0.31
	c0.681,0,1.273,0.106,1.779,0.318C141.312,72.084,141.729,72.362,142.053,72.704z M140.223,77.54
	c0.125-0.289,0.215-0.613,0.271-0.971c0.053-0.357,0.08-0.791,0.08-1.301c0-0.459-0.025-0.873-0.074-1.241
	c-0.051-0.368-0.133-0.695-0.25-0.98c-0.121-0.294-0.281-0.521-0.479-0.682c-0.199-0.161-0.443-0.24-0.734-0.24
	c-0.293,0-0.541,0.079-0.74,0.237s-0.361,0.382-0.486,0.672c-0.113,0.264-0.194,0.587-0.246,0.971
	c-0.053,0.384-0.078,0.805-0.078,1.264c0,0.479,0.021,0.889,0.068,1.227c0.045,0.338,0.129,0.662,0.25,0.974
	c0.107,0.282,0.264,0.51,0.467,0.683s0.455,0.26,0.754,0.26c0.275,0,0.517-0.077,0.722-0.233
	C139.945,78.021,140.105,77.809,140.223,77.54z"/>
<path fill="#474848" d="M149.383,78.755h-5.357V78.26c0.132-0.008,0.338-0.028,0.621-0.063s0.478-0.069,0.58-0.104
	c0.131-0.044,0.232-0.116,0.308-0.221c0.071-0.104,0.108-0.248,0.108-0.43v-4.116H144V72.71h0.357c0.377,0,0.703-0.041,0.977-0.124
	c0.275-0.082,0.504-0.182,0.686-0.298c0.187-0.121,0.338-0.247,0.457-0.377c0.119-0.129,0.213-0.244,0.283-0.344h1.143
	c-0.014,0.281-0.024,0.609-0.038,0.987c-0.015,0.377-0.021,0.714-0.021,1.013v3.805c0,0.155,0.033,0.291,0.102,0.405
	c0.066,0.114,0.162,0.202,0.289,0.263c0.111,0.053,0.302,0.101,0.564,0.144c0.264,0.044,0.459,0.069,0.584,0.077V78.755
	L149.383,78.755z"/>
<path fill="#474848" d="M158.047,78.689h-1.396v2.46h-2.174v-2.46h-4.299v-1.194l4.662-5.902h1.811v5.727h1.396V78.689
	L158.047,78.689z M154.477,77.319v-4.177l-3.299,4.177H154.477z"/>
</svg>
