<?xml version="1.0" encoding="utf-8"?>
<!-- Generator: Adobe Illustrator 15.1.0, SVG Export Plug-In . SVG Version: 6.00 Build 0)  -->
<!DOCTYPE svg PUBLIC "-//W3C//DTD SVG 1.1//EN" "http://www.w3.org/Graphics/SVG/1.1/DTD/svg11.dtd">
<svg version="1.1" id="Layer_1" xmlns="http://www.w3.org/2000/svg" xmlns:xlink="http://www.w3.org/1999/xlink" x="0px" y="0px"
	 width="107.697px" height="107.697px" viewBox="-7.848 -7.848 107.697 107.697"
	 enable-background="new -7.848 -7.848 107.697 107.697" xml:space="preserve">
<g>
	<g>
		<polygon fill="#505150" stroke="#FFFFFF" stroke-width="1.9231" stroke-linejoin="round" stroke-miterlimit="10" points="
			18.644,19.979 13.945,38.422 38.422,13.945 		"/>
		<polygon fill="#505150" stroke="#FFFFFF" stroke-width="1.9231" stroke-linejoin="round" stroke-miterlimit="10" points="
			72.688,18.84 53.106,13.944 77.584,38.422 		"/>
		<polygon fill="#505150" stroke="#FFFFFF" stroke-width="1.9231" stroke-linejoin="round" stroke-miterlimit="10" points="
			1.706,45.764 13.943,53.106 13.945,38.422 		"/>
		<polygon fill="#505150" stroke="#FFFFFF" stroke-width="1.9231" stroke-linejoin="round" stroke-miterlimit="10" points="
			18.84,72.688 38.422,77.584 13.943,53.106 		"/>
		<polygon fill="#505150" stroke="#FFFFFF" stroke-width="1.9231" stroke-linejoin="round" stroke-miterlimit="10" points="
			53.106,13.944 45.764,1.706 38.422,13.945 45.954,13.945 		"/>
		<polygon fill="#505150" stroke="#FFFFFF" stroke-width="1.9231" stroke-linejoin="round" stroke-miterlimit="10" points="
			38.422,77.584 45.764,89.823 53.106,77.583 		"/>
		<polygon fill="#505150" stroke="#FFFFFF" stroke-width="1.9231" stroke-linejoin="round" stroke-miterlimit="10" points="
			89.822,45.764 77.584,38.422 77.583,53.106 		"/>
		<polygon fill="#505150" stroke="#FFFFFF" stroke-width="1.9231" stroke-linejoin="round" stroke-miterlimit="10" points="
			72.689,72.689 77.583,53.106 53.106,77.583 		"/>
	</g>
	<g>
		<polygon fill="#505150" stroke="#FFFFFF" stroke-width="1.9231" stroke-linejoin="round" stroke-miterlimit="10" points="
			18.88,20.215 38.658,14.181 46,1.942 36.21,-2.952 19.076,19.076 -2.952,36.21 1.942,46 14.181,38.659 		"/>
		<polygon fill="#505150" stroke="#FFFFFF" stroke-width="1.9231" stroke-linejoin="round" stroke-miterlimit="10" points="
			72.924,19.077 55.792,-2.953 46,1.942 53.342,14.18 		"/>
		<polygon fill="#505150" stroke="#FFFFFF" stroke-width="1.9231" stroke-linejoin="round" stroke-miterlimit="10" points="
			90.058,46 94.953,36.208 72.924,19.077 77.821,38.659 		"/>
		<polygon fill="#505150" stroke="#FFFFFF" stroke-width="1.9231" stroke-linejoin="round" stroke-miterlimit="10" points="
			19.076,72.924 36.209,94.953 46,90.058 38.658,77.821 		"/>
		<polygon fill="#505150" stroke="#FFFFFF" stroke-width="1.9231" stroke-linejoin="round" stroke-miterlimit="10" points="
			94.954,55.792 90.058,46 77.819,53.342 72.925,72.925 53.341,77.82 46,90.058 55.792,94.954 71.948,73.902 		"/>
		<polygon fill="#505150" stroke="#FFFFFF" stroke-width="1.9231" stroke-linejoin="round" stroke-miterlimit="10" points="
			1.942,46 -2.952,55.792 19.076,72.924 14.18,53.342 		"/>
	</g>
	<g>
		<polygon fill="#505150" stroke="#FFFFFF" stroke-width="1.9231" stroke-linejoin="round" stroke-miterlimit="10" points="
			55.792,-2.953 46,-7.848 36.21,-2.952 46,1.942 		"/>
		<polygon fill="#505150" stroke="#FFFFFF" stroke-width="1.9231" stroke-linejoin="round" stroke-miterlimit="10" points="
			94.953,36.208 77.82,14.181 55.792,-2.953 72.924,19.077 		"/>
		<polygon fill="#505150" stroke="#FFFFFF" stroke-width="1.9231" stroke-linejoin="round" stroke-miterlimit="10" points="
			36.21,-2.952 14.18,14.181 -2.952,36.21 19.076,19.076 		"/>
		<polygon fill="#505150" stroke="#FFFFFF" stroke-width="1.9231" stroke-linejoin="round" stroke-miterlimit="10" points="
			94.954,55.792 99.849,46 94.953,36.208 90.058,46 		"/>
		<polygon fill="#505150" stroke="#FFFFFF" stroke-width="1.9231" stroke-linejoin="round" stroke-miterlimit="10" points="
			94.954,55.792 71.948,73.902 55.792,94.954 77.82,77.82 		"/>
		<polygon fill="#505150" stroke="#FFFFFF" stroke-width="1.9231" stroke-linejoin="round" stroke-miterlimit="10" points="
			-2.952,36.21 -7.848,46 -2.952,55.792 1.942,46 		"/>
		<polygon fill="#505150" stroke="#FFFFFF" stroke-width="1.9231" stroke-linejoin="round" stroke-miterlimit="10" points="
			36.209,94.953 46,99.849 55.792,94.954 46,90.058 		"/>
		<polygon fill="#505150" stroke="#FFFFFF" stroke-width="1.9231" stroke-linejoin="round" stroke-miterlimit="10" points="
			-2.952,55.792 14.18,77.821 36.209,94.953 19.076,72.924 		"/>
	</g>
	<polygon fill="#505150" stroke="#FFFFFF" stroke-width="1.9231" stroke-linejoin="round" stroke-miterlimit="10" points="
		77.819,53.342 77.821,38.659 53.342,14.18 46.19,14.181 38.658,14.181 14.181,38.659 14.18,53.342 38.658,77.821 53.341,77.82 	"/>
</g>
</svg>
