<?xml version="1.0" encoding="utf-8"?>
<!-- Generator: Adobe Illustrator 15.1.0, SVG Export Plug-In . SVG Version: 6.00 Build 0)  -->
<!DOCTYPE svg PUBLIC "-//W3C//DTD SVG 1.1//EN" "http://www.w3.org/Graphics/SVG/1.1/DTD/svg11.dtd">
<svg version="1.1" id="Layer_1" xmlns="http://www.w3.org/2000/svg" xmlns:xlink="http://www.w3.org/1999/xlink" x="0px" y="0px"
	 width="143.108px" height="143.108px" viewBox="-8.661 -12.441 143.108 143.108"
	 enable-background="new -8.661 -12.441 143.108 143.108" xml:space="preserve">
<circle fill="#111111" cx="62.893" cy="59.114" r="71.554"/>
<path fill="#FFFFFF" d="M18.902,30.095c0.569,0.283,0.959,0.66,1.179,1.126c0.216,0.469,0.307,0.973,0.272,1.508
	c-0.034,0.537-0.126,1.031-0.278,1.485c-0.151,0.454-0.325,0.876-0.521,1.271l-2.534,5.079l-0.685-0.343
	c0.214-0.433,0.329-0.776,0.342-1.026c0.015-0.253-0.047-0.45-0.179-0.593c-0.134-0.146-0.346-0.29-0.635-0.434L9.468,34.98
	c-0.448-0.225-0.805-0.287-1.071-0.189c-0.266,0.095-0.55,0.445-0.85,1.05l-0.701-0.35c0.344-0.729,0.672-1.424,0.982-2.084
	c0.312-0.661,0.568-1.202,0.769-1.626c0.203-0.426,0.346-0.721,0.431-0.891l0.138-0.277c0.259-0.518,0.581-1.032,0.971-1.544
	c0.39-0.512,0.888-0.907,1.5-1.184c0.61-0.276,1.272-0.237,1.984,0.118c0.533,0.265,0.896,0.683,1.092,1.254
	c0.194,0.569,0.201,1.348,0.021,2.333c0.398-0.536,0.828-0.959,1.293-1.272c0.464-0.313,0.941-0.487,1.432-0.523
	C17.949,29.758,18.428,29.859,18.902,30.095z M12.615,30.17c-0.349-0.174-0.696-0.243-1.041-0.207
	c-0.344,0.037-0.673,0.182-0.981,0.435c-0.31,0.253-0.583,0.613-0.818,1.089l-0.393,0.784l3.631,1.811l0.307-0.612
	c0.398-0.802,0.525-1.479,0.379-2.033C13.554,30.881,13.193,30.458,12.615,30.17z M17.633,32.325
	c-0.688-0.343-1.312-0.431-1.87-0.263c-0.559,0.165-1,0.572-1.323,1.221l-0.603,1.211l2.435,1.214l0.203,0.101
	c0.368,0.184,0.667,0.305,0.896,0.362c0.229,0.058,0.443,0.026,0.646-0.096c0.201-0.123,0.398-0.38,0.593-0.769
	c0.258-0.518,0.331-1.057,0.221-1.619C18.718,33.121,18.319,32.669,17.633,32.325z"/>
<path fill="#FFFFFF" d="M25.744,20.331l2.856,2.482l-6.467,7.739l-0.589-0.492c0.446-0.536,0.656-0.942,0.63-1.224
	c-0.024-0.284-0.225-0.581-0.601-0.895l-5.459-4.562c-0.251-0.209-0.469-0.348-0.651-0.413c-0.182-0.065-0.388-0.035-0.62,0.087
	c-0.232,0.121-0.5,0.365-0.807,0.734l-0.591-0.493l3.651-4.372l0.589,0.495c-0.303,0.362-0.497,0.667-0.58,0.915
	c-0.083,0.246-0.078,0.456,0.014,0.629c0.091,0.174,0.266,0.369,0.526,0.587l4.998,4.175c0.393,0.329,0.691,0.543,0.893,0.647
	c0.204,0.105,0.42,0.109,0.65,0.011c0.23-0.096,0.508-0.341,0.833-0.729c0.409-0.493,0.733-0.953,0.966-1.385
	c0.234-0.434,0.322-0.94,0.261-1.523s-0.391-1.194-0.993-1.826L25.744,20.331z"/>
<path fill="#FFFFFF" d="M38.682,15.234l-4.322,3.125l-0.451-0.623c0.366-0.264,0.613-0.482,0.742-0.654
	c0.129-0.173,0.125-0.355-0.017-0.55c-0.096-0.135-0.223-0.253-0.378-0.354l-1.216-0.77l-2.977,2.151l0.208,0.757
	c0.113,0.425,0.225,0.71,0.332,0.862c0.196,0.269,0.425,0.365,0.687,0.287c0.261-0.079,0.533-0.22,0.813-0.423l0.45,0.623
	l-3.161,2.283l-0.451-0.623c0.253-0.183,0.433-0.385,0.54-0.607c0.109-0.221,0.146-0.522,0.117-0.902
	c-0.031-0.379-0.128-0.877-0.292-1.494l-2.362-8.84l0.645-0.467l7.957,5.126c0.568,0.361,0.962,0.593,1.187,0.704
	c0.225,0.11,0.455,0.153,0.691,0.128c0.237-0.023,0.506-0.145,0.811-0.363L38.682,15.234z M32.317,14.92l-3.579-2.287l1.107,4.069
	L32.317,14.92z"/>
<path fill="#FFFFFF" d="M48.813,10.958l-0.727,0.299c-0.29-0.399-0.629-0.723-1.02-0.973c-0.226,0.567-0.53,1.101-0.915,1.602
	c-0.384,0.502-1.006,0.926-1.867,1.278c-0.943,0.386-1.911,0.515-2.906,0.386c-0.993-0.128-1.897-0.503-2.712-1.128
	c-0.816-0.627-1.436-1.455-1.855-2.484c-0.3-0.731-0.457-1.483-0.469-2.254c-0.011-0.772,0.121-1.507,0.396-2.209
	c0.274-0.702,0.687-1.333,1.235-1.895c0.548-0.562,1.219-1.005,2.013-1.33c1.308-0.537,2.564-0.55,3.769-0.048
	c0.022-0.266,0.002-0.636-0.062-1.1l0.695-0.287l1.701,3.804l-0.74,0.304c-0.403-0.6-0.883-1.082-1.442-1.449
	c-0.558-0.365-1.134-0.586-1.727-0.659c-0.593-0.073-1.151-0.002-1.677,0.213c-0.587,0.241-1.049,0.617-1.386,1.131
	c-0.336,0.514-0.503,1.155-0.499,1.923c0.004,0.767,0.209,1.644,0.611,2.626c0.392,0.958,0.829,1.712,1.312,2.257
	c0.482,0.544,0.953,0.914,1.412,1.103c0.46,0.19,0.879,0.276,1.257,0.258c0.377-0.018,0.71-0.086,0.997-0.204
	c0.635-0.26,1.134-0.663,1.503-1.211c0.369-0.547,0.609-1.147,0.721-1.798c0.114-0.65,0.119-1.252,0.017-1.806l0.742-0.305
	L48.813,10.958z"/>
<path fill="#FFFFFF" d="M63.519,9.044L57.27,9.742l-0.086-0.763l0.507-0.055c0.432-0.048,0.722-0.108,0.875-0.179
	c0.153-0.07,0.221-0.172,0.205-0.302c-0.021-0.194-0.294-0.584-0.818-1.169l-2.794-3.141L53.87,5.545l0.271,2.432
	c0.055,0.492,0.206,0.823,0.457,0.995c0.249,0.171,0.689,0.221,1.326,0.149l0.086,0.763l-5.626,0.629l-0.085-0.763
	c0.48-0.053,0.831-0.145,1.049-0.268c0.22-0.125,0.353-0.282,0.402-0.474c0.047-0.189,0.053-0.444,0.018-0.765l-0.791-7.069
	c-0.035-0.322-0.093-0.569-0.178-0.742s-0.249-0.296-0.495-0.372c-0.247-0.078-0.612-0.087-1.092-0.034l-0.084-0.764l5.625-0.631
	l0.086,0.764c-0.691,0.078-1.125,0.226-1.303,0.448s-0.237,0.575-0.184,1.062l0.378,3.385l3.16-3.453
	c0.22-0.238,0.375-0.438,0.469-0.603c0.094-0.164,0.13-0.341,0.108-0.53c-0.043-0.397-0.444-0.556-1.202-0.469l-0.086-0.763
	l5.136-0.574L61.4-1.338c-0.395,0.081-0.716,0.162-0.96,0.251c-0.245,0.089-0.479,0.217-0.702,0.38
	c-0.224,0.166-0.461,0.376-0.719,0.636c-0.257,0.259-0.661,0.687-1.21,1.287l-1.062,1.151l3.847,4.359
	c0.411,0.465,0.744,0.806,0.997,1.027c0.255,0.221,0.518,0.37,0.79,0.453c0.273,0.082,0.624,0.107,1.051,0.076L63.519,9.044z"/>
<path fill="#FFFFFF" d="M73.237,7.341c-0.049,0.348-0.175,0.704-0.378,1.072c-0.205,0.366-0.48,0.708-0.831,1.021
	s-0.771,0.549-1.258,0.709c-0.491,0.156-1.034,0.194-1.635,0.111c-0.596-0.084-1.168-0.297-1.72-0.638
	c-0.55-0.342-0.993-0.797-1.329-1.369c-0.234,0.383-0.399,0.745-0.5,1.085l-0.761-0.106l0.54-3.835L66.127,5.5
	c0.058,0.57,0.177,1.115,0.351,1.634c0.174,0.519,0.459,0.984,0.853,1.397c0.396,0.413,0.915,0.665,1.558,0.755
	c0.563,0.08,1.034-0.011,1.417-0.272c0.383-0.259,0.607-0.626,0.673-1.092c0.038-0.266,0.018-0.503-0.058-0.717
	s-0.201-0.413-0.38-0.597c-0.177-0.187-0.423-0.393-0.745-0.62c-0.32-0.227-0.683-0.471-1.097-0.732
	c-0.631-0.416-1.143-0.816-1.533-1.203c-0.391-0.386-0.675-0.749-0.855-1.087c-0.18-0.337-0.294-0.648-0.338-0.938
	c-0.047-0.288-0.051-0.572-0.011-0.852c0.07-0.502,0.275-0.978,0.612-1.428c0.34-0.449,0.79-0.792,1.357-1.031
	c0.564-0.238,1.188-0.31,1.872-0.212c0.525,0.073,1.006,0.259,1.445,0.562c0.441,0.302,0.808,0.68,1.097,1.137
	c0.13-0.22,0.268-0.532,0.409-0.938l0.778,0.109l-0.438,3.126l-0.776-0.116c-0.312-1.782-1.15-2.767-2.516-2.96
	c-0.497-0.071-0.914,0.006-1.252,0.226c-0.334,0.219-0.534,0.536-0.592,0.949c-0.045,0.328,0.01,0.621,0.162,0.887
	c0.153,0.266,0.371,0.505,0.653,0.721c0.281,0.213,0.742,0.529,1.38,0.945c0.771,0.508,1.37,0.938,1.795,1.29
	c0.425,0.354,0.769,0.769,1.031,1.25C73.237,6.175,73.325,6.724,73.237,7.341z"/>
<path fill="#FFFFFF" d="M87.102,7.034L86.36,6.753c0.182-0.681,0.219-1.22,0.116-1.616c-0.102-0.396-0.266-0.677-0.493-0.848
	c-0.228-0.17-0.508-0.317-0.841-0.443l-1.344-0.51l-2.94,7.75c-0.116,0.308-0.176,0.558-0.177,0.75
	c-0.001,0.191,0.093,0.38,0.287,0.561c0.192,0.18,0.512,0.354,0.953,0.521l-0.271,0.719l-5.308-2.016l0.273-0.716
	c0.649,0.247,1.104,0.312,1.362,0.194c0.258-0.116,0.475-0.402,0.649-0.86l2.94-7.75L80.441,2.06
	c-0.439-0.167-0.82-0.271-1.14-0.312c-0.32-0.041-0.647,0.055-0.987,0.288c-0.34,0.229-0.65,0.668-0.931,1.312l-0.742-0.283
	l1.142-3.003l10.458,3.967L87.102,7.034z"/>
<path fill="#FFFFFF" d="M98.913,18.099c-0.612,0.826-1.384,1.458-2.312,1.887c-0.927,0.432-1.94,0.58-3.032,0.445
	c-1.094-0.135-2.167-0.591-3.219-1.37c-0.857-0.635-1.512-1.333-1.96-2.094c-0.447-0.762-0.708-1.526-0.777-2.301
	c-0.069-0.771,0.001-1.506,0.215-2.208c0.211-0.704,0.523-1.333,0.938-1.892c0.6-0.811,1.355-1.435,2.269-1.874
	c0.913-0.439,1.916-0.596,3.006-0.47c1.091,0.125,2.17,0.582,3.235,1.37c0.971,0.719,1.679,1.488,2.125,2.309
	c0.442,0.82,0.677,1.613,0.7,2.377s-0.08,1.472-0.308,2.125C99.562,17.055,99.267,17.62,98.913,18.099z M96.759,16.462
	c0.377-0.508,0.691-1.023,0.941-1.543c0.25-0.522,0.402-1.05,0.456-1.58c0.055-0.53-0.027-1.045-0.248-1.544
	c-0.219-0.498-0.609-0.952-1.169-1.368c-0.769-0.571-1.51-0.823-2.228-0.76c-0.712,0.063-1.361,0.325-1.94,0.786
	c-0.58,0.46-1.122,1.029-1.624,1.711c-0.278,0.375-0.546,0.786-0.796,1.23c-0.253,0.441-0.442,0.948-0.57,1.512
	c-0.129,0.568-0.096,1.149,0.101,1.748c0.194,0.598,0.618,1.139,1.271,1.623c0.646,0.478,1.286,0.716,1.915,0.714
	c0.628-0.003,1.196-0.152,1.706-0.451c0.508-0.297,0.933-0.63,1.274-0.992C96.19,17.181,96.494,16.821,96.759,16.462z"/>
<path fill="#FFFFFF" d="M112.143,26.822c-0.325-0.429-0.604-0.704-0.832-0.822c-0.226-0.122-0.443-0.139-0.643-0.054
	c-0.202,0.083-0.495,0.27-0.875,0.561l-7.14,5.441l-0.465-0.609l2.509-11.225l-4.959,3.781c-0.377,0.287-0.633,0.519-0.769,0.695
	c-0.133,0.176-0.174,0.395-0.12,0.653s0.243,0.602,0.568,1.025l-0.612,0.467l-2.549-3.346l0.609-0.466
	c0.305,0.398,0.571,0.652,0.797,0.763c0.228,0.11,0.441,0.121,0.645,0.034c0.202-0.089,0.492-0.276,0.869-0.562l4.594-3.505
	c0.371-0.284,0.643-0.504,0.812-0.667c0.171-0.162,0.296-0.332,0.38-0.515c0.083-0.182,0.101-0.391,0.058-0.627
	c-0.046-0.236-0.166-0.516-0.364-0.842l0.609-0.467l2,2.624l-2.145,9.741l4.109-3.133c0.333-0.256,0.574-0.476,0.72-0.659
	c0.145-0.184,0.192-0.404,0.152-0.662c-0.044-0.26-0.216-0.587-0.52-0.986l0.608-0.466l2.562,3.36L112.143,26.822z"/>
<path fill="#FFFFFF" d="M111.537,42.294l-3.477,1.333l-3.844-9.325l0.709-0.293c0.266,0.644,0.529,1.02,0.792,1.128
	c0.262,0.11,0.617,0.07,1.071-0.118l6.574-2.71c0.3-0.124,0.52-0.25,0.665-0.378c0.141-0.127,0.216-0.321,0.22-0.578
	c0.005-0.258-0.086-0.617-0.275-1.075l0.711-0.292l3.579,8.684l-2.66,1.259l-0.294-0.711c0.537-0.406,0.893-0.769,1.066-1.084
	c0.174-0.315,0.237-0.615,0.188-0.899c-0.047-0.285-0.179-0.687-0.393-1.206l-0.808-1.959l-3.697,1.524l0.438,1.063
	c0.151,0.365,0.295,0.625,0.434,0.78c0.139,0.153,0.312,0.229,0.522,0.225c0.211-0.002,0.513-0.07,0.911-0.202l0.305,0.742
	l-3.481,1.436l-0.294-0.709c0.379-0.18,0.642-0.348,0.789-0.505c0.149-0.158,0.218-0.338,0.208-0.541
	c-0.013-0.202-0.094-0.487-0.245-0.852l-0.445-1.082l-2.46,1.014c-0.411,0.17-0.708,0.305-0.891,0.403
	c-0.181,0.099-0.317,0.219-0.405,0.362c-0.088,0.141-0.12,0.328-0.095,0.553c0.028,0.227,0.121,0.526,0.273,0.903l0.348,0.842
	c0.147,0.355,0.331,0.674,0.554,0.958c0.224,0.286,0.584,0.505,1.085,0.659c0.502,0.156,1.176,0.129,2.026-0.075L111.537,42.294z"/>
<path fill="#FFFFFF" d="M17.995,103.061l-0.5-0.605c0.295-0.395,0.503-0.813,0.626-1.263c-0.608-0.048-1.208-0.179-1.8-0.398
	c-0.592-0.219-1.183-0.688-1.773-1.402c-0.649-0.785-1.059-1.675-1.23-2.66c-0.172-0.987-0.08-1.963,0.275-2.927
	c0.357-0.963,0.962-1.8,1.821-2.509c0.61-0.502,1.283-0.873,2.015-1.113c0.733-0.24,1.474-0.332,2.229-0.278
	c0.751,0.054,1.475,0.261,2.174,0.619c0.701,0.357,1.322,0.868,1.867,1.529c0.899,1.09,1.286,2.286,1.161,3.586
	c0.261-0.057,0.606-0.187,1.034-0.388l0.478,0.581l-3.13,2.752l-0.51-0.616c0.453-0.563,0.773-1.164,0.956-1.809
	c0.186-0.64,0.225-1.257,0.119-1.844c-0.105-0.588-0.338-1.101-0.7-1.539c-0.404-0.489-0.902-0.819-1.492-0.988
	c-0.591-0.169-1.252-0.139-1.984,0.095c-0.733,0.231-1.509,0.686-2.329,1.361c-0.799,0.658-1.388,1.299-1.766,1.922
	c-0.378,0.622-0.59,1.181-0.637,1.677c-0.046,0.495-0.003,0.92,0.126,1.275c0.129,0.354,0.294,0.651,0.493,0.893
	c0.436,0.528,0.969,0.886,1.601,1.076c0.633,0.189,1.276,0.241,1.93,0.156c0.656-0.086,1.232-0.259,1.732-0.52l0.509,0.619
	L17.995,103.061z"/>
<path fill="#FFFFFF" d="M34.93,109.215c-0.595,0.843-1.352,1.485-2.271,1.936c-0.919,0.451-1.928,0.62-3.025,0.507
	c-1.098-0.112-2.179-0.546-3.247-1.303c-0.872-0.617-1.54-1.301-2.003-2.054c-0.464-0.751-0.738-1.513-0.822-2.281
	c-0.086-0.771-0.031-1.509,0.166-2.215s0.497-1.344,0.899-1.912c0.582-0.82,1.325-1.461,2.23-1.92
	c0.904-0.457,1.903-0.635,2.997-0.532c1.092,0.103,2.18,0.538,3.261,1.303c0.986,0.699,1.709,1.455,2.17,2.267
	c0.461,0.812,0.712,1.599,0.752,2.362c0.038,0.764-0.052,1.474-0.266,2.13C35.555,108.158,35.275,108.73,34.93,109.215z
	 M32.743,107.624c0.367-0.518,0.671-1.039,0.911-1.565c0.239-0.526,0.38-1.056,0.424-1.587c0.043-0.532-0.051-1.045-0.281-1.539
	c-0.23-0.495-0.628-0.942-1.195-1.345c-0.781-0.554-1.529-0.791-2.241-0.712c-0.714,0.078-1.356,0.353-1.925,0.823
	c-0.572,0.474-1.101,1.057-1.589,1.746c-0.271,0.382-0.528,0.797-0.771,1.246c-0.243,0.448-0.423,0.955-0.539,1.525
	c-0.116,0.569-0.072,1.15,0.136,1.743c0.207,0.594,0.641,1.126,1.304,1.595c0.659,0.468,1.303,0.692,1.931,0.677
	c0.627-0.017,1.192-0.177,1.695-0.485c0.502-0.311,0.919-0.649,1.253-1.021C32.189,108.354,32.486,107.988,32.743,107.624z"/>
<path fill="#FFFFFF" d="M45.879,119.456l-0.737-0.271c0.055-0.489,0.022-0.956-0.097-1.404c-0.549,0.266-1.134,0.456-1.754,0.566
	c-0.622,0.109-1.369,0.005-2.241-0.315c-0.956-0.351-1.758-0.908-2.406-1.673c-0.647-0.766-1.061-1.653-1.242-2.665
	c-0.179-1.014-0.079-2.04,0.305-3.086c0.273-0.743,0.664-1.403,1.176-1.98c0.51-0.575,1.104-1.03,1.781-1.365
	c0.676-0.334,1.407-0.521,2.191-0.565c0.783-0.046,1.579,0.08,2.382,0.374c1.329,0.487,2.267,1.325,2.816,2.511
	c0.197-0.184,0.429-0.468,0.696-0.857l0.706,0.26l-1.309,3.957l-0.753-0.276c0.107-0.713,0.078-1.394-0.087-2.041
	s-0.441-1.198-0.83-1.652c-0.388-0.453-0.849-0.777-1.382-0.974c-0.595-0.218-1.191-0.251-1.786-0.1
	c-0.595,0.154-1.15,0.514-1.665,1.086c-0.514,0.57-0.954,1.354-1.321,2.353c-0.356,0.971-0.54,1.819-0.552,2.547
	c-0.012,0.729,0.087,1.318,0.298,1.769c0.21,0.45,0.462,0.796,0.754,1.036c0.291,0.24,0.583,0.415,0.875,0.521
	c0.642,0.236,1.285,0.275,1.925,0.122c0.641-0.157,1.224-0.438,1.746-0.843c0.521-0.402,0.931-0.846,1.231-1.322l0.752,0.276
	L45.879,119.456z"/>
<path fill="#FFFFFF" d="M63.267,121.873l-6.261-0.57l0.07-0.765l0.507,0.047c0.432,0.04,0.729,0.04,0.892,0.002
	c0.163-0.038,0.25-0.124,0.263-0.259c0.017-0.192-0.172-0.63-0.57-1.309l-2.109-3.638l-1.544,1.126l-0.221,2.436
	c-0.045,0.495,0.038,0.85,0.247,1.067c0.21,0.217,0.633,0.354,1.271,0.412l-0.07,0.765l-5.636-0.512l0.069-0.765
	c0.482,0.044,0.844,0.026,1.083-0.051c0.238-0.08,0.402-0.207,0.488-0.384c0.086-0.177,0.144-0.428,0.172-0.747l0.643-7.083
	c0.03-0.323,0.021-0.574-0.027-0.761s-0.184-0.34-0.41-0.466c-0.226-0.122-0.58-0.208-1.063-0.252l0.07-0.765l5.637,0.512
	l-0.069,0.766c-0.693-0.062-1.149-0.005-1.366,0.177c-0.219,0.182-0.349,0.517-0.394,1.004l-0.308,3.393l3.787-2.751
	c0.263-0.188,0.458-0.354,0.582-0.496c0.125-0.143,0.196-0.308,0.212-0.496c0.037-0.399-0.325-0.635-1.083-0.704l0.069-0.765
	l5.146,0.467l-0.069,0.766c-0.401-0.003-0.732,0.015-0.99,0.051c-0.257,0.038-0.512,0.117-0.763,0.232
	c-0.251,0.116-0.528,0.276-0.831,0.477c-0.303,0.203-0.784,0.541-1.442,1.019l-1.272,0.917l2.895,5.039
	c0.308,0.538,0.565,0.939,0.77,1.207c0.206,0.267,0.434,0.468,0.684,0.604c0.25,0.135,0.588,0.229,1.014,0.286L63.267,121.873z"/>
<path fill="#FFFFFF" d="M76.203,111.768l-0.782,0.132c-0.187-0.681-0.425-1.166-0.711-1.456c-0.291-0.292-0.573-0.452-0.856-0.483
	c-0.282-0.031-0.599-0.019-0.951,0.04l-1.416,0.237l1.368,8.177c0.054,0.324,0.129,0.569,0.225,0.736
	c0.094,0.168,0.271,0.28,0.531,0.34c0.259,0.058,0.621,0.048,1.086-0.03l0.126,0.758l-5.599,0.936l-0.126-0.758
	c0.687-0.113,1.112-0.286,1.276-0.517c0.165-0.23,0.208-0.588,0.125-1.071l-1.369-8.176l-1.185,0.197
	c-0.467,0.078-0.849,0.181-1.144,0.305c-0.293,0.125-0.532,0.375-0.709,0.745c-0.179,0.372-0.226,0.906-0.143,1.604l-0.783,0.13
	l-0.531-3.168l11.034-1.846L76.203,111.768z"/>
<path fill="#FFFFFF" d="M89.175,115.511l-4.991,1.884l-0.27-0.718c0.422-0.159,0.716-0.305,0.887-0.438
	c0.17-0.133,0.213-0.311,0.128-0.534c-0.06-0.157-0.149-0.304-0.272-0.441l-0.973-1.062l-3.437,1.299l0.001,0.783
	c0,0.439,0.033,0.746,0.098,0.917c0.117,0.313,0.313,0.465,0.587,0.457c0.272-0.008,0.572-0.072,0.893-0.192l0.271,0.716
	l-3.65,1.377l-0.268-0.719c0.291-0.109,0.516-0.259,0.678-0.444c0.161-0.186,0.278-0.466,0.348-0.84
	c0.07-0.375,0.107-0.881,0.108-1.519l0.038-9.151l0.744-0.279l6.338,7.031c0.454,0.495,0.776,0.825,0.962,0.99
	c0.188,0.162,0.396,0.264,0.633,0.303c0.234,0.041,0.527-0.006,0.877-0.138L89.175,115.511z M83.115,113.541l-2.855-3.144
	l0.004,4.22L83.115,113.541z"/>
<path fill="#FFFFFF" d="M95.444,111.744l-4.966,2.888l-0.387-0.664c0.414-0.24,0.704-0.464,0.869-0.666
	c0.165-0.203,0.235-0.4,0.208-0.599c-0.027-0.196-0.126-0.442-0.296-0.734l-3.577-6.149c-0.245-0.424-0.506-0.671-0.783-0.742
	c-0.276-0.071-0.723,0.071-1.337,0.43l-0.388-0.663l4.968-2.887l0.386,0.664c-0.414,0.24-0.703,0.463-0.867,0.667
	c-0.163,0.204-0.232,0.404-0.208,0.6c0.026,0.194,0.123,0.438,0.295,0.732l3.577,6.147c0.16,0.279,0.319,0.48,0.473,0.604
	c0.157,0.12,0.361,0.165,0.615,0.134c0.256-0.031,0.6-0.175,1.031-0.427L95.444,111.744z"/>
<path fill="#FFFFFF" d="M102.189,101.797l2.315,2.99l-7.852,6.331l-0.482-0.599c0.542-0.436,0.827-0.796,0.857-1.077
	c0.031-0.282-0.107-0.614-0.415-0.995l-4.466-5.537c-0.205-0.256-0.391-0.433-0.556-0.531c-0.165-0.1-0.373-0.111-0.626-0.038
	c-0.252,0.074-0.564,0.259-0.937,0.562l-0.482-0.598l4.434-3.573l0.481,0.598c-0.368,0.295-0.617,0.559-0.745,0.782
	c-0.13,0.225-0.167,0.433-0.112,0.62c0.057,0.189,0.19,0.414,0.403,0.679l4.087,5.069c0.321,0.398,0.571,0.671,0.749,0.812
	c0.18,0.142,0.392,0.187,0.636,0.136c0.245-0.052,0.565-0.235,0.959-0.553c0.499-0.401,0.904-0.791,1.218-1.17
	c0.313-0.378,0.498-0.858,0.554-1.442c0.052-0.584-0.153-1.245-0.618-1.983L102.189,101.797z"/>
<path fill="#FFFFFF" d="M109.054,94.675c0.267,0.228,0.501,0.527,0.701,0.896c0.2,0.369,0.338,0.785,0.415,1.248
	c0.075,0.467,0.05,0.947-0.079,1.443c-0.128,0.497-0.391,0.978-0.783,1.438c-0.391,0.457-0.877,0.824-1.461,1.107
	c-0.585,0.28-1.207,0.408-1.867,0.387c0.196,0.401,0.412,0.737,0.646,1.002l-0.499,0.585l-2.946-2.515l0.499-0.585
	c0.514,0.256,1.037,0.449,1.567,0.581c0.533,0.133,1.078,0.142,1.638,0.031c0.561-0.112,1.054-0.415,1.474-0.912
	c0.368-0.432,0.546-0.878,0.531-1.339c-0.016-0.464-0.201-0.85-0.562-1.157c-0.204-0.173-0.415-0.284-0.638-0.333
	c-0.221-0.051-0.458-0.051-0.708,0c-0.253,0.049-0.557,0.147-0.921,0.294c-0.363,0.146-0.766,0.326-1.208,0.535
	c-0.689,0.312-1.301,0.527-1.837,0.646c-0.536,0.122-0.993,0.167-1.375,0.138c-0.381-0.029-0.706-0.102-0.974-0.217
	c-0.267-0.115-0.509-0.265-0.725-0.448c-0.385-0.329-0.677-0.758-0.874-1.284c-0.199-0.527-0.245-1.094-0.143-1.697
	c0.102-0.604,0.376-1.169,0.824-1.694c0.344-0.401,0.761-0.709,1.252-0.917c0.49-0.213,1.007-0.318,1.546-0.316
	c-0.112-0.227-0.302-0.51-0.571-0.849l0.51-0.597l2.4,2.049l-0.509,0.597c-1.67-0.692-2.953-0.516-3.849,0.535
	c-0.326,0.383-0.485,0.774-0.48,1.175c0.003,0.401,0.163,0.74,0.48,1.012c0.251,0.213,0.53,0.326,0.838,0.339
	c0.304,0.015,0.624-0.043,0.955-0.163c0.331-0.123,0.846-0.342,1.541-0.657c0.843-0.379,1.526-0.652,2.052-0.823
	c0.525-0.169,1.06-0.235,1.607-0.198C108.068,94.049,108.578,94.271,109.054,94.675z"/>
<g>
	<polygon fill="#111111" stroke="#FFFFFF" stroke-width="1.5984" stroke-linejoin="round" stroke-miterlimit="10" points="
		30.234,61.305 38.312,74.906 38.312,46.135 	"/>
	<polygon fill="#111111" stroke="#FFFFFF" stroke-width="1.5984" stroke-linejoin="round" stroke-miterlimit="10" points="
		61.327,28.876 46.941,37.505 75.713,37.505 	"/>
	<polygon fill="#111111" stroke="#FFFFFF" stroke-width="1.5984" stroke-linejoin="round" stroke-miterlimit="10" points="
		35.434,86.414 46.941,83.537 38.312,74.906 	"/>
	<polygon fill="#111111" stroke="#FFFFFF" stroke-width="1.5984" stroke-linejoin="round" stroke-miterlimit="10" points="
		61.327,92.168 75.713,83.537 46.941,83.537 	"/>
	<polygon fill="#111111" stroke="#FFFFFF" stroke-width="1.5984" stroke-linejoin="round" stroke-miterlimit="10" points="
		46.941,37.505 35.434,34.628 38.312,46.135 42.739,41.709 	"/>
	<polygon fill="#111111" stroke="#FFFFFF" stroke-width="1.5984" stroke-linejoin="round" stroke-miterlimit="10" points="
		75.713,83.537 87.221,86.414 84.342,74.906 	"/>
	<polygon fill="#111111" stroke="#FFFFFF" stroke-width="1.5984" stroke-linejoin="round" stroke-miterlimit="10" points="
		87.221,34.628 75.713,37.505 84.342,46.135 	"/>
	<polygon fill="#111111" stroke="#FFFFFF" stroke-width="1.5984" stroke-linejoin="round" stroke-miterlimit="10" points="
		92.976,60.522 84.342,46.135 84.342,74.906 	"/>
</g>
<g>
	<polygon fill="#111111" stroke="#FFFFFF" stroke-width="1.5984" stroke-linejoin="round" stroke-miterlimit="10" points="
		30.512,61.305 38.589,46.135 35.712,34.628 27.082,37.505 29.958,60.522 27.082,83.537 35.712,86.414 38.589,74.906 	"/>
	<polygon fill="#111111" stroke="#FFFFFF" stroke-width="1.5984" stroke-linejoin="round" stroke-miterlimit="10" points="
		61.604,28.876 38.589,25.997 35.712,34.628 47.219,37.505 	"/>
	<polygon fill="#111111" stroke="#FFFFFF" stroke-width="1.5984" stroke-linejoin="round" stroke-miterlimit="10" points="
		87.498,34.628 84.619,25.997 61.604,28.876 75.991,37.505 	"/>
	<polygon fill="#111111" stroke="#FFFFFF" stroke-width="1.5984" stroke-linejoin="round" stroke-miterlimit="10" points="
		61.604,92.168 84.619,95.045 87.498,86.414 75.991,83.537 	"/>
	<polygon fill="#111111" stroke="#FFFFFF" stroke-width="1.5984" stroke-linejoin="round" stroke-miterlimit="10" points="
		96.129,37.505 87.498,34.628 84.619,46.135 93.253,60.522 84.619,74.906 87.498,86.414 96.129,83.537 93.253,61.67 	"/>
	<polygon fill="#111111" stroke="#FFFFFF" stroke-width="1.5984" stroke-linejoin="round" stroke-miterlimit="10" points="
		35.712,86.414 38.589,95.045 61.604,92.168 47.219,83.537 	"/>
</g>
<g>
	<polygon fill="#111111" stroke="#FFFFFF" stroke-width="1.5984" stroke-linejoin="round" stroke-miterlimit="10" points="
		38.589,25.997 29.958,28.875 27.082,37.505 35.712,34.628 	"/>
	<polygon fill="#111111" stroke="#FFFFFF" stroke-width="1.5984" stroke-linejoin="round" stroke-miterlimit="10" points="
		84.619,25.997 61.604,23.121 38.589,25.997 61.604,28.876 	"/>
	<polygon fill="#111111" stroke="#FFFFFF" stroke-width="1.5984" stroke-linejoin="round" stroke-miterlimit="10" points="
		27.082,37.505 24.204,60.522 27.082,83.537 29.958,60.522 	"/>
	<polygon fill="#111111" stroke="#FFFFFF" stroke-width="1.5984" stroke-linejoin="round" stroke-miterlimit="10" points="
		96.129,37.505 93.253,28.875 84.619,25.997 87.498,34.628 	"/>
	<polygon fill="#111111" stroke="#FFFFFF" stroke-width="1.5984" stroke-linejoin="round" stroke-miterlimit="10" points="
		96.129,37.505 93.253,61.67 96.129,83.537 99.006,60.522 	"/>
	<polygon fill="#111111" stroke="#FFFFFF" stroke-width="1.5984" stroke-linejoin="round" stroke-miterlimit="10" points="
		27.082,83.537 29.958,92.168 38.589,95.045 35.712,86.414 	"/>
	<polygon fill="#111111" stroke="#FFFFFF" stroke-width="1.5984" stroke-linejoin="round" stroke-miterlimit="10" points="
		84.619,95.045 93.253,92.168 96.129,83.537 87.498,86.414 	"/>
	<polygon fill="#111111" stroke="#FFFFFF" stroke-width="1.5984" stroke-linejoin="round" stroke-miterlimit="10" points="
		38.589,95.045 61.604,97.924 84.619,95.045 61.604,92.168 	"/>
</g>
<polygon fill="#111111" stroke="#FFFFFF" stroke-width="1.5984" stroke-linejoin="round" stroke-miterlimit="10" points="
	84.619,46.135 75.991,37.505 47.219,37.505 43.017,41.709 38.589,46.135 38.589,74.906 47.219,83.537 75.991,83.537 84.619,74.906 
	"/>
<path fill="#FFFFFF" d="M5.325,57.652H4.916c-0.104-0.292-0.284-0.584-0.54-0.883c-0.255-0.296-0.508-0.472-0.76-0.527
	c-0.109-0.025-0.259-0.041-0.451-0.045c-0.191-0.007-0.351-0.009-0.477-0.009H1.574v2.953h0.789c0.196,0,0.376-0.023,0.539-0.07
	c0.162-0.049,0.31-0.137,0.443-0.271c0.081-0.084,0.166-0.229,0.25-0.438c0.085-0.208,0.14-0.39,0.164-0.545h0.411v3.196H3.76
	c-0.021-0.153-0.077-0.341-0.164-0.571c-0.087-0.227-0.172-0.385-0.25-0.47c-0.121-0.129-0.259-0.22-0.423-0.268
	c-0.16-0.05-0.349-0.073-0.56-0.073H1.574v2.208c0,0.228,0.018,0.41,0.052,0.545c0.034,0.135,0.097,0.239,0.191,0.31
	c0.089,0.068,0.213,0.115,0.37,0.135c0.156,0.022,0.368,0.033,0.639,0.033c0.126,0,0.277-0.002,0.454-0.005
	c0.175-0.002,0.331-0.015,0.465-0.032c0.151-0.018,0.292-0.045,0.422-0.081c0.132-0.036,0.23-0.087,0.295-0.157
	c0.172-0.177,0.366-0.445,0.583-0.807c0.216-0.363,0.357-0.633,0.425-0.814h0.395L5.719,63.35h-7.181v-0.421
	c0.101-0.007,0.237-0.021,0.409-0.043c0.173-0.022,0.295-0.048,0.366-0.076c0.138-0.057,0.229-0.129,0.276-0.219
	c0.047-0.086,0.07-0.201,0.07-0.336v-5.401c0-0.13-0.019-0.237-0.058-0.322c-0.041-0.084-0.136-0.16-0.288-0.228
	c-0.093-0.045-0.224-0.084-0.393-0.12c-0.168-0.033-0.296-0.055-0.382-0.067v-0.42h6.787V57.652z"/>
<path fill="#FFFFFF" d="M9.08,63.539c-0.349,0-0.69-0.051-1.022-0.155s-0.591-0.211-0.774-0.326l-0.162,0.365H6.699l-0.07-2.014
	h0.394c0.053,0.163,0.145,0.345,0.27,0.548c0.126,0.204,0.271,0.385,0.432,0.548c0.17,0.16,0.364,0.297,0.581,0.41
	c0.217,0.111,0.45,0.166,0.698,0.166c0.328,0,0.572-0.062,0.732-0.19c0.159-0.127,0.24-0.324,0.24-0.59
	c0-0.144-0.038-0.262-0.109-0.357c-0.071-0.093-0.17-0.173-0.296-0.242c-0.14-0.073-0.294-0.134-0.461-0.185
	c-0.167-0.05-0.374-0.111-0.618-0.184c-0.244-0.073-0.453-0.146-0.628-0.219c-0.174-0.074-0.356-0.19-0.542-0.348
	c-0.162-0.142-0.291-0.31-0.388-0.507c-0.098-0.198-0.146-0.434-0.146-0.708c0-0.507,0.213-0.917,0.64-1.23
	c0.427-0.313,0.985-0.47,1.675-0.47c0.328,0,0.628,0.033,0.904,0.1c0.274,0.066,0.506,0.139,0.693,0.22l0.114-0.32h0.409
	l0.088,1.842H10.93c-0.126-0.375-0.343-0.699-0.647-0.969c-0.305-0.272-0.635-0.408-0.987-0.408c-0.278,0-0.496,0.057-0.654,0.173
	c-0.157,0.116-0.237,0.275-0.237,0.481c0,0.273,0.118,0.47,0.347,0.593c0.232,0.121,0.557,0.238,0.973,0.346
	c0.642,0.165,1.114,0.391,1.412,0.675c0.297,0.287,0.446,0.651,0.446,1.093c0,0.59-0.23,1.047-0.693,1.369
	C10.426,63.373,9.823,63.539,9.08,63.539z"/>
<path fill="#FFFFFF" d="M16.301,63.107c-0.23,0.101-0.476,0.191-0.739,0.273c-0.263,0.08-0.583,0.121-0.961,0.121
	c-0.561,0-0.978-0.137-1.249-0.409c-0.272-0.273-0.407-0.663-0.407-1.17v-3.31h-0.972v-0.588h0.993v-1.634h1.749v1.634h1.516v0.588
	h-1.505v2.955c0,0.42,0.058,0.718,0.175,0.893c0.117,0.178,0.328,0.265,0.632,0.265c0.097,0,0.231-0.007,0.405-0.022
	c0.174-0.014,0.294-0.028,0.362-0.048V63.107z"/>
<path fill="#FFFFFF" d="M19.217,62.459c0,0.286-0.105,0.533-0.315,0.74c-0.211,0.209-0.459,0.313-0.748,0.313
	c-0.291,0-0.542-0.103-0.751-0.31c-0.211-0.207-0.317-0.455-0.317-0.743c0-0.288,0.105-0.536,0.317-0.746
	c0.209-0.21,0.461-0.315,0.751-0.315c0.29,0,0.537,0.106,0.748,0.318C19.111,61.927,19.217,62.175,19.217,62.459z"/>
<path fill="#FFFFFF" d="M109.843,63.355h-5.851v-0.977c0.257-0.259,0.537-0.495,0.841-0.709c0.305-0.217,0.614-0.405,0.927-0.572
	c0.335-0.176,0.617-0.331,0.843-0.47c0.228-0.139,0.406-0.285,0.537-0.435c0.13-0.141,0.224-0.294,0.277-0.459
	c0.056-0.166,0.087-0.351,0.087-0.556c0-0.456-0.109-0.79-0.326-0.999c-0.216-0.208-0.502-0.313-0.86-0.313
	c-0.112,0-0.218,0.008-0.316,0.024c-0.1,0.015-0.203,0.045-0.312,0.088c0.051,0.162,0.106,0.329,0.155,0.502
	c0.052,0.173,0.076,0.364,0.076,0.576c0,0.257-0.091,0.46-0.274,0.61c-0.186,0.151-0.419,0.226-0.705,0.226
	c-0.267,0-0.482-0.086-0.643-0.264c-0.157-0.176-0.239-0.39-0.239-0.642c0-0.438,0.258-0.816,0.766-1.139
	c0.512-0.319,1.133-0.479,1.867-0.479c0.849,0,1.536,0.146,2.06,0.437c0.522,0.292,0.783,0.761,0.783,1.409
	c0,0.333-0.068,0.604-0.208,0.81c-0.138,0.204-0.342,0.384-0.611,0.539c-0.239,0.14-0.507,0.255-0.802,0.346
	c-0.293,0.088-0.605,0.176-0.942,0.259c-0.355,0.09-0.665,0.188-0.929,0.287c-0.265,0.101-0.501,0.223-0.706,0.362v0.06h4.507
	L109.843,63.355L109.843,63.355z"/>
<path fill="#FFFFFF" d="M116.602,58.326c0.273,0.287,0.477,0.616,0.607,0.986c0.132,0.367,0.196,0.75,0.196,1.146
	c0,0.469-0.082,0.896-0.244,1.276c-0.164,0.378-0.391,0.7-0.675,0.961c-0.297,0.274-0.644,0.482-1.04,0.626
	c-0.397,0.146-0.849,0.217-1.367,0.217c-0.542,0-1.021-0.086-1.437-0.255c-0.415-0.169-0.763-0.392-1.039-0.669
	c-0.273-0.273-0.481-0.595-0.623-0.967c-0.143-0.37-0.212-0.767-0.212-1.191c0-0.422,0.064-0.813,0.199-1.171
	c0.135-0.361,0.343-0.686,0.623-0.977c0.274-0.286,0.622-0.513,1.042-0.683c0.423-0.17,0.906-0.258,1.451-0.258
	c0.567,0,1.059,0.089,1.479,0.265C115.986,57.81,116.333,58.042,116.602,58.326z M115.081,62.345
	c0.104-0.241,0.179-0.51,0.226-0.807c0.044-0.297,0.067-0.657,0.067-1.082c0-0.381-0.021-0.725-0.062-1.031
	c-0.042-0.306-0.11-0.578-0.207-0.815c-0.102-0.244-0.234-0.432-0.398-0.566c-0.165-0.134-0.368-0.2-0.61-0.2
	c-0.243,0-0.45,0.066-0.615,0.197c-0.166,0.131-0.301,0.317-0.404,0.558c-0.093,0.219-0.161,0.488-0.204,0.807
	c-0.044,0.319-0.065,0.669-0.065,1.051c0,0.397,0.019,0.738,0.058,1.019c0.037,0.281,0.106,0.55,0.207,0.809
	c0.09,0.235,0.22,0.425,0.389,0.568c0.169,0.144,0.378,0.216,0.626,0.216c0.229,0,0.431-0.063,0.601-0.193
	C114.851,62.745,114.983,62.569,115.081,62.345z"/>
<path fill="#FFFFFF" d="M122.694,63.355h-4.452v-0.412c0.11-0.007,0.28-0.022,0.516-0.052s0.397-0.058,0.482-0.087
	c0.108-0.036,0.193-0.096,0.256-0.184c0.059-0.086,0.09-0.206,0.09-0.357v-3.42h-1.365V58.33h0.297c0.313,0,0.585-0.034,0.812-0.103
	c0.229-0.068,0.418-0.151,0.569-0.248c0.155-0.1,0.28-0.205,0.38-0.313c0.099-0.107,0.177-0.203,0.235-0.286h0.949
	c-0.011,0.234-0.02,0.506-0.03,0.821c-0.013,0.313-0.019,0.593-0.019,0.842v3.162c0,0.129,0.027,0.242,0.085,0.337
	c0.056,0.095,0.135,0.168,0.24,0.219c0.093,0.043,0.251,0.084,0.469,0.12c0.22,0.037,0.382,0.057,0.485,0.063V63.355L122.694,63.355
	z"/>
<path fill="#FFFFFF" d="M129.896,63.301h-1.161v2.044h-1.807v-2.044h-3.572v-0.993l3.875-4.906h1.504v4.76h1.161V63.301
	L129.896,63.301z M126.928,62.162V58.69l-2.741,3.472H126.928z"/>
</svg>
