<?xml version="1.0" encoding="utf-8"?>
<!-- Generator: Adobe Illustrator 15.1.0, SVG Export Plug-In . SVG Version: 6.00 Build 0)  -->
<!DOCTYPE svg PUBLIC "-//W3C//DTD SVG 1.1//EN" "http://www.w3.org/Graphics/SVG/1.1/DTD/svg11.dtd">
<svg version="1.1" id="Layer_1" xmlns="http://www.w3.org/2000/svg" xmlns:xlink="http://www.w3.org/1999/xlink" x="0px" y="0px"
	 width="156.479px" height="156.479px" viewBox="0 0 156.479 156.479" enable-background="new 0 0 156.479 156.479"
	 xml:space="preserve">
<circle fill="#231F20" cx="79.07" cy="78.239" r="78.24"/>
<g>
	<path fill="#FFFFFF" d="M28.344,56.483c0.617,0.194,1.074,0.511,1.368,0.949c0.293,0.438,0.466,0.929,0.519,1.476
		c0.051,0.547,0.036,1.061-0.044,1.542c-0.079,0.48-0.188,0.936-0.321,1.363l-1.741,5.526l-0.747-0.235
		c0.149-0.472,0.21-0.835,0.182-1.091c-0.026-0.254-0.118-0.444-0.275-0.569c-0.158-0.124-0.395-0.234-0.708-0.334l-6.958-2.189
		c-0.487-0.154-0.858-0.159-1.11-0.021c-0.253,0.143-0.482,0.539-0.688,1.195l-0.764-0.241c0.23-0.791,0.45-1.543,0.657-2.258
		s0.378-1.303,0.514-1.764c0.137-0.459,0.233-0.782,0.291-0.967l0.096-0.301c0.177-0.562,0.422-1.135,0.73-1.713
		c0.312-0.579,0.751-1.056,1.322-1.434c0.571-0.376,1.243-0.444,2.019-0.199c0.58,0.182,1.015,0.545,1.302,1.089
		c0.288,0.542,0.419,1.325,0.396,2.348c0.314-0.603,0.681-1.1,1.098-1.489c0.419-0.391,0.871-0.642,1.359-0.756
		C27.328,56.298,27.831,56.321,28.344,56.483z M22.018,57.565c-0.378-0.119-0.739-0.133-1.081-0.041
		c-0.342,0.091-0.647,0.29-0.92,0.594c-0.271,0.305-0.487,0.715-0.649,1.23l-0.27,0.853l3.95,1.244l0.21-0.667
		c0.273-0.873,0.294-1.576,0.059-2.111C23.081,58.131,22.648,57.763,22.018,57.565z M27.421,58.934
		c-0.748-0.234-1.39-0.222-1.927,0.034c-0.536,0.257-0.916,0.738-1.136,1.441l-0.415,1.316l2.649,0.835l0.22,0.069
		c0.401,0.126,0.723,0.2,0.961,0.222c0.241,0.022,0.452-0.045,0.637-0.202c0.183-0.156,0.341-0.445,0.475-0.869
		c0.177-0.562,0.164-1.12-0.039-1.669C28.644,59.562,28.169,59.172,27.421,58.934z"/>
	<path fill="#FFFFFF" d="M32.932,46.255l3.348,1.923L31.328,57.2l-0.688-0.376c0.343-0.623,0.474-1.072,0.393-1.351
		c-0.082-0.278-0.341-0.537-0.779-0.777l-6.365-3.49c-0.293-0.161-0.538-0.258-0.731-0.285c-0.195-0.029-0.396,0.04-0.605,0.207
		c-0.208,0.167-0.431,0.466-0.666,0.894l-0.687-0.379l2.796-5.093l0.688,0.375c-0.232,0.425-0.365,0.768-0.399,1.031
		c-0.035,0.263,0.011,0.472,0.136,0.629c0.125,0.155,0.339,0.316,0.643,0.482l5.828,3.198c0.457,0.25,0.798,0.409,1.022,0.472
		c0.223,0.066,0.439,0.026,0.652-0.117c0.212-0.143,0.441-0.44,0.69-0.894c0.314-0.573,0.546-1.098,0.695-1.577
		c0.148-0.479,0.136-1.005-0.04-1.577c-0.174-0.571-0.626-1.116-1.354-1.633L32.932,46.255z"/>
	<path fill="#FFFFFF" d="M44.06,39.012l-3.564,4.116l-0.592-0.514c0.301-0.348,0.496-0.622,0.584-0.823
		c0.089-0.201,0.041-0.384-0.146-0.542c-0.129-0.111-0.282-0.198-0.459-0.264l-1.388-0.479l-2.455,2.835l0.384,0.704
		c0.213,0.395,0.391,0.653,0.532,0.776c0.258,0.224,0.508,0.266,0.75,0.125c0.242-0.142,0.478-0.344,0.708-0.611l0.593,0.515
		l-2.604,3.008l-0.594-0.515c0.208-0.239,0.341-0.483,0.396-0.729c0.054-0.243,0.021-0.552-0.097-0.923
		c-0.118-0.369-0.332-0.841-0.639-1.417l-4.417-8.229l0.53-0.612l9.107,3.23c0.648,0.223,1.096,0.362,1.343,0.419
		c0.249,0.057,0.486,0.046,0.718-0.033c0.229-0.079,0.469-0.262,0.718-0.549L44.06,39.012z M37.663,40.19l-4.09-1.434l2.054,3.784
		L37.663,40.19z"/>
	<path fill="#FFFFFF" d="M52.306,32.677l-0.638,0.486c-0.392-0.315-0.812-0.546-1.263-0.688c-0.071,0.618-0.229,1.226-0.477,1.821
		c-0.247,0.595-0.746,1.181-1.501,1.756c-0.827,0.63-1.748,1.014-2.76,1.152c-1.014,0.137-2.005,0.005-2.975-0.396
		c-0.971-0.4-1.801-1.052-2.489-1.955c-0.488-0.641-0.841-1.339-1.06-2.097c-0.216-0.756-0.281-1.518-0.197-2.281
		c0.085-0.766,0.322-1.498,0.715-2.197c0.392-0.698,0.936-1.312,1.631-1.845c1.147-0.875,2.382-1.224,3.704-1.046
		c-0.048-0.271-0.167-0.627-0.355-1.068l0.61-0.465l2.688,3.297l-0.65,0.497c-0.556-0.483-1.157-0.833-1.806-1.046
		s-1.274-0.277-1.877-0.19c-0.604,0.084-1.137,0.302-1.597,0.653c-0.514,0.394-0.87,0.888-1.065,1.483
		c-0.195,0.595-0.188,1.271,0.02,2.026c0.208,0.757,0.643,1.564,1.3,2.429c0.641,0.839,1.271,1.465,1.892,1.874
		c0.62,0.41,1.182,0.647,1.685,0.712c0.505,0.066,0.94,0.041,1.308-0.079c0.364-0.119,0.676-0.274,0.929-0.467
		c0.556-0.424,0.941-0.955,1.16-1.594c0.218-0.636,0.295-1.291,0.232-1.962c-0.062-0.67-0.215-1.267-0.461-1.785l0.65-0.496
		L52.306,32.677z"/>
	<path fill="#FFFFFF" d="M65.313,26.799l-5.865,2.597L59.13,28.68l0.475-0.21c0.406-0.18,0.673-0.327,0.798-0.443
		c0.127-0.113,0.163-0.232,0.105-0.357c-0.08-0.184-0.466-0.479-1.157-0.888l-3.686-2.196l-0.817,1.77l1.012,2.282
		c0.204,0.463,0.453,0.739,0.749,0.828c0.294,0.091,0.74,0.003,1.338-0.261l0.316,0.717l-5.281,2.34l-0.318-0.718
		c0.452-0.199,0.765-0.396,0.938-0.583c0.175-0.19,0.257-0.385,0.246-0.585c-0.012-0.2-0.084-0.451-0.217-0.752l-2.94-6.638
		c-0.134-0.302-0.269-0.523-0.402-0.666s-0.332-0.212-0.596-0.211c-0.263,0.003-0.621,0.104-1.073,0.305l-0.317-0.718l5.283-2.341
		l0.317,0.718c-0.649,0.287-1.026,0.565-1.131,0.835c-0.104,0.271-0.056,0.634,0.147,1.092l1.409,3.179l2.013-4.333
		c0.143-0.298,0.232-0.542,0.274-0.732c0.04-0.187,0.021-0.369-0.058-0.546c-0.167-0.375-0.604-0.403-1.316-0.088l-0.317-0.717
		l4.823-2.136l0.315,0.717c-0.358,0.197-0.646,0.375-0.855,0.539c-0.211,0.162-0.399,0.355-0.565,0.585
		c-0.166,0.229-0.334,0.509-0.504,0.839c-0.171,0.331-0.431,0.872-0.781,1.624l-0.682,1.449l5.084,3.06
		c0.541,0.326,0.97,0.557,1.285,0.693c0.316,0.137,0.618,0.204,0.909,0.2c0.29-0.006,0.638-0.089,1.045-0.249L65.313,26.799z"/>
	<path fill="#FFFFFF" d="M83.779,19.21c0.033,0.835-0.074,1.594-0.33,2.278c-0.256,0.686-0.6,1.261-1.027,1.729
		c-0.43,0.466-0.895,0.826-1.396,1.074c-1.059,0.521-2.368,0.816-3.929,0.884l-5.27,0.225l-0.033-0.783
		c0.487-0.021,0.854-0.083,1.1-0.188c0.246-0.105,0.402-0.252,0.473-0.442c0.067-0.189,0.096-0.459,0.081-0.805l-0.312-7.288
		c-0.021-0.5-0.138-0.847-0.351-1.043c-0.212-0.195-0.686-0.277-1.417-0.246l-0.035-0.802l2.476-0.155
		c0.084-0.005,0.432-0.023,1.038-0.062c0.606-0.037,0.958-0.059,1.056-0.062c0.946-0.041,1.754-0.022,2.42,0.05
		c0.665,0.075,1.278,0.213,1.838,0.417c0.514,0.184,0.992,0.448,1.434,0.796c0.441,0.349,0.816,0.75,1.129,1.207
		c0.312,0.456,0.561,0.955,0.742,1.498C83.648,18.035,83.751,18.608,83.779,19.21z M81.017,19.275
		c-0.051-1.197-0.322-2.19-0.812-2.98c-0.492-0.789-1.137-1.323-1.934-1.602c-0.347-0.123-0.711-0.193-1.096-0.214
		c-0.384-0.021-0.935-0.015-1.649,0.015l0.346,8.113c0.019,0.466,0.057,0.806,0.111,1.016c0.054,0.211,0.195,0.367,0.421,0.468
		c0.226,0.103,0.571,0.142,1.037,0.123c1.379-0.06,2.333-0.583,2.862-1.571C80.833,21.651,81.072,20.53,81.017,19.275z"/>
	<path fill="#FFFFFF" d="M89.939,25.871l-5.818-0.736l0.1-0.777c0.484,0.062,0.857,0.062,1.115-0.001
		c0.26-0.061,0.439-0.18,0.539-0.356s0.172-0.437,0.215-0.78l0.912-7.202c0.061-0.496,0.004-0.858-0.178-1.087
		c-0.18-0.229-0.631-0.389-1.352-0.48l0.098-0.776l5.816,0.734l-0.098,0.778c-0.486-0.061-0.857-0.06-1.117,0.005
		c-0.262,0.064-0.439,0.184-0.539,0.356c-0.1,0.174-0.172,0.433-0.215,0.775l-0.91,7.202c-0.041,0.327-0.037,0.588,0.014,0.783
		s0.188,0.359,0.414,0.491c0.227,0.131,0.594,0.229,1.102,0.294L89.939,25.871z"/>
	<path fill="#FFFFFF" d="M101.402,29.062l-5.211-1.576l0.227-0.75c0.441,0.133,0.77,0.199,0.99,0.196
		c0.219,0,0.363-0.119,0.436-0.353c0.049-0.163,0.068-0.34,0.053-0.526l-0.127-1.463l-3.59-1.086l-0.484,0.637
		c-0.275,0.356-0.439,0.624-0.494,0.804c-0.1,0.325-0.033,0.57,0.191,0.734c0.227,0.164,0.51,0.296,0.848,0.397l-0.229,0.751
		l-3.809-1.151l0.227-0.751c0.305,0.093,0.58,0.114,0.826,0.063s0.516-0.206,0.805-0.465c0.287-0.259,0.633-0.646,1.031-1.162
		l5.717-7.387l0.773,0.234l0.764,9.632c0.062,0.683,0.115,1.149,0.164,1.398c0.051,0.25,0.158,0.462,0.324,0.641
		c0.164,0.179,0.43,0.321,0.795,0.432L101.402,29.062z M97.716,23.702l-0.357-4.319l-2.619,3.419L97.716,23.702z"/>
	<path fill="#FFFFFF" d="M115.417,37.428l-4.916-3.069l0.416-0.664c0.424,0.266,0.76,0.416,1.01,0.455
		c0.252,0.04,0.455-0.004,0.617-0.126c0.162-0.124,0.328-0.325,0.504-0.604l3.836-6.145l-8.674,5.656l-0.441-0.276l1.223-10.309
		l-3.645,5.833c-0.191,0.309-0.328,0.552-0.41,0.729c-0.08,0.178-0.111,0.353-0.094,0.522c0.018,0.172,0.104,0.345,0.264,0.521
		c0.156,0.176,0.406,0.37,0.75,0.583l-0.416,0.665l-3.629-2.265l0.416-0.664c0.346,0.217,0.633,0.355,0.859,0.417
		c0.225,0.062,0.418,0.062,0.578,0c0.158-0.062,0.299-0.167,0.418-0.315c0.121-0.15,0.277-0.378,0.469-0.688l3.467-5.551
		c0.26-0.415,0.426-0.728,0.494-0.938c0.07-0.21,0.039-0.423-0.098-0.639c-0.137-0.215-0.438-0.468-0.898-0.757l0.414-0.664
		l3.584,2.237l-1.064,8.948l7.58-4.882l3.504,2.188l-0.414,0.665c-0.604-0.375-1.045-0.53-1.332-0.464
		c-0.285,0.065-0.561,0.309-0.822,0.729l-3.844,6.159c-0.164,0.264-0.271,0.497-0.314,0.698c-0.045,0.198,0.012,0.408,0.164,0.629
		c0.154,0.22,0.439,0.461,0.859,0.723L115.417,37.428z"/>
	<path fill="#FFFFFF" d="M128.417,43.451c-0.779,0.706-1.678,1.18-2.693,1.426c-1.016,0.244-2.057,0.189-3.125-0.166
		c-1.066-0.355-2.051-1.028-2.945-2.018c-0.732-0.81-1.246-1.64-1.541-2.491s-0.4-1.67-0.314-2.455
		c0.086-0.786,0.305-1.51,0.656-2.17c0.354-0.659,0.793-1.229,1.32-1.704c0.762-0.689,1.645-1.163,2.645-1.418
		c1.004-0.257,2.037-0.212,3.105,0.134c1.064,0.346,2.053,1.018,2.961,2.021c0.826,0.914,1.381,1.828,1.66,2.738
		s0.355,1.75,0.225,2.52c-0.131,0.771-0.377,1.458-0.736,2.062C129.271,42.536,128.866,43.043,128.417,43.451z M126.587,41.382
		c0.48-0.437,0.9-0.89,1.256-1.358c0.354-0.472,0.611-0.967,0.773-1.489c0.162-0.52,0.18-1.052,0.061-1.595
		s-0.418-1.077-0.895-1.604c-0.654-0.726-1.348-1.126-2.076-1.208c-0.729-0.081-1.426,0.051-2.1,0.396s-1.33,0.808-1.971,1.386
		c-0.354,0.321-0.701,0.678-1.043,1.069c-0.342,0.396-0.633,0.861-0.875,1.402s-0.326,1.13-0.252,1.767
		c0.076,0.637,0.393,1.264,0.947,1.878c0.553,0.611,1.143,0.979,1.773,1.103c0.629,0.125,1.229,0.087,1.797-0.109
		c0.568-0.197,1.061-0.443,1.475-0.738C125.876,41.985,126.251,41.685,126.587,41.382z"/>
	<path fill="#FFFFFF" d="M139.687,53.689c-0.256-0.49-0.486-0.813-0.693-0.975c-0.209-0.16-0.422-0.215-0.641-0.166
		s-0.545,0.186-0.977,0.412l-8.127,4.229l-0.361-0.696l4.479-10.851l-5.646,2.938c-0.43,0.224-0.727,0.41-0.893,0.565
		c-0.166,0.154-0.244,0.366-0.234,0.637c0.008,0.271,0.141,0.647,0.393,1.131l-0.695,0.362l-1.984-3.81l0.697-0.362
		c0.234,0.453,0.457,0.754,0.668,0.905c0.209,0.15,0.424,0.199,0.645,0.146c0.217-0.053,0.539-0.19,0.969-0.414l5.23-2.722
		c0.422-0.221,0.734-0.396,0.936-0.529c0.199-0.134,0.355-0.284,0.471-0.451c0.115-0.168,0.17-0.375,0.168-0.621
		c-0.004-0.244-0.076-0.547-0.219-0.909l0.693-0.362l1.555,2.986l-3.854,9.424l4.678-2.438c0.383-0.197,0.662-0.377,0.84-0.536
		c0.176-0.16,0.266-0.372,0.268-0.64s-0.115-0.628-0.352-1.081l0.693-0.361l1.992,3.823L139.687,53.689z"/>
	<path fill="#FFFFFF" d="M138.878,69.372c-0.809,0.205-1.574,0.257-2.297,0.149s-1.357-0.325-1.904-0.646
		c-0.547-0.323-0.994-0.705-1.34-1.144c-0.729-0.927-1.289-2.146-1.678-3.66l-1.312-5.108l0.76-0.195
		c0.121,0.473,0.26,0.82,0.41,1.039c0.154,0.219,0.332,0.342,0.531,0.369c0.201,0.027,0.469-0.001,0.805-0.087l7.066-1.814
		c0.482-0.124,0.799-0.31,0.945-0.559s0.131-0.729-0.053-1.438l0.775-0.201l0.666,2.391c0.021,0.082,0.113,0.418,0.275,1.003
		c0.162,0.586,0.254,0.925,0.277,1.018c0.238,0.919,0.389,1.712,0.453,2.378c0.066,0.667,0.057,1.295-0.025,1.887
		c-0.072,0.54-0.232,1.062-0.48,1.565c-0.25,0.504-0.564,0.956-0.947,1.356c-0.381,0.399-0.818,0.745-1.311,1.037
		C140.001,69.001,139.46,69.22,138.878,69.372z M138.243,66.683c1.16-0.297,2.076-0.769,2.746-1.414
		c0.67-0.645,1.059-1.385,1.168-2.222c0.045-0.364,0.041-0.737-0.02-1.117c-0.061-0.381-0.18-0.917-0.357-1.611l-7.863,2.021
		c-0.453,0.116-0.775,0.223-0.971,0.318c-0.195,0.097-0.318,0.268-0.371,0.51s-0.021,0.589,0.096,1.04
		c0.344,1.338,1.055,2.163,2.131,2.476S137.027,66.996,138.243,66.683z"/>
</g>
<g>
	<path fill="#FFFFFF" d="M34.906,129.541l-0.558-0.578c0.271-0.424,0.447-0.867,0.535-1.332c-0.622,0.002-1.244-0.086-1.863-0.264
		c-0.618-0.178-1.259-0.605-1.918-1.287c-0.72-0.746-1.209-1.617-1.462-2.607c-0.255-0.992-0.236-1.992,0.047-3.002
		c0.285-1.01,0.837-1.908,1.654-2.697c0.58-0.559,1.233-0.992,1.96-1.293c0.727-0.305,1.475-0.457,2.244-0.461
		c0.771-0.004,1.523,0.146,2.264,0.455c0.74,0.311,1.414,0.777,2.021,1.41c1.001,1.037,1.491,2.225,1.468,3.555
		c0.263-0.078,0.604-0.236,1.021-0.473l0.532,0.549l-2.965,3.053l-0.567-0.588c0.417-0.607,0.692-1.246,0.831-1.916
		c0.136-0.668,0.128-1.297-0.027-1.887c-0.154-0.59-0.432-1.092-0.835-1.51c-0.45-0.467-0.981-0.762-1.596-0.887
		c-0.613-0.127-1.285-0.041-2.011,0.254c-0.727,0.293-1.48,0.816-2.261,1.57c-0.761,0.734-1.309,1.434-1.643,2.096
		c-0.337,0.664-0.509,1.248-0.516,1.756c-0.007,0.51,0.071,0.938,0.23,1.287c0.161,0.352,0.352,0.643,0.573,0.869
		c0.485,0.504,1.057,0.826,1.716,0.969c0.656,0.145,1.315,0.145,1.976,0.006c0.659-0.141,1.233-0.361,1.72-0.666l0.568,0.588
		L34.906,129.541z"/>
	<path fill="#FFFFFF" d="M52.427,134.731c-0.562,0.887-1.298,1.586-2.21,2.094c-0.912,0.512-1.93,0.736-3.055,0.686
		c-1.125-0.055-2.251-0.438-3.38-1.15c-0.922-0.582-1.642-1.244-2.154-1.984c-0.514-0.74-0.835-1.5-0.964-2.279
		c-0.13-0.781-0.113-1.535,0.049-2.266c0.163-0.73,0.434-1.396,0.812-1.998c0.549-0.871,1.271-1.562,2.167-2.078
		s1.905-0.752,3.024-0.705c1.121,0.045,2.251,0.428,3.396,1.148c1.042,0.658,1.82,1.387,2.337,2.188
		c0.515,0.805,0.812,1.592,0.894,2.367c0.081,0.777,0.029,1.506-0.155,2.186C53.005,133.617,52.751,134.217,52.427,134.731z
		 M50.11,133.227c0.346-0.547,0.626-1.096,0.841-1.645c0.215-0.551,0.331-1.098,0.345-1.643c0.015-0.545-0.108-1.062-0.369-1.555
		c-0.262-0.49-0.692-0.924-1.293-1.303c-0.827-0.521-1.601-0.725-2.324-0.605c-0.723,0.117-1.361,0.434-1.917,0.947
		s-1.062,1.133-1.523,1.865c-0.254,0.4-0.494,0.84-0.716,1.311c-0.224,0.473-0.378,0.998-0.467,1.584
		c-0.087,0.588-0.009,1.178,0.234,1.771s0.715,1.111,1.417,1.555c0.697,0.438,1.365,0.635,2.004,0.586
		c0.64-0.053,1.207-0.246,1.701-0.592c0.496-0.342,0.903-0.711,1.223-1.107S49.867,133.612,50.11,133.227z"/>
	<path fill="#FFFFFF" d="M63.917,144.817l-0.76-0.254c0.042-0.5-0.005-0.979-0.144-1.432c-0.552,0.291-1.143,0.502-1.771,0.633
		c-0.631,0.129-1.396,0.047-2.296-0.254c-0.987-0.326-1.823-0.873-2.505-1.635c-0.685-0.762-1.134-1.652-1.35-2.682
		c-0.215-1.023-0.143-2.078,0.217-3.156c0.254-0.764,0.634-1.447,1.139-2.055c0.503-0.605,1.095-1.086,1.775-1.447
		c0.681-0.359,1.418-0.574,2.218-0.643c0.798-0.072,1.612,0.033,2.442,0.309c1.368,0.457,2.353,1.281,2.949,2.475
		c0.195-0.191,0.423-0.49,0.684-0.896l0.728,0.242l-1.214,4.078l-0.776-0.258c0.088-0.732,0.038-1.424-0.152-2.08
		c-0.188-0.656-0.486-1.211-0.896-1.66c-0.411-0.451-0.889-0.768-1.44-0.953c-0.613-0.203-1.223-0.219-1.826-0.047
		c-0.602,0.176-1.157,0.562-1.664,1.158c-0.509,0.598-0.935,1.41-1.276,2.439c-0.333,1.002-0.496,1.877-0.486,2.617
		c0.01,0.744,0.129,1.342,0.358,1.795c0.229,0.455,0.496,0.799,0.8,1.033c0.305,0.238,0.607,0.404,0.91,0.506
		c0.663,0.223,1.319,0.244,1.968,0.064c0.649-0.18,1.234-0.484,1.754-0.91c0.521-0.43,0.925-0.893,1.216-1.389l0.777,0.26
		L63.917,144.817z"/>
	<path fill="#FFFFFF" d="M81.527,147.078l-6.394-0.543l0.067-0.781l0.517,0.045c0.442,0.037,0.746,0.037,0.912-0.004
		s0.254-0.129,0.266-0.266c0.018-0.197-0.179-0.643-0.589-1.332l-2.173-3.699l-1.57,1.156l-0.211,2.488
		c-0.043,0.504,0.044,0.865,0.26,1.088c0.214,0.221,0.647,0.357,1.299,0.412l-0.067,0.781l-5.756-0.488l0.066-0.781
		c0.491,0.041,0.859,0.023,1.104-0.061c0.243-0.08,0.409-0.213,0.495-0.395c0.087-0.18,0.145-0.436,0.172-0.764l0.614-7.234
		c0.028-0.326,0.018-0.588-0.032-0.775c-0.049-0.189-0.189-0.348-0.421-0.471c-0.233-0.129-0.595-0.209-1.087-0.254l0.065-0.779
		l5.758,0.49l-0.066,0.779c-0.708-0.061-1.173,0.002-1.393,0.189c-0.224,0.188-0.354,0.529-0.396,1.027l-0.293,3.465l3.849-2.828
		c0.267-0.195,0.465-0.365,0.591-0.514c0.127-0.145,0.197-0.312,0.214-0.508c0.034-0.406-0.335-0.645-1.112-0.711l0.066-0.779
		l5.256,0.445l-0.066,0.781c-0.412,0-0.748,0.02-1.012,0.059c-0.262,0.043-0.521,0.123-0.777,0.244
		c-0.254,0.119-0.537,0.285-0.844,0.49c-0.308,0.209-0.797,0.559-1.466,1.049l-1.295,0.943l2.986,5.127
		c0.318,0.547,0.582,0.955,0.793,1.227c0.211,0.273,0.445,0.477,0.701,0.611s0.604,0.229,1.037,0.285L81.527,147.078z"/>
	<path fill="#FFFFFF" d="M94.476,137.102l-0.801,0.107c-0.168-0.699-0.396-1.199-0.68-1.508c-0.285-0.307-0.57-0.479-0.857-0.52
		c-0.285-0.043-0.609-0.039-0.969,0.01l-1.453,0.193l1.125,8.387c0.045,0.332,0.111,0.586,0.205,0.758
		c0.092,0.178,0.27,0.297,0.529,0.365c0.262,0.068,0.633,0.068,1.109,0.006l0.105,0.777l-5.744,0.77l-0.104-0.777
		c0.703-0.096,1.143-0.254,1.318-0.486c0.176-0.229,0.23-0.592,0.164-1.09l-1.125-8.383l-1.217,0.162
		c-0.479,0.062-0.869,0.154-1.176,0.271c-0.305,0.119-0.555,0.365-0.748,0.736c-0.193,0.373-0.26,0.918-0.199,1.629l-0.801,0.109
		l-0.436-3.252l11.316-1.518L94.476,137.102z"/>
	<path fill="#FFFFFF" d="M107.866,141.27l-5.162,1.736l-0.25-0.744c0.436-0.146,0.744-0.281,0.922-0.412
		c0.18-0.129,0.229-0.309,0.15-0.541c-0.055-0.16-0.143-0.312-0.264-0.461l-0.951-1.117l-3.553,1.197l-0.027,0.799
		c-0.018,0.449,0.004,0.764,0.064,0.941c0.107,0.324,0.303,0.484,0.582,0.486s0.584-0.053,0.918-0.168l0.252,0.746l-3.771,1.27
		l-0.25-0.74c0.303-0.105,0.539-0.248,0.711-0.43c0.172-0.186,0.301-0.467,0.385-0.848c0.086-0.379,0.141-0.893,0.168-1.543
		l0.375-9.334l0.766-0.256l6.207,7.404c0.445,0.52,0.762,0.869,0.945,1.045c0.184,0.174,0.395,0.285,0.635,0.334
		c0.238,0.049,0.537,0.014,0.896-0.109L107.866,141.27z M101.753,139.039l-2.795-3.312l-0.15,4.303L101.753,139.039z"/>
	<path fill="#FFFFFF" d="M114.347,137.815l-5.213,2.684l-0.357-0.695c0.434-0.229,0.74-0.438,0.92-0.635s0.26-0.396,0.242-0.6
		c-0.018-0.201-0.105-0.457-0.264-0.764l-3.322-6.457c-0.229-0.445-0.48-0.711-0.76-0.797c-0.277-0.088-0.74,0.035-1.387,0.367
		l-0.357-0.697l5.211-2.682l0.359,0.697c-0.434,0.225-0.74,0.436-0.918,0.635c-0.178,0.201-0.258,0.4-0.242,0.602
		c0.018,0.199,0.104,0.453,0.262,0.76l3.32,6.455c0.15,0.295,0.301,0.508,0.453,0.643c0.152,0.131,0.357,0.188,0.621,0.17
		c0.26-0.021,0.619-0.146,1.072-0.381L114.347,137.815z"/>
	<path fill="#FFFFFF" d="M121.781,128.168l2.156,3.201l-8.42,5.922l-0.449-0.643c0.582-0.408,0.896-0.756,0.945-1.039
		c0.049-0.285-0.068-0.631-0.355-1.041l-4.18-5.938c-0.191-0.275-0.367-0.467-0.529-0.578s-0.375-0.141-0.637-0.082
		c-0.262,0.061-0.592,0.229-0.988,0.51l-0.451-0.641l4.752-3.344l0.451,0.641c-0.396,0.279-0.666,0.529-0.812,0.75
		c-0.145,0.221-0.195,0.428-0.154,0.623c0.045,0.197,0.166,0.436,0.363,0.719l3.824,5.438c0.301,0.428,0.539,0.719,0.711,0.875
		s0.385,0.217,0.639,0.182c0.252-0.035,0.592-0.201,1.014-0.498c0.535-0.377,0.973-0.746,1.318-1.111
		c0.346-0.361,0.562-0.84,0.658-1.432s-0.07-1.277-0.498-2.061L121.781,128.168z"/>
	<path fill="#FFFFFF" d="M129.351,121.487c0.252,0.254,0.465,0.578,0.641,0.971c0.174,0.393,0.277,0.826,0.316,1.303
		c0.039,0.48-0.025,0.967-0.199,1.463c-0.172,0.496-0.479,0.963-0.916,1.398c-0.438,0.434-0.961,0.766-1.578,1.004
		c-0.617,0.236-1.262,0.316-1.934,0.238c0.168,0.428,0.359,0.785,0.576,1.074l-0.557,0.553l-2.787-2.801l0.557-0.555
		c0.5,0.301,1.016,0.543,1.545,0.721s1.084,0.234,1.664,0.166c0.578-0.062,1.104-0.332,1.574-0.801c0.41-0.41,0.627-0.85,0.65-1.322
		c0.023-0.471-0.135-0.879-0.477-1.221c-0.189-0.195-0.398-0.324-0.619-0.395c-0.221-0.068-0.461-0.088-0.719-0.059
		c-0.26,0.027-0.58,0.104-0.963,0.223s-0.807,0.268-1.273,0.443c-0.727,0.258-1.365,0.428-1.922,0.506
		c-0.555,0.08-1.025,0.086-1.412,0.027c-0.383-0.062-0.709-0.162-0.971-0.301c-0.262-0.141-0.496-0.312-0.701-0.52
		c-0.363-0.367-0.625-0.826-0.781-1.379c-0.156-0.551-0.158-1.133-0.004-1.736c0.154-0.607,0.48-1.158,0.979-1.654
		c0.383-0.381,0.834-0.658,1.35-0.832c0.518-0.172,1.051-0.236,1.602-0.191c-0.098-0.24-0.266-0.545-0.51-0.91l0.566-0.564
		l2.271,2.283l-0.568,0.564c-1.639-0.844-2.959-0.77-3.959,0.225c-0.361,0.359-0.559,0.746-0.588,1.156
		c-0.027,0.408,0.105,0.764,0.408,1.066c0.236,0.236,0.508,0.377,0.82,0.414c0.311,0.041,0.641,0.012,0.988-0.086
		c0.346-0.1,0.887-0.277,1.619-0.541c0.889-0.316,1.605-0.537,2.156-0.668c0.549-0.127,1.1-0.15,1.65-0.068
		C128.402,120.768,128.904,121.035,129.351,121.487z"/>
</g>
<g>
	<path fill="#FFFFFF" d="M17.788,92.321h-0.393c-0.099-0.275-0.271-0.557-0.515-0.84c-0.244-0.285-0.485-0.451-0.727-0.502
		c-0.103-0.025-0.246-0.039-0.431-0.045c-0.183-0.004-0.335-0.006-0.455-0.006h-1.061v2.816h0.752c0.189,0,0.36-0.021,0.515-0.066
		c0.155-0.045,0.295-0.131,0.424-0.258c0.078-0.078,0.158-0.219,0.238-0.416c0.081-0.199,0.133-0.373,0.157-0.521h0.391v3.049
		h-0.391c-0.021-0.145-0.073-0.324-0.157-0.545c-0.084-0.217-0.164-0.367-0.238-0.449c-0.114-0.123-0.247-0.209-0.402-0.256
		s-0.333-0.068-0.536-0.068h-0.752v2.105c0,0.221,0.016,0.396,0.049,0.523c0.032,0.129,0.094,0.227,0.184,0.295
		c0.085,0.064,0.203,0.109,0.353,0.131c0.149,0.02,0.353,0.029,0.61,0.029c0.121,0,0.265-0.002,0.433-0.004
		c0.168-0.004,0.315-0.016,0.442-0.031c0.145-0.02,0.278-0.043,0.404-0.078c0.125-0.035,0.22-0.084,0.28-0.148
		c0.165-0.168,0.351-0.426,0.557-0.77c0.206-0.346,0.342-0.605,0.407-0.777h0.375l-0.139,2.277h-6.854v-0.402
		c0.097-0.006,0.227-0.02,0.392-0.041c0.165-0.02,0.282-0.045,0.351-0.07c0.13-0.057,0.218-0.125,0.262-0.209
		c0.045-0.084,0.067-0.191,0.067-0.322v-5.156c0-0.123-0.019-0.225-0.057-0.305c-0.038-0.082-0.128-0.154-0.272-0.219
		c-0.09-0.041-0.215-0.08-0.376-0.113c-0.162-0.035-0.283-0.057-0.365-0.068v-0.4h6.479V92.321z"/>
	<path fill="#FFFFFF" d="M21.375,97.94c-0.333,0-0.658-0.049-0.976-0.145c-0.317-0.1-0.564-0.203-0.738-0.312l-0.155,0.35h-0.402
		l-0.066-1.92h0.376c0.052,0.152,0.138,0.328,0.258,0.521s0.257,0.369,0.412,0.521c0.162,0.154,0.347,0.285,0.554,0.393
		c0.208,0.107,0.431,0.16,0.667,0.16c0.312,0,0.544-0.062,0.698-0.186c0.152-0.121,0.229-0.309,0.229-0.562
		c0-0.137-0.034-0.25-0.104-0.338c-0.068-0.09-0.163-0.168-0.283-0.232c-0.134-0.068-0.281-0.127-0.439-0.176
		c-0.16-0.047-0.356-0.105-0.591-0.176c-0.233-0.066-0.434-0.139-0.601-0.207c-0.166-0.072-0.338-0.184-0.517-0.332
		c-0.155-0.135-0.279-0.297-0.372-0.486c-0.092-0.188-0.14-0.412-0.14-0.674c0-0.482,0.203-0.875,0.61-1.174s0.94-0.447,1.6-0.447
		c0.312,0,0.601,0.031,0.863,0.096c0.262,0.062,0.483,0.133,0.661,0.207l0.108-0.303h0.392l0.083,1.756h-0.36
		c-0.121-0.357-0.326-0.666-0.618-0.926c-0.292-0.258-0.605-0.387-0.941-0.387c-0.265,0-0.472,0.055-0.624,0.164
		c-0.15,0.109-0.226,0.264-0.226,0.459c0,0.26,0.109,0.449,0.33,0.566c0.223,0.115,0.531,0.227,0.93,0.328
		c0.612,0.158,1.062,0.373,1.347,0.646c0.284,0.273,0.426,0.621,0.426,1.043c0,0.562-0.22,1-0.661,1.309S22.086,97.94,21.375,97.94z
		"/>
	<path fill="#FFFFFF" d="M28.273,97.528c-0.22,0.098-0.455,0.186-0.705,0.262s-0.558,0.115-0.918,0.115
		c-0.535,0-0.933-0.131-1.192-0.391c-0.258-0.262-0.389-0.633-0.389-1.117v-3.16h-0.926v-0.559h0.947v-1.562h1.669v1.562h1.447
		v0.559h-1.438v2.818c0,0.402,0.057,0.688,0.168,0.854c0.111,0.17,0.312,0.254,0.603,0.254c0.092,0,0.222-0.008,0.388-0.021
		c0.165-0.012,0.281-0.027,0.347-0.045L28.273,97.528L28.273,97.528z"/>
	<path fill="#FFFFFF" d="M31.061,96.908c0,0.273-0.101,0.51-0.302,0.707c-0.201,0.199-0.438,0.301-0.713,0.301
		c-0.278,0-0.518-0.1-0.719-0.297c-0.2-0.197-0.301-0.436-0.301-0.711c0-0.271,0.101-0.512,0.301-0.711
		c0.201-0.201,0.439-0.301,0.719-0.301c0.275,0,0.512,0.102,0.713,0.301C30.961,96.403,31.061,96.641,31.061,96.908z"/>
</g>
<g>
	<path fill="#FFFFFF" d="M130.361,97.766h-5.582v-0.932c0.242-0.248,0.512-0.475,0.803-0.68c0.289-0.203,0.584-0.383,0.883-0.543
		c0.32-0.168,0.59-0.316,0.807-0.449s0.387-0.271,0.51-0.414c0.125-0.135,0.213-0.279,0.268-0.439
		c0.053-0.156,0.078-0.336,0.078-0.529c0-0.438-0.104-0.756-0.309-0.953c-0.207-0.199-0.48-0.299-0.82-0.299
		c-0.107,0-0.209,0.008-0.303,0.023c-0.096,0.016-0.195,0.045-0.299,0.084c0.053,0.156,0.102,0.314,0.148,0.479
		c0.049,0.166,0.072,0.35,0.072,0.553c0,0.242-0.088,0.438-0.264,0.582c-0.174,0.145-0.396,0.217-0.668,0.217
		c-0.258,0-0.465-0.084-0.615-0.252c-0.154-0.17-0.23-0.373-0.23-0.613c0-0.42,0.246-0.781,0.732-1.088
		c0.486-0.305,1.082-0.457,1.781-0.457c0.811,0,1.465,0.139,1.965,0.416c0.502,0.279,0.752,0.727,0.752,1.344
		c0,0.32-0.068,0.578-0.199,0.773c-0.133,0.195-0.328,0.367-0.586,0.516c-0.229,0.133-0.484,0.244-0.766,0.328
		c-0.279,0.086-0.578,0.17-0.896,0.248c-0.342,0.086-0.637,0.178-0.889,0.271c-0.252,0.098-0.477,0.213-0.674,0.348v0.055h4.301
		V97.766z"/>
	<path fill="#FFFFFF" d="M136.816,92.965c0.262,0.275,0.455,0.59,0.58,0.939c0.125,0.352,0.188,0.719,0.188,1.096
		c0,0.449-0.078,0.855-0.232,1.219c-0.156,0.361-0.369,0.668-0.641,0.918c-0.287,0.262-0.617,0.461-0.996,0.598
		c-0.377,0.139-0.811,0.207-1.303,0.207c-0.52,0-0.977-0.082-1.373-0.244c-0.396-0.16-0.727-0.373-0.99-0.637
		c-0.262-0.262-0.459-0.568-0.594-0.922c-0.137-0.355-0.205-0.734-0.205-1.139c0-0.402,0.062-0.773,0.193-1.117
		c0.129-0.344,0.326-0.654,0.596-0.934c0.26-0.27,0.592-0.488,0.992-0.65c0.402-0.164,0.863-0.244,1.385-0.244
		c0.539,0,1.012,0.084,1.412,0.252S136.558,92.694,136.816,92.965z M135.365,96.803c0.1-0.229,0.172-0.486,0.215-0.771
		c0.041-0.283,0.062-0.627,0.062-1.031c0-0.365-0.021-0.691-0.061-0.982c-0.037-0.293-0.105-0.551-0.197-0.779
		c-0.098-0.232-0.225-0.412-0.381-0.539c-0.158-0.129-0.352-0.191-0.582-0.191c-0.234,0-0.428,0.062-0.588,0.188
		c-0.156,0.127-0.285,0.305-0.385,0.535c-0.09,0.209-0.156,0.465-0.197,0.77s-0.061,0.637-0.061,1.002
		c0,0.381,0.018,0.705,0.053,0.973c0.037,0.27,0.102,0.525,0.199,0.773c0.086,0.223,0.209,0.402,0.369,0.541
		c0.162,0.137,0.361,0.205,0.598,0.205c0.221,0,0.41-0.061,0.572-0.186S135.269,97.016,135.365,96.803z"/>
	<path fill="#FFFFFF" d="M142.638,97.766h-4.25v-0.391c0.105-0.008,0.27-0.023,0.492-0.053c0.225-0.027,0.379-0.055,0.461-0.082
		c0.105-0.033,0.184-0.094,0.242-0.176c0.059-0.084,0.088-0.195,0.088-0.34v-3.264h-1.303v-0.49h0.281
		c0.301,0,0.559-0.033,0.777-0.098c0.215-0.064,0.396-0.145,0.541-0.238c0.148-0.096,0.271-0.195,0.363-0.299
		c0.094-0.104,0.17-0.193,0.225-0.271h0.906c-0.01,0.223-0.02,0.482-0.031,0.781c-0.01,0.299-0.016,0.568-0.016,0.803v3.021
		c0,0.123,0.027,0.229,0.08,0.32s0.131,0.16,0.229,0.209c0.092,0.041,0.238,0.078,0.449,0.111c0.207,0.035,0.363,0.057,0.463,0.062
		v0.393H142.638z"/>
	<path fill="#FFFFFF" d="M149.515,97.715h-1.105v1.951h-1.727v-1.951h-3.408v-0.949l3.697-4.68h1.438v4.541h1.105V97.715z
		 M146.683,96.627v-3.312l-2.615,3.312H146.683z"/>
</g>
<polygon fill="#231F20" stroke="#FFFFFF" stroke-width="1.6941" stroke-linejoin="round" stroke-miterlimit="10" points="
	122.193,86.864 126.505,78.24 122.191,69.614 107.099,50.21 87.695,35.116 79.07,30.804 70.444,35.116 51.038,50.21 35.945,69.615 
	31.633,78.24 35.946,86.864 51.038,106.27 70.443,121.362 79.07,125.678 87.693,121.364 107.099,106.27 "/>
<polygon fill="#231F20" stroke="#FFFFFF" stroke-width="1.6941" stroke-linejoin="round" stroke-miterlimit="10" points="
	79.068,117.051 70.443,121.362 55.35,101.959 35.946,86.864 40.256,78.239 35.945,69.615 55.35,54.522 70.444,35.116 79.068,39.428 
	87.695,35.116 102.786,54.521 122.191,69.614 117.88,78.239 122.193,86.864 101.925,102.821 87.693,121.364 "/>
<polygon fill="#231F20" stroke="#FFFFFF" stroke-width="1.6941" stroke-linejoin="round" stroke-miterlimit="10" points="
	55.35,101.959 51.038,84.707 40.256,78.239 51.039,71.771 55.177,55.524 72.6,50.21 79.068,39.428 85.536,50.21 102.786,54.521 
	107.099,71.771 117.88,78.239 107.097,84.707 102.788,101.959 85.536,106.27 79.068,117.051 72.6,106.27 "/>
<polygon fill="#231F20" stroke="#FFFFFF" stroke-width="1.6941" stroke-linejoin="round" stroke-miterlimit="10" points="
	107.097,84.707 107.099,71.771 85.536,50.21 79.236,50.21 72.6,50.21 51.039,71.771 51.038,84.707 72.6,106.27 85.536,106.27 "/>
</svg>
