<?xml version="1.0" encoding="utf-8"?>
<!-- Generator: Adobe Illustrator 15.1.0, SVG Export Plug-In . SVG Version: 6.00 Build 0)  -->
<!DOCTYPE svg PUBLIC "-//W3C//DTD SVG 1.1//EN" "http://www.w3.org/Graphics/SVG/1.1/DTD/svg11.dtd">
<svg version="1.1" id="Layer_1" xmlns="http://www.w3.org/2000/svg" xmlns:xlink="http://www.w3.org/1999/xlink" x="0px" y="0px"
	 width="92.167px" height="91.833px" viewBox="0 0 92.167 91.833" enable-background="new 0 0 92.167 91.833" xml:space="preserve">
<g>
	<g>
		<polygon fill="#505150" stroke="#FFFFFF" stroke-width="1.9231" stroke-linejoin="round" stroke-miterlimit="10" points="
			8.256,46.944 17.975,63.308 17.975,28.692 		"/>
		<polygon fill="#505150" stroke="#FFFFFF" stroke-width="1.9231" stroke-linejoin="round" stroke-miterlimit="10" points="
			45.666,7.924 28.357,18.308 62.975,18.308 		"/>
		<polygon fill="#505150" stroke="#FFFFFF" stroke-width="1.9231" stroke-linejoin="round" stroke-miterlimit="10" points="
			14.512,77.154 28.357,73.692 17.975,63.308 		"/>
		<polygon fill="#505150" stroke="#FFFFFF" stroke-width="1.9231" stroke-linejoin="round" stroke-miterlimit="10" points="
			45.666,84.077 62.975,73.692 28.357,73.692 		"/>
		<polygon fill="#505150" stroke="#FFFFFF" stroke-width="1.9231" stroke-linejoin="round" stroke-miterlimit="10" points="
			28.357,18.308 14.512,14.846 17.975,28.692 23.301,23.366 		"/>
		<polygon fill="#505150" stroke="#FFFFFF" stroke-width="1.9231" stroke-linejoin="round" stroke-miterlimit="10" points="
			62.975,73.692 76.82,77.154 73.357,63.308 		"/>
		<polygon fill="#505150" stroke="#FFFFFF" stroke-width="1.9231" stroke-linejoin="round" stroke-miterlimit="10" points="
			76.82,14.846 62.975,18.308 73.357,28.692 		"/>
		<polygon fill="#505150" stroke="#FFFFFF" stroke-width="1.9231" stroke-linejoin="round" stroke-miterlimit="10" points="
			83.744,46 73.357,28.692 73.357,63.308 		"/>
	</g>
	<g>
		<polygon fill="#505150" stroke="#FFFFFF" stroke-width="1.9231" stroke-linejoin="round" stroke-miterlimit="10" points="
			8.59,46.944 18.309,28.692 14.846,14.846 4.463,18.308 7.924,46 4.463,73.692 14.846,77.154 18.309,63.308 		"/>
		<polygon fill="#505150" stroke="#FFFFFF" stroke-width="1.9231" stroke-linejoin="round" stroke-miterlimit="10" points="
			46,7.924 18.309,4.461 14.846,14.846 28.691,18.308 		"/>
		<polygon fill="#505150" stroke="#FFFFFF" stroke-width="1.9231" stroke-linejoin="round" stroke-miterlimit="10" points="
			77.154,14.846 73.691,4.461 46,7.924 63.309,18.308 		"/>
		<polygon fill="#505150" stroke="#FFFFFF" stroke-width="1.9231" stroke-linejoin="round" stroke-miterlimit="10" points="
			46,84.077 73.691,87.538 77.154,77.154 63.309,73.692 		"/>
		<polygon fill="#505150" stroke="#FFFFFF" stroke-width="1.9231" stroke-linejoin="round" stroke-miterlimit="10" points="
			87.539,18.308 77.154,14.846 73.691,28.692 84.078,46 73.691,63.308 77.154,77.154 87.539,73.692 84.078,47.381 		"/>
		<polygon fill="#505150" stroke="#FFFFFF" stroke-width="1.9231" stroke-linejoin="round" stroke-miterlimit="10" points="
			14.846,77.154 18.309,87.538 46,84.077 28.691,73.692 		"/>
	</g>
	<g>
		<polygon fill="#505150" stroke="#FFFFFF" stroke-width="1.9231" stroke-linejoin="round" stroke-miterlimit="10" points="
			18.309,4.461 7.924,7.923 4.463,18.308 14.846,14.846 		"/>
		<polygon fill="#505150" stroke="#FFFFFF" stroke-width="1.9231" stroke-linejoin="round" stroke-miterlimit="10" points="
			73.691,4.461 46,1 18.309,4.461 46,7.924 		"/>
		<polygon fill="#505150" stroke="#FFFFFF" stroke-width="1.9231" stroke-linejoin="round" stroke-miterlimit="10" points="
			4.463,18.308 1,46 4.463,73.692 7.924,46 		"/>
		<polygon fill="#505150" stroke="#FFFFFF" stroke-width="1.9231" stroke-linejoin="round" stroke-miterlimit="10" points="
			87.539,18.308 84.078,7.923 73.691,4.461 77.154,14.846 		"/>
		<polygon fill="#505150" stroke="#FFFFFF" stroke-width="1.9231" stroke-linejoin="round" stroke-miterlimit="10" points="
			87.539,18.308 84.078,47.381 87.539,73.692 91,46 		"/>
		<polygon fill="#505150" stroke="#FFFFFF" stroke-width="1.9231" stroke-linejoin="round" stroke-miterlimit="10" points="
			4.463,73.692 7.924,84.077 18.309,87.538 14.846,77.154 		"/>
		<polygon fill="#505150" stroke="#FFFFFF" stroke-width="1.9231" stroke-linejoin="round" stroke-miterlimit="10" points="
			73.691,87.538 84.078,84.077 87.539,73.692 77.154,77.154 		"/>
		<polygon fill="#505150" stroke="#FFFFFF" stroke-width="1.9231" stroke-linejoin="round" stroke-miterlimit="10" points="
			18.309,87.538 46,91 73.691,87.538 46,84.077 		"/>
	</g>
	<polygon fill="#505150" stroke="#FFFFFF" stroke-width="1.9231" stroke-linejoin="round" stroke-miterlimit="10" points="
		73.691,28.692 63.309,18.308 28.691,18.308 23.635,23.366 18.309,28.692 18.309,63.308 28.691,73.692 63.309,73.692 73.691,63.308 
			"/>
</g>
</svg>
