<?xml version="1.0" encoding="utf-8"?>
<!-- Generator: Adobe Illustrator 15.1.0, SVG Export Plug-In . SVG Version: 6.00 Build 0)  -->
<!DOCTYPE svg PUBLIC "-//W3C//DTD SVG 1.1//EN" "http://www.w3.org/Graphics/SVG/1.1/DTD/svg11.dtd">
<svg version="1.1" id="Layer_1" xmlns="http://www.w3.org/2000/svg" xmlns:xlink="http://www.w3.org/1999/xlink" x="0px" y="0px"
	 width="245.988px" height="245.988px" viewBox="0 0 245.988 245.988" enable-background="new 0 0 245.988 245.988"
	 xml:space="preserve">
<path fill="#939598" d="M122.994,0C55.066,0,0,55.066,0,122.994s55.066,122.994,122.994,122.994s122.994-55.066,122.994-122.994
	S190.921,0,122.994,0z M188.667,72.341c-7.83-2.845-23.194-4.292-26.169,3.738c-1.589,6.387-0.36,15.588-0.747,23.178
	c7.479,1.741,18.191,0.252,26.916,0.748c0.047,8.77-1.28,16.165-1.495,24.672c-8.475,0-16.946,0-25.421,0
	c0,29.408,0,58.816,0,88.228c-10.717,0-21.434,0-32.149,0c-0.688-18.861,0.437-58.312,0-88.228c-5.732,0-11.464,0-17.196,0
	c0-8.225,0-16.447,0-24.672c5.482,0,10.966,0,16.448,0c1.703-19.447-1.706-36.939,8.973-47.104
	c11.926-11.351,35.279-9.233,54.58-5.981C191.484,55.718,190,63.954,188.667,72.341z"/>
</svg>
