<?xml version="1.0" encoding="utf-8"?>
<!-- Generator: Adobe Illustrator 15.1.0, SVG Export Plug-In . SVG Version: 6.00 Build 0)  -->
<!DOCTYPE svg PUBLIC "-//W3C//DTD SVG 1.1//EN" "http://www.w3.org/Graphics/SVG/1.1/DTD/svg11.dtd">
<svg version="1.1" id="Layer_1" xmlns="http://www.w3.org/2000/svg" xmlns:xlink="http://www.w3.org/1999/xlink" x="0px" y="0px"
	 width="245.988px" height="245.988px" viewBox="0 0 245.988 245.988" enable-background="new 0 0 245.988 245.988"
	 xml:space="preserve">
<path fill-rule="evenodd" clip-rule="evenodd" fill="#939598" d="M122.994,0C55.066,0,0,55.066,0,122.994
	s55.066,122.994,122.994,122.994s122.994-55.066,122.994-122.994S190.922,0,122.994,0z M152.965,194.634
	c-25.61,13.397-73.936,13.292-83.743-14.38c-7.278-20.531,1.908-49.262-1.692-76.13c-6.203,0-12.406,0-18.609,0
	c0-8.177,0-16.354,0-24.531C68.681,73.13,80.713,58.94,82.755,34.76c8.177,0,16.355,0,24.532,0c0,14.099,0,28.197,0,42.295
	c13.533,0,27.067,0,40.603,0c0,9.022,0,18.046,0,27.069c-13.253,0-26.505,0-39.758,0c-1.524,10.073-0.845,22.14-0.845,33.835
	c0,10.966-1.119,23.776,3.383,30.452c8.778,13.019,31.024,5.228,42.295-0.847C152.965,176.588,152.965,185.61,152.965,194.634z
	 M192.722,202.247c-21.876,2.937-28.432-29.631-6.768-33.836C210.945,163.559,213.438,199.465,192.722,202.247z"/>
</svg>
