<?xml version="1.0" encoding="utf-8"?>
<!-- Generator: Adobe Illustrator 15.1.0, SVG Export Plug-In . SVG Version: 6.00 Build 0)  -->
<!DOCTYPE svg PUBLIC "-//W3C//DTD SVG 1.1//EN" "http://www.w3.org/Graphics/SVG/1.1/DTD/svg11.dtd">
<svg version="1.1" id="Layer_1" xmlns="http://www.w3.org/2000/svg" xmlns:xlink="http://www.w3.org/1999/xlink" x="0px" y="0px"
	 width="151.246px" height="229.742px" viewBox="0 0 151.246 229.742" enable-background="new 0 0 151.246 229.742"
	 xml:space="preserve">
<path opacity="0.1" fill-rule="evenodd" clip-rule="evenodd" d="M131.816,159.27c-17.82-12.638-33.496-26.729-50.25-43.09
	c2.865-2.917,5.748-5.822,8.635-8.709c3.752-3.754,8.111-9.364,11.115-10.712c3.438-1.541,8.531,1.749,13.133,2.224
	c5.473,0.562,11.742-0.88,16.773-5.051c3.697-3.07,6.268-7.256,8.688-11.114c4.865-7.75,8.049-14.946,8.891-22.228
	c0.6-5.19,1.057-11.219-4.646-15.156c-6.4-4.418-16.406-1.055-23.238,1.415c-6.854,2.479-16.668,7.213-22.631,14.55
	c-5,6.148-5.299,12.662-4.648,17.58c0.537,4.055,3.816,8.939,2.02,12.527c-0.793,1.588-3.133,3.76-5.051,5.86
	c-1.916,2.099-4.131,4.308-6.062,6.062c-1.07,0.975-2.117,1.944-3.168,2.915l0.268-59.775c1.562-0.013,3.078-0.087,4.482-0.322
	c0.682-1.027,0.201-3.076,0.354-4.566c3.314,0.013,6.625,0.023,9.941,0.036c0.078,1.447-0.199,3.21,0.152,4.421
	c1.498,0.752,5.656,0.609,7.414,0.174c0.66-2.182,0.371-5.97,0.197-8.396c-0.754-0.766-2.879-0.34-4.379-0.458
	c0.006-1.671,0.012-3.339,0.016-5.011c1.387-0.06,3.094,0.165,4.215-0.13c0.596-0.991,0.389-3.345,0.184-4.569
	c-0.928-0.563-2.932-0.196-4.381-0.311c0.006-1.669,0.014-3.339,0.018-5.01c1.398-0.098,3.328,0.271,4.215-0.279
	c0.6-1.275,0.348-3.224,0.355-5.008c0.004-1.746,0.268-3.615-0.322-4.861c-1.727-0.484-5.516-0.5-7.244-0.029
	c-0.705,1.25-0.186,3.582-0.357,5.304c-3.311-0.013-6.625-0.024-9.939-0.037c-0.086-1.687,0.209-3.706-0.148-5.156
	c-1.301-0.691-2.973-0.482-4.617-0.465l0.004-0.815l-1.844-0.008c1.656-1.064,2.758-2.916,2.768-5.031
	C82.74,2.72,80.061,0.015,76.74,0s-6.023,2.665-6.039,5.985c-0.01,2.115,1.076,3.977,2.723,5.056l-1.844-0.009l-0.004,0.828
	c-0.055,0-0.111,0-0.168,0l-0.154,34.626c0.055,0,0.111,0,0.168,0l-0.266,59.398c-0.055-0.055-0.109-0.108-0.164-0.163
	c-4.041-4.042-10.094-8.812-11.922-12.324c-1.021-1.964-0.477-4.611-0.404-6.871c0.072-2.256,0.68-4.707,0-6.871
	c-1.209-3.855-5.086-7.857-9.295-11.314c-4.01-3.295-8.291-6.779-11.721-9.701C30.84,52.832,23.68,46.167,17.242,41.463
	c-0.607-0.443-1.947-2.96-3.032-1.011c-1.134,0.94,0.661,1.823,1.01,2.224c8.973,10.226,19.633,19.237,28.896,28.896
	c1.857,1.936,3.484,2.98,1.818,4.646c-1.615,1.615-2.588,0.13-4.443-1.616c-9.523-8.956-18.289-18.288-27.078-27.078
	c-1.206-1.204-3.329-4.65-4.649-2.626c-1.135,0.94,0.659,1.821,1.011,2.223c7.828,8.92,16.591,16.592,24.855,24.854
	c2.361,2.363,8.361,6.778,5.859,9.096c-2.141,1.98-6.363-3.535-9.092-6.266c-7.836-7.837-15.221-15.219-22.633-22.632
	c-1.204-1.204-3.327-4.651-4.646-2.628c-1.137,0.94,0.659,1.824,1.009,2.224c7.877,8.975,16.494,16.491,24.857,24.854
	c2.502,2.504,8.385,6.854,5.857,9.094c-2.189,1.939-6.301-3.473-8.891-6.062c-8.305-8.307-16.425-17.199-24.652-24.652
	c-0.493-0.448-1.422-2.318-2.425-1.213c-0.27,0.27-0.538,0.539-0.81,0.809c-0.201,0.27,0.101,0.539,0.406,0.809
	C8.2,64.652,16.777,74.281,24.518,83.494c4.713,5.609,8.795,12.219,14.951,14.549c4.045,1.53,9.861-1.2,13.742,0.404
	c3.381,1.397,7.574,6.362,10.912,9.699c2.32,2.32,4.654,4.675,6.99,7.049l-0.002,0.789c-7.654,7.285-15.031,14.399-22.738,21.189
	c-9.791,8.626-24.922,20.5-35.968,26.673c-4.156,2.321-9.06,6.491-10.104,10.507c-1.521,5.852,6.155,15.864,13.135,16.368
	c8.488,0.613,13.225-11.241,17.176-17.176c10.297-15.464,23.859-31.113,38.449-46.493l-0.129,28.834
	c-6.059,0.209-6.52,9.554-0.494,10.009c-0.314,2.227-2.846,2.376-2.877,4.866c0.875,2.206,2.43,3.686,2.814,6.415
	c-4.041-3.008-7.887-5.786-14.068-5.611c-11,0.313-18.316,9.496-18.469,18.827c-0.189,11.609,10.092,20.197,22.322,19.222
	c-5.455,24.732,31.76,27.322,32.238,4.147c0.027-1.286-0.588-2.342-0.127-3.899c11.209,2.307,23.68-8.592,21.389-22.394
	c-1.844-11.111-14.779-18.373-25.633-14.342c-2.354,0.874-3.934,3.195-6.387,3.68c0.832-2.442,2.18-4.4,3.254-6.614
	c-1.092-1.089-3.336-3.298-3.176-4.233c6.582-0.383,5.273-9.949-0.566-9.951l0.135-30.318
	c15.258,15.997,29.828,32.591,40.223,47.928c3.76,5.545,7.32,15.227,14.549,16.974c5.678,1.372,14.643-6.724,15.154-12.327
	C152.018,169.504,137.895,163.581,131.816,159.27z M82.936,189.778c0.818-13.36,21.082-13.823,23.791-2.083
	c2.842,12.312-11.518,19.954-20.445,11.518c-0.539,0.93-5.877,5.102-5.867,6.266c0.012,1.248,3.359,3.318,3.594,3.787
	c3.84,7.635-4.133,15.043-10.84,13.37c-6.086-1.517-9.699-11.72-2.289-16.842c-1.02-2.946-3.662-4.165-4.994-6.778
	c-6.92,6.682-19.533,3.366-21.027-6.25c-2.215-14.23,20.422-20.969,23.734-3.817c0.266,0.517,2.832,0.792,2.613,0.349
	c1.619,1.924-2.125,2.09-1.996,5.27c0.273,6.639,13.381,6.508,13.449-0.006c0.027-2.836-1.932-2.468-2.771-5.115
	C81.348,189.859,81.363,189.26,82.936,189.778z"/>
</svg>
