<svg xmlns="http://www.w3.org/2000/svg" viewBox="0 0 354.98 354.98"><defs><style>.cls-1{fill:#e84426;}</style></defs><g id="Layer_2" data-name="Layer 2"><g id="title"><path class="cls-1" d="M62.37,0h72.41a0,0,0,0,1,0,0V355a0,0,0,0,1,0,0H62.37A62.37,62.37,0,0,1,0,292.61V62.37A62.37,62.37,0,0,1,62.37,0Z"/><path class="cls-1" d="M276.19-43.18h27.37a8.24,8.24,0,0,1,8.24,8.24v176.1a0,0,0,0,1,0,0h-98a0,0,0,0,1,0,0v-122a62.37,62.37,0,0,1,62.37-62.37Z" transform="translate(311.79 -213.82) rotate(90)"/><path class="cls-1" d="M222.1,213.86h27.28a62.37,62.37,0,0,1,62.37,62.37v122a0,0,0,0,1,0,0H213.86a0,0,0,0,1,0,0V222.1A8.24,8.24,0,0,1,222.1,213.86Z" transform="translate(568.84 43.23) rotate(90)"/><path class="cls-1" d="M227.35,85.32h70.92a8.24,8.24,0,0,1,8.24,8.24v176.1a0,0,0,0,1,0,0h-87.4a0,0,0,0,1,0,0V93.55A8.24,8.24,0,0,1,227.35,85.32Z" transform="translate(440.29 -85.32) rotate(90)"/></g></g></svg>