<svg xmlns="http://www.w3.org/2000/svg" viewBox="0 0 354.98 354.98"><defs><style>.cls-1{fill:#e84426;}</style></defs><g id="Layer_2" data-name="Layer 2"><g id="title"><path class="cls-1" d="M30,0H137.78a0,0,0,0,1,0,0V355a0,0,0,0,1,0,0H30A30,30,0,0,1,0,325V30A30,30,0,0,1,30,0Z"/><path class="cls-1" d="M240.82-43.18h62.74a8.24,8.24,0,0,1,8.24,8.24v179.1a0,0,0,0,1,0,0h-101a0,0,0,0,1,0,0V-13.18A30,30,0,0,1,240.82-43.18Z" transform="translate(311.79 -210.82) rotate(90)"/><path class="cls-1" d="M219.1,210.86h62.65a30,30,0,0,1,30,30V398.2a0,0,0,0,1,0,0H210.86a0,0,0,0,1,0,0V219.1A8.24,8.24,0,0,1,219.1,210.86Z" transform="translate(565.84 43.23) rotate(90)"/><path class="cls-1" d="M222.85,83.82h76.92A8.24,8.24,0,0,1,308,92.05v179.1a0,0,0,0,1,0,0h-93.4a0,0,0,0,1,0,0V92.05A8.24,8.24,0,0,1,222.85,83.82Z" transform="translate(438.79 -83.82) rotate(90)"/></g></g></svg>