<?xml version="1.0" encoding="utf-8"?>
<!-- Generator: Adobe Illustrator 15.1.0, SVG Export Plug-In . SVG Version: 6.00 Build 0)  -->
<!DOCTYPE svg PUBLIC "-//W3C//DTD SVG 1.1//EN" "http://www.w3.org/Graphics/SVG/1.1/DTD/svg11.dtd">
<svg version="1.1" id="Layer_1" xmlns="http://www.w3.org/2000/svg" xmlns:xlink="http://www.w3.org/1999/xlink" x="0px" y="0px"
	 width="245.988px" height="245.988px" viewBox="0 0 245.988 245.988" enable-background="new 0 0 245.988 245.988"
	 xml:space="preserve">
<g id="YLZN09.tif">
	<g>
		<path fill-rule="evenodd" clip-rule="evenodd" fill="#939598" d="M117.107,0c3.593,0,7.187,0,10.78,0
			c35.281,2.589,61.976,16.715,81.339,35.769c19.352,19.043,33.004,46.24,35.769,81.338c0,3.593,0,7.187,0,10.78
			c-2.655,35.223-16.565,62.134-35.769,81.339c-19.141,19.14-45.944,32.924-80.849,35.769c-3.92,0-7.84,0-11.76,0
			c-35.229-2.678-61.794-16.871-80.848-36.26C16.816,189.45,2.278,163.308,0,127.886c0-3.593,0-7.187,0-10.78
			C1.677,83.444,17.382,54.05,36.259,35.769C56.382,16.282,82.591,2.168,117.107,0z M49.489,166.596
			c19.975-2.478,46.073,4.668,62.229-3.43c11.315-5.673,18.479-24.426,8.819-37.24c-2.816-3.735-6.659-5.535-11.27-8.33
			c4.622-2.861,8.553-5.48,10.29-10.29c4.58-12.676-1.964-23.978-10.29-27.929c-2.608-1.238-6.55-2.148-9.799-2.45
			c-14.954-1.393-34.964,0.082-49.489-0.49C48.836,105.51,49.815,136.707,49.489,166.596z M144.547,81.828c0,3.266,0,6.533,0,9.8
			c12.412,0,24.825,0,37.238,0c-0.264-3.166,0.568-7.428-0.489-9.8C169.046,81.828,156.797,81.828,144.547,81.828z M158.757,99.958
			c-18.038,1.861-28.603,17.467-28.909,33.809c-0.44,23.345,16.183,36.888,38.708,34.789c13.381-1.246,22.146-10.03,25.97-22.049
			c-5.39,0-10.78,0-16.17,0c-3.417,6.415-12.739,10.859-21.069,7.35c-5.457-2.3-7.771-8.411-8.329-15.189
			c15.516,0,31.031,0,46.549,0C196.423,112.733,185.326,97.214,158.757,99.958z"/>
		<path fill-rule="evenodd" clip-rule="evenodd" fill="#939598" d="M69.578,112.207c0.37-7.23-0.772-12.947-0.49-20.09
			c10.656,1.676,21.619-3.153,28.419,1.471c4.072,2.768,4.894,10.504,2.451,14.699C95.829,115.379,79.025,110.903,69.578,112.207z"
			/>
		<path fill-rule="evenodd" clip-rule="evenodd" fill="#939598" d="M177.375,126.907c-9.473,0-18.945,0-28.418,0
			C148.867,110.26,178.164,108.344,177.375,126.907z"/>
		<path fill-rule="evenodd" clip-rule="evenodd" fill="#939598" d="M69.088,151.406c0.326-7.841-0.652-16.985,0.49-24.01
			c10.957,1.059,28.233-2.797,33.319,4.41c2.519,3.568,2.896,10.787-0.49,15.189C96.956,154.081,81.464,150.379,69.088,151.406z"/>
	</g>
</g>
</svg>
