<?xml version="1.0" encoding="utf-8"?>
<!-- Generator: Adobe Illustrator 15.1.0, SVG Export Plug-In . SVG Version: 6.00 Build 0)  -->
<!DOCTYPE svg PUBLIC "-//W3C//DTD SVG 1.1//EN" "http://www.w3.org/Graphics/SVG/1.1/DTD/svg11.dtd">
<svg version="1.1" id="Layer_1" xmlns="http://www.w3.org/2000/svg" xmlns:xlink="http://www.w3.org/1999/xlink" x="0px" y="0px"
	 width="264.351px" height="218.754px" viewBox="173.798 286.644 264.351 218.754"
	 enable-background="new 173.798 286.644 264.351 218.754" xml:space="preserve">
<rect x="-681.089" y="797.242" fill="#17282A" width="632.272" height="403.442"/>
<g>
	<path fill="#FFFFFF" d="M-316.375,1122.224c-6.215,1.435-8.319,4.925-9.801,5.786c70.906-15.396,118.384-80.229,109.251-149.414
		c-10.088-76.739-80.564-130.815-157.303-120.679c-76.739,10.088-130.815,80.563-120.679,157.303
		c6.312,47.812,37.581,88.453,82.62,107.482c4.351,1.339,13.244,0.812,20.655-1.1c-51.063-13.771-88.644-56.132-95.386-107.387
		c-9.515-72.341,41.549-138.896,113.841-148.41c72.34-9.515,138.896,41.549,148.41,113.842
		C-216.447,1042.855-254.936,1102.956-316.375,1122.224z"/>
	<path fill="#FFFFFF" d="M-337.795,1136.902c0.287,2.199,16.926,7.028,28.018,3.682c71.623-22.232,116.902-91.227,107.339-163.854
		c-11.188-84.915-88.788-144.441-173.655-133.253c-84.867,11.188-144.441,88.787-133.253,173.654
		c5.738,43.51,30.122,81.186,65.264,104.948l0,0l0,0c9.754,6.599,20.32,12.049,31.508,16.305c0.048,0,0.096,0.048,0.144,0.048
		c4.542,1.864,10.184,5.833,10.997,6.216c9.897,4.303,21.659,12.861,31.795,11.522c6.885-0.908,11.858-2.104,18.791-3.013
		c12.431-1.625,31.652,2.438,46.331,0.526c5.977-0.765,9.036-5.881,9.18-8.224c-6.359,1.291-8.606,2.056-17.93,2.343
		c-13.961,0.431-26.679-7.22-38.346-7.124c-4.638,0.144-11.618,0.573-11.81-0.765c-0.287-2.296,15.3-4.352,25.293-10.328
		c9.945-5.977,12.049-11.427,23.045-16.591c4.351-2.438,8.559-2.534,17.356-6.502l10.471-5.595
		c-0.048-7.458-10.136-9.419-19.316-8.224c-8.271,1.1-12.288,2.534-12.097,3.921l0.144,0.908c-3.634,0.956-15.109-4.542-26.584-3.06
		c-6.885,0.908-19.077,4.398-27.97,7.889s-27.97,8.989-32.226,11.905c-1.339,0.908,18.695,6.072,21.277,7.555
		c-0.096,0.096-2.582,0.908-5.116,1.673c-2.869,0.622-7.793,1.674-9.084,1.817c-3.155,0.431-10.71,1.1-15.061-0.239
		c-45.709-19.269-77.791-61.104-84.15-109.538c-10.327-78.317,44.562-149.845,122.878-160.172
		c78.317-10.328,149.844,44.561,160.172,122.878c9.515,72.34-41.454,139.517-116.137,153.191
		C-331.723,1132.265-338.034,1135.324-337.795,1136.902z M-307.769,1097.505c8.797-0.669,14.487-0.048,14.678,1.339
		c0.191,1.387-0.622,2.438-2.008,2.582c-4.59,0.621-4.495-2.199-12.958-2.486L-307.769,1097.505z M-360.889,1107.88
		L-360.889,1107.88c2.773-0.669,5.785-1.529,8.319-2.581c4.399-1.961,6.646-2.726,8.941-3.061c1.625-0.191,6.311-0.717,8.176,0.383
		c0.048,0.048,3.299,5.929-0.239,7.841c-2.678,1.578-6.359,3.682-12.336,4.495c-2.677,0.334-4.542-0.718-6.55-1.865l0,0
		c0,0-2.391-1.769-4.686-2.056l0,0c-0.144-0.048-0.287-0.048-0.43-0.096C-361.462,1110.414-360.889,1107.88-360.889,1107.88z"/>
</g>
<rect x="-674.778" y="995.712" fill="none" width="646.999" height="103.132"/>
<text transform="matrix(1 0 0 1 -429.2344 1006.9541)" fill="#FFFFFF" font-family="'AvenirNext-DemiBold'" font-size="14.8579" letter-spacing="1">DATA ARBITRAGE</text>
<image overflow="visible" enable-background="new    " width="620" height="622" xlink:href="DC5C042B.png"  transform="matrix(0.2391 0 0 0.2391 272.5303 1301.2832)">
</image>
<path fill="#152829" d="M825.817-87.91h60.674v-146.88h40.497l5.355-50.586h-45.853l0.048-25.341
	c0-13.196,1.243-20.272,20.177-20.272h25.293v-50.633h-40.497c-48.625,0-65.742,24.576-65.742,65.838v30.409h-30.313v50.633h30.313
	V-87.91H825.817z"/>
<path fill="#FFFFFF" d="M339.421,289.235c-23.858,8.702-38.967,31.078-37.246,55.606l0.574,9.467l-9.562-1.147
	c-34.759-4.447-65.121-19.508-90.891-44.8l-12.623-12.527l-3.251,9.275c-6.885,20.655-2.486,42.458,11.857,57.136
	c7.65,8.128,5.929,9.276-7.268,4.447c-4.59-1.53-8.606-2.677-8.989-2.104c-1.338,1.338,3.251,18.934,6.885,25.866
	c4.973,9.659,15.061,19.125,26.153,24.719l9.371,4.446l-11.092,0.191c-10.71,0-11.092,0.191-9.945,4.256
	c3.825,12.526,18.886,25.866,35.716,31.651l11.857,4.064l-10.328,6.167c-15.252,8.894-33.229,13.914-51.159,14.297
	c-8.606,0.19-15.683,0.956-15.683,1.529c0,1.913,23.285,12.719,36.864,16.974c40.688,12.527,88.979,7.124,125.269-14.296
	c25.771-15.252,51.542-45.565,63.591-74.922c6.502-15.635,13.005-44.227,13.005-57.901c0-8.893,0.573-10.041,11.283-20.655
	c6.312-6.168,12.24-12.91,13.388-14.87c1.913-3.682,1.722-3.682-8.032-0.383c-16.208,5.786-18.552,5.021-10.519-3.682
	c5.929-6.167,13.005-17.355,13.005-20.655c0-0.574-2.869,0.382-6.12,2.104c-3.442,1.912-11.093,4.829-16.782,6.55l-10.327,3.299
	l-9.371-6.359c-5.164-3.49-12.384-7.315-16.209-8.511C363.088,285.744,348.219,286.127,339.421,289.235z"/>
<g>
	<path fill="#152829" d="M-467.367,325.716c11.188,0,21.085,0,32.369,0c0,18.694,0,37.246,0,56.896c18.599,0,35.907,0,54.171,0
		c0,12.91,0,24.72,0,37.772c-17.404,0-34.712,0-53.502,0c0.191,28.161-1.913,55.175,2.104,81.998
		c1.625,11.093,15.443,17.643,30.313,15.922c9.945-1.147,18.982-5.308,28.831-10.472c0,12.767,0,24.193,0,36.816
		c-28.64,13.339-58.188,17.786-88.453,4.303c-15.921-7.124-26.297-19.125-26.44-37.581c-0.239-29.596-0.047-59.144-0.047-88.357
		c-8.75-4.59-17.069-0.525-24.911-3.586c-2.343-10.184-0.478-20.511-1.195-31.699C-485.775,377.162-471.097,356.077-467.367,325.716
		z"/>
</g>
<path fill="#0F2828" d="M153.861,31.717c-29.166,0-58.332,0-87.497,0c-18.217,0-31.174-12.91-31.174-31.222
	c0-58.953,0-117.906,0-176.811c0-18.312,12.91-31.222,31.126-31.222c58.331,0,116.71,0,175.042,0
	c18.217,0,31.174,12.909,31.174,31.222c0,58.953,0,117.905,0,176.811c0,18.312-12.909,31.222-31.126,31.222
	C212.192,31.717,183.026,31.717,153.861,31.717z"/>
<path fill="#FFFFFF" d="M154.147,4.798c-25.867,0-51.781,0-77.647,0c-8.367,0-13.34-4.972-13.34-13.387
	c0-32.847,0-65.694-0.048-98.589c0-2.534,0.717-3.204,3.156-3.108c4.59,0.191,9.18,0.144,13.722,0
	c2.343-0.048,3.06,0.239,2.343,2.917C71.671-66.682,95.243-26.615,135.931-16c40.832,10.663,83.672-17.021,90.844-58.522
	c1.912-11.14,1.578-22.185-1.482-33.086c-0.622-2.295-0.096-2.725,2.056-2.677c5.259,0.096,10.566,0.096,15.826,0
	c1.865-0.048,2.343,0.574,2.343,2.391c-0.048,33.564,0,67.129-0.048,100.646c0,7.124-5.211,12.001-12.479,12.001
	C206.693,4.798,180.396,4.798,154.147,4.798z"/>
<path fill="#FFFFFF" d="M202.438-87.719c-0.096,26.775-21.946,48.482-48.769,48.434c-26.918-0.048-48.673-22.042-48.482-48.96
	c0.191-26.727,22.137-48.386,48.912-48.291C180.827-136.392,202.534-114.446,202.438-87.719z"/>
<path fill="#FFFFFF" d="M223.476-180.571c3.299,0,6.55-0.048,9.85,0c6.98,0.143,12.048,5.116,12.144,12.048
	c0.096,6.551,0.096,13.148,0,19.699c-0.143,6.98-5.259,11.953-12.192,12.001c-6.168,0.047-12.336,0.047-18.503,0
	c-6.837-0.048-11.953-5.212-12.001-12.145c-0.048-6.742-0.048-13.531,0-20.272c0.048-6.742,4.686-11.332,11.427-11.332
	C217.308-180.571,220.368-180.571,223.476-180.571z"/>
</svg>
