<?xml version="1.0" encoding="utf-8"?>
<!-- Generator: Adobe Illustrator 15.1.0, SVG Export Plug-In . SVG Version: 6.00 Build 0)  -->
<!DOCTYPE svg PUBLIC "-//W3C//DTD SVG 1.1//EN" "http://www.w3.org/Graphics/SVG/1.1/DTD/svg11.dtd">
<svg version="1.1" id="Layer_1" xmlns="http://www.w3.org/2000/svg" xmlns:xlink="http://www.w3.org/1999/xlink" x="0px" y="0px"
	 width="792px" height="612px" viewBox="0 0 792 612" enable-background="new 0 0 792 612" xml:space="preserve">
<polygon fill="#A7A9AC" points="829.301,311.206 171.838,-6.169 410.289,-6.169 829.301,210.195 "/>
<polygon fill="#A5C7A3" points="525.773,75.836 131.777,611.233 263.213,611.233 571.99,105.418 "/>
<polygon fill="#FED09E" points="576.771,202.012 586.99,142.188 299.333,611.233 432.332,611.233 "/>
<polygon fill="#D7E8F7" points="327.751,105.418 0,202.012 0,138.698 421.588,75.836 "/>
<polygon fill="#8CC6EC" points="523.076,25.891 0,363.313 0,517.726 523.076,65.336 "/>
<polygon fill="#EFB890" points="641.496,105.418 594.705,105.418 488.578,611.233 605.572,611.233 "/>
<text transform="matrix(1 0 0 1 7.0586 376.7109)"><tspan x="0" y="0" fill="#1C75BC" font-family="'MyriadPro-Semibold'" font-size="18">Zoetropes/</tspan><tspan x="-13.293" y="16" fill="#1C75BC" font-family="'MyriadPro-Semibold'" font-size="18">Magic Lantens</tspan></text>
<text transform="matrix(1 0 0 1 89.0088 325.8154)" fill="#1C75BC" font-family="'MyriadPro-Semibold'" font-size="18">Cinema</text>
<polygon fill="#B2D6F1" points="379.87,118.27 0,325.815 0,215.325 477.789,55.104 "/>
<text transform="matrix(1 0 0 1 14.7783 240.5635)"><tspan x="0" y="0" fill="#1C75BC" font-family="'MyriadPro-Semibold'" font-size="18">Hand-drawn</tspan><tspan x="8.81" y="16" fill="#1C75BC" font-family="'MyriadPro-Semibold'" font-size="18">animation</tspan></text>
<text transform="matrix(1 0 0 1 189.1094 159.3398)"><tspan x="0" y="0" fill="#1C75BC" font-family="'MyriadPro-Semibold'" font-size="18">Computer</tspan><tspan x="-1.674" y="16" fill="#1C75BC" font-family="'MyriadPro-Semibold'" font-size="18">Animation</tspan></text>
<text transform="matrix(1 0 0 1 21.7998 152.5186)"><tspan x="0" y="0" fill="#1C75BC" font-family="'MyriadPro-Semibold'" font-size="18">Motion</tspan><tspan x="-3.051" y="16" fill="#1C75BC" font-family="'MyriadPro-Semibold'" font-size="18">Capture</tspan></text>
<text transform="matrix(1 0 0 1 325.5742 172.5186)" fill="#1C75BC" font-family="'MyriadPro-Semibold'" font-size="18">3D Cinema</text>
<text transform="matrix(1 0 0 1 456.5596 318.5625)"><tspan x="0" y="0" fill="#AA6027" font-family="'MyriadPro-Semibold'" font-size="18">Gesture</tspan><tspan x="-16.659" y="16" fill="#AA6027" font-family="'MyriadPro-Semibold'" font-size="18">Recognition</tspan></text>
<text transform="matrix(1 0 0 1 434.7422 408.6562)"><tspan x="0" y="0" fill="#AA6027" font-family="'MyriadPro-Semibold'" font-size="18">Face</tspan><tspan x="-29.34" y="16" fill="#AA6027" font-family="'MyriadPro-Semibold'" font-size="18">Recognition</tspan></text>
<text transform="matrix(1 0 0 1 152.4126 126.3394)"><tspan x="0" y="0" fill="#1C75BC" font-family="'MyriadPro-Semibold'" font-size="18">Facial</tspan><tspan x="-8.874" y="16" fill="#1C75BC" font-family="'MyriadPro-Semibold'" font-size="18">Capture</tspan></text>
<polygon fill="#A5C7A3" points="523.076,65.336 0,581.5 0,611.233 82.603,611.233 540.772,75.836 "/>
<text transform="matrix(1 0 0 1 535.4746 427.041)" fill="#AA6027" font-family="'MyriadPro-Semibold'" font-size="18">Room VR</text>
<text transform="matrix(1 0 0 1 553.8525 280.5635)" fill="#AA6027" font-family="'MyriadPro-Semibold'" font-size="18">Visor VR</text>
<text transform="matrix(1 0 0 1 510.916 536.5596)" fill="#AA6027" font-family="'MyriadPro-Semibold'" font-size="18">Textual VR</text>
<text transform="matrix(1 0 0 1 530.4668 568.0557)" fill="#C69369" font-family="'MyriadPro-Semibold'" font-size="14">LambdaMOO</text>
<text transform="matrix(1 0 0 1 551.9189 465.0576)" fill="#C69369" font-family="'MyriadPro-Semibold'" font-size="14">Cave</text>
<text transform="matrix(1 0 0 1 534.8682 494.5635)" fill="#C69369" font-family="'MyriadPro-Semibold'" font-size="14">Neopets</text>
<text transform="matrix(1 0 0 1 555.1797 252.3418)" fill="#C69369" font-family="'MyriadPro-Semibold'" font-size="14">Occulus Rift</text>
<text transform="matrix(1 0 0 1 542.2471 355.5635)" fill="#AA6027" font-family="'MyriadPro-Semibold'" font-size="18">Screen VR</text>
<text transform="matrix(1 0 0 1 539.7686 380.6553)" fill="#C69369" font-family="'MyriadPro-Semibold'" font-size="14">Yelp Monocle</text>
<polygon fill="#FED09E" points="641.496,105.418 635.816,185.393 641.496,611.233 792,611.233 "/>
<text transform="matrix(1 0 0 1 666.6875 494.5635)"><tspan x="0" y="0" fill="#AA6027" font-family="'MyriadPro-Semibold'" font-size="18">Stereoscopic</tspan><tspan x="-22.311" y="16" fill="#AA6027" font-family="'MyriadPro-Semibold'" font-size="18">Scene Recognition</tspan></text>
<text transform="matrix(1 0 0 1 671.3984 397.0635)"><tspan x="0" y="0" fill="#AA6027" font-family="'MyriadPro-Semibold'" font-size="18">LIDAR </tspan><tspan x="-9.485" y="16" fill="#AA6027" font-family="'MyriadPro-Semibold'" font-size="18">Mapping</tspan></text>
<text transform="matrix(1 0 0 1 635.916 299.938)"><tspan x="0" y="0" fill="#AA6027" font-family="'MyriadPro-Semibold'" font-size="18">Internet-scale</tspan><tspan x="-13.284" y="16" fill="#AA6027" font-family="'MyriadPro-Semibold'" font-size="18">Scene Recreation</tspan></text>
<text transform="matrix(1 0 0 1 4.1973 438.6523)" fill="#1C75BC" font-family="'MyriadPro-Semibold'" font-size="18">Panorama</text>
<text transform="matrix(1 0 0 1 443.498 366.1455)" fill="#C69369" font-family="'MyriadPro-Semibold'" font-size="14">Kinect</text>
<text transform="matrix(1 0 0 1 463.7715 299.938)" fill="#C69369" font-family="'MyriadPro-Semibold'" font-size="14">Leapmotion</text>
<text transform="matrix(1 0 0 1 344.3804 343.5342)" fill="#3C5E40" font-family="'MyriadPro-Semibold'" font-size="18">MMROPGs</text>
<text transform="matrix(1 0 0 1 564.501 55.1045)"><tspan x="0" y="0" font-family="'MyriadPro-Semibold'" font-size="24">Augmented Reality</tspan><tspan x="-12" y="20" font-family="'MyriadPro-Semibold'" font-size="24">Cinematic Experience</tspan></text>
<text transform="matrix(1 0 0 1 408.1406 193.46)"><tspan x="0" y="0" fill="#3C5E40" font-family="'MyriadPro-Semibold'" font-size="18">Choice-driven</tspan><tspan x="3.32" y="16" fill="#3C5E40" font-family="'MyriadPro-Semibold'" font-size="18">Video Games</tspan></text>
<text transform="matrix(1 0 0 1 572.5967 166.4609)"><tspan x="0" y="0" fill="#AA6027" font-family="'MyriadPro-Semibold'" font-size="18">Voice</tspan><tspan x="-25.704" y="16" fill="#AA6027" font-family="'MyriadPro-Semibold'" font-size="18">Recognition</tspan></text>
<text transform="matrix(1 0 0 1 404.5674 60.105)"><tspan x="0" y="0" fill="#1C75BC" font-family="'MyriadPro-Semibold'" font-size="18">Real-time</tspan><tspan x="-28.385" y="16" fill="#1C75BC" font-family="'MyriadPro-Semibold'" font-size="18">Scene Rendering</tspan></text>
<text transform="matrix(1 0 0 1 442.4482 126.3394)"><tspan x="0" y="0" fill="#3C5E40" font-family="'MyriadPro-Semibold'" font-size="18">Complex AI</tspan><tspan x="17.045" y="16" fill="#3C5E40" font-family="'MyriadPro-Semibold'" font-size="18">Agents</tspan></text>
<text transform="matrix(1 0 0 1 649.2109 190.46)"><tspan x="0" y="0" fill="#AA6027" font-family="'MyriadPro-Semibold'" font-size="18">Dynamic</tspan><tspan x="9.504" y="16" fill="#AA6027" font-family="'MyriadPro-Semibold'" font-size="18">Planar</tspan><tspan x="-0.81" y="32" fill="#AA6027" font-family="'MyriadPro-Semibold'" font-size="18">Mapping</tspan></text>
<text transform="matrix(1 0 0 1 202.104 380.6543)" fill="#3C5E40" font-family="'MyriadPro-Semibold'" font-size="18">Simple AI</text>
<text transform="matrix(1 0 0 1 295.1401 397.0635)"><tspan x="0" y="0" fill="#3C5E40" font-family="'MyriadPro-Semibold'" font-size="18">Multi-body</tspan><tspan x="-14.427" y="16" fill="#3C5E40" font-family="'MyriadPro-Semibold'" font-size="18">physics engine</tspan></text>
<text transform="matrix(1 0 0 1 369.1533 252.3418)"><tspan x="0" y="0" fill="#3C5E40" font-family="'MyriadPro-Semibold'" font-size="18">Procedural</tspan><tspan x="18.792" y="16" fill="#3C5E40" font-family="'MyriadPro-Semibold'" font-size="18">World</tspan><tspan x="-1.458" y="32" fill="#3C5E40" font-family="'MyriadPro-Semibold'" font-size="18">Generation</tspan></text>
<text transform="matrix(1 0 0 1 302.6455 25.8906)" fill="#FFFFFF" font-family="'MyriadPro-Semibold'" font-size="18">TOMORROW</text>
<text transform="matrix(1 0 0 1 387.375 318.5625)" fill="#6C9272" font-family="'MyriadPro-Semibold'" font-size="14">WoW</text>
<text transform="matrix(1 0 0 1 451.1631 228.624)" fill="#6C9272" font-family="'MyriadPro-Semibold'" font-size="14">EVE</text>
<text transform="matrix(1 0 0 1 444.002 176.4609)" fill="#6C9272" font-family="'MyriadPro-Semibold'" font-size="14">Mass Effect</text>
<text transform="matrix(1 0 0 1 172.9121 438.6523)" fill="#6C9272" font-family="'MyriadPro-Semibold'" font-size="14">Pong</text>
<text transform="matrix(1 0 0 1 237.2505 355.5635)" fill="#6C9272" font-family="'MyriadPro-Semibold'" font-size="14">Starcraft</text>
<text transform="matrix(1 0 0 1 296.1309 438.6523)" fill="#6C9272" font-family="'MyriadPro-Semibold'" font-size="14">Quake</text>
</svg>
