<?xml version="1.0" encoding="utf-8"?>
<!-- Generator: Adobe Illustrator 15.1.0, SVG Export Plug-In . SVG Version: 6.00 Build 0)  -->
<!DOCTYPE svg PUBLIC "-//W3C//DTD SVG 1.1//EN" "http://www.w3.org/Graphics/SVG/1.1/DTD/svg11.dtd">
<svg version="1.1" id="Layer_1" xmlns="http://www.w3.org/2000/svg" xmlns:xlink="http://www.w3.org/1999/xlink" x="0px" y="0px"
	 width="1024px" height="600px" viewBox="0 0 1024 600" enable-background="new 0 0 1024 600" xml:space="preserve">
<g>
	<defs>
		<rect id="SVGID_1_" width="1024" height="600"/>
	</defs>
	<clipPath id="SVGID_2_">
		<use xlink:href="#SVGID_1_"  overflow="visible"/>
	</clipPath>
	<path clip-path="url(#SVGID_2_)" d="M152.212,46.434c26.07-0.658,52.712,3.327,78.453-2.023c3.156-0.656,1.817-5.476-1.329-4.822
		c-25.977,5.399-53.052,0.97-79.336,1.911c-1.495,0.054-2.323,1.108-2.5,2.5c-1.797,14.094-2.598,28.303-4.093,42.43
		c-1.407,13.298-2.662,28.092-8.566,40.308c-1.396,2.889,2.915,5.426,4.318,2.524c5.929-12.27,7.389-26.575,8.93-39.946
		C149.733,75.05,150.508,60.692,152.212,46.434"/>
	<path clip-path="url(#SVGID_2_)" d="M931.665,41.589c-25.63-8.555-52.67-4.296-79-8c-3.152-0.443-4.512,4.374-1.33,4.821
		c25.546,3.594,51.936-0.293,76.853,7.318c-4.921,28.806-9.312,57.7-13.599,86.607c-0.467,3.153,4.351,4.509,4.822,1.329
		c4.403-29.706,8.91-59.402,14-89C933.651,43.264,933.055,42.054,931.665,41.589"/>
	<path clip-path="url(#SVGID_2_)" d="M922.411,438.665c0.586-3.151-4.232-4.497-4.822-1.33c-5.991,32.173-0.58,64.934-0.119,97.348
		c-32.792,2.11-64.747-8.971-97.47-9.183c-3.226-0.021-3.224,4.979,0,5c32.936,0.214,65.094,11.437,98.118,9.136
		c1.334,1.426,4.382,0.888,4.382-1.636v-1c0-0.029-0.008-0.059-0.01-0.088C922.258,504.27,916.378,471.068,922.411,438.665"/>
	<path clip-path="url(#SVGID_2_)" d="M291.665,510.589c-46.792-6.839-93.205,6.208-139.959,6.878
		c3.584-42.406,0.865-84.98,1.794-127.467c0.071-3.227-4.929-3.22-5,0c-0.948,43.332,1.917,86.757-2,130
		c-0.123,1.355,1.23,2.505,2.5,2.5c47.145-0.181,94.182-13.981,141.336-7.089C293.489,515.871,294.846,511.055,291.665,510.589"/>
	<path clip-path="url(#SVGID_2_)" d="M524.262,216.159c7.722-4.764,10.983-13.059,13.149-21.494c0.61-2.378-2.406-4.275-4.179-2.432
		c-0.271,0.282-0.541,0.57-0.808,0.86c-0.894-0.62-2.146-0.763-3.192,0.14c-5.926,5.112-8.553,13.122-8.732,20.767
		C520.456,215.874,522.664,217.144,524.262,216.159"/>
	<path clip-path="url(#SVGID_2_)" d="M545.589,225.664c0.408,1.708,2.987,2.574,4.179,1.103c6.917-8.543,9.604-19.921,8.732-30.767
		c-0.162-2.022-2.683-3.506-4.268-1.768c-2.737,3.001-4.811,6.747-5.899,10.725C545.183,211.362,544.126,219.542,545.589,225.664
		 M550.951,212.2c0.533-0.214,1.002-0.589,1.279-1.139c-0.553,2.082-1.27,4.114-2.182,6.049
		C550.209,215.48,550.512,213.82,550.951,212.2 M553.167,206.529c-0.174,1.174-0.397,2.34-0.67,3.493
		c0-0.008,0.003-0.014,0.003-0.022c0.047-0.998,0.202-2.002,0.429-2.996C553.009,206.846,553.084,206.685,553.167,206.529"/>
	<path clip-path="url(#SVGID_2_)" d="M603.841,276.262c5.869,9.96,4.096,22.849,1.774,33.6
		c-2.381,11.024-6.337,21.938-11.939,31.731c-11.762,20.567-26.781,40.724-43.973,57.424c-0.277,0.183-0.521,0.415-0.715,0.688
		c-1.809,1.741-3.634,3.457-5.489,5.117c-4.799,4.295-9.606,6.047-11.797-1.071c-2.081-6.764-1.677-14.432-1.409-21.412
		c0.185-4.821,0.599-9.644,1.082-14.467c9.755-3.479,18.67-9.294,25.926-16.961c11.064-11.688,14.255-26.784,16.831-41.993
		c0.236,0.449,0.458,0.902,0.709,1.344c1.597,2.801,5.916,0.282,4.317-2.523c-0.23-0.404-0.445-0.819-0.661-1.232
		c2.688-0.195,2.496-4.675-0.497-5.006c-0.604-0.066-1.208-0.133-1.812-0.199c-0.107-0.286-0.219-0.57-0.321-0.857
		c9.669-5.769,17.684-13.592,22.2-24.007c0.181-0.251,0.315-0.549,0.383-0.898c0.193-0.541,0.191-1.023,0.042-1.43
		c-0.174-18.567-3.602-40.486-22.229-49.267c-1.032-0.487-2.061-0.335-2.786,0.248c0.024-0.148,0.052-0.299,0.073-0.445
		c0.93-6.021,1.89-12.035,2.715-18.071c1.902-13.908,3.545-28.231,1.995-42.253c-1.021-9.257-4.29-21.553-15.195-23.056
		c-17.903-2.468-32.179,17.321-40.349,30.286c-6.597,10.469-11.723,21.782-17.701,32.566c-0.3,0.542-0.638,1.119-0.99,1.717
		c-2.098-9.542-5.418-18.963-11.681-26.167c-8.406-9.672-23.335-8.675-32.442-0.424c-11.921,10.801-13.261,31.996-13.466,46.872
		c-0.013,0.918-0.019,1.856-0.022,2.804c-4.427,3.409-10.919,4.441-15.181,8.314c-5.208,4.733-6.332,12.417-7.101,19.006
		c-0.634,5.425-0.666,10.605-0.158,15.622c-0.644-0.32-1.423-0.395-2.235-0.019c-8.483,3.923-12.1,13.577-14.3,22.033
		c-2.454,9.434-3.889,20.022-2.357,29.702c3.351,21.164,19.61,34.406,38.079,42.871c-5.26,27.189,2.348,54.733,3.395,81.999
		c0.967,25.19-6.707,52.421,2.586,76.741c2.652,6.938,7.911,14.153,16.109,13.812c8.243-0.343,14.138-8.591,17.639-15.111
		c5.665-10.549,7.135-23.145,8.08-34.896c1.005-12.492,0.858-25.059,2.253-37.519c3.618-0.073,7.187-0.365,10.683-1.246
		c2.126,18.33-0.394,37.126,1.512,55.526c0.86,8.31,2.373,17.043,6.832,24.255c3.608,5.836,10.253,11.075,17.416,9.698
		c6.938-1.335,11.146-9.537,13.667-15.313c3.08-7.058,5.18-14.756,6.168-22.395c3.596-27.777,7.832-55.82,6.157-83.906
		c-0.313-5.234-0.956-10.449-1.868-15.613c5.139-5.201,9.811-11.095,14.252-16.339c15.818-18.678,31.049-39.229,38.955-62.607
		c5.074-15.008,9.767-35.194,1.162-49.795C606.523,270.963,602.2,273.478,603.841,276.262 M547.402,353.343
		c-4.688,3.932-9.92,6.947-15.463,9.092c1.184-11.091,2.439-22.186,1.885-33.28c-0.255-5.115-1.123-10.343-3.348-14.979
		c11.607-1.206,24.388-3.934,35.904-8.91c1.097,0.112,2.193,0.225,3.291,0.34c-1.107,6.831-2.249,13.658-4.128,20.32
		C562.432,336.965,556.151,346.005,547.402,353.343 M510.19,257.574c-1.388-10.803-1.851-21.713-3.084-32.545
		c2.961,0.338,5.938,0.991,8.892,1.984c12.779,4.297,24.996,14.286,34.173,25.489C537.412,257.162,521.733,257.892,510.19,257.574
		 M504.586,251.032c0.265,3.219,0.559,6.433,1.003,9.633c0.154,1.112,1.407,1.795,2.411,1.835
		c13.261,0.534,31.001-0.373,45.257-6.03c2.064,2.795,3.931,5.632,5.559,8.445c5.925,10.243,7.504,22.198,10.995,33.339
		c-1.307,0.677-2.64,1.316-3.993,1.924c-20.763-2.196-41.542-3.985-62.442-3.882c-6.426,0.032-12.854,0.047-19.28-0.051
		c-7.777-10.966-16.343-21.344-26.011-30.809c4.49-11.951,11.214-23.456,20.943-31.843c6.794-5.857,14.802-8.697,23.117-8.814
		C503.243,233.5,503.866,242.296,504.586,251.032 M456.256,270.64c7.892,7.929,15.015,16.484,21.577,25.462
		c-1.752-0.053-3.504-0.101-5.255-0.181c-4.342-0.201-8.704-0.496-12.998-1.194c-1.531-0.249-5.5-0.61-6.422-1.988
		c-0.524-0.785-1.27-1.113-2.015-1.129C452.226,284.425,454.043,277.335,456.256,270.64 M450.482,296.985
		c3.894,3.028,10.868,3.083,15.163,3.477c5.27,0.482,10.568,0.703,15.869,0.801c10.111,14.534,18.885,30.051,27.117,45.765
		c-21.178-2.781-42.638-13.304-57.479-29.128C449.918,311.102,449.805,304.037,450.482,296.985 M513,352.5
		c2.006,0.162,2.96-2.212,2.158-3.762c-8.386-16.215-17.298-32.296-27.541-47.412c3.486,0.015,6.971,0.002,10.447-0.008
		c19.152-0.052,38.123,1.119,57.115,2.862c-9.567,2.988-19.482,4.625-28.18,5.319c-1.611,0.129-2.412,1.466-2.4,2.727
		c-0.232,0.602-0.211,1.309,0.241,2.035c5.908,9.482,4.343,22.643,3.406,33.234c-0.493,5.573-1.08,11.135-1.613,16.702
		c-12.314,3.442-25.744,2.869-37.98-1.383c-17.122-5.948-29.572-19.358-35.206-35.999C469.806,341.477,491.255,350.744,513,352.5
		 M593.496,274.542c-3.484,8.327-9.625,14.837-17.152,19.87c-0.382-1.251-1.705-1.979-2.875-1.867
		c-1.329-5.048-2.438-10.178-3.963-14.955c-2.737-8.588-6.711-16.051-11.865-23.07c9.66-4.815,17.082-12.271,19.308-23.597
		C591.188,239.92,593.395,258.722,593.496,274.542 M512.486,201.227c4.669-7.447,8.812-17.696,13.779-25.909
		c6.057-10.015,13.472-20.25,23.855-26.105c4.582-2.583,11.021-4.618,15.885-1.688c4.104,2.471,5.611,8.069,6.543,12.413
		c1.397,6.503,1.396,13.32,1.201,19.937c-0.403,13.756-2.513,27.409-4.639,40.981c-0.648,4.143-2.026,8.922-1.611,13.144
		c0.147,1.504,1.346,2.294,2.533,2.379c-3.064,6.481-8.62,11.067-15.396,14.269c-0.587-0.718-1.162-1.439-1.773-2.152
		c-11.741-13.687-28.046-26.832-46.412-28.632c-0.005-0.038-0.009-0.076-0.014-0.114c-0.156-1.092-0.32-2.201-0.489-3.317
		c0.305-0.212,0.583-0.438,0.819-0.665c1.268-1.221,0.788-2.819-0.282-3.665c0.396-0.828,0.825-1.643,1.238-2.452
		C509.19,206.783,510.775,203.957,512.486,201.227 M452.278,212.456c1.664-14.798,6.795-34.411,24.894-34.849
		c13.833-0.335,19.051,17.887,21.627,28.415c0.629,2.572,1.173,5.159,1.656,7.758c-0.061,0.353-0.108,0.704-0.123,1.049
		c-0.052,1.199,0.24,1.951,0.727,2.389c0.134,0.816,0.261,1.635,0.385,2.454c-1.74,0.03-3.494,0.154-5.264,0.407
		c-16.503,2.352-28.698,16.141-36.426,29.898c-1.447,2.575-2.771,5.226-3.996,7.93c-2.331-5.452-3.104-11.78-3.702-17.519
		c-0.321-3.09-0.509-6.196-0.591-9.307c0.1-0.106,0.205-0.203,0.302-0.313c1.127-1.281,0.655-2.876-0.349-3.733
		C451.442,222.161,451.735,217.287,452.278,212.456 M428.667,260.579c0.88-7.466,1.094-16.133,7.637-21.121
		c2.997-2.285,6.781-3.324,10.179-4.942c0.273,9.317,1.489,19.287,5.571,27.265c-1.442,0.666-2.32,2.59-0.822,3.987
		c0.335,0.312,0.653,0.638,0.986,0.952c-3.956,11.195-6.206,23.069-6.837,34.776c-0.173,3.219-0.158,6.423,0.049,9.595
		c-1.533-2.05-2.964-4.167-4.272-6.353C433.096,291.262,426.773,276.653,428.667,260.579 M547.194,481.138
		c-1.217,9.864-2.079,19.896-4.512,29.553c-1.914,7.596-4.624,16.13-10.277,21.812c-6.107,6.138-13.499-0.854-16.738-6.53
		c-4.415-7.735-5.168-17.672-5.781-26.353c-1.248-17.681,1.004-35.71-1.476-53.284c-0.181-1.285-1.909-2.159-3.075-1.746
		c-4.671,1.658-9.424,1.903-14.335,1.911c-1.496,0.002-2.325,1.147-2.5,2.5c-2.908,22.427-0.09,45.85-7.781,67.495
		c-2.474,6.966-8.369,17.881-17.098,17.504c-9.463-0.409-12.217-17.34-13.094-24.151c-2.909-22.584,2.109-45.478,0.693-68.154
		c-1.576-25.252-8.322-50.818-2.81-76.028c0.22-1.005-0.102-2.362-1.149-2.823c-17.069-7.528-32.757-18.745-36.906-37.974
		c-1.923-8.912-0.529-18.385,1.325-27.188c1.675-7.957,4.596-17.828,12.581-21.521c0.101-0.046,0.18-0.104,0.267-0.157
		c1.588,9.732,5.219,18.923,10.509,28.197c3.234,5.669,7.117,10.938,11.507,15.762c1.916,10.16,6.027,19.77,12.675,28.14
		c11.248,14.163,28.973,22.062,46.757,23.313c6.88,0.484,13.676-0.221,20.182-1.932c-0.075,0.874-0.158,1.748-0.228,2.623
		c-0.582,7.338-0.995,14.712-0.638,22.072c0.266,5.475,0.753,12.534,4.567,16.869c3.799,4.316,9.212,2.939,13.506,0.162
		c2.103-1.36,4.12-2.93,6.071-4.629C553.207,431.154,550.211,456.674,547.194,481.138"/>
	<path clip-path="url(#SVGID_2_)" d="M871,516.5c3.225,0,3.225-5,0-5S867.775,516.5,871,516.5"/>
	<path clip-path="url(#SVGID_2_)" d="M878.589,510.665c0.753,3.134,5.574,1.805,4.822-1.33
		c-2.995-12.467-17.573-10.526-23.569-1.597c-1.804,2.686,2.529,5.185,4.316,2.523C867.845,504.773,876.673,502.685,878.589,510.665
		"/>
	<path clip-path="url(#SVGID_2_)" d="M891.158,503.738c-8.977-13.571-29.645-23.153-38.316-4c-1.319,2.913,2.988,5.457,4.316,2.523
		c3.001-6.627,7.748-10.147,15.037-7.948c5.984,1.807,11.271,6.847,14.646,11.948C888.611,508.938,892.943,506.437,891.158,503.738"
		/>
	<path clip-path="url(#SVGID_2_)" d="M848.411,497.665c2.147-10.861,9.799-17.005,20.946-15.302
		c9.496,1.45,18.674,7.594,23.484,15.898c1.614,2.788,5.936,0.272,4.316-2.523c-11.682-20.17-47.827-28.419-53.569,0.597
		C842.966,499.484,847.785,500.826,848.411,497.665"/>
</g>
</svg>
