<?xml version="1.0" encoding="utf-8"?>
<!-- Generator: Adobe Illustrator 15.1.0, SVG Export Plug-In . SVG Version: 6.00 Build 0)  -->
<!DOCTYPE svg PUBLIC "-//W3C//DTD SVG 1.1//EN" "http://www.w3.org/Graphics/SVG/1.1/DTD/svg11.dtd">
<svg version="1.1" id="Layer_1" xmlns="http://www.w3.org/2000/svg" xmlns:xlink="http://www.w3.org/1999/xlink" x="0px" y="0px"
	 width="1024px" height="766.386px" viewBox="0 0 1024 766.386" enable-background="new 0 0 1024 766.386" xml:space="preserve">
<g>
	<defs>
		<rect id="SVGID_1_" width="1024" height="766.386"/>
	</defs>
	<clipPath id="SVGID_2_">
		<use xlink:href="#SVGID_1_"  overflow="visible"/>
	</clipPath>
	<path clip-path="url(#SVGID_2_)" d="M390.335,608.964c-22.164,7.443-38.177,26.749-47.851,47.354
		c-8.407,17.908-12.756,39.387-4.771,58.211c3.04,7.165,8.814,13.069,16.488,14.955c8.838,2.171,18.829-2.049,25.844-7.189
		c13.582-9.951,22.133-27.382,28.452-42.482c4.807-11.485,8.262-23.667,9.348-36.096c0.838-9.59-0.129-20.793-6.554-28.482
		c-16.571-19.828-45.158,6.604-52.45,22.88c-1.307,2.917,3.001,5.462,4.317,2.523c5.908-13.184,29.58-37.983,44.074-22.494
		c5.366,5.735,5.999,14.978,5.799,22.373c-0.265,9.795-2.787,19.507-5.882,28.749c-5.683,16.97-14.63,35.637-28.321,47.643
		c-6.905,6.055-18.258,10.695-27.104,6.425c-8.213-3.965-11.39-14.157-12.717-22.455c-2.732-17.099,3.62-35.09,11.781-49.841
		c8.991-16.254,22.913-31.219,40.876-37.25C394.704,612.765,393.4,607.935,390.335,608.964"/>
	<path clip-path="url(#SVGID_2_)" d="M538.664,608.964c-15.213-4.361-27.845,8.18-35.236,19.984
		c-8.169,13.045-13.874,31.199-9.279,46.448c2.234,7.41,8.13,12.896,15.333,15.541c9.676,3.553,19.514,1.393,28.338-3.411
		c16.625-9.047,26.902-25.732,33.771-42.762c5.393-13.369,12.764-37.998-7.346-42.659c-9.104-2.11-19.066,1.937-27.113,5.81
		c-8.246,3.971-16.344,9.27-22.9,15.692c-2.306,2.259,1.23,5.792,3.535,3.535c6.596-6.461,14.738-11.467,23.02-15.454
		c7.715-3.715,20.082-8.394,27.742-2.199c7.158,5.785,3.588,17.638,1.391,25.026c-2.43,8.181-6.012,15.964-10.059,23.457
		c-9.67,17.901-33.814,39.089-54.426,25.12c-13.957-9.458-6.949-33.063-1.225-45.148c5.639-11.904,17.831-28.544,33.124-24.158
		C540.441,614.677,541.758,609.852,538.664,608.964"/>
	<path clip-path="url(#SVGID_2_)" d="M591,652.875c77.793-9.092,155.687-17.977,234-21c3.209-0.124,3.234-5,0-5h-4
		c0.803,1.055,1.607,2.11,2.41,3.165c1.756-6.076,5.383-11.926,5.568-18.362c0.207-7.136-7.391-8.68-12.979-8.803
		c0.588,1.423,1.178,2.845,1.768,4.268c14.498-14.279,22.719-34.53,19.746-54.954c-3.17-21.771-17.465-37.523-36.523-47.344
		c-45.35-23.363-99.508-27.403-149.654-26.853c-21.822,0.239-43.627,1.698-65.336,3.883c0.221,1.637,0.443,3.274,0.664,4.911
		c16.617-2.481,23.09-21.326,23.635-35.946c0.297-7.987-1.316-16.307-5.344-23.26c-4.363-7.534-12.555-11.096-20.455-13.808
		c-21.59-7.41-46.002-6.188-68.443-5.081c-27.185,1.34-54.166,3.347-81.097,7.461c-31.783,4.856-63.205,11.879-94.418,19.529
		c-22.41,5.493-44.779,10.935-66.482,18.866c-40.214,14.699-79.29,38.628-97.573,79.005c-5.705,12.599-9.214,26.438-12.115,39.929
		c-2.667,12.402-4.319,25.216-3.361,37.908c0.841,11.133,4.192,21.85,11.155,30.678c8.261,10.476,21.395,15.556,34.169,17.719
		c-0.368-1.392-0.735-2.786-1.103-4.179c-10.15,8.837-28.707,17.78-30.563,32.724c-1.891,15.223,12.532,16.948,24.22,15.734
		c7.356-0.765,14.583-2.048,21.968-2.618c12.914-0.997,25.782-2.547,38.643-4.072c12.863-1.525,25.729-3.024,38.642-4.072
		c9.555-0.774,20.252-0.751,29.119-4.77c2.933-1.328,0.389-5.637-2.523-4.316c-8.479,3.841-19.407,3.503-28.543,4.244
		c-10.974,0.89-21.915,2.168-32.847,3.458c-10.919,1.288-21.834,2.603-32.777,3.672c-7.718,0.755-15.455,1.113-23.126,2.279
		c-8.195,1.246-28.282,6.032-27.945-7.495c0.181-7.297,6.826-13.071,11.908-17.49c5.573-4.847,11.79-8.894,17.359-13.742
		c1.343-1.169,0.716-3.87-1.103-4.179c-19.739-3.342-35.185-13.912-40.144-33.951c-4.555-18.407-0.48-38.566,4.112-56.543
		c5.542-21.693,13.635-41.482,28.695-58.378c14.65-16.436,33.617-28.4,53.385-37.731c20.364-9.614,42.06-16.256,63.822-21.869
		c28.57-7.368,57.358-14.15,86.313-19.826c30.861-6.05,62.077-10.517,93.512-11.974c22.95-1.064,46.098-3.196,68.973,0.041
		c9.895,1.399,19.799,3.997,28.42,9.175c6.59,3.959,9.309,12.462,10.229,19.652c1.809,14.11-2.879,35.901-19.646,38.404
		c-2.779,0.416-2.129,5.192,0.666,4.911c51.861-5.219,105.23-6.786,156.572,3.599c12.396,2.507,24.617,5.891,36.496,10.235
		c11.465,4.192,23.467,9.307,33.129,16.897c17.383,13.658,24.41,36.264,19.02,57.49c-2.777,10.935-9.004,20.649-16.984,28.511
		c-1.586,1.562-0.381,4.22,1.768,4.268c5.652,0.124,8.973,1.29,7.412,7.276c-1.211,4.641-3.49,8.949-4.824,13.559
		c-0.451,1.566,0.803,3.165,2.412,3.165h4v-5c-78.313,3.023-156.207,11.908-234,21C587.836,648.245,587.801,653.249,591,652.875"/>
	<path clip-path="url(#SVGID_2_)" d="M429,678.875c17.346,0.911,34.658-0.93,52-1c3.224-0.013,3.225-5.013,0-5
		c-17.342,0.07-34.654,1.911-52,1C425.775,673.706,425.792,678.706,429,678.875"/>
	<path clip-path="url(#SVGID_2_)" d="M551.842,495.113c-5.004,11.226-6.4,24.399-7.418,36.519
		c-0.938,11.154-2.465,27.239,4.418,37.005c0.842,1.194,2.83,1.851,3.926,0.506c16.822-20.632,16.172-51.183,8.643-75.433
		c-0.627-2.017-3.473-2.539-4.568-0.597c-5.43,9.62-7.854,21.198-9.475,32.005c-1.604,10.683-2.836,23.617,2.475,33.519
		c0.943,1.761,3.307,1.47,4.316,0c5.926-8.63,8.219-19.202,9.51-29.427c1.354-10.727,1.113-21.932-1.258-32.5
		c-0.49-2.18-3.492-2.367-4.568-0.597c-7.896,12.968-10.764,32.353-6.254,46.927c0.789,2.548,3.908,2.196,4.822,0
		c3.73-8.956,4.041-18.609,6-28l-4.822-1.33c-1.055,6.497-1.994,13.074-2.088,19.665c-0.047,3.226,4.953,3.222,5,0
		c0.088-6.149,0.926-12.274,1.91-18.335c0.508-3.121-4.154-4.525-4.822-1.33c-1.959,9.393-2.27,19.045-6,28h4.822
		c-4.135-13.355-1.484-31.192,5.748-43.073c-1.523-0.199-3.047-0.397-4.57-0.597c4.057,18.068,3.031,42.378-7.746,58.073h4.316
		c-4.82-8.991-3.219-21.333-1.773-30.981c1.486-9.902,3.805-20.691,8.773-29.495c-1.523-0.199-3.047-0.397-4.57-0.597
		c6.934,22.327,8.256,51.421-7.355,70.567c1.309,0.169,2.617,0.337,3.926,0.506c-6.158-8.74-4.527-23.242-3.83-33.245
		c0.801-11.496,2.078-24.568,6.83-35.231C557.459,494.718,553.15,492.173,551.842,495.113"/>
	<path clip-path="url(#SVGID_2_)" d="M645.842,481.113c-5.951,11.125-8.1,25.39-9.578,37.735
		c-1.045,8.717-2.834,27.069,10.17,27.352c12.004,0.26,16.322-18.307,18.047-27.024c1.369-6.924,1.992-14.05,1.836-21.104
		c-0.107-4.859-0.416-10.752-3.158-14.958c-0.76-1.165-2.18-1.575-3.42-0.897c-9,4.918-12.604,17.639-14.381,26.936
		c-1.711,8.966-2.738,22.242,4.875,28.991c1.266,1.124,2.977,0.868,3.926-0.506c10.523-15.244,13.305-35.159,11.342-53.262
		c-0.209-1.918-1.953-3.069-3.762-2.159c-7.451,3.751-11.121,12.785-13.75,20.185c-2.984,8.399-5.09,18.013-4.488,26.975
		c0.15,2.265,2.566,3.192,4.268,1.768c10.119-8.477,11.715-24.462,10.732-36.768c-0.164-2.057-2.66-3.46-4.268-1.768
		c-9.309,9.796-14.945,27.28-10.645,40.433c0.691,2.108,3.357,2.425,4.57,0.597c8.205-12.356,9.326-29.882,8.342-44.262
		c-0.152-2.224-2.584-3.246-4.268-1.768c-7.42,6.515-10.732,16.724-12.645,26.103c-1.93,9.477-2.523,19.908,0,29.33
		c0.451,1.684,2.232,2.144,3.674,1.494c3.92-1.768,5.131-5.6,6.148-9.494c0.816-3.123-4.008-4.448-4.822-1.33
		c-0.678,2.598-1.176,5.301-3.85,6.506c1.223,0.498,2.447,0.996,3.672,1.494c-2.307-8.607-1.617-18.007,0-26.67
		c1.598-8.557,4.627-17.987,11.357-23.897c-1.424-0.589-2.846-1.179-4.268-1.768c0.93,13.573,0.092,30.067-7.658,41.738
		c1.521,0.199,3.045,0.397,4.568,0.597c-3.748-11.459,1.232-27.016,9.357-35.567c-1.424-0.589-2.846-1.179-4.268-1.768
		c0.883,11.061-0.135,25.581-9.268,33.232c1.422,0.589,2.844,1.179,4.268,1.768c-0.525-7.842,1.26-15.808,3.527-23.266
		c2.078-6.837,5.393-16.132,12.234-19.575c-1.254-0.721-2.508-1.439-3.762-2.159c1.879,17.323-0.578,36.136-10.658,50.738
		c1.309-0.169,2.617-0.337,3.926-0.506c-6.469-5.736-4.799-17.784-3.371-25.259c1.453-7.607,4.488-18.783,11.865-22.814
		c-1.141-0.299-2.281-0.599-3.42-0.897c2.129,3.269,2.268,7.792,2.445,11.559c0.275,5.888-0.203,11.843-1.102,17.66
		c-0.889,5.757-2.279,11.58-4.613,16.934c-1.533,3.512-4.232,8.822-8.555,9.38c-14.547,1.877-0.623-50.494,3.141-57.532
		C651.678,480.795,647.361,478.27,645.842,481.113"/>
	<path clip-path="url(#SVGID_2_)" d="M598.768,481.143c19.666-16.391,43.152-28.352,60-48c1.256-1.464,0.609-4.524-1.768-4.268
		c-7.207,0.776-13.746-1.169-20.336-3.91c-0.221,1.636-0.443,3.273-0.664,4.91c16.986,0.999,33.979,1.962,51,2v-5
		c-9.574,0.624-19.104,1.617-28.602,2.97c-4.84,0.688-9.658,1.522-14.463,2.419c-2.135,0.397-6.359,0.79-6.029,4.037
		c0.127,1.235,1.047,2.658,2.5,2.5c0.246-0.026,1.238-0.309,1.332-0.268c2.918,1.3,5.463-3.008,2.523-4.316
		c-1.422-0.633-2.338-0.581-3.855-0.416c0.834,0.834,1.668,1.667,2.5,2.5c0.217,2.126,7.865-0.212,9.572-0.502
		c4.008-0.683,8.031-1.265,12.062-1.792c7.457-0.979,14.953-1.643,22.459-2.132c3.188-0.207,3.252-4.992,0-5
		c-17.021-0.038-34.014-1.001-51-2c-3.064-0.181-3.057,3.916-0.666,4.91c6.975,2.901,14.062,4.909,21.666,4.09
		c-0.59-1.423-1.18-2.846-1.768-4.268c-16.834,19.631-40.342,31.613-60,48C592.752,479.674,596.309,483.191,598.768,481.143"/>
	<path clip-path="url(#SVGID_2_)" d="M562.664,486.964c-26.434-10.938-55.433-12.066-83.665-12.089
		c0.421,1.553,0.842,3.106,1.262,4.659c13.345-9.113,27.974-16.041,42-24c2.447-1.39,0.803-5.43-1.928-4.57
		c-11.241,3.542-22.096,9.048-32.147,15.139c-8.327,5.047-20.489,12.562-21.688,23.272c-0.182,1.628,1.732,2.831,3.165,2.411
		c19.787-5.795,34.926-20.877,54-28c2.992-1.118,1.697-5.952-1.33-4.822c-19.075,7.125-34.27,22.223-53.999,28
		c1.055,0.805,2.11,1.607,3.164,2.411c0.449-4.006,3.959-7.312,6.735-9.897c4.356-4.059,9.487-7.293,14.586-10.322
		c9.036-5.369,18.798-10.204,28.844-13.369c-0.643-1.523-1.285-3.047-1.926-4.57c-14.027,7.959-28.656,14.888-42,24
		c-1.988,1.357-1.348,4.657,1.261,4.659c27.836,0.022,56.274,1.126,82.335,11.911C564.314,493.019,565.6,488.179,562.664,486.964"/>
	<path clip-path="url(#SVGID_2_)" d="M185.801,531.261c22.171-8.872,41.365-23.512,63.169-33.148
		c24.949-11.028,51.589-17.73,77.41-26.329c-1.055-0.804-2.11-1.606-3.165-2.411c1.406,16.188,2.878,33.239-0.709,49.235
		c-1.623,7.235-4.559,12.397-11.605,15.124c-7.933,3.07-16.514,4.588-24.794,6.407c-8.573,1.884-16.849,4.573-25.277,7.011
		c-11.874,3.435-23.802,6.677-35.598,10.376c-11.436,3.587-22.698,7.728-33.56,12.806c-10.83,5.062-19.1,13.746-29.24,19.907
		c-2.751,1.671-0.24,5.996,2.523,4.317c10.684-6.49,19.39-15.303,30.817-20.645c12.086-5.65,24.849-9.807,37.599-13.66
		c20.303-6.139,40.673-12.27,61.368-16.902c7.737-1.732,16.118-3.35,23.063-7.359c5.624-3.246,8.063-10.108,9.525-16.053
		c4.001-16.275,2.322-34.055,0.888-50.564c-0.133-1.527-1.509-2.961-3.164-2.41c-25.094,8.357-50.826,15.033-75.214,25.389
		c-22.692,9.635-42.483,24.932-65.365,34.089C181.517,527.622,182.805,532.46,185.801,531.261"/>
	<path clip-path="url(#SVGID_2_)" d="M591.738,421.217c-41.398,29.518-96.684,23.698-144.739,24.658
		c-1.053,0.021-2.191,0.74-2.41,1.835c-4.216,21.065-14.851,39.912-22,60c-0.523,1.469,0.855,3.281,2.41,3.165
		c19.406-1.458,38.847-0.7,58.284-0.901c18.965-0.195,36.881-2.722,55.381-6.623c11.285-2.381,22.646-4.193,33.74-7.426
		c9.025-2.631,20.947-6.416,25.754-15.288c1.537-2.835-2.781-5.358-4.316-2.523c-4.658,8.596-17.627,11.611-26.258,13.976
		c-10.189,2.794-20.627,4.41-30.953,6.588c-9.104,1.92-17.977,3.947-27.255,4.948c-9.277,1.001-18.624,1.271-27.948,1.368
		c-18.823,0.193-37.633-0.529-56.428,0.882c0.804,1.055,1.607,2.11,2.411,3.165c7.149-20.088,17.784-38.934,22-60.001
		c-0.804,0.612-1.607,1.225-2.411,1.836c48.922-0.977,105.114,4.712,147.263-25.342C596.861,423.68,594.369,419.341,591.738,421.217
		"/>
	<path clip-path="url(#SVGID_2_)" d="M640.426,360.22c-4.111,6.503-6.359,17.141,2.834,20.581
		c7.698,2.881,15.501,0.178,20.622-5.969c3.713-4.458,6.319-10.976,4.629-16.771c-2.088-7.156-10.378-6.774-16.092-4.989
		c-3.066,0.958-1.757,5.785,1.33,4.821c3.346-1.046,8.791-2.442,10.102,2.05c1.038,3.559-1.063,7.737-2.961,10.603
		c-2.415,3.646-6.387,6.297-10.806,6.435c-9.865,0.307-9.396-7.823-5.342-14.238C646.471,360.01,642.143,357.503,640.426,360.22"/>
	<path clip-path="url(#SVGID_2_)" d="M614.674,284.321c-7.569,18.186,15.48,28.472,29.798,21.33
		c7.878-3.93,14.76-12.896,10.423-21.661c-4.283-8.653-16.637-10.095-24.975-8.915c-3.182,0.451-1.822,5.268,1.33,4.822
		c6.438-0.912,14.673,0.195,18.829,5.806c4.786,6.463-3.925,13.532-9.038,16.083c-5.035,2.512-11.694,1.508-16.507-0.96
		c-6.13-3.144-7.573-9.086-5.038-15.176C620.734,282.674,615.895,281.389,614.674,284.321"/>
	<path clip-path="url(#SVGID_2_)" d="M305.101,187.99c-15.75,1.302-24.64,18.982-27.069,32.81
		c-0.929,5.289-1.442,12.41,2.665,16.586c4.668,4.748,11.724,0.039,15.672-3.13c-1.393-0.811-2.786-1.622-4.178-2.433
		c-4.234,15.307-2.849,34.357,10.237,45.133c13.858,11.412,30.567,2.024,40.439-9.702c-1.393-0.81-2.786-1.621-4.179-2.432
		c-12.539,39.628,54.689,48.706,76.175,27.931c-1.308-1.01-2.617-2.02-3.926-3.03c-7.912,17.746,16.135,24.023,28.914,24.703
		c10.005,0.532,20.319-1.206,29.395-5.49c4.043-1.908,7.759-4.628,10.743-7.957c1.52-1.696,2.779-3.619,3.807-5.645
		c0.964-1.9,1.09-4.775,2.194-6.451c0.489-0.743,0.425-1.776,0-2.524c-1.365-2.407-5.601-1.738-7.406-0.182
		c-1.35,1.165-0.711,3.873,1.103,4.178c3.468,0.585,6.522,2.203,10.199,2.468c4.712,0.341,9.518-0.378,14.122-1.321
		c10.264-2.103,20.218-6.4,29.223-11.689c9.775-5.742,31.144-22.131,16.625-34.093c-0.811,1.393-1.621,2.786-2.433,4.178
		c23.208,8.605,43.064-20.022,51.419-37.426c9.001-18.752,17.093-51.007-4.494-64.638c-1.891-1.194-4.229,0.762-3.673,2.823
		c3.21,11.888,20.156-0.915,24.475-4.921c11.4-10.579,18.401-26.976,12.376-42.122c-11.69-29.383-67.559-36.881-77.349-2.284
		c-0.354,1.255,0.421,2.789,1.746,3.075c9.258,1.996,18.235-1.612,22.415-10.354c3.61-7.552,1.97-16.002-3.687-21.914
		c-11.176-11.686-32.316-12.418-47.312-12.989c-15.448-0.588-31.058-0.222-46.42,1.505c-17.383,1.954-37.937,5.227-51.343,17.491
		c-2.331,2.133-4.248,4.763-5.642,7.59c-1.656,3.358-4.108,6.071-5.147,9.764c-2.1,7.461,6.468,8.896,11.806,8.996
		c1.813,0.034,3.226-2.18,2.158-3.761c-7.519-11.137-23.204-13.046-35.524-13.379c-17.705-0.478-35.882,3.122-52.435,9.268
		c-12.651,4.697-27.865,11.966-34.098,24.764c-4.19,8.604-4.325,25.861,9.309,24.595c3.494-0.324,7.413-2.282,8.263-5.978
		c1.166-5.076-4.471-8.346-8.314-9.978c-14.234-6.045-30.161-4.162-42.049,5.778c-19.674,16.45-24.01,55.143,3.842,65.599
		c3.458,1.298,7.188,1.822,10.854,2.088c3.219,0.232,3.197-4.77,0-5c-34.619-2.503-30.613-47.299-6.937-62.207
		c6.588-4.147,14.528-5.507,22.186-4.456c2.401,0.33,16.491,2.951,15.522,7.166c-0.661,2.88-6.068,2.133-7.767,1.105
		c-5.224-3.16-2.076-13.413,0.023-17.402c4.343-8.254,13.582-13.516,21.64-17.47c10.708-5.254,22.432-8.52,34.125-10.688
		c11.321-2.099,23.051-2.895,34.514-1.59c7.918,0.902,17.779,3.273,22.529,10.308c0.72-1.254,1.439-2.508,2.159-3.762
		c-1.823-0.033-5.739,0.317-6.985-1.449c-0.781-1.108,1.021-3.855,1.512-4.772c1.87-3.5,4.043-7.335,6.702-10.296
		c5.734-6.384,14.552-9.688,22.54-12.132c17.383-5.319,36.114-6.693,54.212-6.843c15.338-0.127,30.967-0.217,45.943,3.523
		c7.199,1.798,15.243,4.859,19.195,11.564c2.628,4.458,1.645,10.248-0.792,14.545c-3.146,5.549-9.81,7.213-15.669,5.95
		c0.582,1.025,1.164,2.05,1.746,3.075c8.157-28.831,52.675-22.207,65.837-1.273c7.622,12.124,3.227,26.451-5.332,36.714
		c-1.405,1.685-18.376,17.269-20.007,11.228c-1.225,0.941-2.449,1.882-3.673,2.823c19.259,12.161,10.033,42.52,2.253,58.729
		c-7.24,15.085-24.994,41.735-45.324,34.197c-2.304-0.854-4.342,2.605-2.433,4.178c12.096,9.966-12.09,24.392-19.177,28.257
		c-7.943,4.332-16.553,7.547-25.419,9.364c-3.896,0.798-7.867,1.139-11.839,0.947c-3.263-0.157-5.828-1.776-8.869-2.289
		c0.368,1.393,0.735,2.786,1.103,4.178c-0.789,0.437-0.797,0.521-0.023,0.252c1.075-0.028,0.933-0.389-0.424-1.081v-2.524
		c-0.898,1.363-0.999,3.328-1.53,4.879c-0.601,1.757-1.593,3.373-2.644,4.893c-2.152,3.117-5.342,5.461-8.576,7.336
		c-7.378,4.277-16.272,5.808-24.691,6.02c-8.394,0.211-35.456-2.71-28.978-17.24c1.114-2.497-1.764-5.12-3.926-3.029
		c-18.018,17.421-78.648,11.16-67.818-23.067c0.73-2.308-2.549-4.368-4.179-2.432c-8.452,10.04-22.113,18.97-34.176,9.036
		c-11.303-9.308-11.721-26.663-8.143-39.602c0.72-2.605-2.333-3.913-4.178-2.433c-2.335,1.874-7.342,5.872-9.487,1.871
		c-2.041-3.808-0.764-9.647,0.136-13.565c2.381-10.371,9.495-25.034,21.618-26.036C308.29,192.726,308.316,187.724,305.101,187.99"
		/>
	<path clip-path="url(#SVGID_2_)" d="M407.685,167.327c-0.824,2.502-4.244,3.441-5.818,5.536c-2.179,2.898,0.17,7.282,1.57,9.889
		c0.72-1.254,1.439-2.508,2.159-3.761c-11.061-1.314-21.344,3.727-23.41,15.335c-0.182,1.022,0.077,2.34,1.149,2.823
		c12.25,5.514,24.429,2.169,36.408-2.271c2.094-0.776,8.554-4.116,10.683-2.237c1.368,1.209,0.897,4.442,0.811,5.99
		c-0.254,4.617-1.457,9.223-2.553,13.695c0.804-0.612,1.607-1.224,2.411-1.836c-4.039,0.032-8.113,0.118-11.762,2.029
		c-3.16,1.655-5.13,5.29-6.896,8.209c-0.814,1.344-0.072,3.308,1.494,3.672c7.426,1.727,17.955,4.965,24.568-0.578
		c2.158-1.809,3.44-4.691,4.854-7.059c2.556-4.278,5.953-7.724,10.002-10.614c1.269-0.905,1.757-2.735,0.506-3.926
		c-2.156-2.056-8.468-7.446-4.403-10.431c3.205-2.352,7.799-2.991,11.582-3.836c7.872-1.756,15.104-3.829,16.174-13.199
		c1.675-14.664-33.2-1.983-38.62-1.765c0.72,0.413,1.439,0.826,2.159,1.238c-0.871-2.057-1.141-4.042-1.159-6.237
		c-0.006-0.822-0.457-1.792-1.238-2.159c-9.816-4.619-19.047-3.071-24.42,6.896c-1.529,2.838,2.788,5.363,4.318,2.524
		c3.999-7.421,10.215-8.568,17.578-5.103c-0.412-0.719-0.825-1.439-1.238-2.158c0.025,3.139,0.62,5.875,1.841,8.761
		c0.321,0.758,1.375,1.27,2.159,1.238c6.921-0.278,14.027-3.264,20.851-4.44c3.603-0.621,7.681-1.266,11.289-0.372
		c3.202,0.792,0.288,5.762-1.268,6.964c-2.54,1.963-6.723,2.318-9.755,2.991c-4.015,0.892-8.08,1.799-11.753,3.713
		c-9.197,4.792-2.921,13.871,2.368,18.91c0.169-1.308,0.337-2.617,0.506-3.926c-6.108,4.359-10.012,9.539-13.833,15.862
		c-4.39,7.265-15.156,3.416-21.739,1.885l1.494,3.672c1.408-2.324,2.763-4.903,5.103-6.415c2.543-1.642,6.366-1.323,9.238-1.346
		c1.089-0.008,2.145-0.753,2.41-1.835c1.994-8.132,7.701-29.059-7.691-25.993c-5.665,1.129-11.031,3.891-16.554,5.557
		c-7.709,2.326-15.891,2.994-23.401-0.387c0.383,0.941,0.766,1.883,1.149,2.824c1.706-9.591,9.635-12.728,18.588-11.664
		c1.997,0.237,2.962-2.265,2.158-3.762c-1.982-3.691-2.19-4.539,1.006-6.615c1.877-1.221,3.052-2.849,3.746-4.958
		C413.518,165.585,408.688,164.279,407.685,167.327"/>
	<path clip-path="url(#SVGID_2_)" d="M399.834,200.331c-3.861,2.86-5.414,8.415-10.738,8.658c-2.298,0.105-3.15,2.591-1.767,4.268
		c6.855,8.316,17.72,4.934,24.534-1.5c2.348-2.218-1.194-5.747-3.535-3.535c-4.967,4.689-12.395,7.648-17.464,1.5
		c-0.589,1.422-1.178,2.845-1.768,4.267c3.051-0.139,5.5-0.918,7.821-2.925c2.142-1.852,3.132-4.706,5.44-6.416
		C404.917,202.751,402.43,198.409,399.834,200.331"/>
	<path clip-path="url(#SVGID_2_)" d="M411.596,203.489c2.733,0.005,5.432-0.316,6.589,2.665c0.383-0.941,0.765-1.883,1.149-2.824
		c-6.474,3.456-9.31,9.841-12.897,15.896c-1.647,2.781,2.677,5.295,4.318,2.524c3.111-5.252,5.478-11.099,11.102-14.102
		c0.91-0.486,1.538-1.821,1.149-2.824c-2.091-5.389-6.016-6.324-11.41-6.335C408.371,198.483,408.372,203.483,411.596,203.489"/>
	<path clip-path="url(#SVGID_2_)" d="M401.596,227.988c0.108,2.956,2.544,5.391,5.5,5.5c1.362,0.049,2.5-1.175,2.5-2.5
		c0-1.401-1.139-2.451-2.5-2.5c-0.279-0.016-0.223-0.003,0.166,0.035c-0.156-0.028-0.653-0.243-0.045,0.029
		c-0.104-0.05-0.206-0.106-0.304-0.168c-0.508-0.299,0.391,0.358-0.049-0.04c-0.085-0.081-0.166-0.167-0.243-0.256
		c0.416,0.46,0.073,0.074-0.01-0.068c-0.298-0.505,0.162,0.515-0.011-0.035c-0.172-0.55,0.017,0.574-0.004,0.003
		c-0.05-1.361-1.1-2.5-2.5-2.5C402.771,225.488,401.546,226.625,401.596,227.988"/>
	<path clip-path="url(#SVGID_2_)" d="M419.095,233.488c3.833-0.002,7.499-0.416,11.164-1.589c3.058-0.98,1.751-5.808-1.329-4.822
		c-3.271,1.048-6.418,1.409-9.835,1.411C415.871,228.49,415.87,233.49,419.095,233.488"/>
	<path clip-path="url(#SVGID_2_)" d="M444.862,220.756c2.289-2.365,4.014-5.515,6.994-7.108c2.843-1.522,0.318-5.838-2.524-4.318
		c-3.422,1.831-5.387,5.185-8.005,7.891C439.085,219.537,442.616,223.077,444.862,220.756"/>
	<path clip-path="url(#SVGID_2_)" d="M449.094,212.489c12.079-0.321,38.833-14.822,22.767-28.266
		c-2.455-2.054-6.011,1.464-3.536,3.535c11.659,9.756-11.265,19.519-19.231,19.731C445.875,207.574,445.868,212.575,449.094,212.489
		"/>
	<path clip-path="url(#SVGID_2_)" d="M459.832,164.333c-2.506,1.4-4.761,5.44-0.772,6.776c3.468,1.162,5.535-2.301,4.737-5.309
		c-1.549-5.837-9.606-10.507-14.745-12.65c-6.448-2.688-13.909-0.109-20.121,1.932c-3.049,1.001-1.744,5.83,1.329,4.821
		c5.294-1.739,10.91-3.806,16.489-2.268c3.102,0.854,5.895,3.11,8.345,5.088c1.3,1.049,2.4,2.174,3.377,3.536
		c0.297,1.107,0.897,1.125,1.799,0.055c0.164,2.541,0.859,3.32,2.085,2.336C465.169,167.078,462.648,162.759,459.832,164.333"/>
	<path clip-path="url(#SVGID_2_)" d="M437.936,221.75c7.655,12.465,22.836,10.27,35.347,9.464
		c4.952-0.318,11.606-0.979,15.319,3.044c2.197,2.38,2.243,6.333,2.186,9.34c-0.116,6.176-1.875,12.343-3.606,18.224
		c-0.913,3.1,3.912,4.415,4.821,1.329c4.024-13.668,8.752-35.308-11.098-37.006c-12.174-1.041-30.717,6.001-38.652-6.918
		C440.569,216.485,436.244,218.995,437.936,221.75"/>
	<path clip-path="url(#SVGID_2_)" d="M447.326,216.256c6.709,6.959,15.437,8.253,24.712,8.013c9.32-0.241,19.5-1.833,24.394,7.98
		c1.439,2.886,5.752,0.353,4.318-2.523c-10.014-20.081-36.056-2.659-49.889-17.005C448.62,210.396,445.088,213.937,447.326,216.256"
		/>
	<path clip-path="url(#SVGID_2_)" d="M419.333,182.149c6.562,3.322,12.905,7.246,17.493,13.108c1.986,2.538,5.498-1.027,3.535-3.535
		c-4.819-6.158-11.61-10.4-18.505-13.89C418.987,176.379,416.457,180.692,419.333,182.149"/>
	<path clip-path="url(#SVGID_2_)" d="M465.593,209.489c8.36,0.425,17.648-0.167,23.103-7.337c4.507-5.926,3.119-14.956,2.004-21.709
		c-1.668-10.102-4.865-18.778-12.849-25.565c-7.572-6.438-17.317-9.929-26.255-13.976c-4.617-2.091-9.229-4.248-13.986-6.01
		c-1.978-0.732-4.867-1.702-6.869-0.475c-3.565,2.184-3.275,9.063-4.978,12.536c-7.366,15.034-24.613,13.367-38.001,19.323
		c-9.488,4.221-10.669,12.645-5.323,20.976c1.735,2.703,6.064,0.198,4.317-2.524c-4.094-6.379-3.372-10.85,3.53-14.135
		c6.554-3.119,14.132-4.1,21.073-6.058c6.775-1.91,11.638-4.912,15.909-10.662c2.163-2.911,3.804-6.035,4.843-9.513
		c0.409-1.374,0.423-4.722,1.211-5.685c-0.421,0.515,0.628,0.31,1.512,0.558c1.983,0.556,3.905,1.419,5.793,2.224
		c5.264,2.244,10.454,4.669,15.683,6.994c9.059,4.03,18.564,8.345,24.258,16.854c5.037,7.528,6.724,18.956,6.041,27.899
		c-0.836,10.93-12.323,11.727-21.016,11.285C462.369,204.325,462.385,209.326,465.593,209.489"/>
	<path clip-path="url(#SVGID_2_)" d="M397.858,165.65c10.1-5.928,19.97-15.45,32.572-11.748c3.101,0.912,4.416-3.914,1.329-4.821
		c-14.235-4.182-24.937,5.509-36.424,12.252C392.556,162.963,395.071,167.286,397.858,165.65"/>
	<path clip-path="url(#SVGID_2_)" d="M461.758,147.903c8.708-3.446,14.631,2.3,14.834,11.089c0.075,3.219,5.075,3.226,5,0
		c-0.271-11.756-9.322-20.596-21.163-15.91C457.467,144.254,458.757,149.091,461.758,147.903"/>
</g>
</svg>
