<?xml version="1.0" encoding="utf-8"?>
<!-- Generator: Adobe Illustrator 15.1.0, SVG Export Plug-In . SVG Version: 6.00 Build 0)  -->
<!DOCTYPE svg PUBLIC "-//W3C//DTD SVG 1.1//EN" "http://www.w3.org/Graphics/SVG/1.1/DTD/svg11.dtd">
<svg version="1.1" id="Layer_1" xmlns="http://www.w3.org/2000/svg" xmlns:xlink="http://www.w3.org/1999/xlink" x="0px" y="0px"
	 width="1095.38px" height="796.386px" viewBox="0 0 1095.38 796.386" enable-background="new 0 0 1095.38 796.386"
	 xml:space="preserve">
<g>
	<defs>
		<rect id="SVGID_1_" width="1095.38" height="796.386"/>
	</defs>
	<clipPath id="SVGID_2_">
		<use xlink:href="#SVGID_1_"  overflow="visible"/>
	</clipPath>
	<path clip-path="url(#SVGID_2_)" d="M706.382,531.384c0.031-13.851,0.404-27.655-0.781-41.481
		c-0.857-10.004-1.748-29.779-13.446-33.815c-14.616-5.043-19.595,24.157-21.185,32.588c-2.766,14.653-4.725,29.586-6.713,44.365
		c-0.721,5.351-1.424,10.726-1.672,16.122c-0.107,2.344-0.467,6.931,2.633,7.633c3.141,0.708,4.473-4.112,1.33-4.823
		c1.6,0.362,1.061,1.407,1.004-0.796c-0.037-1.465,0.072-2.938,0.17-4.398c0.305-4.516,0.9-9.021,1.504-13.506
		c0.97-7.22,1.785-14.576,3.164-21.729c2.984-15.473,2.701-34.146,12.104-47.497c3.943-5.6,8.471-2.941,11.014,2.021
		c3.344,6.524,4.162,14.633,4.902,21.806c1.467,14.209,1.105,28.489,0.977,42.745c-0.002,0.256-0.004,0.51-0.004,0.766
		C701.374,534.607,706.374,534.607,706.382,531.384"/>
	<path clip-path="url(#SVGID_2_)" d="M707.548,578.794c12.451-2.354,24.611-6.246,37.051-8.738
		c7.549-1.514,15.203-2.766,22.912-2.961c3.455-0.086,11.637-0.488,12.828,3.986c0.756,2.836-7.719,7.453-9.533,8.604
		c-7.02,4.463-14.506,8.215-21.944,11.916c-12.211,6.076-25.938,10.91-37.241,18.623c-2.645,1.805-0.146,6.141,2.523,4.316
		c4.884-3.33,10.509-5.713,15.812-8.268c8.158-3.932,16.35-7.795,24.441-11.861c7.432-3.736,14.873-7.6,21.771-12.268
		c3.396-2.297,8.914-5.822,9.195-10.447c1.322-21.833-65.359-1.023-75.025,1.352c-1.367,0.336-2.738,0.662-4.121,0.924
		C703.052,574.569,704.396,579.388,707.548,578.794"/>
	<path clip-path="url(#SVGID_2_)" d="M724.548,533.796c11.576-3.916,22.795-8.807,34.396-12.66
		c12.096-4.018,25.592-7.536,38.273-4.339l-1.746-3.076c-2.061,5.458-6.664,9.956-10.735,13.958
		c-6.046,5.937-12.765,11.194-19.616,16.158c-6.611,4.785-13.488,9.228-20.586,13.261c-4.791,2.72-9.9,5.62-15.316,6.874
		c-3.141,0.727-1.809,5.549,1.33,4.823c5.502-1.276,10.705-4.175,15.607-6.875c7.811-4.306,15.27-9.265,22.488-14.49
		c7.16-5.186,14.08-10.768,20.389-16.964c4.5-4.42,9.004-9.436,11.262-15.415c0.473-1.259-0.516-2.767-1.746-3.076
		c-25.504-6.429-51.916,9.079-75.33,16.999C720.181,530.001,721.484,534.83,724.548,533.796"/>
	<path clip-path="url(#SVGID_2_)" d="M721.218,529.974c-5.756,0.957-11.49,1.838-17.336,1.91c-3.221,0.041-3.226,5.041,0,5
		c6.287-0.078,12.477-1.06,18.666-2.088C725.722,534.266,724.37,529.448,721.218,529.974"/>
	<path clip-path="url(#SVGID_2_)" d="M662.382,556.383c-1.869,20.878-0.336,42.097,1.01,62.962
		c1.082,16.777,3.211,33.734,2.977,50.564c-0.219,15.766-1.221,31.48-0.789,47.26c0.23,8.42,0.807,16.885,2.375,25.172
		c1.027,5.432,2.678,12.121,7.159,15.809c0.968,0.795,2.616,1.129,3.536,0c21.596-26.484,12.709-62.232,20.645-93.102
		c-1.523,0.197-3.047,0.396-4.57,0.596c11.183,20.035,24.449,38.803,35.633,58.795c3.025,5.408,6.387,11.98,11.57,15.646
		c5.228,3.699,8.705-4.178,8.943-8.16c0.395-6.645-2.801-13.701-5.562-19.568c-4.299-9.129-8.189-18.375-11.748-27.842
		c-8.809-23.42-16.205-49.459-10.266-74.467c0.744-3.137-4.078-4.467-4.822-1.33c-4.918,20.709-1.11,41.938,5.039,61.953
		c3.291,10.712,7.428,21.152,11.684,31.508c2.559,6.225,5.846,12.129,8.215,18.42c1.145,3.041,2.081,6.234,2.408,9.475
		c0.15,1.486,0.135,3.137-0.469,4.531c-0.223,0.521-0.569,0.941-1.041,1.256c0.357-0.26,0.533,0.266-0.35-0.473
		c-4.723-3.949-7.804-10.723-10.697-16.031c-10.486-19.229-23.522-37.07-34.221-56.236c-1.05-1.881-4.033-1.484-4.568,0.598
		c-7.604,29.582,1.254,65.617-19.358,90.896h3.536c-4.291-3.529-5.305-10.322-6.215-15.461c-1.484-8.377-1.77-16.992-1.938-25.48
		c-0.3-14.957,0.748-29.865,0.883-44.811c0.154-16.941-1.988-34.018-3.078-50.908c-1.316-20.402-2.748-41.158-0.92-61.571
		C667.671,553.169,662.667,553.198,662.382,556.383"/>
	<polygon clip-path="url(#SVGID_2_)" points="682.882,491.386 710.882,470.386 715.882,494.386 687.882,512.385 	"/>
	<path clip-path="url(#SVGID_2_)" d="M913.62,476.228c-28.617,21.468-57.152,43.146-83.506,67.388
		c-1.209,1.111-0.824,3.119,0.506,3.926c20.375,12.364,38.162,28.511,59.354,39.628c9.686,5.082,20.125,8.922,31.102,9.666
		c10.746,0.73,20.945-3.113,30.557-7.494c11.047-5.035,21.414-11.424,32.131-17.1c7.503-3.977,15.619-5.895,23.699-8.365
		c9.195-2.812,35.035-10.536,25.365-24.959c-4.822-7.193-14.412-11.398-21.938-14.951c-9.734-4.596-19.861-8.346-29.956-12.062
		c-11.622-4.276-23.198-8.687-34.71-13.262c-6.963-2.768-13.581-6.076-20.072-9.816c-5.531-3.187-11.924-6.957-15.111-12.701
		c-1.562-2.82-5.881-0.299-4.316,2.523c5.207,9.39,16.996,14.795,26.115,19.486c11.975,6.161,25.002,10.089,37.47,15.105
		c16.806,6.76,34.444,11.83,49.985,21.387c4.898,3.012,13.148,8.599,7.312,14.57c-5.793,5.931-15.945,8.193-23.596,10.502
		c-7.852,2.369-15.471,4.414-22.771,8.225c-10.765,5.618-21.121,11.953-32.131,17.102c-9.77,4.566-19.729,7.631-30.591,6.604
		c-11.079-1.047-21.663-6.221-31.216-11.604c-19.072-10.748-35.482-25.466-54.159-36.8c0.171,1.309,0.339,2.617,0.507,3.926
		c26.043-23.954,54.215-45.393,82.493-66.606C918.69,478.634,916.202,474.291,913.62,476.228"/>
	<path clip-path="url(#SVGID_2_)" d="M919.382,595.382c-5.453,41.369-2.045,83.434-2,125c0.004,3.225,5.004,3.225,5,0
		c-0.045-41.566-3.453-83.631,2-125C924.804,592.192,919.798,592.233,919.382,595.382"/>
	<path clip-path="url(#SVGID_2_)" d="M921.649,713.614c-25.273-19.773-57.877-31.049-78-57c-1.973-2.545-5.484,1.021-3.535,3.535
		c20.189,26.035,52.681,37.189,78,57C920.622,719.112,924.188,715.601,921.649,713.614"/>
	<path clip-path="url(#SVGID_2_)" d="M847.382,661.382c-0.18-41.15-11.873-81.764-8-122.999c0.303-3.21-4.701-3.181-5,0
		c-3.873,41.235,7.82,81.849,8,122.999C842.396,664.606,847.396,664.606,847.382,661.382"/>
	<path clip-path="url(#SVGID_2_)" d="M1027.724,547.645c3.863,8.369,3.539,18.276,2.934,27.257
		c-0.779,11.564-2.932,23.023-5.023,34.406c-1.992,10.828-4.092,21.641-5.461,32.57c-1.035,8.258-1.771,17.006,0.299,25.17
		c0.793,3.123,5.615,1.797,4.822-1.33c-2.176-8.572-0.939-17.971,0.238-26.604c1.598-11.703,4.01-23.287,6.089-34.907
		c3.286-18.354,8.627-41.31,0.418-59.086C1030.69,542.197,1026.382,544.738,1027.724,547.645"/>
	<path clip-path="url(#SVGID_2_)" d="M923.548,718.794c8.059-1.375,14.711-6.572,21.596-10.631
		c8.648-5.096,16.943-10.82,25.562-15.998c17.059-10.25,34.543-19.924,52.342-28.826c2.885-1.441,0.353-5.754-2.522-4.316
		c-16.677,8.34-32.995,17.428-49.067,26.877c-8.232,4.842-16.326,9.914-24.252,15.246c-3.883,2.611-8.095,4.828-12.086,7.297
		c-4.047,2.504-8.168,4.723-12.902,5.529C919.044,714.513,920.394,719.331,923.548,718.794"/>
	<path clip-path="url(#SVGID_2_)" d="M582.792,308.226c-3.688-9.88-13.248-15.468-22.232-20.029c0.449-1.92,0.815-3.893,1.054-5.942
		c0.169-1.449,0.226-2.908,0.269-4.365c0.032-1.071-0.781-2.168-1.836-2.41c-43.126-9.927-90.023-13.649-133.161-1.867
		c-11.704,3.197-22.135,9.358-32.464,15.619c-1.319,0.799-7.462,4.544-11.156,8.291c-1.848-0.627-4.277,1.402-3.041,3.629
		c0.093,0.168,0.196,0.326,0.29,0.493c-0.296,1.285,0.202,2.398,1.892,3.177c3.228,5.101,7.049,9.668,11.5,13.64
		c-2.727,10.605-9.75,19.715-13.934,29.764c-1.24,2.976,3.6,4.26,4.821,1.329c3.918-9.409,10.26-17.873,13.323-27.631
		c1.083,0.801,2.197,1.572,3.348,2.309c6.203,3.974,13.161,6.638,20.263,8.685c-1.179,8.259-3.883,16.195-5.755,24.308
		c-0.724,3.138,4.096,4.47,4.821,1.329c1.88-8.147,4.436-16.084,5.742-24.342c1.46,0.369,2.921,0.721,4.376,1.056
		c10.007,2.308,19.929,3.82,29.935,4.328c-0.147,8.228-0.753,16.485-1.874,24.629c-0.434,3.152,4.383,4.512,4.821,1.329
		c1.176-8.542,1.879-17.172,2.048-25.797c6.106,0.102,12.253-0.17,18.48-0.883c1.873-0.214,3.774-0.473,5.69-0.768
		c-0.011,0.042-0.03,0.075-0.039,0.119c-1.894,8.532-1.149,17.071-0.09,25.664c0.389,3.158,5.394,3.196,5,0
		c-0.999-8.105-1.878-16.274-0.089-24.335c0.198-0.891-0.056-1.628-0.525-2.167c8.209-1.511,16.617-3.78,24.595-6.957
		c3.787,7.574,7.574,15.147,11.361,22.721c1.442,2.885,5.755,0.352,4.317-2.523c-3.694-7.389-7.389-14.778-11.083-22.166
		c7.188-3.262,13.899-7.317,19.646-12.276c6.11,6.222,12.035,12.692,17.511,19.471c2.025,2.509,5.541-1.052,3.535-3.535
		c-5.439-6.735-11.324-13.165-17.393-19.349c5.467-5.536,9.778-12.063,12.398-19.698c7.418,3.764,15.821,8.457,18.815,16.479
		C579.089,312.548,583.923,311.253,582.792,308.226 M464.625,334.763c-0.696-0.349-1.558-0.375-2.284-0.079
		c-9.134-0.408-18.201-1.695-27.361-3.632c-9.991-2.113-19.91-4.882-28.878-9.874c-8.094-4.505-14.422-11.094-19.323-18.793
		c-0.067-0.449-0.254-0.87-0.574-1.216c0.226-0.219,0.468-0.427,0.68-0.626c1.63-1.54,3.54-2.792,5.396-4.037
		c4.756-3.191,9.763-6.017,14.771-8.79c3.672-2.034,7.382-4.002,11.116-5.918c2.419-1.241,5.06-2.206,7.787-3.014
		c-0.535,4.888,12.309,26.106,45.427,26.106c29.623,0,40.28-23.683,43.129-32.079c14.303,1.487,28.482,3.948,42.271,7.053
		c-2.453,35.481-41.886,50.283-72.46,54.011C477.677,334.685,471.131,334.948,464.625,334.763"/>
	<path clip-path="url(#SVGID_2_)" d="M621.712,300.599c72.112,37.733,152.429,59.549,220.062,105.815
		c2.698,1.846,5.401-1.627,3.141-3.891c-5.701-5.713-10.053-12.611-11.918-20.517c-1.603,0.406-3.204,0.813-4.807,1.221
		c3.957,7.577,8.877,14.591,12.832,22.166c0.466-1.084,0.932-2.166,1.397-3.248c-10.034,2.806-20.603-2.787-30.642-2.953
		c-3.174-0.052-3.961,4.892-0.746,4.944c11.128,0.185,22.057,5.783,33.237,2.654c1.224-0.341,1.983-2.128,1.397-3.247
		c-3.957-7.577-8.875-14.591-12.832-22.167c-1.204-2.307-5.506-1.748-4.805,1.221c2.193,9.3,7.028,17.086,13.744,23.815
		c1.048-1.297,2.095-2.595,3.141-3.891c-68.023-46.535-148.646-68.547-221.169-106.493
		C620.88,294.532,618.872,299.114,621.712,300.599"/>
	<path clip-path="url(#SVGID_2_)" d="M393.051,393.092c22.591,32.204,47.854,62.263,71.609,93.576
		c20.812,27.434,33.899,59.995,58.04,85.005c2.053,2.126,5.157-0.948,3.727-3.272c-5.279-8.576-15.497-13.94-25.384-14.878
		c-2.692-0.254-4.271,3.372-1.594,4.692c10.34,5.103,20.801,10.091,29.546,17.745c1.639,1.437,4.331,0.136,4.145-2.065
		c-1.046-12.462-4.443-24.568-7.349-36.689c-0.656-2.741-5.432-1.755-4.853,1.017c2.058,9.852,1.13,20.053,3.593,29.838
		c0.787,3.125,5.504,1.461,4.72-1.647c-2.349-9.338-1.358-19.151-3.327-28.572c-1.617,0.34-3.235,0.678-4.853,1.015
		c2.807,11.709,6.07,23.379,7.083,35.42c1.382-0.688,2.763-1.378,4.146-2.066c-9.069-7.94-19.895-13.176-30.623-18.47
		c-0.53,1.562-1.062,3.127-1.593,4.69c8.663,0.822,17.546,5.211,22.195,12.764c1.242-1.091,2.484-2.182,3.726-3.272
		c-23.767-24.621-36.925-56.834-57.198-84.044c-23.48-31.515-49.013-61.365-71.608-93.575
		C395.348,387.662,391.196,390.448,393.051,393.092"/>
	<path clip-path="url(#SVGID_2_)" d="M147.091,78.734c-14.043-11.783-34.486-4.037-46.691,6.711
		c-4.559,4.015-9.351,9.936-8.28,16.403c1.309,7.895,12.769,8.297,18.705,8.152c3.224-0.079,3.223-4.916,0-5
		c-21.638-0.56-41.63,17.587-50.347,36.18c-3.872,8.259-5.665,17.765-1.941,26.379c4.439,10.267,16.714,13.521,26.789,14.438
		c-0.221-1.637-0.443-3.274-0.664-4.911c-16.888,3.684-27.351,21.984-29.3,38.031c-0.765,6.294,0.192,14.157,5.708,18.169
		c6.795,4.945,15.949,1.318,22.518-2.133l-3.42-3.42c-9.561,13.404-14.106,34.33,3.902,43.002
		c17.712,8.53,36.536-4.529,45.413-19.48c-1.523-0.642-3.047-1.284-4.57-1.926c-1.267,8.631-1.793,18.509,3.516,25.995
		c4.122,5.812,11.099,7.855,17.933,7.8c16.056-0.127,33.062-9.869,44.227-20.864c-1.423-0.589-2.846-1.178-4.268-1.768
		c1.137,8.576,3.605,16.989,10.865,22.307c5.906,4.328,13.944,4.057,20.793,2.942c8.635-1.405,16.909-4.885,24.961-8.173
		c4.696-1.917,9.392-3.759,14.203-5.377c1.834-0.618,3.69-1.174,5.585-1.567c0.486-0.1,0.964-0.104,1.456-0.089
		c-0.08-0.002-0.382-0.399-0.088,0.032c3.73,5.467,7.487,7.995,14.053,9.938c6.387,1.89,13.34,0.844,19.752-0.358
		c17.604-3.3,35.482-10.722,50.169-20.962c8.174-5.698,18.33-14.621,17.242-25.691c-1.054,0.803-2.109,1.607-3.164,2.41
		c6.236,1.11,12.826-0.239,18.897-1.69c7.656-1.829,15.231-4.61,22.119-8.435c4.557-2.531,10.246-6.402,11.258-11.933
		c1.145-6.253-4.997-10.242-9.85-12.509v4.317c7.332-3.749,13.871-9.316,19.951-14.797c7.686-6.928,14.828-14.708,20.383-23.466
		c4.168-6.571,7.81-14.893,5.565-22.764c-2.712-9.509-13.924-12.728-22.497-14.039v4.822c11.221-3.579,23.211-9.277,27.877-20.85
		c3.483-8.639-0.361-17.935-5.779-24.761c-14.439-18.19-42.742-23.487-63.023-12.956c1.224,0.498,2.449,0.996,3.673,1.494
		c-16.755-41.705-76.484-14.016-105.071-3.246c0.811,1.393,1.622,2.786,2.433,4.178c3.568-4.195,10.274-12.639,3.844-17.424
		c-5.558-4.137-15.316-1.891-21.478-0.843c-18.301,3.11-36.431,9.099-53.795,15.589l3.075,3.075
		c3.388-19.796-19.971-24.92-34.999-24.005c-14.588,0.888-38.545,9.432-31.319,28.505c1.131,2.985,5.966,1.692,4.821-1.329
		c-5.778-15.253,14.379-21.119,25.679-22.115c11.082-0.976,33.756,1.49,30.997,17.615c-0.288,1.684,1.112,3.809,3.075,3.075
		c14.803-5.532,30.018-10.328,45.416-13.886c7.169-1.656,15.462-3.797,22.866-2.584c6.854,1.121,0.805,7.826-1.717,10.792
		c-1.46,1.717-0.125,5.142,2.432,4.178c16.788-6.324,33.367-13.173,51.049-16.657c17.753-3.497,40.027-3.112,47.87,16.411
		c0.617,1.534,2.121,2.3,3.673,1.494c17.833-9.26,40.667-4.475,54.644,9.574c5.463,5.491,9.378,13.216,7.296,21.047
		c-2.82,10.602-15.546,15.833-24.869,18.807c-2.146,0.686-2.615,4.422,0,4.822c7.404,1.132,17.361,3.325,19.33,11.798
		c1.664,7.166-3.618,15.223-7.447,20.771c-8.935,12.947-22.35,26.135-36.478,33.358c-1.588,0.811-1.678,3.533,0,4.317
		c3.207,1.498,9.222,4.297,6.937,8.744c-2.277,4.432-8.142,7.108-12.385,9.148c-9.22,4.431-22.693,9.393-33.125,7.537
		c-1.449-0.258-3.336,0.661-3.164,2.411c0.678,6.907-4.249,12.46-9.017,16.816c-6.695,6.116-14.936,10.592-23.077,14.457
		c-8.557,4.063-17.585,7.224-26.779,9.496c-6.424,1.588-13.848,3.218-20.458,1.818c-3.894-0.825-8.253-2.313-10.969-5.367
		c-1.101-1.239-1.431-3.001-2.788-4.049c-1.757-1.36-3.739-1.207-5.825-0.863c-5.118,0.846-10.295,3.082-15.067,5.014
		c-8.143,3.297-16.227,6.781-24.74,9.031c-7.327,1.937-16.4,3.132-22.73-2.02c-5.042-4.103-6.729-11.21-7.541-17.335
		c-0.272-2.053-2.561-3.448-4.268-1.767c-9.81,9.66-23.686,17.499-37.49,19.184c-5.576,0.68-11.632,0.06-15.832-4.009
		c-5.868-5.686-5.068-15.945-3.996-23.242c0.391-2.665-3.021-4.535-4.57-1.926c-7.626,12.844-22.204,23.546-37.668,18.059
		c-5.655-2.007-9.54-6.854-10.802-12.614c-1.86-8.493,3.067-17.3,7.79-23.921c1.553-2.178-1.373-4.496-3.42-3.42
		c-4.858,2.551-12.868,6.329-17.765,1.831c-3.88-3.564-3.463-10.464-2.708-15.144c2.161-13.388,11.344-28.55,25.399-31.616
		c2.934-0.64,1.98-4.67-0.665-4.91c-8.784-0.8-19.22-3.561-22.749-12.657c-2.923-7.531-0.09-16.205,3.385-23.021
		c8.169-16.024,25.941-31.809,44.863-31.319v-5c-3.453,0.085-13.422,0.599-13.91-4.721c-0.445-4.854,4.964-9.572,8.227-12.341
		c9.767-8.289,27.253-15.032,38.414-5.669C146.008,84.327,149.564,80.809,147.091,78.734"/>
	<path clip-path="url(#SVGID_2_)" d="M263.567,184.767c-0.108,0.042-0.215,0.077-0.327,0.107c-0.258,0.052-0.133,0.036,0.377-0.049
		c0.52,0.097,0.662,0.116,0.426,0.057c0.741,0.225,1.23,0.706,1.463,1.445c0.043,0.524,0.066,0.653,0.07,0.387
		c-0.027,0.798-0.017,0.283,0.096-0.003c0.5-1.271-0.538-2.743-1.746-3.075c-1.421-0.391-2.576,0.479-3.075,1.746
		c-0.509,1.289-0.27,2.504,0.582,3.569c0.775,0.968,2.401,1.044,3.463,0.637c1.272-0.486,2.134-1.665,1.746-3.075
		C266.307,185.295,264.841,184.279,263.567,184.767"/>
	<path clip-path="url(#SVGID_2_)" d="M265.183,179.273c0.086-0.205,0.172-0.41,0.258-0.615c0.529-1.259-0.56-2.749-1.746-3.075
		c-0.645-0.178-1.349-0.086-1.926,0.252c-0.617,0.362-0.883,0.862-1.149,1.494c-0.086,0.205-0.172,0.41-0.258,0.615
		c-0.529,1.259,0.56,2.749,1.746,3.075c0.645,0.178,1.349,0.087,1.926-0.252C264.651,180.405,264.917,179.906,265.183,179.273"/>
	<path clip-path="url(#SVGID_2_)" d="M264.758,168.246c0.532-1.359-0.252-3.058-1.505-3.696c-1.215-0.618-2.703-0.328-3.421,0.897
		c-0.658,1.124-0.317,2.803,0.897,3.421c0.394,0.215,0.208,0.012-0.557-0.611c-0.193-1.052-0.283-1.364-0.271-0.938
		c-0.011-0.806,0.128-0.638,0.036-0.402c-0.498,1.27,0.535,2.742,1.746,3.075C263.101,170.382,264.262,169.514,264.758,168.246"/>
	<path clip-path="url(#SVGID_2_)" d="M265.268,151.944c-0.119-0.291-0.237-0.583-0.356-0.874c-0.258-0.632-0.536-1.135-1.149-1.494
		c-0.577-0.338-1.281-0.429-1.926-0.252c-1.197,0.329-2.261,1.811-1.746,3.076c0.118,0.291,0.237,0.582,0.356,0.873
		c0.258,0.633,0.536,1.135,1.149,1.494c0.577,0.339,1.281,0.43,1.926,0.252C264.719,154.69,265.783,153.208,265.268,151.944"/>
	<path clip-path="url(#SVGID_2_)" d="M259.262,141.301c3.224,0,3.224-5,0-5S256.038,141.301,259.262,141.301"/>
	<path clip-path="url(#SVGID_2_)" d="M251.9,129.959l-0.873,0.356c-0.633,0.258-1.135,0.536-1.494,1.149
		c-0.339,0.577-0.43,1.281-0.252,1.926c0.329,1.197,1.811,2.262,3.075,1.746l0.873-0.356c0.633-0.258,1.135-0.536,1.494-1.149
		c0.339-0.577,0.43-1.281,0.252-1.926C254.646,130.508,253.165,129.443,251.9,129.959"/>
	<path clip-path="url(#SVGID_2_)" d="M240.218,126.1c-0.2,0.409,0.439-0.454,0.118-0.12c0.105-0.079,0.209-0.159,0.314-0.238
		c-0.223,0.127-0.135,0.099,0.264-0.085c-0.22,0.09-0.579,0.049,0.182,0.002c-0.463,0.028,0.629,0.157,0.2,0.005
		c-1.286-0.455-2.734,0.503-3.076,1.746c-0.38,1.385,0.463,2.621,1.747,3.075c1.649,0.584,3.798-0.29,4.568-1.862
		c0.6-1.223,0.342-2.694-0.897-3.42C242.529,124.553,240.817,124.877,240.218,126.1"/>
	<path clip-path="url(#SVGID_2_)" d="M232.287,131.594c0.688,0.379,0.401-0.173-0.861-1.658c-0.007,0.253,0.008,0.146,0.047-0.32
		c-0.049,0.221-0.15,0.435-0.237,0.643c-0.527,1.259,0.558,2.748,1.746,3.075c0.645,0.177,1.349,0.086,1.926-0.252
		c0.617-0.362,0.884-0.862,1.149-1.494c0.65-1.554,0.4-3.469-1.247-4.311c-1.212-0.621-2.703-0.327-3.42,0.897
		C230.731,129.299,231.075,130.974,232.287,131.594"/>
	<path clip-path="url(#SVGID_2_)" d="M226.032,137.472c-0.172,0.41-0.344,0.819-0.517,1.229c-0.53,1.258,0.561,2.749,1.746,3.075
		c0.646,0.178,1.35,0.087,1.927-0.252c0.617-0.362,0.882-0.862,1.149-1.494c0.172-0.41,0.344-0.819,0.516-1.229
		c0.529-1.259-0.559-2.749-1.746-3.075c-0.645-0.178-1.349-0.087-1.926,0.252C226.564,136.339,226.297,136.839,226.032,137.472"/>
	<path clip-path="url(#SVGID_2_)" d="M221.025,148.99c0.06,0.163,0.109,0.321,0.147,0.49c-0.149-0.658-0.045-0.365-0.05-0.137
		c-0.01,0.442,0.119-0.673,0.039-0.319c-0.01,0.042-0.023,0.084-0.038,0.124c-0.501,1.27,0.538,2.743,1.746,3.075
		c1.421,0.392,2.575-0.479,3.075-1.746c0.331-0.838,0.205-1.999-0.098-2.816c-0.472-1.277-1.675-2.131-3.075-1.746
		C221.543,146.253,220.551,147.711,221.025,148.99"/>
	<path clip-path="url(#SVGID_2_)" d="M217.344,161.183c0.097,0.238,0.2,0.474,0.263,0.724c-0.024-0.17-0.048-0.341-0.072-0.511
		c0.096-0.542,0.115-0.69,0.057-0.443c-0.034,0.133-0.097,0.262-0.15,0.389c-0.526,1.259,0.558,2.748,1.746,3.075
		c0.645,0.178,1.349,0.086,1.927-0.252c0.616-0.361,0.884-0.861,1.148-1.494c0.396-0.949,0.28-1.89-0.098-2.817
		c-0.257-0.633-0.536-1.135-1.149-1.494c-0.577-0.339-1.281-0.43-1.926-0.252C217.893,158.437,216.829,159.918,217.344,161.183"/>
	<path clip-path="url(#SVGID_2_)" d="M218.287,173.439c0.191,0.08,0.382,0.161,0.573,0.241c0.057,0.024,0.114,0.048,0.171,0.072
		c0.407,0.171-0.653-0.276-0.112-0.047c0.652,0.275,1.213,0.448,1.927,0.252c0.625-0.172,1.167-0.59,1.494-1.149
		c0.621-1.06,0.36-2.89-0.897-3.421c-0.609-0.257-1.218-0.513-1.827-0.769c-1.259-0.529-2.749,0.559-3.075,1.746
		c-0.178,0.645-0.087,1.349,0.252,1.926C217.154,172.907,217.655,173.173,218.287,173.439"/>
	<path clip-path="url(#SVGID_2_)" d="M209.891,175.464c-0.201,0.409,0.439-0.454,0.118-0.12c0.104-0.08,0.209-0.159,0.314-0.238
		c-0.223,0.127-0.135,0.099,0.264-0.085c-0.22,0.09-0.578,0.048,0.182,0.002c-0.463,0.028,0.628,0.156,0.199,0.004
		c-1.285-0.456-2.733,0.504-3.075,1.746c-0.381,1.386,0.463,2.62,1.746,3.075c1.65,0.585,3.798-0.29,4.569-1.861
		c0.601-1.223,0.342-2.695-0.897-3.42C212.201,173.917,210.491,174.241,209.891,175.464"/>
	<path clip-path="url(#SVGID_2_)" d="M197.319,180.888c0.097,0.238,0.201,0.474,0.263,0.724c-0.024-0.17-0.048-0.341-0.072-0.511
		c0.097-0.542,0.115-0.69,0.057-0.443c-0.034,0.133-0.098,0.263-0.151,0.389c-0.528,1.259,0.56,2.749,1.746,3.075
		c0.645,0.178,1.349,0.087,1.927-0.252c0.617-0.361,0.883-0.861,1.148-1.494c0.398-0.948,0.281-1.89-0.097-2.817
		c-0.258-0.633-0.536-1.135-1.149-1.494c-0.577-0.339-1.281-0.43-1.926-0.252C197.868,178.142,196.804,179.624,197.319,180.888"/>
	<path clip-path="url(#SVGID_2_)" d="M193.081,190.446c0.132,0.3,0.302,0.567,0.492,0.833c0.062,0.087,0.119,0.175,0.174,0.267
		c-0.162-0.283-0.24-0.587-0.234-0.913c0.1-0.502,0.11-0.624,0.027-0.368c-0.45,1.287,0.5,2.733,1.747,3.076
		c1.381,0.379,2.625-0.461,3.075-1.747c0.307-0.878,0.106-1.769-0.298-2.572c-0.193-0.385-0.489-0.699-0.666-1.099
		c-0.549-1.248-2.346-1.526-3.42-0.897c-0.559,0.327-0.977,0.869-1.149,1.494C192.635,189.225,192.798,189.803,193.081,190.446"/>
	<path clip-path="url(#SVGID_2_)" d="M187.48,197.804c0.085,0.225,0.159,0.813,0.071-0.013c0.006,0.084,0.006,0.167,0.001,0.251
		c0.073-0.451,0.083-0.543,0.032-0.277c-0.101,0.493-0.33,0.966-0.523,1.426c-0.529,1.259,0.56,2.749,1.746,3.075
		c0.645,0.178,1.349,0.087,1.926-0.252c0.617-0.361,0.883-0.861,1.149-1.494c0.544-1.294,0.942-2.66,0.419-4.045
		c-0.48-1.274-1.669-2.133-3.075-1.746C188.003,195.065,187,196.528,187.48,197.804"/>
	<path clip-path="url(#SVGID_2_)" d="M182.668,209.638l-1.034,2.458c-0.529,1.259,0.56,2.749,1.746,3.075
		c0.645,0.178,1.349,0.087,1.926-0.252c0.618-0.362,0.883-0.861,1.149-1.494l1.034-2.458c0.53-1.259-0.56-2.749-1.746-3.075
		c-0.645-0.178-1.349-0.087-1.926,0.252C183.199,208.506,182.934,209.006,182.668,209.638"/>
	<path clip-path="url(#SVGID_2_)" d="M177.338,225.36c0.061,0.165,0.108,0.323,0.145,0.495l-0.06-0.363
		c-0.01,0.274,0.008,0.192,0.054-0.246c-0.047,0.308-0.18,0.602-0.299,0.887c-0.527,1.26,0.558,2.748,1.746,3.075
		c0.645,0.178,1.349,0.087,1.926-0.252c0.617-0.361,0.884-0.861,1.149-1.494c0.455-1.088,0.577-2.306,0.16-3.431
		c-0.472-1.277-1.675-2.131-3.075-1.746C177.855,222.624,176.864,224.082,177.338,225.36"/>
	<path clip-path="url(#SVGID_2_)" d="M177.007,240.696c0.394,0.216,0.208,0.012-0.558-0.611c-0.193-1.052-0.283-1.364-0.272-0.938
		c-0.009-0.806,0.129-0.638,0.037-0.402c-0.497,1.271,0.535,2.742,1.746,3.075c1.417,0.39,2.58-0.478,3.075-1.746
		c0.531-1.359-0.252-3.057-1.505-3.695c-1.214-0.619-2.702-0.329-3.42,0.897C175.452,238.399,175.794,240.078,177.007,240.696"/>
	<path clip-path="url(#SVGID_2_)" d="M174.474,254.53c0.06,0.163,0.108,0.321,0.147,0.49c-0.149-0.658-0.046-0.365-0.051-0.137
		c-0.01,0.443,0.12-0.673,0.04-0.319c-0.01,0.042-0.023,0.085-0.039,0.125c-0.501,1.269,0.538,2.743,1.746,3.075
		c1.421,0.391,2.576-0.48,3.075-1.746c0.331-0.839,0.206-2-0.097-2.817c-0.472-1.277-1.676-2.131-3.075-1.746
		C174.991,251.793,174.001,253.251,174.474,254.53"/>
	<path clip-path="url(#SVGID_2_)" d="M174.983,272.923c3.224,0,3.224-5,0-5S171.759,272.923,174.983,272.923"/>
	<path clip-path="url(#SVGID_2_)" d="M176.799,282.365c3.224,0,3.224-5,0-5S173.575,282.365,176.799,282.365"/>
	<path clip-path="url(#SVGID_2_)" d="M171.804,285.347c-0.206,0.609-0.186,1.268-0.022,1.883c0.025,0.097,0.071,0.191,0.108,0.284
		c0.025,0.062,0.045,0.127,0.06,0.193c0.102-1.027,0.086-1.318-0.048-0.873c-0.435,1.292,0.488,2.73,1.746,3.075
		c1.369,0.377,2.64-0.456,3.075-1.746c0.205-0.608,0.185-1.268,0.022-1.883c-0.025-0.097-0.071-0.191-0.108-0.284
		c-0.025-0.062-0.045-0.127-0.06-0.193c-0.103,1.026-0.086,1.318,0.048,0.873c0.436-1.291-0.488-2.729-1.746-3.075
		C173.509,283.224,172.239,284.057,171.804,285.347"/>
	<path clip-path="url(#SVGID_2_)" d="M171.678,293.854c0.062,0.166,0.111,0.329,0.148,0.502c-0.177-0.846-0.04-0.169-0.043,0.091
		c-0.005,0.574-0.031,1.143,0.001,1.718c0.077,1.36,1.08,2.5,2.5,2.5c1.306,0,2.577-1.138,2.5-2.5
		c-0.067-1.208,0.156-2.478-0.285-3.64c-0.482-1.273-1.668-2.133-3.075-1.746C172.203,291.116,171.195,292.579,171.678,293.854"/>
	<path clip-path="url(#SVGID_2_)" d="M170.616,304.979c0.061,0.165,0.11,0.326,0.149,0.497c-0.171-0.742-0.021-0.113-0.007,0.093
		c0.04,0.598,0.103,1.206,0.312,1.77c0.473,1.277,1.675,2.132,3.075,1.746c1.228-0.337,2.221-1.796,1.746-3.075
		c-0.061-0.165-0.11-0.325-0.15-0.496c0.173,0.74,0.021,0.113,0.007-0.094c-0.039-0.598-0.102-1.206-0.311-1.77
		c-0.471-1.277-1.676-2.131-3.075-1.746C171.133,302.243,170.143,303.701,170.616,304.979"/>
	<path clip-path="url(#SVGID_2_)" d="M174.067,318.101c3.224,0,3.224-5,0-5S170.843,318.101,174.067,318.101"/>
	<path clip-path="url(#SVGID_2_)" d="M173.884,324.202c0.683,1.491,2.277,2.202,3.694,2.797c1.259,0.529,2.749-0.56,3.075-1.746
		c0.178-0.645,0.086-1.349-0.252-1.926c-0.362-0.618-0.861-0.884-1.494-1.149c0.901,0.378,0.218,0.089,0.017-0.005
		c-0.192-0.09-0.378-0.193-0.561-0.302c-0.075-0.045-0.149-0.094-0.221-0.144c0.597,0.402,0.244,0.193,0.099,0.058
		c-0.175-0.188-0.128-0.116,0.141,0.217c-0.076-0.099-0.129-0.211-0.181-0.323c-0.567-1.24-2.334-1.534-3.42-0.897
		C173.52,321.52,173.317,322.963,173.884,324.202"/>
	<path clip-path="url(#SVGID_2_)" d="M185.163,327.83c3.224,0,3.224-5,0-5S181.939,327.83,185.163,327.83"/>
	<path clip-path="url(#SVGID_2_)" d="M191.322,326.993c0.82,0.344,1.639,0.689,2.458,1.033c1.259,0.529,2.75-0.56,3.076-1.746
		c0.177-0.645,0.086-1.349-0.252-1.926c-0.362-0.618-0.862-0.883-1.494-1.149c-0.82-0.345-1.639-0.69-2.459-1.033
		c-1.259-0.529-2.749,0.559-3.075,1.746c-0.178,0.645-0.087,1.349,0.252,1.926C190.189,326.461,190.689,326.728,191.322,326.993"/>
	<path clip-path="url(#SVGID_2_)" d="M198.249,336.656c-0.291,0.119-0.582,0.238-0.873,0.356c-0.633,0.259-1.135,0.537-1.494,1.149
		c-0.339,0.578-0.43,1.282-0.252,1.927c0.329,1.196,1.811,2.262,3.075,1.746c0.291-0.119,0.582-0.238,0.873-0.357
		c0.633-0.258,1.135-0.536,1.494-1.149c0.339-0.577,0.43-1.281,0.252-1.926C200.995,337.206,199.513,336.14,198.249,336.656"/>
	<path clip-path="url(#SVGID_2_)" d="M193.304,344.289c-0.086,0.205-0.172,0.41-0.258,0.615c-0.529,1.259,0.56,2.749,1.746,3.075
		c0.645,0.178,1.349,0.086,1.926-0.252c0.617-0.362,0.883-0.861,1.149-1.494c0.086-0.205,0.172-0.41,0.258-0.615
		c0.529-1.259-0.56-2.749-1.746-3.075c-0.645-0.178-1.349-0.087-1.926,0.252C193.836,343.157,193.57,343.657,193.304,344.289"/>
	<path clip-path="url(#SVGID_2_)" d="M194.441,357.061c-0.172,0.41-0.345,0.82-0.517,1.229c-0.53,1.259,0.561,2.75,1.746,3.077
		c0.645,0.176,1.349,0.086,1.926-0.252c0.618-0.363,0.883-0.863,1.149-1.494c0.173-0.411,0.345-0.821,0.517-1.23
		c0.529-1.26-0.559-2.749-1.746-3.076c-0.645-0.177-1.349-0.086-1.926,0.253C194.974,355.929,194.708,356.429,194.441,357.061"/>
	<path clip-path="url(#SVGID_2_)" d="M198.863,372.643c3.224,0,3.224-5,0-5S195.639,372.643,198.863,372.643"/>
	<path clip-path="url(#SVGID_2_)" d="M197.589,382.252c-0.344,0.818-0.688,1.639-1.033,2.457c-0.53,1.258,0.56,2.75,1.746,3.076
		c0.645,0.175,1.349,0.086,1.926-0.254c0.618-0.362,0.883-0.862,1.149-1.492c0.345-0.82,0.689-1.639,1.033-2.457
		c0.53-1.26-0.56-2.75-1.746-3.076c-0.645-0.178-1.349-0.086-1.926,0.252C198.121,381.119,197.855,381.619,197.589,382.252"/>
	<path clip-path="url(#SVGID_2_)" d="M198.86,401.587c-0.464,1.309-0.242,2.902-0.152,4.254c0.09,1.359,1.069,2.499,2.5,2.499
		c1.295,0,2.589-1.138,2.5-2.499c-0.042-0.625-0.081-1.252-0.099-1.879c-0.009-0.303-0.003-0.604,0.013-0.904
		c0.027-0.533-0.161,0.48,0.059-0.141c0.456-1.285-0.504-2.734-1.746-3.076C200.549,399.461,199.316,400.306,198.86,401.587"/>
	<path clip-path="url(#SVGID_2_)" d="M201.234,417.027c0.034,0.758-0.067,1.512-0.045,2.268c0.036,1.312,0.534,2.334,1.329,3.35
		c0.841,1.076,2.66,0.875,3.535,0c1.052-1.051,0.839-2.463,0-3.535c0.087,0.111,0.272,0.594,0.134,0.133
		c-0.059-0.285-0.058-0.268,0.002,0.053c-0.007-0.141-0.009-0.281-0.004-0.422c0.006-0.616,0.076-1.227,0.049-1.846
		c-0.061-1.361-1.091-2.5-2.5-2.5C202.417,414.527,201.173,415.666,201.234,417.027"/>
	<path clip-path="url(#SVGID_2_)" d="M202.372,429.802c0.065,0.808,0.188,1.392,0.503,2.123c0.347,0.81,1.062,1.257,1.836,1.582
		c1.353,0.57,2.781-0.336,3.773-1.161c1.048-0.873,0.898-2.64,0-3.535c-1.029-1.029-2.49-0.873-3.535,0
		c-0.21,0.172-0.153,0.129,0.171-0.129c-0.096,0.067-0.198,0.127-0.301,0.182c0.447-0.17,0.557-0.221,0.328-0.149
		c0.368-0.108,0.581-0.101,0.956-0.002c0.888,0.623,1.179,0.785,0.872,0.485c0.098,0.123,0.197,0.248,0.296,0.373
		c-0.109-0.213-0.063-0.103,0.139,0.332c-0.023-0.073-0.042-0.146-0.057-0.219c-0.112-0.479,0.063,0.664,0.019,0.118
		c-0.109-1.356-1.055-2.5-2.5-2.5C203.592,427.302,202.263,428.441,202.372,429.802"/>
	<path clip-path="url(#SVGID_2_)" d="M213.196,435.089c0.835,0.921,1.891,1.394,3.122,1.46c0.999,0.055,1.998-0.386,2.9-0.753
		c1.261-0.514,2.14-1.644,1.746-3.075c-0.33-1.197-1.81-2.261-3.075-1.746c-0.58,0.235-1.158,0.481-1.771,0.617
		c0.4-0.041,0.467-0.056,0.2-0.043c0.422,0.077,0.502,0.088,0.238,0.026c0.368,0.174,0.433,0.196,0.195,0.065
		c0.528,0.308,0.127,0.073-0.02-0.086c-0.916-1.011-2.607-0.931-3.535,0C212.198,432.553,212.28,434.081,213.196,435.089"/>
	<path clip-path="url(#SVGID_2_)" d="M225.133,429.294c0.086-0.204,0.172-0.409,0.259-0.614c0.529-1.261-0.56-2.75-1.746-3.076
		c-0.645-0.178-1.349-0.086-1.927,0.252c-0.617,0.361-0.882,0.861-1.148,1.494c-0.087,0.205-0.173,0.41-0.259,0.615
		c-0.53,1.258,0.56,2.75,1.746,3.075c0.645,0.177,1.349,0.086,1.926-0.254C224.602,430.426,224.867,429.926,225.133,429.294"/>
	<path clip-path="url(#SVGID_2_)" d="M227.085,419.096c-0.409-0.199,0.454,0.439,0.12,0.117c0.08,0.105,0.159,0.211,0.238,0.314
		c-0.127-0.223-0.099-0.133,0.085,0.266c-0.09-0.22-0.048-0.578-0.002,0.182c-0.028-0.463-0.156,0.629-0.004,0.199
		c0.456-1.285-0.504-2.734-1.746-3.076c-1.386-0.381-2.62,0.465-3.075,1.746c-0.585,1.65,0.289,3.801,1.861,4.568
		c1.224,0.6,2.694,0.344,3.42-0.896C228.632,421.407,228.309,419.695,227.085,419.096"/>
	<path clip-path="url(#SVGID_2_)" d="M228.521,411.309c-0.139-0.34-0.274-0.682-0.388-1.03c-0.052-0.158-0.087-0.321-0.12-0.485
		c0.044,0.411,0.064,0.485,0.058,0.219c-0.08,0.431-0.081,0.521-0.003,0.267c0.446-1.289-0.497-2.733-1.746-3.076
		c-1.378-0.379-2.63,0.461-3.075,1.746c-0.429,1.24-0.018,2.537,0.453,3.69c0.258,0.632,0.536,1.136,1.149,1.492
		c0.577,0.34,1.281,0.431,1.926,0.254C227.972,414.055,229.037,412.573,228.521,411.309"/>
	<path clip-path="url(#SVGID_2_)" d="M229.887,393.515c-0.409-0.199,0.454,0.439,0.12,0.119c0.08,0.106,0.159,0.209,0.238,0.315
		c-0.127-0.223-0.099-0.135,0.085,0.263c-0.09-0.22-0.048-0.578-0.002,0.182c-0.028-0.463-0.156,0.629-0.004,0.199
		c0.454-1.285-0.503-2.732-1.747-3.076c-1.384-0.381-2.621,0.463-3.075,1.746c-0.583,1.65,0.289,3.801,1.862,4.57
		c1.224,0.601,2.694,0.342,3.42-0.896C231.434,395.828,231.111,394.115,229.887,393.515"/>
	<path clip-path="url(#SVGID_2_)" d="M230.834,378.291c-0.356-0.871-0.712-1.744-1.068-2.617c-0.515-1.261-1.643-2.14-3.076-1.746
		c-1.196,0.328-2.261,1.811-1.746,3.076c0.356,0.871,0.712,1.744,1.069,2.617c0.258,0.633,0.535,1.135,1.149,1.494
		c0.577,0.338,1.281,0.43,1.926,0.252C230.284,381.039,231.351,379.557,230.834,378.291"/>
	<path clip-path="url(#SVGID_2_)" d="M226.414,369.042c3.224,0,3.224-5,0-5S223.189,369.042,226.414,369.042"/>
	<path clip-path="url(#SVGID_2_)" d="M229.03,357.72c-0.409-0.2,0.454,0.438,0.12,0.117c0.08,0.106,0.159,0.21,0.239,0.315
		c-0.128-0.223-0.099-0.135,0.084,0.264c-0.089-0.22-0.048-0.579-0.002,0.182c-0.028-0.463-0.156,0.629-0.004,0.2
		c0.455-1.286-0.504-2.734-1.747-3.076c-1.385-0.381-2.621,0.463-3.075,1.746c-0.583,1.649,0.29,3.8,1.862,4.568
		c1.224,0.6,2.694,0.343,3.42-0.896C230.577,360.031,230.254,358.319,229.03,357.72"/>
	<path clip-path="url(#SVGID_2_)" d="M226.921,343.815c-0.223-0.12-0.159-0.058,0.19,0.187c-0.362-0.297,0.313,0.506,0.08,0.092
		c0.05,0.117,0.101,0.234,0.151,0.352c-0.064-0.261-0.056-0.168,0.022,0.278c-0.041-0.475-0.16,0.611-0.006,0.169
		c0.451-1.287-0.499-2.732-1.746-3.075c-1.381-0.38-2.625,0.461-3.075,1.746c-0.579,1.656,0.286,3.79,1.861,4.568
		c1.221,0.604,2.696,0.339,3.42-0.897C228.47,346.123,228.142,344.419,226.921,343.815"/>
	<path clip-path="url(#SVGID_2_)" d="M227.174,329.458c-0.688-0.379-0.401,0.173,0.86,1.658c0.007-0.254-0.008-0.147-0.046,0.32
		c0.048-0.222,0.15-0.435,0.237-0.643c0.527-1.259-0.559-2.748-1.746-3.075c-0.645-0.177-1.349-0.086-1.927,0.252
		c-0.616,0.362-0.884,0.862-1.149,1.494c-0.65,1.554-0.398,3.469,1.248,4.311c1.212,0.621,2.703,0.327,3.42-0.897
		C228.73,331.753,228.386,330.078,227.174,329.458"/>
	<path clip-path="url(#SVGID_2_)" d="M232.038,326.199c1.045-0.395,2.189-0.415,3.233-0.81c1.274-0.482,2.134-1.669,1.746-3.075
		c-0.335-1.221-1.799-2.229-3.075-1.746c-1.044,0.395-2.188,0.415-3.233,0.81c-1.274,0.481-2.133,1.669-1.746,3.075
		C229.299,325.675,230.762,326.681,232.038,326.199"/>
	<path clip-path="url(#SVGID_2_)" d="M241.415,327.52c0.085,0.226,0.158,0.813,0.07-0.014c0.006,0.084,0.007,0.168,0.002,0.252
		c0.072-0.451,0.083-0.544,0.031-0.277c-0.1,0.493-0.329,0.965-0.522,1.426c-0.529,1.259,0.559,2.749,1.746,3.075
		c0.645,0.178,1.349,0.086,1.926-0.252c0.617-0.362,0.883-0.862,1.149-1.494c0.544-1.295,0.941-2.66,0.419-4.045
		c-0.48-1.274-1.67-2.133-3.075-1.746C241.938,324.781,240.934,326.244,241.415,327.52"/>
	<path clip-path="url(#SVGID_2_)" d="M244.305,351.994c-0.778,2.068-0.475,4.219-0.313,6.357c0.102,1.359,1.059,2.5,2.5,2.5
		c1.285,0,2.603-1.139,2.5-2.5c-0.128-1.688-0.479-3.399,0.134-5.027c0.481-1.277-0.523-2.739-1.746-3.076
		C245.975,349.862,244.784,350.721,244.305,351.994"/>
	<path clip-path="url(#SVGID_2_)" d="M246.028,373.692c-0.623,1.484-1.09,2.979-1.025,4.611c0.053,1.361,1.096,2.5,2.5,2.5
		c1.322,0,2.553-1.139,2.5-2.5c-0.012-0.291-0.009-0.574,0.01-0.863c-0.019,0.289,0.143-0.559,0.175-0.672
		c0.168-0.597,0.421-1.174,0.661-1.746c0.529-1.26-0.559-2.75-1.746-3.076C247.661,371.549,246.555,372.436,246.028,373.692"/>
	<path clip-path="url(#SVGID_2_)" d="M245.776,388.048c-0.543,1.295-0.941,2.662-0.419,4.047c0.48,1.273,1.669,2.133,3.075,1.746
		c1.222-0.336,2.227-1.799,1.746-3.076c-0.085-0.225-0.158-0.813-0.07,0.013c-0.006-0.084-0.007-0.167-0.002-0.251
		c-0.072,0.453-0.083,0.544-0.031,0.277c0.1-0.492,0.329-0.965,0.522-1.426c0.529-1.26-0.559-2.748-1.746-3.076
		c-0.645-0.175-1.349-0.086-1.926,0.252C246.308,386.917,246.041,387.417,245.776,388.048"/>
	<path clip-path="url(#SVGID_2_)" d="M247.634,404.72c0.106,1.375,0.382,2.627,0.899,3.898c0.513,1.26,1.644,2.139,3.076,1.746
		c1.197-0.33,2.26-1.812,1.746-3.076c-0.163-0.402-0.321-0.805-0.452-1.217c-0.074-0.234-0.13-0.473-0.184-0.711
		c-0.027-0.133-0.052-0.264-0.074-0.398c0.106,0.612-0.005-0.164-0.011-0.242c-0.104-1.359-1.058-2.5-2.5-2.5
		C248.85,402.22,247.53,403.358,247.634,404.72"/>
	<path clip-path="url(#SVGID_2_)" d="M252.371,414.88c-1.772,0.778-2.603,2.87-1.924,4.667c0.482,1.273,1.669,2.133,3.075,1.747
		c1.223-0.339,2.229-1.802,1.746-3.077c-0.049-0.13-0.089-0.257-0.123-0.395c0.045,0.463,0.064,0.566,0.059,0.311
		c-0.087,0.479-0.097,0.594-0.028,0.348c-0.054,0.135-0.107,0.272-0.16,0.406c-0.296,0.352-0.355,0.436-0.177,0.254
		c-0.512,0.5-0.212,0.174,0.055,0.057c1.249-0.549,1.526-2.348,0.897-3.42c-0.327-0.558-0.869-0.978-1.494-1.149
		C253.591,414.435,253.015,414.599,252.371,414.88"/>
	<path clip-path="url(#SVGID_2_)" d="M259.148,427.11l1.229,0.517c1.259,0.529,2.749-0.562,3.075-1.746
		c0.178-0.646,0.087-1.35-0.252-1.926c-0.362-0.619-0.862-0.883-1.494-1.15l-1.229-0.516c-1.259-0.529-2.749,0.559-3.075,1.746
		c-0.178,0.645-0.087,1.35,0.252,1.926C258.015,426.578,258.516,426.845,259.148,427.11"/>
	<path clip-path="url(#SVGID_2_)" d="M260.477,427.11c2.56-0.493,5.087-1.084,7.323-2.487c2.722-1.711,0.215-6.037-2.524-4.318
		c-1.866,1.174-3.991,1.572-6.128,1.984c-1.339,0.258-2.086,1.84-1.746,3.076C257.784,426.754,259.14,427.369,260.477,427.11"/>
	<path clip-path="url(#SVGID_2_)" d="M273.617,413.353c-0.687-0.38-0.4,0.172,0.861,1.657c0.007-0.254-0.008-0.147-0.047,0.319
		c0.049-0.221,0.151-0.434,0.238-0.643c0.527-1.261-0.559-2.748-1.746-3.076c-0.645-0.177-1.349-0.086-1.927,0.252
		c-0.616,0.36-0.884,0.862-1.149,1.494c-0.651,1.557-0.399,3.468,1.247,4.313c1.211,0.623,2.704,0.324,3.42-0.896
		C275.174,415.647,274.828,413.975,273.617,413.353"/>
	<path clip-path="url(#SVGID_2_)" d="M276.218,409.671c-0.237-0.582-0.474-1.164-0.712-1.746c-0.258-0.633-0.536-1.135-1.149-1.494
		c-0.577-0.338-1.281-0.43-1.926-0.252c-1.196,0.328-2.262,1.81-1.746,3.076c0.238,0.582,0.475,1.164,0.712,1.745
		c0.257,0.634,0.536,1.136,1.149,1.494c0.577,0.338,1.281,0.431,1.926,0.252C275.67,412.416,276.732,410.937,276.218,409.671"/>
	<path clip-path="url(#SVGID_2_)" d="M274.145,398.386c0.397,0.175,0.492,0.212,0.284,0.113c-0.851-0.494-0.533,0.334,0.956,2.486
		c0.024-0.137,0.097-0.271,0.15-0.396c0.525-1.262-0.557-2.75-1.746-3.076c-0.645-0.178-1.35-0.086-1.927,0.252
		c-0.616,0.361-0.885,0.861-1.149,1.494c-0.335,0.805-0.347,1.725,0.103,2.496c0.479,0.82,1.179,1.105,2,1.453
		c0.58,0.244,1.41,0.049,1.926-0.254c0.559-0.326,0.977-0.869,1.149-1.492c0.178-0.646,0.087-1.35-0.252-1.928
		C275.277,398.917,274.777,398.654,274.145,398.386"/>
	<path clip-path="url(#SVGID_2_)" d="M275.741,391.103c-0.409-0.199,0.454,0.439,0.12,0.117c0.08,0.106,0.159,0.211,0.238,0.315
		c-0.127-0.223-0.099-0.135,0.085,0.265c-0.09-0.22-0.048-0.58-0.002,0.18c-0.028-0.463-0.156,0.629-0.004,0.201
		c0.455-1.287-0.504-2.734-1.747-3.076c-1.385-0.381-2.62,0.463-3.075,1.746c-0.584,1.648,0.29,3.801,1.862,4.568
		c1.224,0.6,2.694,0.344,3.42-0.896C277.288,393.414,276.965,391.703,275.741,391.103"/>
	<path clip-path="url(#SVGID_2_)" d="M275.218,378.588c-0.577-0.295,0.779,1.021,0.493,0.518c0.184,0.443,0.228,0.548,0.132,0.318
		c-0.09-0.232-0.188-0.463-0.294-0.69c-0.248-0.531-0.787-1.013-1.301-1.277c-1.214-0.617-2.703-0.326-3.421,0.899
		c-0.658,1.123-0.316,2.8,0.897,3.42c0.578,0.294-0.779-1.022-0.493-0.516c-0.184-0.445-0.228-0.551-0.132-0.32
		c0.09,0.232,0.188,0.462,0.295,0.689c0.247,0.531,0.787,1.014,1.301,1.277c1.213,0.621,2.703,0.327,3.42-0.896
		C276.774,380.885,276.43,379.209,275.218,378.588"/>
	<path clip-path="url(#SVGID_2_)" d="M276.039,370.543c-0.061-0.166-0.11-0.326-0.149-0.496c0.171,0.74,0.021,0.113,0.007-0.094
		c-0.04-0.597-0.103-1.205-0.311-1.769c-0.472-1.278-1.676-2.131-3.075-1.746c-1.229,0.338-2.22,1.794-1.746,3.076
		c0.061,0.164,0.109,0.324,0.149,0.496c-0.172-0.742-0.021-0.115-0.007,0.092c0.039,0.597,0.102,1.207,0.311,1.771
		c0.471,1.275,1.676,2.131,3.075,1.746C275.522,373.279,276.512,371.822,276.039,370.543"/>
	<path clip-path="url(#SVGID_2_)" d="M275.684,360.161c0.169,0.232,0.18,0.241,0.034,0.027c-0.135-0.249-0.121-0.193,0.041,0.166
		c-0.155-0.391-0.029,0.641,0.009-0.012c-0.045,0.786,0.01,0.184,0.092-0.051c0.079-0.229,0.178-0.45,0.271-0.672
		c0.529-1.26-0.56-2.749-1.746-3.076c-1.443-0.397-2.549,0.491-3.076,1.746c-0.314,0.749-0.566,1.493-0.545,2.322
		c0.03,1.222,0.636,2.175,1.385,3.085c0.867,1.053,2.642,0.893,3.535,0C276.717,362.663,276.549,361.212,275.684,360.161"/>
	<path clip-path="url(#SVGID_2_)" d="M277.308,351.263c-0.409-0.2,0.454,0.438,0.12,0.118c0.08,0.105,0.159,0.209,0.238,0.315
		c-0.127-0.223-0.099-0.135,0.085,0.263c-0.09-0.22-0.048-0.578-0.002,0.182c-0.028-0.464-0.156,0.628-0.004,0.199
		c0.456-1.286-0.503-2.734-1.746-3.076c-1.385-0.381-2.621,0.463-3.075,1.746c-0.584,1.649,0.287,3.802,1.861,4.569
		c1.224,0.598,2.693,0.344,3.42-0.896C278.854,353.575,278.532,351.86,277.308,351.263"/>
	<path clip-path="url(#SVGID_2_)" d="M276.543,339.37c0.754,0.318,0.04,0.012-0.125-0.068c-0.241-0.116-0.677-0.508-0.001,0.067
		c-0.171-0.174-0.095-0.069,0.23,0.317c-0.014-0.024-0.027-0.046-0.04-0.07c0.177,0.289,0.264,0.603,0.262,0.941
		c-0.037-0.407-0.141,0.705-0.037,0.259c0.029-0.129,0.082-0.253,0.13-0.376c0.505-1.268-0.541-2.743-1.746-3.075
		c-1.423-0.391-2.572,0.481-3.075,1.746c-0.392,0.988-0.399,2.268,0.235,3.164c0.736,1.042,1.708,1.44,2.838,1.916
		c1.258,0.531,2.749-0.56,3.075-1.746c0.178-0.645,0.087-1.349-0.252-1.926C277.675,339.901,277.175,339.637,276.543,339.37"/>
	<path clip-path="url(#SVGID_2_)" d="M277.962,331.576c-0.061-0.165-0.11-0.326-0.15-0.497c0.172,0.741,0.021,0.114,0.007-0.093
		c-0.04-0.598-0.102-1.206-0.311-1.771c-0.472-1.277-1.676-2.131-3.075-1.746c-1.229,0.338-2.22,1.796-1.746,3.075
		c0.061,0.165,0.109,0.326,0.149,0.497c-0.172-0.741-0.02-0.113-0.007,0.094c0.04,0.598,0.103,1.206,0.312,1.77
		c0.472,1.277,1.675,2.131,3.075,1.746C277.444,334.313,278.437,332.855,277.962,331.576"/>
	<path clip-path="url(#SVGID_2_)" d="M278.863,323.882c0.173-0.41,0.345-0.819,0.518-1.229c0.529-1.259-0.56-2.749-1.747-3.075
		c-0.645-0.178-1.349-0.087-1.926,0.252c-0.617,0.362-0.883,0.862-1.149,1.494c-0.172,0.41-0.344,0.819-0.517,1.229
		c-0.531,1.258,0.561,2.749,1.746,3.075c0.645,0.178,1.349,0.087,1.926-0.252C278.332,325.014,278.596,324.514,278.863,323.882"/>
	<path clip-path="url(#SVGID_2_)" d="M286.525,316.374c-0.097-0.238-0.201-0.475-0.263-0.724c0.023,0.17,0.047,0.34,0.071,0.511
		c-0.096,0.542-0.115,0.689-0.056,0.443c0.033-0.133,0.097-0.263,0.149-0.389c0.528-1.259-0.558-2.748-1.746-3.075
		c-0.645-0.178-1.349-0.086-1.926,0.252c-0.617,0.361-0.884,0.861-1.149,1.494c-0.397,0.948-0.279,1.89,0.099,2.817
		c0.258,0.633,0.536,1.135,1.149,1.494c0.577,0.339,1.281,0.43,1.926,0.252C285.977,319.12,287.042,317.638,286.525,316.374"/>
	<path clip-path="url(#SVGID_2_)" d="M293.198,310.915c1.354-0.6,1.996-1.793,2.538-3.08c0.245-0.58,0.05-1.41-0.252-1.926
		c-0.327-0.559-0.869-0.977-1.494-1.149c-0.645-0.178-1.349-0.086-1.926,0.252c-0.618,0.362-0.883,0.862-1.149,1.494
		c0.356-0.845-0.042,0.042-0.177,0.244c0.396-0.591,0.223-0.289,0.057-0.136c0.534-0.492,0.112-0.119-0.12-0.016
		c-1.247,0.552-1.527,2.344-0.897,3.42C290.523,311.29,291.952,311.467,293.198,310.915"/>
	<path clip-path="url(#SVGID_2_)" d="M299.791,297.798c-0.092-0.039-0.183-0.078-0.273-0.119c-0.45-0.205,0.448,0.419,0.218,0.199
		c0.468,0.448,0.364,0.514,0.227,0.258c-0.278-0.523,0.208,0.519,0.006,0.025c-0.259-0.633-0.536-1.135-1.149-1.494
		c-0.577-0.339-1.281-0.43-1.926-0.252c-1.196,0.328-2.264,1.811-1.747,3.075c0.465,1.136,0.919,2.118,2.121,2.625
		c0.651,0.275,1.212,0.449,1.926,0.252c0.625-0.172,1.166-0.59,1.494-1.149C301.309,300.158,301.047,298.329,299.791,297.798"/>
	<path clip-path="url(#SVGID_2_)" d="M297.717,288.971c-0.213-0.104-0.397-0.331,0.117,0.126c-0.057-0.055-0.11-0.112-0.16-0.173
		c0.268,0.36,0.333,0.44,0.196,0.238c-0.164-0.248-0.447-0.95,0.025,0.172c-0.266-0.632-0.531-1.132-1.149-1.494
		c-0.577-0.338-1.281-0.43-1.926-0.252c-1.186,0.326-2.276,1.817-1.746,3.075c0.443,1.054,1.042,2.099,2.12,2.625
		c1.224,0.599,2.694,0.343,3.42-0.897C299.264,291.282,298.941,289.57,297.717,288.971"/>
	<path clip-path="url(#SVGID_2_)" d="M295.965,275.939c-0.218-0.098-0.746-0.503-0.139,0.006c-0.179-0.187-0.113-0.099,0.197,0.263
		c0.17,0.285,0.254,0.593,0.253,0.926c-0.029-0.364-0.175,0.759-0.012,0.232c0.037-0.119,0.089-0.235,0.138-0.35
		c0.527-1.26-0.559-2.749-1.747-3.076c-0.645-0.177-1.349-0.086-1.926,0.252c-0.617,0.362-0.884,0.862-1.149,1.495
		c-0.759,1.814,0.078,3.768,1.862,4.569c1.243,0.559,2.677,0.371,3.42-0.897C297.495,278.279,297.209,276.499,295.965,275.939"/>
	<path clip-path="url(#SVGID_2_)" d="M297.206,265.178c-0.139-0.341-0.274-0.682-0.388-1.031c-0.052-0.159-0.088-0.322-0.12-0.485
		c0.044,0.411,0.063,0.483,0.057,0.217c-0.08,0.431-0.081,0.52-0.003,0.267c0.446-1.288-0.496-2.73-1.746-3.075
		c-1.378-0.379-2.631,0.46-3.075,1.746c-0.429,1.239-0.017,2.535,0.454,3.69c0.258,0.633,0.536,1.135,1.149,1.494
		c0.577,0.339,1.281,0.43,1.926,0.252C296.657,267.924,297.721,266.442,297.206,265.178"/>
	<path clip-path="url(#SVGID_2_)" d="M296.762,251.686c-0.13-0.055-0.26-0.109-0.384-0.179c2.004,1.121,0.601,3.507,1.176,2.13
		c0.527-1.26-0.558-2.749-1.746-3.076c-0.645-0.177-1.349-0.086-1.926,0.252c-0.617,0.362-0.885,0.862-1.149,1.495
		c-0.615,1.472,0.037,3.074,1.506,3.695c0.65,0.276,1.213,0.449,1.926,0.252c0.625-0.172,1.167-0.59,1.494-1.149
		C298.281,254.044,298.018,252.218,296.762,251.686"/>
	<path clip-path="url(#SVGID_2_)" d="M297.297,243.41c-0.17-0.199-0.341-0.397-0.509-0.598c-0.417-0.497,0.337,0.48,0.028,0.037
		c-0.073-0.103-0.134-0.214-0.191-0.327c-0.038-0.073-0.071-0.149-0.104-0.224c0.36,0.819,0.167,0.393,0.092,0.211
		c-0.258-0.633-0.536-1.136-1.149-1.495c-0.577-0.338-1.281-0.429-1.926-0.251c-1.197,0.329-2.262,1.811-1.746,3.075
		c0.201,0.494,0.379,1.014,0.663,1.47c0.366,0.587,0.857,1.113,1.307,1.637c0.888,1.035,2.627,0.908,3.535,0
		C298.315,245.928,298.184,244.443,297.297,243.41"/>
	<path clip-path="url(#SVGID_2_)" d="M295.74,233.354c0.354,0.437-0.105-0.236-0.161-0.346c0.283,0.559-0.007-0.121-0.045-0.277
		c-0.051-0.281-0.045-0.225,0.017,0.171c-0.008-0.1-0.012-0.201-0.011-0.302c0.016-0.278-0.003-0.189-0.054,0.266
		c0.015-0.109,0.049-0.211,0.087-0.313c0.471-1.281-0.515-2.737-1.746-3.075c-1.397-0.385-2.606,0.468-3.075,1.746
		c-0.719,1.953,0.236,4.163,1.453,5.665c0.859,1.061,2.647,0.888,3.535,0C296.779,235.851,296.597,234.412,295.74,233.354"/>
	<path clip-path="url(#SVGID_2_)" d="M294.631,221.425c-0.139-0.341-0.274-0.682-0.388-1.031c-0.052-0.159-0.088-0.322-0.12-0.485
		c0.044,0.411,0.063,0.483,0.057,0.218c-0.08,0.431-0.081,0.52-0.004,0.266c0.445-1.289-0.495-2.731-1.746-3.075
		c-1.377-0.379-2.631,0.459-3.075,1.746c-0.428,1.24-0.015,2.535,0.455,3.69c0.257,0.633,0.536,1.135,1.149,1.494
		c0.577,0.339,1.281,0.43,1.926,0.252C294.083,224.171,295.145,222.69,294.631,221.425"/>
	<path clip-path="url(#SVGID_2_)" d="M294.274,211.041c-0.161-0.188-0.322-0.377-0.481-0.567c-0.185-0.232-0.207-0.256-0.066-0.072
		c-0.097-0.129-0.189-0.261-0.279-0.395c-0.054-0.079-0.491-0.892-0.304-0.449c-0.048-0.114-0.224-0.975-0.176-0.499
		c-0.135-1.356-1.035-2.5-2.5-2.5c-1.261,0-2.635,1.141-2.5,2.5c0.223,2.25,1.334,3.84,2.771,5.517c0.887,1.036,2.628,0.908,3.535,0
		C295.293,213.558,295.16,212.075,294.274,211.041"/>
	<path clip-path="url(#SVGID_2_)" d="M290.03,198.952c0.754,0.317,0.04,0.012-0.125-0.068c-0.241-0.116-0.678-0.508-0.001,0.067
		c-0.171-0.174-0.095-0.068,0.229,0.317c-0.013-0.023-0.026-0.046-0.039-0.069c0.177,0.288,0.264,0.602,0.262,0.941
		c-0.038-0.407-0.142,0.705-0.038,0.259c0.03-0.129,0.082-0.253,0.131-0.376c0.505-1.268-0.542-2.743-1.746-3.075
		c-1.424-0.392-2.572,0.481-3.075,1.746c-0.393,0.987-0.399,2.268,0.235,3.164c0.735,1.041,1.707,1.44,2.838,1.915
		c1.259,0.53,2.749-0.56,3.075-1.746c0.178-0.645,0.087-1.349-0.252-1.926C291.162,199.482,290.662,199.218,290.03,198.952"/>
	<path clip-path="url(#SVGID_2_)" d="M284.464,191.548c-1.434-0.603-2.868-1.206-4.302-1.809c-1.259-0.529-2.749,0.56-3.075,1.747
		c-0.397,1.442,0.49,2.547,1.746,3.075c1.434,0.602,2.868,1.206,4.302,1.808c1.259,0.53,2.749-0.56,3.075-1.746
		C286.607,193.182,285.719,192.075,284.464,191.548"/>
	<path clip-path="url(#SVGID_2_)" d="M267.513,185.703c-1.912,0.779-3.824,1.468-5.853,1.878c-1.336,0.27-2.088,1.831-1.746,3.076
		c0.38,1.38,1.741,2.016,3.076,1.746c2.028-0.41,3.94-1.099,5.852-1.879c1.261-0.513,2.14-1.643,1.746-3.075
		C270.259,186.251,268.777,185.188,267.513,185.703"/>
</g>
</svg>
