<svg xmlns="http://www.w3.org/2000/svg" viewBox="0 0 591.79 560.38"><defs><style>.cls-1,.cls-2,.cls-3{fill:none;stroke-miterlimit:10;stroke-width:2px;}.cls-1{stroke:#e84426;}.cls-2{stroke:#f2a9ba;}.cls-3{stroke:#db913a;}</style></defs><g id="Layer_2" data-name="Layer 2"><g id="graphic_motifs" data-name="graphic motifs"><path class="cls-1" d="M158.64,8.5c118,66.86,114.92,184.56,70.73,228.58-47,46.81-157,91.82-210.22,61.41S44.54,212.84,66.7,133.26,98.6-23.75,158.64,8.5Z"/><path class="cls-2" d="M168.61,207.14c110.73-78.3,137.57,39.29,142,101.81,6,84.4,74.79,129.48,37.85,158.11C300,504.6,209.94,452.17,147.36,398.25S113.86,247.74,168.61,207.14Z"/><path class="cls-3" d="M364.36,453.71c124.67,53.39,185.55-64.8,189-132.89,2.44-48.42,13.7-129.81-42.74-153.74s-157.13,38.38-207,104.2S302.33,425.47,364.36,453.71Z"/><path class="cls-3" d="M590.79,427.74c-.95-135.61-133.63-144.13-197.41-120C348,324.83,268.93,347.08,269.58,408.38s98,128.65,178.34,148S589.73,495.89,590.79,427.74Z"/></g></g></svg>