<svg xmlns="http://www.w3.org/2000/svg" viewBox="0 0 591.79 585.97"><defs><style>.cls-1,.cls-2,.cls-3,.cls-4{fill:none;stroke-miterlimit:10;stroke-width:2px;}.cls-1{stroke:#33756b;}.cls-2{stroke:#f2a9ba;}.cls-3{stroke:#db913a;}.cls-4{stroke:#e84426;}</style></defs><g id="Layer_2" data-name="Layer 2"><g id="graphic_motifs" data-name="graphic motifs"><path class="cls-1" d="M66.22,441.85c-113.86-73.67-53.58-152.93-6.88-194.27,49.66-44,111.81-120.52,163.16-87s55.81,151.82,29,230S124.27,477.57,66.22,441.85Z"/><path class="cls-2" d="M189,312.34c110.73-78.29,137.57,39.3,142,101.81,6,84.4,74.8,129.49,37.85,158.11-48.46,37.55-138.55-14.88-201.13-68.81S134.26,352.94,189,312.34Z"/><path class="cls-3" d="M533.26,181.19c-56,123.53-144.66,79.77-180.61,45.13-40.74-39.25-146.26-102.23-120.75-158S373.76-9.36,455,5.55,560,118.49,533.26,181.19Z"/><path class="cls-4" d="M251.44,461.09c124.67,53.39,185.56-64.8,189-132.89,2.45-48.43,13.7-129.82-42.74-153.75s-157.13,38.38-207,104.21S189.41,432.85,251.44,461.09Z"/><path class="cls-2" d="M477.88,435.12c-.95-135.61-133.63-144.13-197.41-120C235.11,332.21,156,354.46,156.66,415.76s98,128.65,178.34,148S476.81,503.27,477.88,435.12Z"/></g></g></svg>